<?xml version="1.0" encoding="UTF-8"?>
<svg version="1.1" xmlns="http://www.w3.org/2000/svg" width="500" height="500">
<path d="M0 0 C165 0 330 0 500 0 C500 165 500 330 500 500 C335 500 170 500 0 500 C0 335 0 170 0 0 Z " fill="#FEEFF2" transform="translate(0,0)"/>
<path d="M0 0 C13.53868074 0.65509746 25.16230959 6.3316977 34.44140625 16.16796875 C42.52234692 25.66661831 45.63004016 36.45475891 45.2734375 48.83984375 C44.95557697 52.51340326 44.30906987 55.56369158 43 59 C43.969375 59.165 44.93875 59.33 45.9375 59.5 C51.7662513 61.14156669 56.93861053 65.87865316 60.23828125 70.875 C62.89236248 78.27920609 61.4164329 86.89123939 58.1953125 93.8515625 C52.74120373 103.65469919 43.86428613 108.40135874 33.34375 111.44775391 C19.74060993 114.65299379 5.88021092 114.31438162 -8 114.25 C-9.09640808 114.24822754 -10.19281616 114.24645508 -11.32244873 114.24462891 C-29.29852926 114.21053674 -47.08930158 113.48308758 -65 112 C-64.79812576 112.61593018 -64.59625153 113.23186035 -64.38825989 113.86645508 C-62.26135327 120.35650454 -60.13599256 126.84705885 -58.01147461 133.33789062 C-57.22149552 135.75077729 -56.43114013 138.16354079 -55.64038086 140.57617188 C-48.05419439 163.72339738 -48.05419439 163.72339738 -44.94921875 173.5625 C-44.56467529 174.78066406 -44.18013184 175.99882812 -43.78393555 177.25390625 C-43 180 -43 180 -43 182 C-32.34300375 181.89260847 -21.68607681 181.77999762 -11.02920723 181.66066074 C-6.08118064 181.60541753 -1.13314815 181.55199528 3.81494141 181.50268555 C8.58712142 181.45506263 13.35922816 181.40272058 18.13132095 181.34705925 C19.95502023 181.32662629 21.7787396 181.30791478 23.60247421 181.29092598 C26.1502588 181.26690278 28.69790422 181.23684544 31.24560547 181.20532227 C32.00517548 181.1995668 32.76474548 181.19381134 33.54733276 181.18788147 C37.40119408 181.20110112 37.40119408 181.20110112 41 180 C41.5791852 177.97866458 41.5791852 177.97866458 41.89453125 175.48046875 C42.0430957 174.4941748 42.19166016 173.50788086 42.34472656 172.49169922 C42.4990918 171.40131348 42.65345703 170.31092773 42.8125 169.1875 C42.9784668 168.06359863 43.14443359 166.93969727 43.31542969 165.78173828 C43.88983684 161.85627142 44.44728551 157.92856358 45 154 C45.10866394 153.22976501 45.21732788 152.45953003 45.32928467 151.66595459 C46.91113302 140.44739012 48.46491764 129.22505283 50 118 C50.99 118 51.98 118 53 118 C51.58474289 130.27925545 50.10821092 142.5503545 48.50537109 154.80664062 C48.24911708 156.7895664 47.99924387 158.77332596 47.75537109 160.7578125 C47.3967109 163.66889813 47.01700174 166.57656255 46.6328125 169.484375 C46.52848907 170.36768494 46.42416565 171.25099487 46.31668091 172.16107178 C45.6422689 177.07289044 45.01469869 180.701238 41 184 C38.26897671 184.5253913 36.14088335 184.72194407 33.40625 184.70703125 C32.64274231 184.72246979 31.87923462 184.73790833 31.09259033 184.7538147 C28.56138589 184.79828017 26.03156736 184.80655527 23.5 184.8125 C21.73207953 184.83123823 19.96417489 184.85152826 18.19628906 184.87329102 C14.44006833 184.9149779 10.6841468 184.9399707 6.92773438 184.95605469 C1.87722978 184.98352816 -3.1697741 185.07787458 -8.21899414 185.19166565 C-12.25067026 185.27831055 -16.28246286 185.33809842 -20.31469727 185.39193726 C-22.26782838 185.42225441 -24.22083693 185.46195334 -26.17358398 185.51113892 C-28.91309461 185.57657029 -31.65044611 185.60354694 -34.390625 185.62109375 C-35.20553406 185.64885895 -36.02044312 185.67662415 -36.86004639 185.70523071 C-39.14160156 185.69702148 -39.14160156 185.69702148 -43 185 C-45.9698408 181.6671621 -47.47528219 178.32208215 -48.68359375 174.0625 C-48.96517334 173.10311523 -49.24675293 172.14373047 -49.53686523 171.15527344 C-49.83407471 170.1140332 -50.13128418 169.07279297 -50.4375 168 C-54.44452015 154.42799524 -59.02528422 141.07902831 -63.69506836 127.72265625 C-63.97217651 126.92434387 -64.24928467 126.12603149 -64.53479004 125.30352783 C-65.05533314 123.80397694 -65.57980839 122.30578273 -66.10900879 120.80926514 C-67.46688742 116.88983298 -68.45117898 113.11274508 -69 109 C-67.75089844 109.06058594 -66.50179687 109.12117188 -65.21484375 109.18359375 C-61.50017501 109.36327164 -57.78529799 109.53794243 -54.0703125 109.7109375 C-50.27246399 109.88856516 -46.47596759 110.08075598 -42.6796875 110.2890625 C5.48137273 114.90736738 5.48137273 114.90736738 49 100 C55.19032808 94.36086552 57.95584426 87.75735489 58.5 79.4375 C58.29673634 74.38242107 56.37245003 70.71812616 53 67 C50.72300985 65.28717482 48.61037611 64.23399598 46 63 C45.195625 62.5875 44.39125 62.175 43.5625 61.75 C43.046875 61.5025 42.53125 61.255 42 61 C41.7215625 62.2375 41.7215625 62.2375 41.4375 63.5 C39.32953093 68.63244643 35.83941509 73.18347979 31.11328125 76.20703125 C26.87776251 77.79632941 22.42972781 77.66938109 18 77 C14.875 74.5625 14.875 74.5625 13 72 C12.67 71.67 12.34 71.34 12 71 C12.16484697 66.71397886 12.55720062 64.53853979 15.3125 61.1875 C20.225336 57.18868 23.7834934 56.70511825 30.0625 56.8125 C30.78244141 56.81314453 31.50238281 56.81378906 32.24414062 56.81445312 C35.41749137 56.84097138 37.97049394 56.99016465 41 58 C41.47450374 41.28286815 41.10900381 28.27451249 29.33984375 15.1484375 C24.86212726 11.02004641 19.52933386 8.45353078 14 6 C13.19820313 5.62359375 12.39640625 5.2471875 11.5703125 4.859375 C8.59467639 3.86448147 6.11714483 3.85501652 3 4 C3.2165625 5.14275391 3.2165625 5.14275391 3.4375 6.30859375 C5.52681931 17.9304324 6.61724593 28.81997873 -0.47265625 39.14453125 C-7.55752974 46.83237269 -18.15939743 50.68096048 -28.32421875 51.9296875 C-30.11569336 52.16365234 -30.11569336 52.16365234 -31.94335938 52.40234375 C-34.41926307 52.71489915 -36.89582621 53.02227876 -39.37304688 53.32421875 C-50.15117734 54.74741794 -61.11115047 56.94409248 -69 65 C-72.11456166 69.25274425 -73.73978283 73.67758841 -73.45703125 78.9765625 C-72.58951252 82.81737194 -70.60675657 86.07768868 -68 89 C-65.92291546 90.22727007 -65.92291546 90.22727007 -64 91 C-64 91.66 -64 92.32 -64 93 C-66.83842501 92.91651691 -68.54049314 92.4276272 -70.6328125 90.48046875 C-75.34954301 85.06876103 -76.4250353 81.02658401 -76.33984375 73.8515625 C-75.63095408 67.90340781 -72.13533701 63.86629359 -67.9375 59.8125 C-58.17521812 52.26013223 -46.36651168 50.7827664 -34.49072266 49.23876953 C-23.17800939 47.73537311 -12.82258072 45.64649202 -4 38 C0.42133132 32.07021447 1.19338798 26.57599393 1.1875 19.375 C1.18886963 18.66657959 1.19023926 17.95815918 1.19165039 17.22827148 C1.14556488 12.22657074 0.58157009 7.58405546 -0.66015625 2.72265625 C-0.82837891 1.86994141 -0.82837891 1.86994141 -1 1 C-0.67 0.67 -0.34 0.34 0 0 Z " fill="#AA2B0C" transform="translate(258,102)"/>
<path d="M0 0 C0.76441406 -0.03738281 1.52882812 -0.07476562 2.31640625 -0.11328125 C6.51930244 -0.17861124 8.27461778 0.03010285 11.78125 2.57421875 C13.9485717 5.65749189 14.2901966 6.87365471 14 10.5625 C13.65446497 14.10685377 13.65446497 14.10685377 14.75 17.375 C14.734375 19.43359375 14.734375 19.43359375 14.5 21.8125 C14.43296875 22.59496094 14.3659375 23.37742187 14.296875 24.18359375 C13.6456961 26.79296062 12.85493912 27.73615454 10.75 29.375 C7.00976998 30.62174334 3.5183914 30.52052755 -0.375 30.5 C-1.11621094 30.50386719 -1.85742188 30.50773437 -2.62109375 30.51171875 C-8.1233402 30.5016598 -8.1233402 30.5016598 -9.25 29.375 C-9.34993532 27.3144469 -9.38080906 25.2504741 -9.3828125 23.1875 C-9.38410156 21.93195313 -9.38539063 20.67640625 -9.38671875 19.3828125 C-9.38462402 18.72571289 -9.3825293 18.06861328 -9.38037109 17.39160156 C-9.37502234 15.38338665 -9.38031691 13.37539541 -9.38671875 11.3671875 C-9.38542969 10.11164063 -9.38414062 8.85609375 -9.3828125 7.5625 C-9.38112061 5.82033203 -9.38112061 5.82033203 -9.37939453 4.04296875 C-9.11248383 -1.46042769 -4.43063917 0.08055708 0 0 Z " fill="#58291D" transform="translate(163.25,305.625)"/>
<path d="M0 0 C1.65 0 3.3 0 5 0 C3.68 0.33 2.36 0.66 1 1 C1.20187424 1.61593018 1.40374847 2.23186035 1.61174011 2.86645508 C3.73864673 9.35650454 5.86400744 15.84705885 7.98852539 22.33789062 C8.77850448 24.75077729 9.56885987 27.16354079 10.35961914 29.57617188 C17.94580561 52.72339738 17.94580561 52.72339738 21.05078125 62.5625 C21.62759644 64.38974609 21.62759644 64.38974609 22.21606445 66.25390625 C23 69 23 69 23 71 C33.65699625 70.89260847 44.31392319 70.77999762 54.97079277 70.66066074 C59.91881936 70.60541753 64.86685185 70.55199528 69.81494141 70.50268555 C74.58712142 70.45506263 79.35922816 70.40272058 84.13132095 70.34705925 C85.95502023 70.32662629 87.7787396 70.30791478 89.60247421 70.29092598 C92.1502588 70.26690278 94.69790422 70.23684544 97.24560547 70.20532227 C98.38496048 70.19668907 98.38496048 70.19668907 99.54733276 70.18788147 C103.40119408 70.20110112 103.40119408 70.20110112 107 69 C107.5791852 66.97866458 107.5791852 66.97866458 107.89453125 64.48046875 C108.0430957 63.4941748 108.19166016 62.50788086 108.34472656 61.49169922 C108.4990918 60.40131348 108.65345703 59.31092773 108.8125 58.1875 C108.9784668 57.06359863 109.14443359 55.93969727 109.31542969 54.78173828 C109.88983684 50.85627142 110.44728551 46.92856358 111 43 C111.10866394 42.22976501 111.21732788 41.45953003 111.32928467 40.66595459 C112.91113302 29.44739012 114.46491764 18.22505283 116 7 C116.99 7 117.98 7 119 7 C117.58474289 19.27925545 116.10821092 31.5503545 114.50537109 43.80664062 C114.24911708 45.7895664 113.99924387 47.77332596 113.75537109 49.7578125 C113.3967109 52.66889813 113.01700174 55.57656255 112.6328125 58.484375 C112.52848907 59.36768494 112.42416565 60.25099487 112.31668091 61.16107178 C111.6422689 66.07289044 111.01469869 69.701238 107 73 C104.26897671 73.5253913 102.14088335 73.72194407 99.40625 73.70703125 C98.64274231 73.72246979 97.87923462 73.73790833 97.09259033 73.7538147 C94.56138589 73.79828017 92.03156736 73.80655527 89.5 73.8125 C87.73207953 73.83123823 85.96417489 73.85152826 84.19628906 73.87329102 C80.44006833 73.9149779 76.6841468 73.9399707 72.92773438 73.95605469 C67.87722978 73.98352816 62.8302259 74.07787458 57.78100586 74.19166565 C53.74932974 74.27831055 49.71753714 74.33809842 45.68530273 74.39193726 C43.73217162 74.42225441 41.77916307 74.46195334 39.82641602 74.51113892 C37.08690539 74.57657029 34.34955389 74.60354694 31.609375 74.62109375 C30.79446594 74.64885895 29.97955688 74.67662415 29.13995361 74.70523071 C26.85839844 74.69702148 26.85839844 74.69702148 23 74 C20.0125226 70.64974034 18.50931145 67.27126612 17.28125 62.9921875 C16.99435303 62.02249023 16.70745605 61.05279297 16.41186523 60.05371094 C16.11094971 59.00473633 15.81003418 57.95576172 15.5 56.875 C13.08506043 48.68556816 10.55058278 40.56636945 7.77734375 32.4921875 C7.50149445 31.68502289 7.22564514 30.87785828 6.94143677 30.04623413 C5.83560565 26.8130315 4.72918492 23.58035769 3.59667969 20.35638428 C2.80125171 18.09046426 2.02244186 15.81938982 1.24609375 13.546875 C1.00382553 12.87284637 0.76155731 12.19881775 0.51194763 11.50436401 C-0.90842024 7.29011206 -1.09195176 4.31119038 0 0 Z " fill="#B23D21" transform="translate(192,213)"/>
<path d="M0 0 C13.53868074 0.65509746 25.16230959 6.3316977 34.44140625 16.16796875 C43.43695771 26.74168714 45.72633329 38.36107486 45 52 C44.01 52 43.02 52 42 52 C41.94392578 50.65808594 41.94392578 50.65808594 41.88671875 49.2890625 C41.1369329 35.4988836 38.26595237 23.37818303 27.6875 13.625 C23.52669178 10.37524911 18.80687554 8.13295442 14 6 C13.19820313 5.62359375 12.39640625 5.2471875 11.5703125 4.859375 C8.59467639 3.86448147 6.11714483 3.85501652 3 4 C3.2165625 5.14275391 3.2165625 5.14275391 3.4375 6.30859375 C5.52681931 17.9304324 6.61724593 28.81997873 -0.47265625 39.14453125 C-7.55752974 46.83237269 -18.15939743 50.68096048 -28.32421875 51.9296875 C-30.11569336 52.16365234 -30.11569336 52.16365234 -31.94335938 52.40234375 C-34.41926307 52.71489915 -36.89582621 53.02227876 -39.37304688 53.32421875 C-50.15117734 54.74741794 -61.11115047 56.94409248 -69 65 C-72.11456166 69.25274425 -73.73978283 73.67758841 -73.45703125 78.9765625 C-72.58951252 82.81737194 -70.60675657 86.07768868 -68 89 C-65.92291546 90.22727007 -65.92291546 90.22727007 -64 91 C-64 91.66 -64 92.32 -64 93 C-66.83842501 92.91651691 -68.54049314 92.4276272 -70.6328125 90.48046875 C-75.34954301 85.06876103 -76.4250353 81.02658401 -76.33984375 73.8515625 C-75.63095408 67.90340781 -72.13533701 63.86629359 -67.9375 59.8125 C-58.17521812 52.26013223 -46.36651168 50.7827664 -34.49072266 49.23876953 C-23.17800939 47.73537311 -12.82258072 45.64649202 -4 38 C0.42133132 32.07021447 1.19338798 26.57599393 1.1875 19.375 C1.18886963 18.66657959 1.19023926 17.95815918 1.19165039 17.22827148 C1.14556488 12.22657074 0.58157009 7.58405546 -0.66015625 2.72265625 C-0.82837891 1.86994141 -0.82837891 1.86994141 -1 1 C-0.67 0.67 -0.34 0.34 0 0 Z " fill="#B34126" transform="translate(258,102)"/>
<path d="M0 0 C2.4375 0.875 2.4375 0.875 4.4375 3.875 C5.25145771 9.28876523 5.01344128 14.32189085 1.92578125 19.00390625 C-1.3663881 23.14288032 -4.93860526 27.02654768 -8.5625 30.875 C-12.51942413 27.2529451 -14.93598492 23.85677513 -17.375 19 C-17.97957031 17.82695313 -18.58414063 16.65390625 -19.20703125 15.4453125 C-20.65886663 11.62116973 -20.91111864 8.92893678 -20.5625 4.875 C-19.375 2.875 -19.375 2.875 -17.5625 1.875 C-12.66180497 1.875 -10.01036742 4.74786443 -6.5625 7.875 C-6.459375 7.111875 -6.35625 6.34875 -6.25 5.5625 C-5.24527813 1.63495087 -4.25368259 -0.20749671 0 0 Z " fill="#FBEBED" transform="translate(226.5625,105.125)"/>
<path d="M0 0 C1.32 0 2.64 0 4 0 C8.77777778 0.77777778 8.77777778 0.77777778 10 2 C10.09860131 3.40348735 10.13078937 4.81180477 10.1328125 6.21875 C10.13474609 7.49298828 10.13474609 7.49298828 10.13671875 8.79296875 C10.13285156 9.68628906 10.12898438 10.57960938 10.125 11.5 C10.13080078 12.83998047 10.13080078 12.83998047 10.13671875 14.20703125 C10.13542969 15.05652344 10.13414062 15.90601563 10.1328125 16.78125 C10.13168457 17.56564453 10.13055664 18.35003906 10.12939453 19.15820312 C10 21 10 21 9 22 C4.46511628 22.23255814 4.46511628 22.23255814 2 21 C0.9275 21.2475 -0.145 21.495 -1.25 21.75 C-5.18295292 22.01219686 -5.56671907 22.01416754 -8.375 19.6875 C-11.86247117 16.11699381 -12.39598192 14.12976784 -12.359375 9.10546875 C-11.72418186 5.38406547 -9.66020984 3.59687151 -7 1 C-4.50241818 -0.24879091 -2.77595477 -0.06609416 0 0 Z " fill="#5D2F23" transform="translate(206,314)"/>
<path d="M0 0 C1.40958984 -0.00193359 1.40958984 -0.00193359 2.84765625 -0.00390625 C3.83636719 -0.00003906 4.82507813 0.00382812 5.84375 0.0078125 C7.32681641 0.00201172 7.32681641 0.00201172 8.83984375 -0.00390625 C9.77957031 -0.00261719 10.71929687 -0.00132812 11.6875 0 C12.55568359 0.00112793 13.42386719 0.00225586 14.31835938 0.00341797 C16.34375 0.1328125 16.34375 0.1328125 17.34375 1.1328125 C17.46875 3.6328125 17.46875 3.6328125 17.34375 6.1328125 C16.34375 7.1328125 16.34375 7.1328125 12.96484375 7.23046875 C11.57027923 7.22379619 10.17573257 7.21183782 8.78125 7.1953125 C8.07033203 7.19080078 7.35941406 7.18628906 6.62695312 7.18164062 C4.86584987 7.16982114 3.10478964 7.15188513 1.34375 7.1328125 C1.34375 8.4528125 1.34375 9.7728125 1.34375 11.1328125 C2.04242188 11.10960937 2.74109375 11.08640625 3.4609375 11.0625 C4.37101562 11.04445313 5.28109375 11.02640625 6.21875 11.0078125 C7.57613281 10.97300781 7.57613281 10.97300781 8.9609375 10.9375 C11.34375 11.1328125 11.34375 11.1328125 13.34375 13.1328125 C12.78819444 17.68836806 12.78819444 17.68836806 11.34375 19.1328125 C9.65766034 19.20486761 7.96874341 19.21667318 6.28125 19.1953125 C5.36214844 19.18628906 4.44304687 19.17726563 3.49609375 19.16796875 C2.78582031 19.15636719 2.07554687 19.14476562 1.34375 19.1328125 C1.35535156 19.84308594 1.36695313 20.55335938 1.37890625 21.28515625 C1.39244141 22.66380859 1.39244141 22.66380859 1.40625 24.0703125 C1.41785156 24.98683594 1.42945313 25.90335937 1.44140625 26.84765625 C1.34375 29.1328125 1.34375 29.1328125 0.34375 30.1328125 C-2.15625 30.2578125 -2.15625 30.2578125 -4.65625 30.1328125 C-6.48659055 28.30247195 -5.78667797 25.40069258 -5.7890625 22.9453125 C-5.79035156 21.68976563 -5.79164063 20.43421875 -5.79296875 19.140625 C-5.79087402 18.48352539 -5.7887793 17.82642578 -5.78662109 17.14941406 C-5.78127234 15.14119915 -5.78656691 13.13320791 -5.79296875 11.125 C-5.79167969 9.86945313 -5.79039062 8.61390625 -5.7890625 7.3203125 C-5.78737061 5.57814453 -5.78737061 5.57814453 -5.78564453 3.80078125 C-5.57039387 -0.63744366 -3.99408589 0.00518905 0 0 Z " fill="#592A1E" transform="translate(278.65625,305.8671875)"/>
<path d="M0 0 C3.64355647 1.61935843 6.12645605 3.45012726 8 7 C8.54500097 11.99584223 8.09938694 15.01507393 5 19 C3.09180914 21.12836673 1.7416826 21.88589498 -1.08203125 22.3203125 C-5.11881639 22.52114758 -7.4092612 22.3519295 -10.9375 20.25 C-13.78206465 17.14683856 -14.82909642 15.31026074 -15.375 11.125 C-14.89861498 7.15512486 -13.46959574 5.10463464 -11 2 C-7.29017554 -0.4732163 -4.30111858 -0.54710902 0 0 Z " fill="#5B2C21" transform="translate(313,314)"/>
<path d="M0 0 C2.5 0.125 2.5 0.125 3.5 1.125 C3.73653523 3.65096259 3.92173692 6.15607207 4.0625 8.6875 C4.10568359 9.39841797 4.14886719 10.10933594 4.19335938 10.84179688 C4.29971777 12.60261912 4.40038846 14.3637832 4.5 16.125 C5.27730469 15.29613281 6.05460938 14.46726562 6.85546875 13.61328125 C7.72816406 12.79214844 8.60085937 11.97101563 9.5 11.125 C11.8125 11.3125 11.8125 11.3125 13.5 12.125 C14.1875 14.4375 14.1875 14.4375 14.5 17.125 C13.0625 18.9375 13.0625 18.9375 11.5 20.125 C12.79299694 23.00937779 14.15941363 24.99719421 16.5 27.125 C15.51 29.6 15.51 29.6 14.5 32.125 C9.46014269 31.68030671 7.12365012 29.41156638 3.5 26.125 C3.520625 26.929375 3.54125 27.73375 3.5625 28.5625 C3.5 31.125 3.5 31.125 2.5 32.125 C0 32.25 0 32.25 -2.5 32.125 C-4.38319268 30.24180732 -3.63054285 27.00569863 -3.6328125 24.5 C-3.63376923 23.83790527 -3.63472595 23.17581055 -3.63571167 22.49365234 C-3.63639326 21.09147039 -3.63454042 19.6892853 -3.63037109 18.28710938 C-3.62502246 16.13404287 -3.6303167 13.98118498 -3.63671875 11.828125 C-3.63605796 10.46874954 -3.63477679 9.1093742 -3.6328125 7.75 C-3.63168457 6.50476563 -3.63055664 5.25953125 -3.62939453 3.9765625 C-3.4567941 0.1728397 -3.4567941 0.1728397 0 0 Z " fill="#5A2B20" transform="translate(243.5,303.875)"/>
<path d="M0 0 C4.56944444 2.13888889 4.56944444 2.13888889 6 5 C6.125 8.5625 6.125 8.5625 6 12 C5 13 5 13 2.27734375 13.09765625 C0.62412109 13.08025391 0.62412109 13.08025391 -1.0625 13.0625 C-2.71958984 13.04896484 -2.71958984 13.04896484 -4.41015625 13.03515625 C-5.26480469 13.02355469 -6.11945313 13.01195312 -7 13 C-6.67 13.66 -6.34 14.32 -6 15 C-2.7 15 0.6 15 4 15 C4.33 16.98 4.66 18.96 5 21 C0.80888835 23.09555583 -4.44766121 22.55842023 -9 22 C-11.97361086 19.78436838 -13.36959793 18.26080415 -15 15 C-15.68128376 8.18716238 -15.68128376 8.18716238 -13.953125 5.17578125 C-9.7830485 0.1103648 -6.40183894 -0.71131544 0 0 Z " fill="#592A1E" transform="translate(357,314)"/>
<path d="M0 0 C0.99 0.66 1.98 1.32 3 2 C2.34 3.65 1.68 5.3 1 7 C-1.64 6.67 -4.28 6.34 -7 6 C-7 6.66 -7 7.32 -7 8 C-5.9275 8.0825 -4.855 8.165 -3.75 8.25 C0.31315563 9.06263113 1.66296171 9.63466486 4 13 C4.5625 15.5 4.5625 15.5 4 18 C1.77396715 20.74544051 0.07430277 21.86143547 -3.453125 22.31640625 C-10.30015924 22.46656051 -10.30015924 22.46656051 -14 20 C-13.67 18.35 -13.34 16.7 -13 15 C-10.36 15 -7.72 15 -5 15 C-6.11375 14.566875 -7.2275 14.13375 -8.375 13.6875 C-12 12 -12 12 -14 9 C-14.48436452 5.85163059 -14.26042732 4.4379914 -12.625 1.6875 C-8.66006745 -0.86138521 -4.59739909 -0.66006064 0 0 Z " fill="#5E3025" transform="translate(380,314)"/>
<path d="M0 0 C1.40378906 -0.00386719 1.40378906 -0.00386719 2.8359375 -0.0078125 C5.53229747 0.12058559 7.99771509 0.52311291 10.625 1.125 C8.99627806 7.34375649 6.16522739 11.46832996 0.75 15 C-3.62705341 16.57573923 -7.34343754 16.87347038 -11.75 15.25 C-13.375 14.125 -13.375 14.125 -14.375 12.125 C-14.8125 9.3125 -14.8125 9.3125 -14.375 6.125 C-9.74404547 1.49404547 -6.43253245 -0.01762338 0 0 Z " fill="#FDEBED" transform="translate(287.375,160.875)"/>
<path d="M0 0 C2.5 0.125 2.5 0.125 3.5 1.125 C3.54080783 3.12458364 3.54254356 5.12545254 3.5 7.125 C4.304375 7.104375 5.10875 7.08375 5.9375 7.0625 C8.5 7.125 8.5 7.125 9.5 8.125 C9.54080783 10.12458364 9.54254356 12.12545254 9.5 14.125 C7.52 14.125 5.54 14.125 3.5 14.125 C3.5 16.765 3.5 19.405 3.5 22.125 C5.15 22.455 6.8 22.785 8.5 23.125 C8.542721 24.79111905 8.54063832 26.45882885 8.5 28.125 C7.5 29.125 7.5 29.125 4.1875 29.5 C0.5 29.125 0.5 29.125 -1.9375 27.25 C-4.1355471 22.85390579 -3.83729606 18.95020752 -3.5 14.125 C-4.82 14.125 -6.14 14.125 -7.5 14.125 C-7.5 12.145 -7.5 10.165 -7.5 8.125 C-6.18 8.125 -4.86 8.125 -3.5 8.125 C-3.520625 6.990625 -3.54125 5.85625 -3.5625 4.6875 C-3.4833187 0.17416594 -3.4833187 0.17416594 0 0 Z " fill="#592A1E" transform="translate(392.5,306.875)"/>
<path d="M0 0 C1.4540625 0.0309375 1.4540625 0.0309375 2.9375 0.0625 C3.05393304 3.95808088 3.12482909 7.85321258 3.1875 11.75 C3.23777344 13.40418945 3.23777344 13.40418945 3.2890625 15.09179688 C3.38823033 23.29793471 3.38823033 23.29793471 1.046875 27.26953125 C-2.55375248 30.33006461 -5.20223764 30.38551337 -9.796875 30.36328125 C-13.06568255 29.92931887 -14.8129318 28.38463491 -17.0625 26.0625 C-16.8125 24.1875 -16.8125 24.1875 -16.0625 22.0625 C-14 20.8125 -14 20.8125 -12.0625 20.0625 C-11.0725 20.7225 -10.0825 21.3825 -9.0625 22.0625 C-7.7425 22.0625 -6.4225 22.0625 -5.0625 22.0625 C-5.03744385 21.43158447 -5.0123877 20.80066895 -4.98657227 20.15063477 C-4.87095863 17.30853175 -4.74807684 14.46678917 -4.625 11.625 C-4.56602539 10.13516602 -4.56602539 10.13516602 -4.50585938 8.61523438 C-4.46396484 7.67099609 -4.42207031 6.72675781 -4.37890625 5.75390625 C-4.34224854 4.87935791 -4.30559082 4.00480957 -4.26782227 3.10375977 C-3.93272746 -0.22766431 -3.44213818 0.07024772 0 0 Z " fill="#5B2C20" transform="translate(137.0625,305.9375)"/>
<path d="M0 0 C1.16402344 0.13148438 1.16402344 0.13148438 2.3515625 0.265625 C4.375 0.75 4.375 0.75 6.375 2.75 C6 5.375 6 5.375 5.375 7.75 C2.30177456 8.66058531 -0.42597361 8.83886184 -3.625 8.75 C-3.295 10.4 -2.965 12.05 -2.625 13.75 C-1.325625 13.729375 -0.02625 13.70875 1.3125 13.6875 C2.66665633 13.66600546 4.02256083 13.67851801 5.375 13.75 C6.375 14.75 6.375 14.75 6.4375 17.3125 C6.416875 18.116875 6.39625 18.92125 6.375 19.75 C2.66962345 22.22025103 -1.32188915 22.45150117 -5.625 21.75 C-9.0681146 19.65419111 -11.3718218 17.6234599 -12.625 13.75 C-13.14055338 9.7974241 -12.78414688 8.0455585 -10.875 4.5 C-7.57550186 0.46728005 -5.16684351 -0.6566557 0 0 Z " fill="#5C2E23" transform="translate(230.625,314.25)"/>
<path d="M0 0 C2.5 0.125 2.5 0.125 3.5 1.125 C3.77993994 4.53348088 3.73184008 7.95639446 3.75 11.375 C3.770625 12.33019531 3.79125 13.28539062 3.8125 14.26953125 C3.84761773 20.58194262 3.17590334 24.14033858 -1.125 28.9375 C-4.84530483 30.79765241 -8.42936432 30.7959839 -12.5 30.125 C-15.125 28.4375 -15.125 28.4375 -16.5 26.125 C-16.25 23.375 -16.25 23.375 -15.5 21.125 C-13.625 20.5 -13.625 20.5 -11.5 20.125 C-10.84 20.785 -10.18 21.445 -9.5 22.125 C-6.89719432 21.80458603 -6.89719432 21.80458603 -4.5 21.125 C-4.47494385 20.52437744 -4.4498877 19.92375488 -4.42407227 19.30493164 C-4.3084472 16.59888563 -4.18557064 13.89321717 -4.0625 11.1875 C-4.02318359 10.24197266 -3.98386719 9.29644531 -3.94335938 8.32226562 C-3.90146484 7.42314453 -3.85957031 6.52402344 -3.81640625 5.59765625 C-3.77974854 4.76500244 -3.74309082 3.93234863 -3.70532227 3.07446289 C-3.393137 0.11037332 -3.00684637 0.15034232 0 0 Z " fill="#58291D" transform="translate(114.5,305.875)"/>
<path d="M0 0 C0.99 0 1.98 0 3 0 C1.58474289 12.27925545 0.10821092 24.5503545 -1.49462891 36.80664062 C-1.75088292 38.7895664 -2.00075613 40.77332596 -2.24462891 42.7578125 C-2.6032891 45.66889813 -2.98299826 48.57656255 -3.3671875 51.484375 C-3.47151093 52.36768494 -3.57583435 53.25099487 -3.68331909 54.16107178 C-4.18528247 57.81692767 -4.86190149 60.70648509 -6.44067383 64.06201172 C-10.53180838 67.15992511 -14.59141027 66.63610819 -19.58203125 66.5234375 C-20.62840256 66.51873444 -21.67477386 66.51403137 -22.75285339 66.50918579 C-26.1067361 66.48783807 -29.45904214 66.43135254 -32.8125 66.375 C-35.02797953 66.3584847 -37.24347637 66.34413875 -39.45898438 66.33203125 C-50.669805 66.24608612 -61.82725895 65.95867196 -73 65 C-73 64.67 -73 64.34 -73 64 C-72.2277005 63.98969254 -71.455401 63.97938507 -70.65969849 63.96876526 C-63.3904686 63.87089006 -56.12132579 63.76839 -48.85223579 63.66066074 C-45.11489964 63.60543681 -41.37755565 63.55201768 -37.64013672 63.50268555 C-34.03503385 63.45503413 -30.43002715 63.40269108 -26.82503891 63.34705925 C-25.44791933 63.32663921 -24.07077338 63.30792553 -22.69360733 63.29092598 C-20.768496 63.26687453 -18.84347005 63.23625749 -16.91845703 63.20532227 C-15.82147491 63.18977798 -14.7244928 63.1742337 -13.5942688 63.15821838 C-11.01546248 63.17103805 -11.01546248 63.17103805 -9 62 C-8.4208148 59.97866458 -8.4208148 59.97866458 -8.10546875 57.48046875 C-7.9569043 56.4941748 -7.80833984 55.50788086 -7.65527344 54.49169922 C-7.5009082 53.40131348 -7.34654297 52.31092773 -7.1875 51.1875 C-7.0215332 50.06359863 -6.85556641 48.93969727 -6.68457031 47.78173828 C-6.11016316 43.85627142 -5.55271449 39.92856358 -5 36 C-4.89133606 35.22976501 -4.78267212 34.45953003 -4.67071533 33.66595459 C-3.08886698 22.44739012 -1.53508236 11.22505283 0 0 Z " fill="#AC2F11" transform="translate(308,220)"/>
<path d="M0 0 C2.5 0.125 2.5 0.125 3.5 1.125 C3.58726223 2.90571246 3.60699041 4.6898314 3.59765625 6.47265625 C3.59282227 8.09204102 3.59282227 8.09204102 3.58789062 9.74414062 C3.57951172 10.88044922 3.57113281 12.01675781 3.5625 13.1875 C3.55798828 14.32767578 3.55347656 15.46785156 3.54882812 16.64257812 C3.53699747 19.47010351 3.5205141 22.2975264 3.5 25.125 C4.82 25.455 6.14 25.785 7.5 26.125 C7.542721 27.79111905 7.54063832 29.45882885 7.5 31.125 C6.5 32.125 6.5 32.125 3.125 32.375 C-0.5 32.125 -0.5 32.125 -2.20605469 31.00830078 C-4.10381354 28.24616649 -3.85512387 26.06723853 -3.828125 22.7421875 C-3.82296875 21.49308594 -3.8178125 20.24398438 -3.8125 18.95703125 C-3.7815625 16.99830078 -3.7815625 16.99830078 -3.75 15 C-3.74484375 13.68644531 -3.7396875 12.37289063 -3.734375 11.01953125 C-3.64471795 0.1822359 -3.64471795 0.1822359 0 0 Z " fill="#57281C" transform="translate(184.5,303.875)"/>
<path d="M0 0 C13.53868074 0.65509746 25.16230959 6.3316977 34.44140625 16.16796875 C43.43695771 26.74168714 45.72633329 38.36107486 45 52 C44.01 52 43.02 52 42 52 C41.94392578 50.65808594 41.94392578 50.65808594 41.88671875 49.2890625 C41.1369329 35.4988836 38.26595237 23.37818303 27.6875 13.625 C23.52669178 10.37524911 18.80687554 8.13295442 14 6 C13.19820313 5.62359375 12.39640625 5.2471875 11.5703125 4.859375 C8.59467639 3.86448147 6.11714483 3.85501652 3 4 C3.144375 4.76183594 3.28875 5.52367188 3.4375 6.30859375 C4.57797374 12.65247896 5.21474302 18.55770944 5 25 C4.01 24.67 3.02 24.34 2 24 C1.92652344 22.76636719 1.92652344 22.76636719 1.8515625 21.5078125 C1.4250341 15.13930224 0.7687082 9.0451992 -0.6953125 2.828125 C-0.79585938 2.22484375 -0.89640625 1.6215625 -1 1 C-0.67 0.67 -0.34 0.34 0 0 Z " fill="#AF371A" transform="translate(258,102)"/>
<path d="M0 0 C1.2065625 0.0309375 1.2065625 0.0309375 2.4375 0.0625 C2.4375 0.7225 2.4375 1.3825 2.4375 2.0625 C3.4275 1.4025 4.4175 0.7425 5.4375 0.0625 C9.125 0.4375 9.125 0.4375 12.4375 1.0625 C12.1075 3.3725 11.7775 5.6825 11.4375 8.0625 C9.1275 8.0625 6.8175 8.0625 4.4375 8.0625 C4.37691406 8.98933594 4.31632812 9.91617187 4.25390625 10.87109375 C4.12822266 12.66740234 4.12822266 12.66740234 4 14.5 C3.91878906 15.69496094 3.83757812 16.88992188 3.75390625 18.12109375 C3.4375 21.0625 3.4375 21.0625 2.4375 22.0625 C-0.0625 22.1875 -0.0625 22.1875 -2.5625 22.0625 C-4.15187556 20.47312444 -3.69231143 18.82350154 -3.6953125 16.625 C-3.69660156 15.73039062 -3.69789063 14.83578125 -3.69921875 13.9140625 C-3.69341797 12.50253906 -3.69341797 12.50253906 -3.6875 11.0625 C-3.69136719 10.12148438 -3.69523437 9.18046875 -3.69921875 8.2109375 C-3.69792969 7.31632812 -3.69664062 6.42171875 -3.6953125 5.5 C-3.69362061 4.26056641 -3.69362061 4.26056641 -3.69189453 2.99609375 C-3.49072608 -0.01004609 -3.03099684 0.07392675 0 0 Z " fill="#5B2D21" transform="translate(327.5625,313.9375)"/>
<path d="M0 0 C2.4375 0.875 2.4375 0.875 4.4375 3.875 C5.25145771 9.28876523 5.01344128 14.32189085 1.92578125 19.00390625 C-1.3663881 23.14288032 -4.93860526 27.02654768 -8.5625 30.875 C-12.51942413 27.2529451 -14.93598492 23.85677513 -17.375 19 C-17.97957031 17.82695313 -18.58414063 16.65390625 -19.20703125 15.4453125 C-20.65886663 11.62116973 -20.91111864 8.92893678 -20.5625 4.875 C-19.375 2.875 -19.375 2.875 -17.5625 1.875 C-12.66180497 1.875 -10.01036742 4.74786443 -6.5625 7.875 C-6.459375 7.111875 -6.35625 6.34875 -6.25 5.5625 C-5.24527813 1.63495087 -4.25368259 -0.20749671 0 0 Z M-2.5625 1.875 C-3.23658308 3.14191507 -3.90150497 4.41370749 -4.5625 5.6875 C-4.93375 6.39519531 -5.305 7.10289063 -5.6875 7.83203125 C-6.75935358 9.96420729 -6.75935358 9.96420729 -6.5625 12.875 C-7.2225 12.875 -7.8825 12.875 -8.5625 12.875 C-8.830625 11.946875 -9.09875 11.01875 -9.375 10.0625 C-10.69816041 6.32488684 -10.69816041 6.32488684 -13.5625 3.875 C-16.21716049 4.10543864 -16.21716049 4.10543864 -18.5625 4.875 C-19.42600207 12.50260159 -16.81122459 17.59936093 -12.5625 23.875 C-11.26644133 25.24459391 -9.94298533 26.59054844 -8.5625 27.875 C-0.71754371 20.91378164 -0.71754371 20.91378164 2.67578125 11.3515625 C2.74519879 8.80138128 2.78758304 6.40287235 2.4375 3.875 C1.7775 3.215 1.1175 2.555 0.4375 1.875 C-0.5525 1.875 -1.5425 1.875 -2.5625 1.875 Z " fill="#683C32" transform="translate(226.5625,105.125)"/>
<path d="M0 0 C1.15266357 0.05986084 2.30532715 0.11972168 3.49291992 0.18139648 C19.07437882 0.96789688 34.66300694 1.49159336 50.25567627 1.99578857 C53.73624363 2.10867798 57.21675153 2.2233727 60.69726562 2.33789062 C67.46478835 2.56030579 74.23237217 2.78080695 81 3 C81 3.33 81 3.66 81 4 C76.18744989 4.95150014 71.50200306 5.16024329 66.61328125 5.16796875 C65.80616699 5.17206757 64.99905273 5.17616638 64.16748047 5.1803894 C61.54911031 5.18994298 58.93088507 5.189917 56.3125 5.1875 C55.42227142 5.18789276 54.53204285 5.18828552 53.61483765 5.18869019 C17.86702227 5.16979578 17.86702227 5.16979578 3 2 C2.34 3.32 1.68 4.64 1 6 C0.67 4.02 0.34 2.04 0 0 Z " fill="#A72505" transform="translate(189,211)"/>
<path d="M0 0 C0.66 0.33 1.32 0.66 2 1 C1.26371335 10.20358311 -3.56398403 15.10795144 -10.26171875 20.984375 C-21.67833303 29.38804542 -38.2998746 30.58024061 -52 30 C-50.44375179 28.17911059 -49.48213006 27.11824531 -47.12158203 26.53930664 C-46.42403809 26.49668701 -45.72649414 26.45406738 -45.0078125 26.41015625 C-44.22639893 26.35045654 -43.44498535 26.29075684 -42.63989258 26.22924805 C-41.80997803 26.17422119 -40.98006348 26.11919434 -40.125 26.0625 C-27.27554532 24.94965087 -14.86991451 22.44752557 -5.6875 12.75 C-2.58356837 8.91871655 -1.22159062 4.72562687 0 0 Z " fill="#AF371A" transform="translate(316,186)"/>
<path d="M0 0 C2.64 0 5.28 0 8 0 C8.33 1.32 8.66 2.64 9 4 C7.68 4.33 6.36 4.66 5 5 C4.67 6.65 4.34 8.3 4 10 C5.65 10 7.3 10 9 10 C9.38218767 11.65614657 9.71395102 13.32457024 10 15 C9 16 9 16 6.93359375 16.09765625 C3.46679688 16.04882812 3.46679688 16.04882812 0 16 C0 10.72 0 5.44 0 0 Z " fill="#E8D5D6" transform="translate(161,313)"/>
<path d="M0 0 C0.66 0 1.32 0 2 0 C4.65736758 9.46475176 7.2798691 18.93852539 9.8125 28.4375 C10.03123779 29.24743408 10.24997559 30.05736816 10.4753418 30.8918457 C11.29925306 34.00414148 12 36.7656512 12 40 C11.01 40 10.02 40 9 40 C8.76289307 39.04109863 8.52578613 38.08219727 8.28149414 37.09423828 C7.40236537 33.54156177 6.52013694 29.98966113 5.63696289 26.43798828 C5.25492925 24.89978737 4.87374004 23.36137648 4.4934082 21.82275391 C3.94703735 19.61305066 3.39764843 17.4041168 2.84765625 15.1953125 C2.6778273 14.50567413 2.50799835 13.81603577 2.33302307 13.10549927 C1.43074671 9.45976242 1.43074671 9.45976242 0 6 C-0.039992 4.00039988 -0.04346799 1.99952758 0 0 Z " fill="#B34125" transform="translate(231,232)"/>
<path d="M0 0 C14.44197178 -0.30655129 28.62672033 0.61231142 43 2 C43 2.33 43 2.66 43 3 C29.14 3 15.28 3 1 3 C0.67 2.01 0.34 1.02 0 0 Z " fill="#BB523A" transform="translate(216,284)"/>
<path d="M0 0 C0 0.99 0 1.98 0 3 C-1.66666667 4.66666667 -3.33333333 6.33333333 -5 8 C-7.88870736 12.48247693 -9.06261822 16.72626512 -8 22 C-5.90958458 26.71172999 -3.83504673 29.95440331 1 32 C1 32.66 1 33.32 1 34 C-1.83842501 33.91651691 -3.54049314 33.4276272 -5.6328125 31.48046875 C-10.35073656 26.06739163 -11.40848314 22.03137518 -11.3515625 14.859375 C-10.72431851 9.75779052 -5.8911309 0 0 0 Z " fill="#AE3416" transform="translate(193,161)"/>
<path d="M0 0 C0.66 0 1.32 0 2 0 C3.54843768 4.50229842 5.09669159 9.00465997 6.64477539 13.50708008 C7.17141757 15.03867297 7.69810993 16.57024862 8.22485352 18.10180664 C8.9820657 20.30350277 9.73909731 22.50526093 10.49609375 24.70703125 C10.73154404 25.39150833 10.96699432 26.07598541 11.20957947 26.78120422 C12.1501861 29.5174851 13.08500796 32.25502389 14 35 C11.61053255 34.05116781 10.26952452 33.44147923 8.91015625 31.21484375 C5.16739872 21.15941684 1.52402649 10.65143788 0 0 Z " fill="#B34024" transform="translate(203,252)"/>
<path d="M0 0 C0.99 0 1.98 0 3 0 C2.45974917 12.12769965 0.84178127 24.00849656 -1 36 C-1.99 36 -2.98 36 -4 36 C-2.68 24.12 -1.36 12.24 0 0 Z " fill="#AF3618" transform="translate(274,230)"/>
<path d="M0 0 C-1.0828125 0.61875 -1.0828125 0.61875 -2.1875 1.25 C-3.115625 1.8275 -4.04375 2.405 -5 3 C-5.928125 3.556875 -6.85625 4.11375 -7.8125 4.6875 C-10.28136753 7.29744568 -10.3125 7.82838406 -10.3125 11.25 C-10.209375 12.4875 -10.10625 13.725 -10 15 C-8.68 15.66 -7.36 16.32 -6 17 C-6.66 17.66 -7.32 18.32 -8 19 C-10 17 -12 15 -14 13 C-13.83515303 8.71397886 -13.44279938 6.53853979 -10.6875 3.1875 C-4.70638298 -1.68085106 -4.70638298 -1.68085106 0 0 Z " fill="#B33F24" transform="translate(284,160)"/>
<path d="M0 0 C0.33 0 0.66 0 1 0 C1.47096269 7.73163753 1.54893614 14.45153149 -3 21 C-5.49918015 23.57549099 -8.13742921 25.83917593 -11 28 C-11.66 27.67 -12.32 27.34 -13 27 C-12.278125 26.34 -11.55625 25.68 -10.8125 25 C-3.62946635 17.65417805 -1.73123559 10.02146133 0 0 Z " fill="#AF3619" transform="translate(261,119)"/>
<path d="M0 0 C0 0.99 0 1.98 0 3 C-9.48326338 5.00159043 -18.29499687 6.17898571 -28 6 C-26.39625389 4.10197395 -25.4210252 3.10587927 -22.97875977 2.49169922 C-21.84651978 2.39912842 -21.84651978 2.39912842 -20.69140625 2.3046875 C-19.44713867 2.19060547 -19.44713867 2.19060547 -18.17773438 2.07421875 C-17.31470703 2.00847656 -16.45167969 1.94273437 -15.5625 1.875 C-13.85525903 1.7289944 -12.14821703 1.58063896 -10.44140625 1.4296875 C-9.68545166 1.37022949 -8.92949707 1.31077148 -8.15063477 1.24951172 C-5.36807004 0.92668493 -2.80101653 0 0 0 Z " fill="#B34024" transform="translate(292,210)"/>
<path d="M0 0 C0.66 0.66 1.32 1.32 2 2 C1.07380859 2.16435547 1.07380859 2.16435547 0.12890625 2.33203125 C-7.26908987 3.71704422 -14.29610462 5.51277191 -21 9 C-20.859375 7.16796875 -20.859375 7.16796875 -20 5 C-17.453125 3.55078125 -17.453125 3.55078125 -14.25 2.3125 C-13.20328125 1.89613281 -12.1565625 1.47976562 -11.078125 1.05078125 C-4.0476489 -1.3492163 -4.0476489 -1.3492163 0 0 Z " fill="#AF371A" transform="translate(214,154)"/>
<path d="M0 0 C0.625 2.375 0.625 2.375 1 5 C-1 7 -1 7 -3.5625 7.1875 C-6 7 -6 7 -7 6 C-7.04080783 4.00041636 -7.04254356 1.99954746 -7 0 C-4.3333581 -1.33332095 -2.83319697 -0.67102033 0 0 Z " fill="#EEDCDD" transform="translate(313,322)"/>
<path d="M0 0 C0.66 0 1.32 0 2 0 C1.43997584 3.53659092 0.32225676 4.95559692 -2.4375 7.1875 C-3.05496094 7.69667969 -3.67242187 8.20585937 -4.30859375 8.73046875 C-7.37749663 11.0339178 -9.33837287 11.1110465 -13.125 11.0625 C-14.03507812 11.05347656 -14.94515625 11.04445312 -15.8828125 11.03515625 C-16.58148438 11.02355469 -17.28015625 11.01195312 -18 11 C-18 10.34 -18 9.68 -18 9 C-17.26394531 8.91363281 -16.52789062 8.82726562 -15.76953125 8.73828125 C-9.61149573 7.85158921 -5.98505451 7.14200583 -2 2 C-1.34 1.34 -0.68 0.68 0 0 Z " fill="#AE3416" transform="translate(295,168)"/>
<path d="M0 0 C0.33 0 0.66 0 1 0 C2.34495828 7.09705662 3.24091535 13.7725395 3 21 C2.01 20.67 1.02 20.34 0 20 C-0.06058594 19.11957031 -0.12117188 18.23914063 -0.18359375 17.33203125 C-0.26738281 16.17058594 -0.35117187 15.00914063 -0.4375 13.8125 C-0.51871094 12.66394531 -0.59992188 11.51539062 -0.68359375 10.33203125 C-0.95403812 7.48401829 -1.37521747 4.78789518 -2 2 C-1.34 2 -0.68 2 0 2 C0 1.34 0 0.68 0 0 Z " fill="#B94D34" transform="translate(260,106)"/>
<path d="M0 0 C1.2065625 0.0309375 1.2065625 0.0309375 2.4375 0.0625 C3.0625 2.4375 3.0625 2.4375 3.4375 5.0625 C2.7775 5.7225 2.1175 6.3825 1.4375 7.0625 C-0.6875 6.6875 -0.6875 6.6875 -2.5625 6.0625 C-2.94468767 4.40635343 -3.27645102 2.73792976 -3.5625 1.0625 C-2.5625 0.0625 -2.5625 0.0625 0 0 Z " fill="#F2E1E3" transform="translate(204.5625,321.9375)"/>
<path d="M0 0 C0.66 0 1.32 0 2 0 C2.84124316 2.24732102 3.67314832 4.49738785 4.5 6.75 C4.85771484 7.70132812 4.85771484 7.70132812 5.22265625 8.671875 C6.44801758 12.03286607 7 14.36871587 7 18 C6.34 18 5.68 18 5 18 C4.16112944 15.56427941 3.32873471 13.12666783 2.5 10.6875 C2.14228516 9.65206055 2.14228516 9.65206055 1.77734375 8.59570312 C0.76791737 5.61068511 0 3.17341086 0 0 Z " fill="#AC2F11" transform="translate(203,252)"/>
<path d="M0 0 C0.99 0 1.98 0 3 0 C2.67 4.95 2.34 9.9 2 15 C1.01 15.33 0.02 15.66 -1 16 C-0.67 10.72 -0.34 5.44 0 0 Z " fill="#AE3518" transform="translate(274,230)"/>
<path d="M0 0 C1.92578125 0.0859375 1.92578125 0.0859375 4.3125 0.375 C5.09238281 0.46523437 5.87226563 0.55546875 6.67578125 0.6484375 C8.83392672 0.97487967 10.89423359 1.43139488 13 2 C13 2.66 13 3.32 13 4 C9.37 3.67 5.74 3.34 2 3 C2 3.99 2 4.98 2 6 C1.34 6 0.68 6 0 6 C-0.38218767 4.34385343 -0.71395102 2.67542976 -1 1 C-0.67 0.67 -0.34 0.34 0 0 Z " fill="#AC2F11" transform="translate(258,102)"/>
<path d="M0 0 C2.15699832 1.53781292 4.03087512 3.21404953 6 5 C5.01 5.99 4.02 6.98 3 8 C2.13375 6.515 2.13375 6.515 1.25 5 C0.5075 4.01 -0.235 3.02 -1 2 C-2.32 2 -3.64 2 -5 2 C-5.33 3.65 -5.66 5.3 -6 7 C-7.0625 5.1875 -7.0625 5.1875 -8 3 C-7.67 2.01 -7.34 1.02 -7 0 C-4.18514379 -1.40742811 -2.99225935 -0.95208252 0 0 Z " fill="#744A41" transform="translate(214,108)"/>
<path d="M0 0 C0.66 0 1.32 0 2 0 C3.50156874 3.00313748 3.09281204 5.79067522 3.0625 9.125 C3.05347656 10.40632812 3.04445313 11.68765625 3.03515625 13.0078125 C3.02355469 13.99523437 3.01195312 14.98265625 3 16 C2.01 16 1.02 16 0 16 C0 10.72 0 5.44 0 0 Z " fill="#BF5C46" transform="translate(300,138)"/>
<path d="M0 0 C1.65 0 3.3 0 5 0 C3.68 0.33 2.36 0.66 1 1 C1.99 4.63 2.98 8.26 4 12 C3.01 12 2.02 12 1 12 C-0.80619523 7.53763531 -1.11658501 4.68965706 0 0 Z " fill="#B84C32" transform="translate(192,213)"/>
<path d="M0 0 C0.66 0.33 1.32 0.66 2 1 C1.5317879 5.77576339 0.75668002 9.04476345 -2 13 C-2.66 12.67 -3.32 12.34 -4 12 C-3.71125 11.319375 -3.4225 10.63875 -3.125 9.9375 C-1.87402645 6.67106907 -0.92552045 3.37153877 0 0 Z " fill="#B13C20" transform="translate(316,186)"/>
<path d="M0 0 C-0.33 0.66 -0.66 1.32 -1 2 C-5.96098482 3.24024621 -10.92441192 3.10151176 -16 3 C-11.918638 -1.081362 -5.43630843 -0.09372946 0 0 Z " fill="#A9290A" transform="translate(228,152)"/>
<path d="M0 0 C4.29 0 8.58 0 13 0 C12.01 0.33 11.02 0.66 10 1 C10 1.66 10 2.32 10 3 C6.7 2.67 3.4 2.34 0 2 C0 1.34 0 0.68 0 0 Z " fill="#B94D34" transform="translate(220,213)"/>
<path d="M0 0 C3.70344028 1.23448009 5.30250982 3.23334341 8 6 C8.66 6.33 9.32 6.66 10 7 C10 7.66 10 8.32 10 9 C6.39755548 8.69121904 5.00654002 8.00552268 2.1875 5.625 C0 3 0 3 0 0 Z " fill="#AB2D0F" transform="translate(184,186)"/>
<path d="M0 0 C1.88391785 3.26545761 2.49287967 6.28111761 3 10 C2.01 10 1.02 10 0 10 C-0.66 7.03 -1.32 4.06 -2 1 C-1.34 0.67 -0.68 0.34 0 0 Z " fill="#B74A30" transform="translate(240,262)"/>
<path d="M0 0 C0.99 0 1.98 0 3 0 C2.67 3.63 2.34 7.26 2 11 C1.01 11 0.02 11 -1 11 C-0.67 7.37 -0.34 3.74 0 0 Z " fill="#B7482E" transform="translate(308,220)"/>
<path d="M0 0 C3.63 0 7.26 0 11 0 C8 3 8 3 4.3125 3.1875 C2.6728125 3.0946875 2.6728125 3.0946875 1 3 C0.67 2.01 0.34 1.02 0 0 Z " fill="#D3BBBA" transform="translate(350,327)"/>
<path d="M0 0 C0.66 0.66 1.32 1.32 2 2 C-1.96 2.66 -5.92 3.32 -10 4 C-8 0 -8 0 -5.5625 -0.8125 C-3 -1 -3 -1 0 0 Z " fill="#BA5138" transform="translate(214,154)"/>
<path d="M0 0 C0.66 0 1.32 0 2 0 C1.67 3.3 1.34 6.6 1 10 C0.01 10 -0.98 10 -2 10 C-1.85950482 8.52031676 -1.71245174 7.04125484 -1.5625 5.5625 C-1.48128906 4.73878906 -1.40007812 3.91507812 -1.31640625 3.06640625 C-1 1 -1 1 0 0 Z " fill="#B54429" transform="translate(303,264)"/>
<path d="M0 0 C0 3 0 3 -1.3125 4.38671875 C-2.875 5.59114583 -4.4375 6.79557292 -6 8 C-6.66 7.67 -7.32 7.34 -8 7 C-5.42215154 4.35247996 -3.08351902 2.05567935 0 0 Z " fill="#AC2E10" transform="translate(256,139)"/>
<path d="M0 0 C2.32101984 3.48152976 2.69903201 5.86169011 3 10 C2.34 10.66 1.68 11.32 1 12 C0.63762737 10.37681021 0.28534843 8.7513642 -0.0625 7.125 C-0.25972656 6.22007812 -0.45695312 5.31515625 -0.66015625 4.3828125 C-1 2 -1 2 0 0 Z " fill="#B23F23" transform="translate(298,128)"/>
<path d="M0 0 C2 3.75 2 3.75 2 6 C3.32 6.66 4.64 7.32 6 8 C5.34 8.66 4.68 9.32 4 10 C1.4375 7.8125 1.4375 7.8125 -1 5 C-0.8125 2.1875 -0.8125 2.1875 0 0 Z " fill="#B44227" transform="translate(272,169)"/>
<path d="M0 0 C3.7952131 1.49097658 5.61042731 3.75700849 8 7 C4.0521912 7 2.81491174 5.66275435 0 3 C0 2.01 0 1.02 0 0 Z " fill="#AB2E0F" transform="translate(283,111)"/>
<path d="M0 0 C2.375 0.1875 2.375 0.1875 5 1 C6.92164209 4.05715786 7.03249175 5.7129895 6.625 9.3125 C6.41875 10.199375 6.2125 11.08625 6 12 C5.67 12 5.34 12 5 12 C4.9175 10.7625 4.835 9.525 4.75 8.25 C4.36524541 5.01117036 4.09975997 4.12092117 1.9375 1.5 C1.298125 1.005 0.65875 0.51 0 0 Z " fill="#7C534B" transform="translate(224,105)"/>
<path d="M0 0 C1.32 0.33 2.64 0.66 4 1 C4 1.99 4 2.98 4 4 C1.69 4 -0.62 4 -3 4 C-2.01 2.68 -1.02 1.36 0 0 Z " fill="#DFCACB" transform="translate(352,320)"/>
<path d="M0 0 C-2.97180943 1.89865603 -5.51460083 3.35455571 -9 4 C-8 1 -8 1 -6.1875 -0.25 C-3.66056586 -1.11637742 -2.47778006 -0.88492145 0 0 Z " fill="#AE3517" transform="translate(284,160)"/>
<path d="M0 0 C1.10844919 3.32534757 0.84454356 5.62182575 0 9 C-0.99 9.33 -1.98 9.66 -3 10 C-2.25 3.375 -2.25 3.375 0 0 Z " fill="#B34125" transform="translate(307,242)"/>
<path d="M0 0 C2.64 0 5.28 0 8 0 C7.34 0.66 6.68 1.32 6 2 C5.01 2 4.02 2 3 2 C2.34 3.32 1.68 4.64 1 6 C0.67 4.02 0.34 2.04 0 0 Z " fill="#B0391C" transform="translate(189,211)"/>
<path d="M0 0 C0.99 0.33 1.98 0.66 3 1 C4.1875 4.0625 4.1875 4.0625 5 7 C4.01 7 3.02 7 2 7 C0.5393715 4.35261084 0 3.10551666 0 0 Z " fill="#B33F24" transform="translate(314,170)"/>
<path d="M0 0 C1.5 1.1875 1.5 1.1875 3 3 C3.1875 5.6875 3.1875 5.6875 3 8 C2.34 8 1.68 8 1 8 C-0.35439668 5.29120665 -0.06501451 2.99066732 0 0 Z " fill="#AE3417" transform="translate(237,255)"/>
<path d="M0 0 C0.33 0 0.66 0 1 0 C1.1875 3.375 1.1875 3.375 1 7 C0.01 7.66 -0.98 8.32 -2 9 C-1.125 1.125 -1.125 1.125 0 0 Z " fill="#AB2D0F" transform="translate(274,245)"/>
<path d="M0 0 C0.99 0 1.98 0 3 0 C3 1.98 3 3.96 3 6 C2.01 6 1.02 6 0 6 C0 4.02 0 2.04 0 0 Z " fill="#BA5138" transform="translate(274,230)"/>
<path d="M0 0 C-2.5654594 2.5654594 -4.47686668 2.54046087 -8 3 C-8 2.34 -8 1.68 -8 1 C-3.375 -1.125 -3.375 -1.125 0 0 Z " fill="#AB2E0F" transform="translate(300,209)"/>
</svg>
