<?xml version="1.0" encoding="UTF-8"?>
<svg version="1.1" xmlns="http://www.w3.org/2000/svg" width="256" height="256">
<path d="M0 0 C84.48 0 168.96 0 256 0 C256 84.48 256 168.96 256 256 C171.52 256 87.04 256 0 256 C0 171.52 0 87.04 0 0 Z " fill="#F9FAE9" transform="translate(0,0)"/>
<path d="M0 0 C84.48 0 168.96 0 256 0 C256 84.48 256 168.96 256 256 C171.52 256 87.04 256 0 256 C0 171.52 0 87.04 0 0 Z M100 23 C99.26531494 23.18812256 98.53062988 23.37624512 97.77368164 23.57006836 C70.78940439 30.96880837 46.22704432 49.95931046 32 74 C17.08768247 100.97365218 10.17684241 132.74143898 18.73828125 163.1015625 C28.26226835 193.44841433 47.52835432 219.77851514 75.86181641 234.91650391 C104.44227301 249.39927011 134.05140991 251.61955977 164.7578125 242.9375 C179.22331139 238.19255276 192.22746806 230.56061212 204 221 C204.93328125 220.29488281 205.8665625 219.58976563 206.828125 218.86328125 C207.54484375 218.24839844 208.2615625 217.63351563 209 217 C209 216.34 209 215.68 209 215 C209.66 215 210.32 215 211 215 C211 214.34 211 213.68 211 213 C211.99 212.67 212.98 212.34 214 212 C215.67083307 210.13923209 217.18590831 208.30263407 218.6875 206.3125 C219.12666748 205.7352417 219.56583496 205.1579834 220.01831055 204.56323242 C224.62615399 198.36912324 228.36520943 191.79689537 232 185 C232.47179687 184.17242187 232.94359375 183.34484375 233.4296875 182.4921875 C246.1715909 159.14522164 247.62478551 128.14258406 240.4140625 102.953125 C231.66945191 73.80442303 212.89476889 48.78993137 186.18359375 33.80859375 C169.0069139 24.61492719 151.20791578 19.62009844 131.69458008 19.68432617 C129.70062801 19.68747924 127.70669474 19.66316578 125.71289062 19.63867188 C116.77614633 19.6342543 108.64244024 20.74912445 100 23 Z " fill="#FEFEFE" transform="translate(0,0)"/>
<path d="M0 0 C0 0.99 0 1.98 0 3 C0.99 2.67 1.98 2.34 3 2 C8.68115942 0.84057971 8.68115942 0.84057971 11 2 C11.75 5.4375 11.75 5.4375 12 9 C11.34 9.66 10.68 10.32 10 11 C17.74048094 10.75427045 21.86181255 8.56795345 28 4 C31.21451269 2.39274365 34.43612536 2.94251815 38 3 C38 3.33 38 3.66 38 4 C36.700625 4.20625 35.40125 4.4125 34.0625 4.625 C24.01556197 6.92414256 17.59801247 13.63686757 12 22 C11.608125 23.175625 11.21625 24.35125 10.8125 25.5625 C9 28 9 28 6.2890625 28.44140625 C3.99631437 28.56699968 1.70155792 28.65917981 -0.59375 28.72265625 C-3.93717276 28.99488448 -6.0555401 29.65176719 -9.0625 31.0625 C-15.7341983 34.03977253 -23.2232592 34.22085764 -30.1875 31.9375 C-33 30 -33 30 -33.9375 26.3125 C-33.958125 25.219375 -33.97875 24.12625 -34 23 C-31.63953278 20.82023841 -30.45766102 20.01912233 -27.1953125 19.8828125 C-25.67550781 20.00269531 -25.67550781 20.00269531 -24.125 20.125 C-19.23476028 20.21457401 -19.23476028 20.21457401 -14.8125 18.1875 C-13.43296448 16.79927336 -13.43296448 16.79927336 -12 15 C-11.22269531 14.0821875 -10.44539063 13.164375 -9.64453125 12.21875 C-7.39106169 9.50759903 -5.18203962 6.76876583 -3 4 C-4.41702513 4.14230808 -5.8336096 4.28900746 -7.25 4.4375 C-8.03890625 4.51871094 -8.8278125 4.59992188 -9.640625 4.68359375 C-11.82364639 4.97634993 -13.8773182 5.42064419 -16 6 C-13.35196246 2.58718628 -10.42726168 2.16804451 -6.3125 1.3125 C-5.13300781 1.06113281 -3.95351562 0.80976562 -2.73828125 0.55078125 C-1.83464844 0.36902344 -0.93101563 0.18726562 0 0 Z " fill="#EEEEE1" transform="translate(74,109)"/>
<path d="M0 0 C8.40639301 -0.4923484 16.84123207 0.22748805 24 5 C23.67 6.65 23.34 8.3 23 10 C23.763125 10.226875 24.52625 10.45375 25.3125 10.6875 C28.68439721 12.3342405 29.54704383 13.55878802 31 17 C31.27142676 20.86783126 31.18553298 24.29520943 30 28 C29.34 28 28.68 28 28 28 C27.61714844 28.92425781 27.61714844 28.92425781 27.2265625 29.8671875 C24.64644376 34.35363601 19.04483564 35.63971185 14.375 37.25 C8.38243395 38.62179223 2.1042144 38.15432003 -4 38 C-4 37.67 -4 37.34 -4 37 C1.94 36.505 1.94 36.505 8 36 C4.37 35.67 0.74 35.34 -3 35 C-3 34.67 -3 34.34 -3 34 C-5.97 33.01 -8.94 32.02 -12 31 C-8.9312405 29.97708017 -7.12652625 29.98734419 -3.9375 30.125 C3.07088909 30.18069581 9.07804276 28.88709738 15 25.0625 C16.92088273 23.08158969 17.84656502 21.46649713 19 19 C18.42032471 19.23187012 17.84064941 19.46374023 17.2434082 19.70263672 C11.16227214 22.13509115 5.08113607 24.56754557 -1 27 C-2.30094604 27.56678467 -2.30094604 27.56678467 -3.62817383 28.14501953 C-6.48604908 29.17520781 -8.11978856 28.82291755 -11 28 C-11.63019694 17.84682713 -11.63019694 17.84682713 -9 14.3125 C-8.34 13.879375 -7.68 13.44625 -7 13 C-7 13.66 -7 14.32 -7 15 C1.814299 12.74603165 10.39630728 9.9375631 19 7 C15.31286264 4.73830234 11.460444 4.36051434 7.25 3.875 C6.20392578 3.74544922 6.20392578 3.74544922 5.13671875 3.61328125 C3.42527668 3.40228154 1.71273371 3.20024499 0 3 C-0.33 3.66 -0.66 4.32 -1 5 C-0.67 3.35 -0.34 1.7 0 0 Z " fill="#E5E5D7" transform="translate(138,192)"/>
<path d="M0 0 C1.53445094 3.06890187 0.54984289 5.70094266 0 9 C-3.33319801 10.27118845 -6.66658327 11.54188521 -10 12.8125 C-11.40185547 13.34713867 -11.40185547 13.34713867 -12.83203125 13.89257812 C-18.21549308 15.94431707 -23.60353976 17.98269116 -29 20 C-30 19 -30 19 -30.09765625 16.93359375 C-30.08605469 16.10988281 -30.07445313 15.28617188 -30.0625 14.4375 C-30.05347656 13.61121094 -30.04445313 12.78492188 -30.03515625 11.93359375 C-30.02355469 11.29550781 -30.01195313 10.65742188 -30 10 C-28.90328979 9.65219482 -28.90328979 9.65219482 -27.78442383 9.29736328 C-24.45983584 8.24182967 -21.13616233 7.18344453 -17.8125 6.125 C-16.66201172 5.76019531 -15.51152344 5.39539063 -14.32617188 5.01953125 C-13.21435547 4.66503906 -12.10253906 4.31054688 -10.95703125 3.9453125 C-9.93585205 3.62062988 -8.91467285 3.29594727 -7.86254883 2.96142578 C-5.19610398 2.06586418 -2.59934722 1.07314415 0 0 Z " fill="#F9FAEB" transform="translate(158,200)"/>
<path d="M0 0 C0.99 1.32 1.98 2.64 3 4 C1.35 5.32 -0.3 6.64 -2 8 C-0.68 8.99 0.64 9.98 2 11 C1.34 12.65 0.68 14.3 0 16 C0.66 16 1.32 16 2 16 C2.33 13.03 2.66 10.06 3 7 C4.32 6.67 5.64 6.34 7 6 C7.33 6.33 7.66 6.66 8 7 C8.66 6.01 9.32 5.02 10 4 C10.144375 5.2375 10.28875 6.475 10.4375 7.75 C10.88419261 10.00188175 10.88419261 10.00188175 12 12 C14.22027951 13.36205609 16.42036282 14.18123569 18.86328125 15.07421875 C21 16 21 16 23.125 18.5 C24.07400277 21.21143647 24.07087069 22.37149923 23 25 C21.375 25.75 21.375 25.75 19 26 C12.65563201 22.32026657 10.98216789 19.93758762 9 13 C8.34 12.34 7.68 11.68 7 11 C6.278125 12.093125 5.55625 13.18625 4.8125 14.3125 C2.57537652 17.43686792 0.61908545 19.47617455 -3 21 C-6 20 -6 20 -7 18.25 C-7 16 -7 16 -4.5625 13.25 C-3.716875 12.5075 -2.87125 11.765 -2 11 C-2.66 10.67 -3.32 10.34 -4 10 C-4.33 10.99 -4.66 11.98 -5 13 C-5.33 12.34 -5.66 11.68 -6 11 C-6.66 10.67 -7.32 10.34 -8 10 C-6.50260417 8.76302083 -5.00520833 7.52604167 -3.5078125 6.2890625 C-2.28948839 5.24749008 -1.13339903 4.13339903 0 3 C0 2.01 0 1.02 0 0 Z " fill="#A7A799" transform="translate(122,165)"/>
<path d="M0 0 C2.31 0 4.62 0 7 0 C6.90594476 6.10173836 6.79973833 12.20310407 6.68261719 18.30444336 C6.64450312 20.37697673 6.60962067 22.44957229 6.578125 24.5222168 C6.53209059 27.51373415 6.47416187 30.50482977 6.4140625 33.49609375 C6.39673569 34.87008583 6.39673569 34.87008583 6.37905884 36.27183533 C6.21120317 43.70789229 5.85188462 51.53006899 1.0625 57.5625 C0.55847656 58.22378906 0.05445313 58.88507813 -0.46484375 59.56640625 C-2 61 -2 61 -5 61 C-4.071875 59.5459375 -4.071875 59.5459375 -3.125 58.0625 C0.99184755 50.8041931 1.30841392 42.89256848 1.4140625 34.71484375 C1.43342865 33.77314835 1.4527948 32.83145294 1.4727478 31.86122131 C1.53198873 28.88673642 1.57870474 25.91221164 1.625 22.9375 C1.66323096 20.90688522 1.70228558 18.87628576 1.7421875 16.84570312 C1.83764389 11.89726159 1.92187698 6.9487443 2 2 C1.34 2 0.68 2 0 2 C0 1.34 0 0.68 0 0 Z " fill="#232320" transform="translate(147,37)"/>
<path d="M0 0 C-0.3259949 3.04261908 -0.97895261 3.9801219 -3.25 6.125 C-7.36776251 8.93256535 -9.98327145 10 -15 10 C-15 10.66 -15 11.32 -15 12 C-13.2984375 11.9690625 -13.2984375 11.9690625 -11.5625 11.9375 C-8 12 -8 12 -7 13 C-7.24364892 16.28926044 -7.50158671 19.06181028 -9.0625 22 C-12.33941519 23.69131106 -15.5678102 22.84552121 -19 22 C-21.42745722 21.1284881 -23.66839585 20.11722699 -26 19 C-25.34 18.360625 -24.68 17.72125 -24 17.0625 C-21.57238848 14.66224185 -19.39239482 12.10499408 -17.1875 9.5 C-12.69042877 4.417461 -7.34289879 -1.14732794 0 0 Z " fill="#F9F9EB" transform="translate(83,112)"/>
<path d="M0 0 C8.40639301 -0.4923484 16.84123207 0.22748805 24 5 C23.26686368 8.77041535 22.45072483 12.51301263 21.5625 16.25 C21.31628906 17.30703125 21.07007813 18.3640625 20.81640625 19.453125 C20.54699219 20.29359375 20.27757812 21.1340625 20 22 C19.34 22.33 18.68 22.66 18 23 C18.33 21.68 18.66 20.36 19 19 C18.42032471 19.23187012 17.84064941 19.46374023 17.2434082 19.70263672 C11.16227214 22.13509115 5.08113607 24.56754557 -1 27 C-2.30094604 27.56678467 -2.30094604 27.56678467 -3.62817383 28.14501953 C-6.48604908 29.17520781 -8.11978856 28.82291755 -11 28 C-11.63019694 17.84682713 -11.63019694 17.84682713 -9 14.3125 C-8.34 13.879375 -7.68 13.44625 -7 13 C-7 13.66 -7 14.32 -7 15 C1.814299 12.74603165 10.39630728 9.9375631 19 7 C15.31286264 4.73830234 11.460444 4.36051434 7.25 3.875 C6.20392578 3.74544922 6.20392578 3.74544922 5.13671875 3.61328125 C3.42527668 3.40228154 1.71273371 3.20024499 0 3 C-0.33 3.66 -0.66 4.32 -1 5 C-0.67 3.35 -0.34 1.7 0 0 Z M15.625 9.42578125 C14.72136719 9.72806641 13.81773437 10.03035156 12.88671875 10.34179688 C11.93410156 10.66212891 10.98148438 10.98246094 10 11.3125 C8.61748047 11.7755957 8.61748047 11.7755957 7.20703125 12.24804688 C5.36960732 12.86354502 3.53236577 13.47958788 1.6953125 14.09619141 C-2.20133801 15.40283997 -6.10061509 16.70153679 -10 18 C-10 20.97 -10 23.94 -10 27 C-7.96794581 28.30673148 -7.96794581 28.30673148 -5.52563477 27.21142578 C-4.50783936 26.7936084 -3.49004395 26.37579102 -2.44140625 25.9453125 C-1.33345703 25.49542969 -0.22550781 25.04554688 0.91601562 24.58203125 C2.07810547 24.10121094 3.24019531 23.62039062 4.4375 23.125 C6.72764651 22.1895701 9.01800155 21.25465051 11.30859375 20.3203125 C12.32751709 19.90023926 13.34644043 19.48016602 14.39624023 19.04736328 C16.24125293 18.30520627 18.11336755 17.62887748 20 17 C20.33 14.03 20.66 11.06 21 8 C19.13812882 8 17.37258418 8.83952051 15.625 9.42578125 Z " fill="#949585" transform="translate(138,192)"/>
<path d="M0 0 C2.31 0 4.62 0 7 0 C6.83792557 0.57282211 6.67585114 1.14564423 6.50886536 1.73582458 C6.00419135 3.98135074 5.8692262 5.9298905 5.8581543 8.22680664 C5.85111984 9.05189224 5.84408539 9.87697784 5.83683777 10.72706604 C5.83267349 11.61248581 5.82850922 12.49790558 5.82421875 13.41015625 C5.80100405 15.30665152 5.77688606 17.20313591 5.75195312 19.09960938 C5.71699998 22.07258217 5.68757878 25.04515828 5.67407227 28.01831055 C5.53856151 52.99607023 5.53856151 52.99607023 -0.58813477 59.75097656 C-2.25 61.1875 -2.25 61.1875 -5 63 C-5.66 62.67 -6.32 62.34 -7 62 C-6.401875 61.484375 -5.80375 60.96875 -5.1875 60.4375 C1.08475695 53.44841369 1.15258588 45.05475446 1.1328125 36.2109375 C1.13376923 35.27069733 1.13472595 34.33045715 1.13571167 33.36172485 C1.13639059 31.37982109 1.13455639 29.39791508 1.13037109 27.41601562 C1.12500681 24.37885572 1.13033198 21.34184289 1.13671875 18.3046875 C1.13605815 16.37760384 1.13477737 14.45052027 1.1328125 12.5234375 C1.13483673 11.61403412 1.13686096 10.70463074 1.13894653 9.76766968 C1.13421829 8.50087875 1.13421829 8.50087875 1.12939453 7.20849609 C1.12859894 6.46634857 1.12780334 5.72420105 1.12698364 4.95956421 C1.06941257 2.78454103 1.06941257 2.78454103 0 0 Z " fill="#070606" transform="translate(113,37)"/>
<path d="M0 0 C2 2 2 2 2 4.4375 C1 7 1 7 -1.25 8.75 C-5.02672635 10.00890878 -7.38760589 9.98799571 -11.3125 9.9375 C-15.83325888 10.14463672 -17.47512775 10.50359787 -20.80859375 13.65625 C-23.5955219 17.19232341 -25.98625987 20.97251975 -28 25 C-28.66 25 -29.32 25 -30 25 C-30.268125 25.928125 -30.53625 26.85625 -30.8125 27.8125 C-31.91148371 30.76240366 -32.62418561 32.05615186 -35 34 C-33.7303758 24.20064706 -24.98929571 14.6221282 -18 8 C-6.67695371 -0.70283723 -6.67695371 -0.70283723 0 0 Z " fill="#77786C" transform="translate(171,111)"/>
<path d="M0 0 C0.80824219 0.11085937 1.61648437 0.22171875 2.44921875 0.3359375 C3.37154297 0.47902344 3.37154297 0.47902344 4.3125 0.625 C3.3225 2.11 3.3225 2.11 2.3125 3.625 C3.3025 2.965 4.2925 2.305 5.3125 1.625 C9.85999853 2.01478559 14.09417704 3.98056901 18.3125 5.625 C17.3125 7.625 17.3125 7.625 14.72265625 8.73046875 C10.947488 9.72074771 7.65025202 9.92569298 3.75 9.9375 C2.46996094 9.95425781 1.18992187 9.97101563 -0.12890625 9.98828125 C-3.83004554 9.61044815 -5.71251808 8.78914232 -8.6875 6.625 C-8.375 4.25 -8.375 4.25 -7.6875 1.625 C-4.33422361 -0.61051759 -3.78006343 -0.54783528 0 0 Z " fill="#FAFBEE" transform="translate(49.6875,130.375)"/>
<path d="M0 0 C0.66 0.33 1.32 0.66 2 1 C1.34 1.66 0.68 2.32 0 3 C2.64 3.33 5.28 3.66 8 4 C8 4.33 8 4.66 8 5 C4.04 5 0.08 5 -4 5 C-4.66 6.32 -5.32 7.64 -6 9 C-6.66666667 10.33333333 -7.33333333 11.66666667 -8 13 C-6.35 12.67 -4.7 12.34 -3 12 C-3.33 12.99 -3.66 13.98 -4 15 C-4.99 15 -5.98 15 -7 15 C-7.33 17.31 -7.66 19.62 -8 22 C-9.125 18.25 -9.125 18.25 -8 16 C-12.70842624 18.11326526 -12.70842624 18.11326526 -16 22 C-18.3125 22.58203125 -18.3125 22.58203125 -21 22.8125 C-21.886875 22.90144531 -22.77375 22.99039063 -23.6875 23.08203125 C-26 23 -26 23 -28 21 C-27.81407107 18.21106599 -26.9449417 16.92724439 -25.25 14.6875 C-23 13 -23 13 -20.5 13.1875 C-19.675 13.455625 -18.85 13.72375 -18 14 C-16.66838689 14.3401403 -15.33530637 14.67466052 -14 15 C-13.23816406 14.00419922 -13.23816406 14.00419922 -12.4609375 12.98828125 C-8.62855756 8.07221335 -4.99277951 3.74458463 0 0 Z " fill="#A0A195" transform="translate(135,116)"/>
<path d="M0 0 C0.65234375 1.78125 0.65234375 1.78125 1 4 C-1.94850114 9.62559214 -7.22302368 12.82486317 -13 15 C-19.21937324 16.93951348 -27.00284068 17.02899267 -33.1875 14.9375 C-36 13 -36 13 -36.9375 9.3125 C-36.958125 8.219375 -36.97875 7.12625 -37 6 C-33.65188525 2.92618862 -31.41856606 2.66257586 -26.9375 2.8125 C-25.37322266 2.85310547 -25.37322266 2.85310547 -23.77734375 2.89453125 C-22.86082031 2.92933594 -21.94429687 2.96414062 -21 3 C-20.01 3 -19.02 3 -18 3 C-18 3.66 -18 4.32 -18 5 C-11.69323835 7.86097559 -11.69323835 7.86097559 -5 8 C-2.46161323 5.39110249 -1.15259683 3.45779049 0 0 Z M-36 7 C-35.81171228 9.44480079 -35.81171228 9.44480079 -35 12 C-29.8292617 15.7224234 -22.06733335 14.4463177 -16 14 C-13.27724387 13.27532798 -11.44183835 12.42936879 -9 11 C-13.09835671 8.2677622 -16.89461377 5.77602274 -21.9375 6.3125 C-22.618125 6.539375 -23.29875 6.76625 -24 7 C-23.67 6.67 -23.34 6.34 -23 6 C-27.84738032 2.76841312 -31.71369629 3.04341196 -36 7 Z " fill="#6A6B61" transform="translate(77,126)"/>
<path d="M0 0 C0.625 2.375 0.625 2.375 1 5 C0.34 5.66 -0.32 6.32 -1 7 C-0.01 7.66 0.98 8.32 2 9 C0.56445975 9.50559908 -0.8735202 10.0042749 -2.3125 10.5 C-3.11300781 10.7784375 -3.91351563 11.056875 -4.73828125 11.34375 C-7 12 -7 12 -10 12 C-9.01 11.01 -8.02 10.02 -7 9 C-9.97 8.67 -12.94 8.34 -16 8 C-12.49932232 1.69878018 -7.63997078 -2.54665693 0 0 Z " fill="#D6D6CB" transform="translate(150,112)"/>
<path d="M0 0 C2.6683716 2.31024804 2.97731311 2.68805529 3.25 6.4375 C3.05961139 9.15053764 2.82235644 11.43013612 2 14 C1.34 14 0.68 14 0 14 C-0.25523437 14.61617187 -0.51046875 15.23234375 -0.7734375 15.8671875 C-3.35355624 20.35363601 -8.95516436 21.63971185 -13.625 23.25 C-19.61756605 24.62179223 -25.8957856 24.15432003 -32 24 C-32 23.67 -32 23.34 -32 23 C-30.94941406 22.92523438 -29.89882812 22.85046875 -28.81640625 22.7734375 C-20.39948915 22.04061635 -13.25034855 21.27901987 -7 15 C-4.16006003 11.3782788 -2.55647181 7.59089241 -2 3 C-1.67 3 -1.34 3 -1 3 C-1 5.97 -1 8.94 -1 12 C1.23551759 8.64672361 1.17283528 8.09256343 0.625 4.3125 C0.51414063 3.50425781 0.40328125 2.69601563 0.2890625 1.86328125 C0.19367188 1.24839844 0.09828125 0.63351563 0 0 Z " fill="#B6B6A9" transform="translate(166,206)"/>
<path d="M0 0 C0 0.99 0 1.98 0 3 C0.99 2.67 1.98 2.34 3 2 C8.68115942 0.84057971 8.68115942 0.84057971 11 2 C10.74220026 5.78106289 10.47578037 7.52421963 7.75 10.25 C3.39966917 13.01839234 0.19181441 14.29667511 -5 14 C-2.62405026 12.4160335 -0.57359712 11.33294569 2 10.1875 C5.62084837 8.42366761 7.32565763 6.76727034 9 3 C-0.49657999 5.43502051 -7.06731782 11.48399749 -13 19 C-13.66 18.67 -14.32 18.34 -15 18 C-14.28972656 17.24074219 -13.57945313 16.48148438 -12.84765625 15.69921875 C-11.91902166 14.69554298 -10.99064991 13.69162399 -10.0625 12.6875 C-9.59392578 12.18798828 -9.12535156 11.68847656 -8.64257812 11.17382812 C-6.44302897 8.78438984 -5.03973187 7.11919562 -4 4 C-7.96 4.66 -11.92 5.32 -16 6 C-12.58678765 2.58678765 -10.93659649 2.27394581 -6.3125 1.3125 C-5.13300781 1.06113281 -3.95351562 0.80976562 -2.73828125 0.55078125 C-1.83464844 0.36902344 -0.93101563 0.18726562 0 0 Z " fill="#6A6A61" transform="translate(74,109)"/>
<path d="M0 0 C-1.44077046 3.36179774 -3.24750021 5.59156268 -6 8 C-6.66 8 -7.32 8 -8 8 C-8.66 8.495 -9.32 8.99 -10 9.5 C-12 11 -12 11 -14 11 C-15.20307039 16.01131486 -15.20307039 16.01131486 -14.17578125 20.8671875 C-12.96781292 22.69222868 -12.96781292 22.69222868 -11 25 C-14.16115776 23.63016497 -14.9927092 23.0109362 -17 20 C-17.25760279 17.30547479 -17.08900053 14.71451625 -17 12 C-18.98 12.99 -18.98 12.99 -21 14 C-19.63909695 9.37611304 -17.76980797 7.77072334 -13.6875 5.3125 C-12.74261719 4.73113281 -11.79773438 4.14976562 -10.82421875 3.55078125 C-7.12631959 1.52026124 -4.25381518 0 0 0 Z " fill="#C2C2B5" transform="translate(137,197)"/>
<path d="M0 0 C0.66 0 1.32 0 2 0 C2 0.66 2 1.32 2 2 C2.66 2 3.32 2 4 2 C3.52797514 6.24822374 1.03344482 8.19989709 -2 11 C-2 9.68 -2 8.36 -2 7 C-2.845625 7.639375 -3.69125 8.27875 -4.5625 8.9375 C-7.9189572 11.19112126 -10.94851942 11.76167761 -15 12 C-16 11 -16 11 -16.3125 8.6875 C-16 6 -16 6 -14.3125 3.6875 C-11.60883753 1.71455712 -10.27034459 1.63662838 -7 2 C-7.33 3.98 -7.66 5.96 -8 8 C-3.9096743 5.89956248 -2.24607401 3.95736849 0 0 Z " fill="#CECFC0" transform="translate(168,127)"/>
<path d="M0 0 C5.30772157 0.09493486 10.02339019 1.56705021 15 3.3125 C15.33 4.9625 15.66 6.6125 16 8.3125 C15.34 8.3125 14.68 8.3125 14 8.3125 C14 7.6525 14 6.9925 14 6.3125 C13.34 5.9825 12.68 5.6525 12 5.3125 C11.67 5.9725 11.34 6.6325 11 7.3125 C9.00822259 7.69188617 7.00569659 8.01535977 5 8.3125 C3.80375 8.663125 2.6075 9.01375 1.375 9.375 C-2 10.3125 -2 10.3125 -6 10.3125 C-5.67 10.9725 -5.34 11.6325 -5 12.3125 C-6.32 11.9825 -7.64 11.6525 -9 11.3125 C-8.34 10.3225 -7.68 9.3325 -7 8.3125 C-5.0546875 8.01953125 -5.0546875 8.01953125 -2.875 8.125 C-1.59625 8.186875 -0.3175 8.24875 1 8.3125 C0.67 6.3325 0.34 4.3525 0 2.3125 C-0.99 2.3125 -1.98 2.3125 -3 2.3125 C-3.99 2.3125 -4.98 2.3125 -6 2.3125 C-3.65820867 -0.02929133 -3.18019135 0.01703674 0 0 Z " fill="#898A7E" transform="translate(114,157.6875)"/>
<path d="M0 0 C-0.33 0.66 -0.66 1.32 -1 2 C-0.01 2 0.98 2 2 2 C2 4.31 2 6.62 2 9 C0.35 8.67 -1.3 8.34 -3 8 C-2.95875 8.928125 -2.9175 9.85625 -2.875 10.8125 C-3 14 -3 14 -5 17 C-5.66 17 -6.32 17 -7 17 C-6.7525 16.2575 -6.505 15.515 -6.25 14.75 C-6.1675 13.8425 -6.085 12.935 -6 12 C-7.83358335 9.66545339 -7.83358335 9.66545339 -10 8 C-8.35 7.01 -6.7 6.02 -5 5 C-5.66 3.35 -6.32 1.7 -7 0 C-3.98968256 -0.93423645 -3.13349732 -1.04449911 0 0 Z " fill="#CECEC4" transform="translate(129,164)"/>
<path d="M0 0 C0.99 1.32 1.98 2.64 3 4 C1.35 4.33 -0.3 4.66 -2 5 C-1.67 7.97 -1.34 10.94 -1 14 C-0.22809326 13.69707031 0.54381348 13.39414063 1.33911133 13.08203125 C4.82821931 11.71612283 8.32029776 10.3579767 11.8125 9 C13.02744141 8.52304688 14.24238281 8.04609375 15.49414062 7.5546875 C16.65751953 7.10351562 17.82089844 6.65234375 19.01953125 6.1875 C20.62985229 5.55908203 20.62985229 5.55908203 22.27270508 4.91796875 C25 4 25 4 28 4 C28 5.65 28 7.3 28 9 C27.01 9.495 27.01 9.495 26 10 C26.33 8.68 26.66 7.36 27 6 C26.42032471 6.23187012 25.84064941 6.46374023 25.2434082 6.70263672 C19.16227214 9.13509115 13.08113607 11.56754557 7 14 C6.13270264 14.37785645 5.26540527 14.75571289 4.37182617 15.14501953 C1.51395092 16.17520781 -0.11978856 15.82291755 -3 15 C-3.08142927 13.2507786 -3.13938541 11.50045458 -3.1875 9.75 C-3.22230469 8.77546875 -3.25710937 7.8009375 -3.29296875 6.796875 C-2.96075202 3.62531258 -2.11327721 2.32959693 0 0 Z " fill="#707165" transform="translate(130,205)"/>
<path d="M0 0 C0.66 0.33 1.32 0.66 2 1 C1.34 1.66 0.68 2.32 0 3 C2.64 3.33 5.28 3.66 8 4 C8 4.33 8 4.66 8 5 C4.04 5 0.08 5 -4 5 C-4.66 6.32 -5.32 7.64 -6 9 C-6.66666667 10.33333333 -7.33333333 11.66666667 -8 13 C-6.35 12.67 -4.7 12.34 -3 12 C-3.33 12.99 -3.66 13.98 -4 15 C-4.99 15 -5.98 15 -7 15 C-7.33 17.31 -7.66 19.62 -8 22 C-9.125 18.25 -9.125 18.25 -8 16 C-11.14191424 17.53604696 -14.08596738 19.05731159 -17 21 C-14.10101717 12.48809298 -7.12662087 5.29928218 0 0 Z " fill="#4D4D45" transform="translate(135,116)"/>
<path d="M0 0 C0.66 0.66 1.32 1.32 2 2 C-1 2 -1 2 -3 1 C-2.67 2.98 -2.34 4.96 -2 7 C-12.04705882 8.31764706 -12.04705882 8.31764706 -16 7 C-11.07011683 1.64755541 -7.39909226 -0.65769709 0 0 Z " fill="#E3E3D6" transform="translate(117,159)"/>
<path d="M0 0 C0 1.32 0 2.64 0 4 C-5.36439644 6.68219822 -9.01006953 7.3152595 -15 7 C-9.96702568 1.687416 -7.39491636 -0.33613256 0 0 Z " fill="#F8F8EC" transform="translate(171,113)"/>
<path d="M0 0 C0.99 1.32 1.98 2.64 3 4 C1.35 5.32 -0.3 6.64 -2 8 C-0.68 8.99 0.64 9.98 2 11 C1.34 12.65 0.68 14.3 0 16 C-0.99 16 -1.98 16 -3 16 C-3.66 16.99 -4.32 17.98 -5 19 C-3.35 18.67 -1.7 18.34 0 18 C-0.99 18.99 -1.98 19.98 -3 21 C-6 20 -6 20 -7 18.25 C-7 16 -7 16 -4.5625 13.25 C-3.716875 12.5075 -2.87125 11.765 -2 11 C-2.66 10.67 -3.32 10.34 -4 10 C-4.33 10.99 -4.66 11.98 -5 13 C-5.33 12.34 -5.66 11.68 -6 11 C-6.66 10.67 -7.32 10.34 -8 10 C-6.50260417 8.76302083 -5.00520833 7.52604167 -3.5078125 6.2890625 C-2.28948839 5.24749008 -1.13339903 4.13339903 0 3 C0 2.01 0 1.02 0 0 Z " fill="#87877A" transform="translate(122,165)"/>
<path d="M0 0 C1.0725 0.2475 2.145 0.495 3.25 0.75 C2.940625 1.513125 2.63125 2.27625 2.3125 3.0625 C1.57106407 4.93789677 0.88771783 6.83684652 0.25 8.75 C-0.41 8.75 -1.07 8.75 -1.75 8.75 C-2.08 8.09 -2.41 7.43 -2.75 6.75 C-4.4 7.08 -6.05 7.41 -7.75 7.75 C-7.75 3.75 -7.75 3.75 -6.1875 1.4375 C-3.75 -0.25 -3.75 -0.25 0 0 Z " fill="#808076" transform="translate(99.75,129.25)"/>
<path d="M0 0 C2.25 -0.3125 2.25 -0.3125 5 0 C7.3125 2.25 7.3125 2.25 9 5 C9 6.32 9 7.64 9 9 C3.6 8.4 3.6 8.4 1.125 6.75 C-0.37422891 4.41786614 -0.22023906 2.71628175 0 0 Z " fill="#FBFCF0" transform="translate(135,180)"/>
<path d="M0 0 C0.99 0.66 1.98 1.32 3 2 C1.63855967 7.19822672 -0.46730171 10.09543873 -4 14 C-5.32 13.67 -6.64 13.34 -8 13 C-6.35 10.03 -4.7 7.06 -3 4 C-2.34 4 -1.68 4 -1 4 C-0.67 2.68 -0.34 1.36 0 0 Z " fill="#DFDFD2" transform="translate(144,132)"/>
<path d="M0 0 C0 0.33 0 0.66 0 1 C-1.299375 1.20625 -2.59875 1.4125 -3.9375 1.625 C-14.07116161 3.94398839 -20.26040338 10.67354294 -26 19 C-27.16892371 20.98481677 -28.10494567 22.87424597 -29 25 C-29.71484375 23.33203125 -29.71484375 23.33203125 -30 21 C-23.71209987 9.30199777 -13.74390247 -0.71089151 0 0 Z " fill="#373731" transform="translate(112,112)"/>
<path d="M0 0 C10.55808656 -0.18451025 10.55808656 -0.18451025 15 1 C15 1.66 15 2.32 15 3 C15.99 3 16.98 3 18 3 C18 3.66 18 4.32 18 5 C12.06 4.34 6.12 3.68 0 3 C-0.33 3.66 -0.66 4.32 -1 5 C-0.67 3.35 -0.34 1.7 0 0 Z " fill="#B1B2A4" transform="translate(138,192)"/>
<path d="M0 0 C0 0.66 0 1.32 0 2 C-1.15433818 3.15433818 -2.31285456 4.30480365 -3.4921875 5.43359375 C-6.76561246 8.83422435 -9.88494713 12.76989427 -12 17 C-12.66 17 -13.32 17 -14 17 C-14.268125 17.928125 -14.53625 18.85625 -14.8125 19.8125 C-15.91148371 22.76240366 -16.62418561 24.05615186 -19 26 C-18.11695781 19.18440677 -7.75844935 0 0 0 Z " fill="#2E2E29" transform="translate(155,119)"/>
<path d="M0 0 C-0.928125 0.763125 -1.85625 1.52625 -2.8125 2.3125 C-4.98276101 4.11848552 -7.05568065 5.9476629 -9 8 C-9.66 7.34 -10.32 6.68 -11 6 C-9.68 5.01 -8.36 4.02 -7 3 C-8.98 2.34 -10.96 1.68 -13 1 C-13 0.34 -13 -0.32 -13 -1 C-11.58566794 -1.2236337 -10.16832382 -1.42826476 -8.75 -1.625 C-7.56664063 -1.79902344 -7.56664063 -1.79902344 -6.359375 -1.9765625 C-3.67847541 -2.00319395 -2.27305911 -1.36592084 0 0 Z " fill="#88887C" transform="translate(113,181)"/>
<path d="M0 0 C0 3 0 3 -1 5 C2.3 4.34 5.6 3.68 9 3 C7 6 7 6 5.265625 6.68359375 C2.40416394 7.08321159 -0.361418 7.09389763 -3.25 7.0625 C-4.32765625 7.05347656 -5.4053125 7.04445313 -6.515625 7.03515625 C-7.33546875 7.02355469 -8.1553125 7.01195313 -9 7 C-6.19195732 4.03595495 -3.81684226 1.55500981 0 0 Z " fill="#CFD0C2" transform="translate(103,114)"/>
<path d="M0 0 C0.99 0.33 1.98 0.66 3 1 C2.01 1.66 1.02 2.32 0 3 C-1.2188121 6.55672179 -1.2188121 6.55672179 -2 10 C-4.78823655 11.0326802 -5.8677274 11.04509293 -8.75 10.0625 C-9.4925 9.711875 -10.235 9.36125 -11 9 C-7.93882432 6.37613513 -7.26826873 6 -3 6 C-3.33 5.01 -3.66 4.02 -4 3 C-2.1875 1.4375 -2.1875 1.4375 0 0 Z " fill="#919286" transform="translate(194,128)"/>
<path d="M0 0 C0.66 0.33 1.32 0.66 2 1 C2.75 3.375 2.75 3.375 3 6 C2.01 7.485 2.01 7.485 1 9 C-1.625 9.1875 -1.625 9.1875 -4 9 C-4.25 6.1875 -4.25 6.1875 -4 3 C-2 1.125 -2 1.125 0 0 Z " fill="#E3E3D5" transform="translate(197,128)"/>
<path d="M0 0 C-1.44077046 3.36179774 -3.24750021 5.59156268 -6 8 C-6.66 8 -7.32 8 -8 8 C-9.36161311 8.96113866 -10.69855198 9.95884159 -12 11 C-12.66 10.67 -13.32 10.34 -14 10 C-11.36 8.02 -8.72 6.04 -6 4 C-8.31 4.66 -10.62 5.32 -13 6 C-9.79001231 2.03472109 -5.0381893 0 0 0 Z " fill="#8A8B7E" transform="translate(137,197)"/>
<path d="M0 0 C0.99 0.33 1.98 0.66 3 1 C5.14255793 0.61067144 5.14255793 0.61067144 7 0 C3.30391712 4.29805077 -1.5893114 5.07023967 -7 6 C-11.68022378 6.22876858 -16.31898341 6.18450722 -21 6 C-21 5.67 -21 5.34 -21 5 C-19.90300781 4.89042969 -18.80601562 4.78085938 -17.67578125 4.66796875 C-16.22128484 4.50844334 -14.76686137 4.34825187 -13.3125 4.1875 C-12.59126953 4.11724609 -11.87003906 4.04699219 -11.12695312 3.97460938 C-6.63437298 3.46175776 -3.87799563 2.43859545 0 0 Z " fill="#757669" transform="translate(155,224)"/>
<path d="M0 0 C0.99 0.66 1.98 1.32 3 2 C3.66 2.33 4.32 2.66 5 3 C3 5 3 5 1 5.4375 C-1.38640738 5.87458708 -1.38640738 5.87458708 -3 9 C-3.33 7.68 -3.66 6.36 -4 5 C-6.31 4.67 -8.62 4.34 -11 4 C-10.67 3.34 -10.34 2.68 -10 2 C-7.97511372 1.71073053 -5.94755984 1.42727846 -3.91015625 1.24609375 C-1.91747967 1.09593122 -1.91747967 1.09593122 0 0 Z " fill="#CECFC1" transform="translate(79,120)"/>
<path d="M0 0 C0.33 1.32 0.66 2.64 1 4 C1.99 4.33 2.98 4.66 4 5 C2.39743892 5.50512244 0.79288208 6.00391627 -0.8125 6.5 C-2.15248047 6.91765625 -2.15248047 6.91765625 -3.51953125 7.34375 C-6 8 -6 8 -9 8 C-6.03 5.36 -3.06 2.72 0 0 Z " fill="#EAEBDF" transform="translate(73,115)"/>
<path d="M0 0 C0.99 0.33 1.98 0.66 3 1 C1.4375 3.5 1.4375 3.5 -1 6 C-4.75 6.3125 -4.75 6.3125 -8 6 C-7.67 4.68 -7.34 3.36 -7 2 C-5.34385343 1.61781233 -3.67542976 1.28604898 -2 1 C-1.67 1.33 -1.34 1.66 -1 2 C-0.67 1.34 -0.34 0.68 0 0 Z " fill="#D0D1C6" transform="translate(118,175)"/>
<path d="M0 0 C0.99 0.66 1.98 1.32 3 2 C3.43132515 6.05445642 3.30019361 7.54970958 1 11 C0.34 11 -0.32 11 -1 11 C-0.7525 10.2575 -0.505 9.515 -0.25 8.75 C-0.1675 7.8425 -0.085 6.935 0 6 C-1.83358335 3.66545339 -1.83358335 3.66545339 -4 2 C-2.68 1.34 -1.36 0.68 0 0 Z " fill="#F1F2E7" transform="translate(123,170)"/>
<path d="M0 0 C0.625 1.875 0.625 1.875 1 4 C0.34 4.66 -0.32 5.32 -1 6 C-0.01 6.66 0.98 7.32 2 8 C0.56445975 8.50559908 -0.8735202 9.0042749 -2.3125 9.5 C-3.11300781 9.7784375 -3.91351563 10.056875 -4.73828125 10.34375 C-7 11 -7 11 -10 11 C-9.01 10.01 -8.02 9.02 -7 8 C-7.66 7.34 -8.32 6.68 -9 6 C-7.88625 5.7525 -6.7725 5.505 -5.625 5.25 C-1.95384802 4.38994661 -1.95384802 4.38994661 -0.5625 1.875 C-0.376875 1.25625 -0.19125 0.6375 0 0 Z " fill="#B4B5A5" transform="translate(150,113)"/>
<path d="M0 0 C0.33 0 0.66 0 1 0 C0.63164226 6.13929569 -0.71710123 8.81670353 -5 13 C-7.3125 13.875 -7.3125 13.875 -9 14 C-8.4225 13.34 -7.845 12.68 -7.25 12 C-4.99452644 8.99270192 -3.42796884 6.0544997 -1.83203125 2.671875 C-1 1 -1 1 0 0 Z " fill="#1F1F1C" transform="translate(115,86)"/>
<path d="M0 0 C0.33 0.99 0.66 1.98 1 3 C-1.78397116 7.63995194 -4.93986846 9.31328949 -10 11 C-12.9375 11.1875 -12.9375 11.1875 -15 11 C-12.6476009 9.43173393 -10.60558817 8.33457432 -8.0625 7.1875 C-4.40217474 5.40115342 -2.28915674 3.43373511 0 0 Z " fill="#3D3D36" transform="translate(84,112)"/>
<path d="M0 0 C0.66 0 1.32 0 2 0 C2 0.66 2 1.32 2 2 C2.66 2 3.32 2 4 2 C3.52797514 6.24822374 1.03344482 8.19989709 -2 11 C-1.49396008 8.83125748 -1.00016187 7.00032373 0 5 C-0.66 5 -1.32 5 -2 5 C-1.125 1.125 -1.125 1.125 0 0 Z " fill="#7E7E73" transform="translate(168,127)"/>
<path d="M0 0 C0.66 0.33 1.32 0.66 2 1 C0.5140084 5.59306496 -1.85014682 8.43569245 -5 12 C-5.66 11.67 -6.32 11.34 -7 11 C-4.84921278 7.14341602 -2.76544722 3.45680903 0 0 Z " fill="#1D1C1A" transform="translate(149,87)"/>
<path d="M0 0 C-1.98 2.31 -3.96 4.62 -6 7 C-6.33 6.01 -6.66 5.02 -7 4 C-7.66 4 -8.32 4 -9 4 C-9 3.34 -9 2.68 -9 2 C-5.86501708 0.14223235 -3.62528568 -0.20140476 0 0 Z " fill="#D9D9CD" transform="translate(211,119)"/>
<path d="M0 0 C0.66 0.99 1.32 1.98 2 3 C1.34 3.66 0.68 4.32 0 5 C2.64 5 5.28 5 8 5 C5.09907498 6.93395001 4.10325263 7.30131941 0.8125 7.625 C-0.445625 7.74875 -1.70375 7.8725 -3 8 C-3 3.73173127 -2.62386487 3.06117568 0 0 Z " fill="#E4E5D6" transform="translate(84,115)"/>
<path d="M0 0 C0.99 1.32 1.98 2.64 3 4 C1.35 4.33 -0.3 4.66 -2 5 C-1.67 7.97 -1.34 10.94 -1 14 C-0.01 14.33 0.98 14.66 2 15 C0.0625 15.5625 0.0625 15.5625 -2 16 C-3.72334021 14.27665979 -3.21271834 12.0331379 -3.25 9.6875 C-3.27578125 8.72199219 -3.3015625 7.75648438 -3.328125 6.76171875 C-2.95633227 3.63246324 -2.08404796 2.30890577 0 0 Z " fill="#949485" transform="translate(130,205)"/>
<path d="M0 0 C-0.33 1.32 -0.66 2.64 -1 4 C-1 3.01 -1 2.02 -1 1 C-1.763125 1.763125 -2.52625 2.52625 -3.3125 3.3125 C-5.20833333 5.20833333 -7.10416667 7.10416667 -9 9 C-9.36337162 5.72965541 -9.28544288 4.39116247 -7.3125 1.6875 C-4.60883753 -0.28544288 -3.27034459 -0.36337162 0 0 Z " fill="#616157" transform="translate(161,129)"/>
<path d="M0 0 C0.33 0.66 0.66 1.32 1 2 C0.34 2 -0.32 2 -1 2 C-1 2.66 -1 3.32 -1 4 C-0.34 4 0.32 4 1 4 C0.67 4.99 0.34 5.98 0 7 C-1.65 7 -3.3 7 -5 7 C-4.60196439 4.11424181 -4.20990931 3.17810487 -1.9375 1.25 C-1.298125 0.8375 -0.65875 0.425 0 0 Z " fill="#FAFAED" transform="translate(114,130)"/>
<path d="M0 0 C0 1.98 0 3.96 0 6 C-2 6 -4 6 -6 6 C-5.6875 4.125 -5.6875 4.125 -5 2 C-2 0 -2 0 0 0 Z " fill="#E3E4D7" transform="translate(120,209)"/>
<path d="M0 0 C-2.5624239 2.83696932 -4.20398796 4.36733133 -8 5 C-8.99 5.495 -8.99 5.495 -10 6 C-8.20404732 1.26521567 -5.07984355 -1.69328118 0 0 Z " fill="#AEAFA0" transform="translate(102,189)"/>
<path d="M0 0 C2.31 0 4.62 0 7 0 C5.84826645 2.46800047 4.95216435 4.04783565 3 6 C3 5.01 3 4.02 3 3 C2.01 2.67 1.02 2.34 0 2 C0 1.34 0 0.68 0 0 Z " fill="#353531" transform="translate(113,37)"/>
<path d="M0 0 C0.66 0.33 1.32 0.66 2 1 C1.67 3.64 1.34 6.28 1 9 C0.01 9 -0.98 9 -2 9 C-1.34 6.03 -0.68 3.06 0 0 Z " fill="#F1F1E7" transform="translate(166,209)"/>
<path d="M0 0 C0.99 0.66 1.98 1.32 3 2 C2.34 3.98 1.68 5.96 1 8 C-0.32 6.68 -1.64 5.36 -3 4 C-2.34 4 -1.68 4 -1 4 C-0.67 2.68 -0.34 1.36 0 0 Z " fill="#B2B3A8" transform="translate(144,132)"/>
<path d="M0 0 C0 0.99 0 1.98 0 3 C-1.65 3.66 -3.3 4.32 -5 5 C-5 3.68 -5 2.36 -5 1 C-3 0 -3 0 0 0 Z " fill="#D4D5C8" transform="translate(184,131)"/>
<path d="M0 0 C2.97 0 5.94 0 9 0 C9 0.33 9 0.66 9 1 C8.36191406 1.12117187 7.72382813 1.24234375 7.06640625 1.3671875 C5.82697266 1.61855469 5.82697266 1.61855469 4.5625 1.875 C3.73878906 2.03742188 2.91507813 2.19984375 2.06640625 2.3671875 C1.38449219 2.57601562 0.70257813 2.78484375 0 3 C-0.33 3.66 -0.66 4.32 -1 5 C-0.67 3.35 -0.34 1.7 0 0 Z " fill="#8A8B7E" transform="translate(138,192)"/>
<path d="M0 0 C0.33 0 0.66 0 1 0 C1.20086443 3.71599191 1.1519437 4.77208445 -1 8 C-1.66 8 -2.32 8 -3 8 C-2.45276317 4.62537285 -1.9451 2.91765 0 0 Z " fill="#F7F7ED" transform="translate(125,173)"/>
<path d="M0 0 C-0.57344937 2.86724686 -0.8614515 3.8614515 -3 6 C-3.99 5.67 -4.98 5.34 -6 5 C-3.74193548 0 -3.74193548 0 0 0 Z " fill="#F3F3E9" transform="translate(160,130)"/>
<path d="M0 0 C5.75 0.875 5.75 0.875 8 2 C8 2.66 8 3.32 8 4 C6.35 4 4.7 4 3 4 C3 3.01 3 2.02 3 1 C2.01 0.67 1.02 0.34 0 0 Z " fill="#9F9F91" transform="translate(153,194)"/>
</svg>
