<?xml version="1.0" encoding="UTF-8"?>
<svg version="1.1" xmlns="http://www.w3.org/2000/svg" width="512" height="512">
<path d="M0 0 C1.69866211 -0.03577148 1.69866211 -0.03577148 3.43164062 -0.07226562 C4.52541016 -0.07033203 5.61917969 -0.06839844 6.74609375 -0.06640625 C8.23967407 -0.0674939 8.23967407 -0.0674939 9.76342773 -0.06860352 C13.70092721 0.81917984 15.05963593 2.42322571 17.5625 5.5625 C18.03246025 8.43596615 18.19970107 10.70383911 18.13012695 13.56567383 C18.13122215 14.75182785 18.13122215 14.75182785 18.13233948 15.96194458 C18.12886721 18.56518115 18.0900257 21.16660889 18.05078125 23.76953125 C18.04145178 25.57841515 18.0343363 27.38731171 18.02934265 29.19621277 C18.01028331 33.94928072 17.96119187 38.70158053 17.90582275 43.4543457 C17.8546072 48.30734873 17.8318237 53.16047629 17.80664062 58.01367188 C17.75307164 67.53033912 17.66514465 77.04623541 17.5625 86.5625 C23.5025 86.5625 29.4425 86.5625 35.5625 86.5625 C35.53893433 84.28436401 35.53893433 84.28436401 35.51489258 81.96020508 C35.4605717 76.32272652 35.42614174 70.68527109 35.39770508 65.04760742 C35.38262346 62.60811472 35.36215531 60.1686491 35.33618164 57.72924805 C35.29977188 54.22177441 35.28276711 50.71465946 35.26953125 47.20703125 C35.25404739 46.11727493 35.23856354 45.02751862 35.22261047 43.90473938 C35.22050057 34.40077093 35.22050057 34.40077093 38.5625 30.5625 C42.8534896 27.9121829 47.67572274 28.13601762 52.5625 28.5625 C56.64887075 29.62850976 58.35867827 30.9934689 60.5625 34.5625 C60.92326355 37.01763916 60.92326355 37.01763916 60.90307617 39.79003906 C60.90284958 40.83081604 60.90262299 41.87159302 60.90238953 42.94390869 C60.88690567 44.06070007 60.87142181 45.17749146 60.85546875 46.328125 C60.85122391 47.47665955 60.84697906 48.62519409 60.84260559 49.80853271 C60.82581333 53.4767603 60.78815898 57.14443847 60.75 60.8125 C60.73495392 63.29947123 60.72126539 65.78645108 60.70898438 68.2734375 C60.67590796 74.36997912 60.62570256 80.46620031 60.5625 86.5625 C61.30757309 86.68797714 62.05264618 86.81345428 62.82029724 86.94273376 C63.80313187 87.11366043 64.78596649 87.2845871 65.79858398 87.46069336 C66.77053207 87.6274205 67.74248016 87.79414764 68.74388123 87.96592712 C72.69315277 88.80180756 76.06337206 90.26421071 79.625 92.125 C80.30546387 92.47361084 80.98592773 92.82222168 81.68701172 93.18139648 C87.81695344 96.45568952 92.7639872 100.53373226 97.5625 105.5625 C98.12066406 106.10132813 98.67882812 106.64015625 99.25390625 107.1953125 C112.97565348 121.45446497 114.03042972 140.85621481 113.85546875 159.4296875 C113.84985853 161.20329424 113.8455952 162.9769057 113.84260559 164.7505188 C113.83126887 169.37006964 113.80190095 173.98932776 113.76849365 178.60876465 C113.73754879 183.34200076 113.72404861 188.07528517 113.70898438 192.80859375 C113.67701804 202.06002292 113.62596075 211.31123692 113.5625 220.5625 C114.22854248 220.68947266 114.89458496 220.81644531 115.58081055 220.94726562 C116.90786011 221.20540039 116.90786011 221.20540039 118.26171875 221.46875 C119.13401123 221.63697266 120.00630371 221.80519531 120.9050293 221.97851562 C134.21460891 224.90332173 145.4231576 233.46658905 152.9140625 244.71875 C161.43171065 259.41270226 161.86392126 274.38604558 161.7578125 290.89453125 C161.75407297 292.62472875 161.75123045 294.35492839 161.74923706 296.08512878 C161.74167451 300.59447282 161.72209127 305.10368386 161.6998291 309.61297607 C161.67920984 314.23220013 161.67020128 318.85144611 161.66015625 323.47070312 C161.63883689 332.50135987 161.60479241 341.53191879 161.5625 350.5625 C162.66335938 350.70421631 163.76421875 350.84593262 164.8984375 350.99194336 C172.7800384 352.21924222 179.12989134 357.25422838 184.08984375 363.33984375 C187.12122086 367.91505218 189.5625 373.02279715 189.5625 378.5625 C190.19699066 378.55583817 190.83148132 378.54917633 191.48519897 378.54231262 C198.07081043 378.47609909 204.65632781 378.43075777 211.2421875 378.39770508 C213.70218748 378.38259012 216.16216041 378.36209773 218.62207031 378.33618164 C222.15176052 378.2999177 225.68109544 378.28280086 229.2109375 378.26953125 C230.31617767 378.25404739 231.42141785 378.23856354 232.56015015 378.22261047 C233.58105743 378.22238388 234.60196472 378.22215729 235.65380859 378.22192383 C236.55537689 378.21526199 237.45694519 378.20860016 238.38583374 378.20173645 C239.10413361 378.32078842 239.82243347 378.43984039 240.5625 378.5625 C242.5625 381.5625 242.5625 381.5625 242.25 384.6875 C241.5625 387.5625 241.5625 387.5625 240.5625 388.5625 C238.2189616 388.66396135 235.90476471 388.69981952 233.56057167 388.69392776 C232.81574382 388.6959804 232.07091597 388.69803303 231.30351758 388.70014787 C228.77578473 388.70585972 226.24810565 388.70435551 223.72036743 388.70294189 C221.90260485 388.70552314 220.08484284 388.70853561 218.26708162 388.7119453 C213.24703593 388.72004685 208.2270045 388.72180661 203.20695305 388.72254276 C197.80263253 388.72438785 192.39831951 388.73193238 186.9940033 388.73867798 C175.16572692 388.752284 163.33745391 388.75828949 151.50917101 388.76268864 C144.13017104 388.76544712 136.75117239 388.76968372 129.37217331 388.77419281 C108.96079147 388.78638822 88.54941069 388.79668714 68.13802528 388.8000679 C66.83059853 388.80028747 65.52317177 388.80050703 64.17612603 388.80073325 C62.86548844 388.80095153 61.55485086 388.80116981 60.20449698 388.8013947 C57.54844069 388.80183817 54.89238441 388.80228474 52.23632812 388.80273438 C50.2600651 388.80306652 50.2600651 388.80306652 48.24387757 388.80340537 C26.88378121 388.80735544 5.52372148 388.82481462 -15.83636205 388.8480939 C-37.74169994 388.87177567 -59.64702071 388.88426829 -81.55237162 388.88543582 C-93.86142431 388.88635435 -106.17043261 388.89215125 -118.47947311 388.91025543 C-128.95879407 388.92561363 -139.43805693 388.9308023 -149.91738699 388.92251733 C-155.2685635 388.91859563 -160.61962285 388.91961404 -165.97078514 388.93357468 C-170.86348933 388.94622305 -175.75598724 388.94519667 -180.64869078 388.93298396 C-182.42461293 388.93101112 -184.20054926 388.93417769 -185.97645144 388.94282833 C-188.37918614 388.95379709 -190.78117675 388.94652252 -193.18388939 388.9344368 C-193.88323884 388.94203199 -194.58258829 388.94962718 -195.30313015 388.95745254 C-198.15769954 388.92617181 -200.02137763 388.85114739 -202.40256941 387.1994102 C-203.4375 385.5625 -203.4375 385.5625 -203.25 383 C-202.4375 380.5625 -202.4375 380.5625 -200.4375 378.5625 C-197.5281442 378.41732256 -194.717554 378.37619204 -191.8125 378.4375 C-191.01070312 378.44652344 -190.20890625 378.45554687 -189.3828125 378.46484375 C-187.40091477 378.48843777 -185.41917019 378.52430935 -183.4375 378.5625 C-183.3240625 377.34691406 -183.210625 376.13132812 -183.09375 374.87890625 C-182.10823635 367.10600955 -177.86960892 361.37020527 -171.8125 356.5625 C-164.96153846 351.5625 -164.96153846 351.5625 -160.4375 351.5625 C-160.44416183 350.53678894 -160.45082367 349.51107788 -160.45768738 348.45428467 C-160.51874017 338.74540169 -160.56358803 329.03655812 -160.59293652 319.32752609 C-160.60853254 314.33708387 -160.62965894 309.34679773 -160.66381836 304.35644531 C-160.69662945 299.53238662 -160.71439851 294.70847723 -160.72213173 289.88431549 C-160.72763645 288.05209252 -160.73838485 286.21987689 -160.75469017 284.3877182 C-160.91832005 265.22351255 -157.94597849 249.38175011 -144.140625 235.0390625 C-135.00165883 226.66607904 -124.61943326 222.2249714 -112.4375 220.5625 C-112.44638245 219.55597885 -112.45526489 218.5494577 -112.4644165 217.51243591 C-112.54596288 207.96639498 -112.60568444 198.42042592 -112.64474869 188.87411404 C-112.66550808 183.96776604 -112.69360932 179.06170214 -112.73925781 174.15551758 C-112.78313558 169.40923892 -112.80672437 164.66323125 -112.81700897 159.91676521 C-112.8243259 158.11770431 -112.83861096 156.31865604 -112.86042023 154.51971245 C-113.09500968 134.34314202 -109.18184168 117.95856286 -94.8125 102.8125 C-86.55959202 94.99395559 -76.8520476 89.91128314 -65.74047852 87.49731445 C-64.93361099 87.32110062 -64.12674347 87.14488678 -63.29542542 86.96333313 C-62.68231003 86.8310582 -62.06919464 86.69878326 -61.4375 86.5625 C-61.43163376 85.94941986 -61.42576752 85.33633972 -61.41972351 84.7046814 C-61.35569543 78.31274796 -61.27125122 71.92131362 -61.17504883 65.52978516 C-61.14183354 63.14573759 -61.11379108 60.76161203 -61.09106445 58.37744141 C-61.05745682 54.94660261 -61.00513593 51.51647637 -60.94921875 48.0859375 C-60.94282883 47.02321625 -60.9364389 45.960495 -60.92985535 44.86557007 C-60.82158212 39.39241494 -60.60692014 35.2463007 -57.4375 30.5625 C-53.26595259 27.86326344 -48.24869687 28.01241435 -43.4375 28.5625 C-40.82692758 29.31461659 -38.85467608 30.25319629 -36.4375 31.5625 C-35.17377956 34.08994088 -35.31727205 35.82630308 -35.32397461 38.65478516 C-35.32405014 39.71573395 -35.32412567 40.77668274 -35.32420349 41.86978149 C-35.32936478 43.01876923 -35.33452606 44.16775696 -35.33984375 45.3515625 C-35.34196617 47.11190323 -35.34196617 47.11190323 -35.34413147 48.9078064 C-35.34974311 52.66772985 -35.36229762 56.42759445 -35.375 60.1875 C-35.3800135 62.73176998 -35.38457667 65.27604088 -35.38867188 67.8203125 C-35.39971633 74.06773112 -35.41698881 80.31510557 -35.4375 86.5625 C-29.1675 86.5625 -22.8975 86.5625 -16.4375 86.5625 C-16.45844727 84.09942383 -16.47939453 81.63634766 -16.50097656 79.09863281 C-16.56723006 70.96426911 -16.61142878 62.82989354 -16.64474869 54.69533157 C-16.6656311 49.76288847 -16.6939607 44.83072161 -16.73925781 39.8984375 C-16.78269221 35.13924186 -16.80663218 30.38031207 -16.81700897 25.62093353 C-16.82440467 23.80440841 -16.83884669 21.98789797 -16.86042023 20.1714859 C-16.88942266 17.62865156 -16.8934574 15.08691821 -16.89160156 12.54394531 C-16.90598267 11.79156586 -16.92036377 11.0391864 -16.93518066 10.26400757 C-16.90771566 6.79028876 -16.69686513 4.9060163 -14.57597351 2.09700012 C-10.33132556 -0.94882334 -5.03392487 -0.0485404 0 0 Z " fill="#FDCC54" transform="translate(260.4375,121.4375)"/>
<path d="M0 0 C5.13550995 3.10966776 9.59077227 8.18719573 11.57666016 13.92041016 C12.1469864 17.13892598 12.15654043 20.33916913 12.19140625 23.59765625 C12.21947473 25.0612091 12.24813919 26.52475063 12.27734375 27.98828125 C12.31855237 30.28124674 12.35546624 32.57400061 12.38183594 34.8671875 C12.40957677 37.09028029 12.45543971 39.31243122 12.50390625 41.53515625 C12.50878555 42.55263443 12.50878555 42.55263443 12.51376343 43.59066772 C12.63063577 48.15735696 13.5998077 51.30967787 15.98046875 55.19921875 C18.73415481 57.43193718 20.46305499 58.13454203 23.98046875 58.57421875 C27.53404276 58.130022 29.22958031 57.50401717 31.98046875 55.19921875 C34.79203866 49.84830291 35.40040604 45.6160458 35.3515625 39.6328125 C35.36893572 37.9967426 35.38652019 36.36067494 35.40429688 34.72460938 C35.41437694 32.17484531 35.41796108 29.62522266 35.41625977 27.07543945 C35.41983959 24.59414465 35.44720283 22.11391647 35.4765625 19.6328125 C35.46428871 18.49820839 35.46428871 18.49820839 35.45176697 17.34068298 C35.52448886 12.13977222 36.72035892 9.21904688 39.98046875 5.19921875 C43.28306799 2.29693457 45.86204323 1.28362822 50.29296875 0.94921875 C55.64477112 1.31205281 58.69996238 2.78027926 62.29296875 6.76171875 C64.60064169 10.09502411 65.0576712 11.83753242 65.23046875 15.82421875 C65.7430194 21.28091186 67.39397366 25.05801242 70.98046875 29.19921875 C76.79881639 33.73752991 81.74517454 35.04216565 88.98046875 34.19921875 C95.15767999 32.20517161 98.82386189 28.95765318 102.05859375 23.3203125 C103.064256 21.00643708 103.24245123 19.26983837 103.35546875 16.76171875 C103.74200181 12.4957993 104.83807114 10.24639219 107.98046875 7.19921875 C110.40315905 5.9878736 111.67596974 6.15081601 114.35546875 6.38671875 C115.51175781 6.46986328 115.51175781 6.46986328 116.69140625 6.5546875 C119.80163876 7.43043556 120.96630925 8.68155195 122.98046875 11.19921875 C123.47253418 14.13201904 123.47253418 14.13201904 123.46289062 17.58496094 C123.46969849 18.88020691 123.47650635 20.17545288 123.48352051 21.50994873 C123.47500816 22.54479527 123.47500816 22.54479527 123.46632385 23.60054779 C123.44902 25.77102325 123.45659216 27.94017137 123.47058105 30.11065674 C123.50019522 35.50316419 123.48708354 40.89541691 123.47540283 46.28796387 C123.46716724 50.84284418 123.4752768 55.3971441 123.50453186 59.95194244 C123.51158008 62.07923924 123.49500404 64.20548852 123.47741699 66.33270264 C123.51605739 73.75588888 123.83891292 78.94497414 127.98046875 85.19921875 C132.82915856 89.92358318 137.52793133 91.49327023 144.23046875 91.57421875 C151.50563229 91.45887074 156.67486514 89.74199076 162.41796875 85.32421875 C166.57264087 79.67386467 166.26089242 73.46335652 166.25390625 66.76171875 C166.27418856 64.71223406 166.29503921 62.66275492 166.31640625 60.61328125 C166.33902336 57.40066814 166.35548864 54.18827509 166.36132812 50.97558594 C166.37085783 47.86223182 166.40463076 44.7498537 166.44140625 41.63671875 C166.43636078 40.68031494 166.43131531 39.72391113 166.42611694 38.73852539 C166.53106131 31.6083648 168.18747547 27.94431904 173.3581543 22.86230469 C176.44963498 20.901671 178.30011553 20.66445676 181.9375 20.58984375 C183.04931641 20.55761719 184.16113281 20.52539062 185.30664062 20.4921875 C187.03237305 20.47091797 187.03237305 20.47091797 188.79296875 20.44921875 C189.96279297 20.41957031 191.13261719 20.38992188 192.33789062 20.359375 C195.21881884 20.28882166 198.09894453 20.23605146 200.98046875 20.19921875 C202.28953137 29.1542942 202.10676461 38.11452061 202.078125 47.140625 C202.07625713 48.87654072 202.07483497 50.61245697 202.07383728 52.34837341 C202.07004116 56.8906096 202.06023605 61.4328132 202.0491333 65.97503662 C202.03885636 70.62072306 202.03432626 75.26641482 202.02929688 79.91210938 C202.01861085 89.00782672 202.00156979 98.10352001 201.98046875 107.19921875 C203.08132813 107.34093506 204.1821875 107.48265137 205.31640625 107.62866211 C213.19800715 108.85596097 219.54786009 113.89094713 224.5078125 119.9765625 C227.53918961 124.55177093 229.98046875 129.6595159 229.98046875 135.19921875 C230.61495941 135.19255692 231.24945007 135.18589508 231.90316772 135.17903137 C238.48877918 135.11281784 245.07429656 135.06747652 251.66015625 135.03442383 C254.12015623 135.01930887 256.58012916 134.99881648 259.04003906 134.97290039 C262.56972927 134.93663645 266.09906419 134.91951961 269.62890625 134.90625 C270.73414642 134.89076614 271.8393866 134.87528229 272.9781189 134.85932922 C273.99902618 134.85910263 275.01993347 134.85887604 276.07177734 134.85864258 C276.97334564 134.85198074 277.87491394 134.84531891 278.80380249 134.8384552 C279.52210236 134.95750717 280.24040222 135.07655914 280.98046875 135.19921875 C282.98046875 138.19921875 282.98046875 138.19921875 282.66796875 141.32421875 C281.98046875 144.19921875 281.98046875 144.19921875 280.98046875 145.19921875 C278.63693035 145.3006801 276.32273346 145.33653827 273.97854042 145.33064651 C273.23371257 145.33269915 272.48888472 145.33475178 271.72148633 145.33686662 C269.19375348 145.34257847 266.6660744 145.34107426 264.13833618 145.33966064 C262.3205736 145.34224189 260.50281159 145.34525436 258.68505037 145.34866405 C253.66500468 145.3567656 248.64497325 145.35852536 243.6249218 145.35926151 C238.22060128 145.3611066 232.81628826 145.36865113 227.41197205 145.37539673 C215.58369567 145.38900275 203.75542266 145.39500824 191.92713976 145.39940739 C184.54813979 145.40216587 177.16914114 145.40640247 169.79014206 145.41091156 C149.37876022 145.42310697 128.96737944 145.43340589 108.55599403 145.43678665 C107.24856728 145.43700622 105.94114052 145.43722578 104.59409478 145.437452 C103.28345719 145.43767028 101.97281961 145.43788856 100.62246573 145.43811345 C97.96640944 145.43855692 95.31035316 145.43900349 92.65429688 145.43945312 C90.67803385 145.43978527 90.67803385 145.43978527 88.66184632 145.44012412 C67.30174996 145.44407419 45.94169023 145.46153337 24.5816067 145.48481265 C2.67626881 145.50849442 -19.22905196 145.52098704 -41.13440287 145.52215457 C-53.44345556 145.5230731 -65.75246386 145.52887 -78.06150436 145.54697418 C-88.54082532 145.56233238 -99.02008818 145.56752105 -109.49941824 145.55923608 C-114.85059475 145.55531438 -120.2016541 145.55633279 -125.55281639 145.57029343 C-130.44552058 145.5829418 -135.33801849 145.58191542 -140.23072203 145.56970271 C-142.00664418 145.56772987 -143.78258051 145.57089644 -145.55848269 145.57954708 C-147.96121739 145.59051584 -150.363208 145.58324127 -152.76592064 145.57115555 C-153.46527009 145.57875074 -154.16461954 145.58634593 -154.8851614 145.59417129 C-157.73973079 145.56289056 -159.60340888 145.48786614 -161.98460066 143.83612895 C-163.01953125 142.19921875 -163.01953125 142.19921875 -162.83203125 139.63671875 C-162.01953125 137.19921875 -162.01953125 137.19921875 -160.01953125 135.19921875 C-157.11017545 135.05404131 -154.29958525 135.01291079 -151.39453125 135.07421875 C-150.59273437 135.08324219 -149.7909375 135.09226562 -148.96484375 135.1015625 C-146.98294602 135.12515652 -145.00120144 135.1610281 -143.01953125 135.19921875 C-142.90609375 133.98363281 -142.79265625 132.76804687 -142.67578125 131.515625 C-141.6902676 123.7427283 -137.45164017 118.00692402 -131.39453125 113.19921875 C-124.54356971 108.19921875 -124.54356971 108.19921875 -120.01953125 108.19921875 C-120.01953125 80.80921875 -120.01953125 53.41921875 -120.01953125 25.19921875 C-93.01953125 25.19921875 -93.01953125 25.19921875 -85.01953125 30.19921875 C-80.7076408 35.01304719 -80.45288416 38.94613312 -80.515625 45.10546875 C-80.50620377 45.94839478 -80.49678253 46.7913208 -80.48707581 47.65979004 C-80.45852659 50.33984959 -80.45534377 53.01901978 -80.45703125 55.69921875 C-80.4534154 58.37928737 -80.44379947 61.05871248 -80.41627502 63.73864746 C-80.3995779 65.40140706 -80.39653891 67.06437829 -80.4092865 68.72717285 C-80.36500113 73.62311925 -79.70339409 76.9461247 -77.01953125 81.19921875 C-71.09807809 86.67656292 -65.53286599 86.62579396 -57.7734375 86.48046875 C-52.71945733 86.10181467 -50.13562275 85.12797616 -46.01953125 82.19921875 C-43.21755321 78.42683613 -42.64902525 75.75707062 -42.66650391 71.09887695 C-42.66102036 69.28592888 -42.66102036 69.28592888 -42.65542603 67.43635559 C-42.66472137 66.13735825 -42.67401672 64.8383609 -42.68359375 63.5 C-42.6794359 62.14103958 -42.67324775 60.78208401 -42.66513062 59.42314148 C-42.63430335 53.67143263 -42.63892993 47.91995269 -42.65917969 42.16821289 C-42.67018124 38.64139338 -42.65672777 35.11530182 -42.62928391 31.58858299 C-42.62129107 29.61131379 -42.64105969 27.63399397 -42.66152954 25.65681458 C-42.59796374 17.8426232 -41.68041609 11.64743876 -37.01953125 5.19921875 C-27.01952878 -4.25231287 -12.4210409 -5.92964264 0 0 Z " fill="#FDCC54" transform="translate(220.01953125,364.80078125)"/>
<path d="M0 0 C0.93773451 -0.00453111 1.87546902 -0.00906223 2.84161973 -0.01373065 C5.96186741 -0.02632004 9.08193932 -0.02475781 12.20220947 -0.02310181 C14.44842756 -0.02909046 16.69464359 -0.03589679 18.94085693 -0.04345703 C25.02779065 -0.06108986 31.11466809 -0.06581127 37.20162487 -0.0670886 C41.008774 -0.0685123 44.81590891 -0.07278605 48.6230545 -0.07808304 C61.23166976 -0.09562104 73.84024409 -0.10492441 86.44886824 -0.10342209 C87.12737319 -0.10334218 87.80587814 -0.10326227 88.50494385 -0.10317993 C89.52395662 -0.10305729 89.52395662 -0.10305729 90.56355551 -0.10293217 C101.56675442 -0.10211971 112.56981631 -0.12125133 123.57297561 -0.14945666 C134.89493168 -0.17824815 146.21680029 -0.19162803 157.53880143 -0.19026911 C163.88560772 -0.18976031 170.23225885 -0.19539863 176.5790329 -0.21662521 C182.5512548 -0.23605469 188.52317425 -0.23609966 194.4954071 -0.22159195 C196.67981155 -0.21950862 198.86423515 -0.22417617 201.04860687 -0.23631287 C212.48754879 -0.29572283 222.56280971 -0.19002309 233.27349854 4.26742554 C234.40294199 4.71822196 234.40294199 4.71822196 235.55520248 5.17812538 C249.45863594 11.03729774 257.85245732 23.08298865 263.42584229 36.50570679 C264.27777404 39.28135542 264.33898616 41.39049686 264.27349854 44.26742554 C263.23008301 44.27358887 263.23008301 44.27358887 262.16558838 44.27987671 C258.9923805 44.31291444 255.82106663 44.3835702 252.64849854 44.45492554 C251.00687744 44.46362671 251.00687744 44.46362671 249.33209229 44.47250366 C242.52040637 44.5518471 242.52040637 44.5518471 236.62506104 47.56820679 C233.37068294 51.30371387 232.02920766 53.87076615 232.0022583 58.83309937 C231.99207169 59.73115799 231.98188507 60.62921661 231.97138977 61.55448914 C231.96924973 62.51807846 231.96710968 63.48166779 231.96490479 64.47445679 C231.9397411 66.52589188 231.91434313 68.5773241 231.88873291 70.62875366 C231.86002221 73.85441319 231.83599797 77.08002294 231.81719971 80.30575562 C231.79547867 83.42475269 231.75603045 86.54316389 231.71490479 89.66195679 C231.71478897 90.61947342 231.71467316 91.57699005 231.71455383 92.56352234 C231.62023324 98.98070516 230.92236862 104.10545713 226.66021729 109.19320679 C225.819104 109.87963257 225.819104 109.87963257 224.96099854 110.57992554 C224.40799072 111.05043335 223.85498291 111.52094116 223.28521729 112.00570679 C216.82047643 116.06029183 209.64650611 115.98850207 202.27349854 115.26742554 C196.30266167 113.5887238 192.75237567 110.28110141 189.27349854 105.26742554 C187.33373327 101.30354471 187.01855683 98.08204454 187.0022583 93.68881226 C186.98697838 91.72184891 186.98697838 91.72184891 186.97138977 89.71514893 C186.97044878 89.01963802 186.96950779 88.32412712 186.96853828 87.60754013 C186.96486223 85.42181323 186.94810507 83.23653502 186.92778015 81.05090332 C186.87246768 74.83979618 186.84161948 68.62862533 186.81719971 62.41732788 C186.80133943 58.61184723 186.77114558 54.80669026 186.73243523 51.00137711 C186.72078038 49.5525264 186.71485483 48.10361789 186.7147541 46.65472031 C186.7145624 44.63218481 186.69480506 42.60967962 186.6741333 40.58724976 C186.66906265 39.4365097 186.663992 38.28576965 186.6587677 37.10015869 C186.50804898 34.26516346 186.50804898 34.26516346 184.87882996 32.41540527 C181.69981468 30.14207712 178.08684084 29.95968212 174.27349854 30.26742554 C171.06696277 31.97353642 171.06696277 31.97353642 169.27349854 35.26742554 C168.9021428 37.49134001 168.7678714 39.67371105 168.63287354 41.92367554 C167.82799092 47.17291001 164.52586433 51.07767803 160.77349854 54.64242554 C155.36634955 58.15707238 150.6598183 59.12035639 144.27349854 58.26742554 C137.63021383 56.17580101 133.67242445 52.33884206 130.16412354 46.38461304 C129.14046845 43.95118734 129.00502336 42.02276934 128.89849854 39.39242554 C128.48912918 34.68120867 127.51964498 31.86450673 124.27349854 28.26742554 C119.88976399 25.34493584 116.49572254 24.70790154 111.27349854 25.26742554 C106.05164416 27.11043296 103.89730699 29.44351636 101.27349854 34.26742554 C100.91595876 37.19541572 100.76092009 39.74928259 100.80474854 42.66586304 C100.79769897 43.45965363 100.79064941 44.25344421 100.78338623 45.07128906 C100.75407386 48.44283286 100.77047547 51.81378756 100.78277588 55.18539429 C100.7851722 57.65839393 100.76415713 60.13047771 100.74224854 62.60336304 C100.75922791 63.72718887 100.75922791 63.72718887 100.77655029 64.87371826 C100.7243465 70.40091057 99.34624558 74.64411591 96.27349854 79.26742554 C93.53035282 81.57744298 91.86594787 82.1791884 88.33599854 82.70492554 C84.34989072 82.13548156 82.3424269 80.85896505 79.27349854 78.26742554 C76.42993409 73.652943 75.8965783 70.12266728 75.86724854 64.74398804 C75.85641235 64.03898163 75.84557617 63.33397522 75.83441162 62.60760498 C75.80036901 60.36911779 75.78460996 58.13113656 75.77349854 55.89242554 C75.94388897 43.22827082 75.94388897 43.22827082 72.27349854 31.26742554 C71.80943604 30.09180054 71.80943604 30.09180054 71.33599854 28.89242554 C69.95030433 26.77312852 68.55624623 26.33784364 66.27349854 25.26742554 C65.60834229 24.91422241 64.94318604 24.56101929 64.25787354 24.19711304 C56.12609725 20.35868717 46.35667277 19.57715276 37.64459229 21.99789429 C31.43864087 24.88301401 27.10281377 29.55888584 24.11602783 35.71072388 C22.3409748 41.0972203 22.75572474 46.78714405 22.80474854 52.40023804 C22.7999135 53.76449569 22.79275169 55.12874688 22.78338623 56.49298096 C22.75819562 60.79289459 22.76352713 65.0924683 22.77349854 69.39242554 C22.78505929 74.38667156 22.78378337 79.38022631 22.74943542 84.37438583 C22.74238092 86.36292052 22.7592374 88.35149398 22.77655029 90.33996582 C22.71402617 101.49876463 22.71402617 101.49876463 18.27349854 106.26742554 C12.86535338 111.16487418 5.68745658 110.85322801 -1.21868896 110.65414429 C-7.16332184 109.9987783 -10.01590889 108.11306489 -14.10150146 103.70492554 C-17.12418459 99.17090085 -16.87555207 94.90986834 -16.90228271 89.65414429 C-16.92548352 87.91389785 -16.94960096 86.17366344 -16.97454834 84.43344116 C-17.00963038 81.69483416 -17.03899291 78.95666917 -17.0524292 76.21786499 C-17.06794935 73.57108248 -17.10818399 70.92558515 -17.15228271 68.27914429 C-17.1503743 67.46644577 -17.14846588 66.65374725 -17.14649963 65.81642151 C-17.25996757 60.51370964 -18.22806184 57.48092997 -21.72650146 53.26742554 C-28.05396675 48.15050653 -34.78353312 48.60833812 -42.66400146 48.51742554 C-43.92019287 48.4877771 -45.17638428 48.45812866 -46.47064209 48.42758179 C-49.55599201 48.35719358 -52.64059969 48.30434052 -55.72650146 48.26742554 C-52.80535897 32.35250653 -46.38143084 18.75682181 -32.72650146 9.26742554 C-21.97051543 3.03022653 -12.42513409 -0.04475647 0 0 Z " fill="#01D8F7" transform="translate(155.72650146484375,341.7325744628906)"/>
<path d="M0 0 C1.10740795 -0.00445784 2.21481591 -0.00891569 3.35578167 -0.01350862 C5.1728263 -0.01323207 5.1728263 -0.01323207 7.0265789 -0.01294994 C8.9630744 -0.01846498 8.9630744 -0.01846498 10.93869102 -0.02409142 C14.52045799 -0.03409072 18.1022082 -0.03782487 21.68398714 -0.04048073 C25.54782031 -0.0443899 29.41164028 -0.05396776 33.27546501 -0.0626936 C42.60536155 -0.08243993 51.93525914 -0.09252155 61.26517135 -0.10142139 C65.66096143 -0.10580698 70.05675031 -0.11117306 74.45253944 -0.11641026 C89.06852595 -0.13342013 103.68451171 -0.14791404 118.30050659 -0.155159 C122.09191832 -0.15706882 125.88333004 -0.15898917 129.67474174 -0.16094494 C130.61705371 -0.16142868 131.55936567 -0.16191242 132.53023253 -0.16241082 C147.79322321 -0.17071019 163.05613549 -0.19604663 178.31909193 -0.22852562 C193.99596695 -0.26161296 209.67280214 -0.27960924 225.34971225 -0.28280324 C234.14901396 -0.2849667 242.94820131 -0.29369144 251.74746895 -0.31926441 C259.24156919 -0.34099424 266.73552729 -0.34901059 274.22965546 -0.33929763 C278.0508169 -0.33475962 281.8716852 -0.33660978 285.69280624 -0.35605907 C289.84243621 -0.37699737 293.991419 -0.36668416 298.14108086 -0.35352612 C299.33905961 -0.36449536 300.53703837 -0.37546461 301.77131951 -0.38676625 C312.74656376 -0.30290799 322.38136093 2.44079076 330.46478081 10.13422108 C335.32825482 15.46193579 339.46478081 21.69099327 339.46478081 29.13422108 C340.09927147 29.12755924 340.73376213 29.12089741 341.38747978 29.1140337 C347.97309123 29.04782017 354.55860862 29.00247885 361.14446831 28.96942616 C363.60446829 28.9543112 366.06444122 28.93381881 368.52435112 28.90790272 C372.05404133 28.87163878 375.58337625 28.85452194 379.11321831 28.84125233 C380.21845848 28.82576847 381.32369865 28.81028461 382.46243095 28.79433155 C383.48333824 28.79410496 384.50424553 28.79387836 385.5560894 28.79364491 C386.4576577 28.78698307 387.359226 28.78032124 388.28811455 28.77345753 C389.00641441 28.8925095 389.72471428 29.01156147 390.46478081 29.13422108 C392.46478081 32.13422108 392.46478081 32.13422108 392.15228081 35.25922108 C391.46478081 38.13422108 391.46478081 38.13422108 390.46478081 39.13422108 C388.1212424 39.23568242 385.80704552 39.2715406 383.46285248 39.26564884 C382.71802463 39.26770148 381.97319678 39.26975411 381.20579839 39.27186894 C378.67806554 39.2775808 376.15038646 39.27607658 373.62264824 39.27466297 C371.80488566 39.27724421 369.98712364 39.28025669 368.16936243 39.28366637 C363.14931673 39.29176793 358.12928531 39.29352769 353.10923386 39.29426384 C347.70491333 39.29610893 342.30060032 39.30365345 336.8962841 39.31039906 C325.06800772 39.32400507 313.23973472 39.33001056 301.41145182 39.33440971 C294.03245185 39.33716819 286.6534532 39.3414048 279.27445412 39.34591389 C258.86307228 39.3581093 238.4516915 39.36840822 218.04030609 39.37178898 C216.73287934 39.37200854 215.42545258 39.37222811 214.07840683 39.37245433 C212.76776925 39.37267261 211.45713166 39.37289089 210.10677779 39.37311578 C207.4507215 39.37355925 204.79466522 39.37400581 202.13860893 39.37445545 C200.16234591 39.3747876 200.16234591 39.3747876 198.14615838 39.37512645 C176.78606202 39.37907652 155.42600228 39.39653569 134.06591876 39.41981497 C112.16058087 39.44349674 90.25526009 39.45598937 68.34990919 39.4571569 C56.0408565 39.45807543 43.7318482 39.46387232 31.42280769 39.48197651 C20.94348673 39.4973347 10.46422388 39.50252338 -0.01510619 39.49423841 C-5.3662827 39.49031671 -10.71734205 39.49133511 -16.06850433 39.50529575 C-20.96120852 39.51794413 -25.85370643 39.51691774 -30.74640997 39.50470504 C-32.52233213 39.5027322 -34.29826845 39.50589877 -36.07417063 39.5145494 C-38.47690533 39.52551817 -40.87889594 39.5182436 -43.28160858 39.50615788 C-43.98095803 39.51375307 -44.68030748 39.52134826 -45.40084934 39.52917361 C-48.25541874 39.49789289 -50.11909682 39.42286847 -52.50028861 37.77113128 C-53.53521919 36.13422108 -53.53521919 36.13422108 -53.34771919 33.57172108 C-52.53521919 31.13422108 -52.53521919 31.13422108 -50.53521919 29.13422108 C-47.62586339 28.98904364 -44.81527319 28.94791312 -41.91021919 29.00922108 C-41.10842232 29.01824451 -40.30662544 29.02726795 -39.48053169 29.03656483 C-37.49863397 29.06015885 -35.51688938 29.09603043 -33.53521919 29.13422108 C-33.42178169 27.91863514 -33.30834419 26.7030492 -33.19146919 25.45062733 C-32.21889855 17.77981408 -28.03470248 12.00719985 -22.09771919 7.19672108 C-15.18778609 2.26105457 -8.51830828 0.01595167 0 0 Z " fill="#FE586D" transform="translate(110.53521919250488,470.86577892303467)"/>
<path d="M0 0 C0.85192429 -0.00860046 1.70384857 -0.01720093 2.58158875 -0.02606201 C3.50833908 -0.03032196 4.43508942 -0.03458191 5.3899231 -0.03897095 C6.86399376 -0.05123718 6.86399376 -0.05123718 8.36784363 -0.06375122 C11.62275594 -0.08857525 14.87762451 -0.10511923 18.13259888 -0.11953735 C19.2478104 -0.12486103 20.36302193 -0.13018471 21.51202774 -0.13566971 C27.42200279 -0.16239621 33.33195681 -0.18176739 39.24197388 -0.19619751 C44.11488769 -0.20950106 48.98737922 -0.23728878 53.86013794 -0.27822876 C59.75869837 -0.32778136 65.6568777 -0.3523471 71.55563736 -0.35942459 C73.79372441 -0.36610212 76.03180414 -0.3812318 78.26977158 -0.4053154 C98.96332321 -0.61518974 114.80501158 3.11877397 130.37869263 17.6656189 C146.79919361 35.24521406 147.14366265 56.33147021 146.89041138 78.96640015 C146.8753384 81.31600095 146.86165462 83.6656111 146.84939575 86.01522827 C146.81659513 91.7283253 146.76660285 97.44106832 146.70291138 103.15390015 C138.97324557 102.19232029 138.97324557 102.19232029 135.82791138 99.27890015 C135.2529895 98.76585327 134.67806763 98.2528064 134.08572388 97.72421265 C131.52751168 94.81912422 131.57229156 91.8995232 131.54519653 88.21102905 C131.53493439 87.20633575 131.52467224 86.20164246 131.51409912 85.16650391 C131.50679779 84.08211029 131.49949646 82.99771667 131.49197388 81.88046265 C131.46390834 79.5887888 131.4352439 77.29712222 131.40603638 75.00546265 C131.36474949 71.38892801 131.32786501 67.77252958 131.30154419 64.15585327 C131.27395293 60.66793732 131.22808361 57.18064049 131.17947388 53.69296265 C131.17459457 52.07244492 131.17459457 52.07244492 131.1696167 50.41918945 C131.13793012 43.26868001 131.13793012 43.26868001 127.70291138 37.15390015 C123.86113654 33.77779499 120.06003892 33.63786379 115.14041138 33.8062439 C111.45424494 34.3319952 109.41307189 35.64204406 106.70291138 38.15390015 C103.16899078 43.54502901 103.27706476 48.4027023 103.29666138 54.6265564 C103.2804071 56.12756142 103.2804071 56.12756142 103.26382446 57.65888977 C103.21808272 61.92353762 103.20647936 66.18812321 103.19168091 70.45297241 C103.17598167 73.57355345 103.14298461 76.69362769 103.10916138 79.8140564 C103.11218262 80.77562149 103.11520386 81.73718658 103.11831665 82.72789001 C103.06297275 87.66074617 102.99817083 91.19987922 99.70291138 95.15390015 C93.76213023 99.60948601 89.0039285 100.99269014 81.70291138 100.15390015 C76.69317409 98.61582291 73.45796747 96.51185621 70.56040955 92.04223633 C68.87118276 88.32231228 69.18312804 84.38866537 69.23416138 80.37265015 C69.22711182 79.44093994 69.22006226 78.50922974 69.21279907 77.54928589 C69.18339371 73.58221965 69.19994253 69.61564964 69.21218872 65.64852905 C69.2145724 62.7437725 69.19363877 59.83980821 69.17166138 56.93515015 C69.18298096 56.04436768 69.19430054 55.15358521 69.20596313 54.23580933 C69.16131234 48.71945439 68.43410323 45.49964124 64.70291138 41.15390015 C61.13358549 38.77434955 59.11556157 38.62478532 54.92947388 38.69296265 C52.27944726 39.24156465 51.41838633 39.97233661 49.70291138 42.02890015 C47.4485729 45.55130402 46.58020802 47.15443595 46.56106567 51.23300171 C46.55403122 52.07437683 46.54699677 52.91575195 46.53974915 53.78262329 C46.53350273 55.14976471 46.53350273 55.14976471 46.52713013 56.54452515 C46.50392619 58.47031726 46.47980863 60.39609854 46.4548645 62.3218689 C46.41978624 65.36116723 46.39042832 68.40006879 46.37698364 71.43954468 C46.36147529 74.37086251 46.32124047 77.30101616 46.27713013 80.23202515 C46.27903854 81.13535583 46.28094696 82.03868652 46.28291321 82.96939087 C46.17569101 88.52189652 45.40295042 91.74648165 41.70291138 96.15390015 C38.43061134 99.02955776 35.82937587 100.04558625 31.45291138 100.46640015 C26.63590357 100.06498283 24.63629088 98.95265095 20.70291138 96.15390015 C16.7223754 90.7138343 16.55928379 85.79088032 16.52713013 79.2515564 C16.50393774 77.45662272 16.47982064 75.66170079 16.4548645 73.86679077 C16.41971069 71.03801535 16.39037953 68.20967439 16.37698364 65.38070679 C16.36152154 62.64962361 16.32133237 59.91980575 16.27713013 57.1890564 C16.27903854 56.34416153 16.28094696 55.49926666 16.28291321 54.62876892 C16.19137529 49.77409689 16.19137529 49.77409689 13.80569458 45.62460327 C11.40266197 43.94390335 10.1159796 43.58641202 7.20291138 43.59140015 C6.45009888 43.56948608 5.69728638 43.54757202 4.92166138 43.5249939 C1.43746627 44.51259145 0.57147014 46.06054744 -1.29708862 49.15390015 C-1.86781448 52.72313672 -1.80671674 56.25312854 -1.76583862 59.8609314 C-1.77288818 60.90029343 -1.77993774 61.93965546 -1.78720093 63.01051331 C-1.81664737 67.44621624 -1.80009241 71.88147859 -1.78781128 76.31723022 C-1.7854223 79.56122811 -1.80639712 82.80452119 -1.82833862 86.0484314 C-1.81701904 87.04139725 -1.80569946 88.0343631 -1.79403687 89.05741882 C-1.84721817 96.43368898 -3.39785901 101.72264695 -8.19161987 107.39608765 C-15.09965422 113.27706189 -21.26659481 114.71689189 -30.29708862 114.5249939 C-37.04020839 113.69088403 -41.59839113 110.41633936 -45.73458862 105.15390015 C-50.14141099 98.9265956 -50.61527626 93.57391977 -50.63302612 86.13046265 C-50.64301132 84.66291031 -50.64301132 84.66291031 -50.65319824 83.16571045 C-50.66331371 81.09294508 -50.6680156 79.02014721 -50.66769409 76.94735718 C-50.67202576 73.82422647 -50.70824159 70.70255835 -50.74630737 67.5796814 C-50.86333237 47.07839688 -47.27895497 30.80032684 -32.67208862 15.40390015 C-24.06354357 7.24843641 -12.183254 0.09202923 0 0 Z " fill="#01D8F7" transform="translate(198.29708862304688,208.84609985351563)"/>
<path d="M0 0 C1.69866211 -0.03577148 1.69866211 -0.03577148 3.43164062 -0.07226562 C4.52541016 -0.07033203 5.61917969 -0.06839844 6.74609375 -0.06640625 C8.23967407 -0.0674939 8.23967407 -0.0674939 9.76342773 -0.06860352 C13.70092721 0.81917984 15.05963593 2.42322571 17.5625 5.5625 C18.03246025 8.43596615 18.19970107 10.70383911 18.13012695 13.56567383 C18.13085709 14.35644318 18.13158722 15.14721252 18.13233948 15.96194458 C18.12886721 18.56518115 18.0900257 21.16660889 18.05078125 23.76953125 C18.04145178 25.57841515 18.0343363 27.38731171 18.02934265 29.19621277 C18.01028331 33.94928072 17.96119187 38.70158053 17.90582275 43.4543457 C17.8546072 48.30734873 17.8318237 53.16047629 17.80664062 58.01367188 C17.75307164 67.53033912 17.66514465 77.04623541 17.5625 86.5625 C23.5025 86.5625 29.4425 86.5625 35.5625 86.5625 C35.54678955 85.04374268 35.5310791 83.52498535 35.51489258 81.96020508 C35.4605717 76.32272652 35.42614174 70.68527109 35.39770508 65.04760742 C35.38262346 62.60811472 35.36215531 60.1686491 35.33618164 57.72924805 C35.29977188 54.22177441 35.28276711 50.71465946 35.26953125 47.20703125 C35.25404739 46.11727493 35.23856354 45.02751862 35.22261047 43.90473938 C35.22050057 34.40077093 35.22050057 34.40077093 38.5625 30.5625 C42.8534896 27.9121829 47.67572274 28.13601762 52.5625 28.5625 C56.64887075 29.62850976 58.35867827 30.9934689 60.5625 34.5625 C60.92326355 37.01763916 60.92326355 37.01763916 60.90307617 39.79003906 C60.90284958 40.83081604 60.90262299 41.87159302 60.90238953 42.94390869 C60.88690567 44.06070007 60.87142181 45.17749146 60.85546875 46.328125 C60.85122391 47.47665955 60.84697906 48.62519409 60.84260559 49.80853271 C60.82581333 53.4767603 60.78815898 57.14443847 60.75 60.8125 C60.73495392 63.29947123 60.72126539 65.78645108 60.70898438 68.2734375 C60.67590796 74.36997912 60.62570256 80.46620031 60.5625 86.5625 C61.30757309 86.68797714 62.05264618 86.81345428 62.82029724 86.94273376 C63.80313187 87.11366043 64.78596649 87.2845871 65.79858398 87.46069336 C66.77053207 87.6274205 67.74248016 87.79414764 68.74388123 87.96592712 C72.69315277 88.80180756 76.06337206 90.26421071 79.625 92.125 C80.30546387 92.47361084 80.98592773 92.82222168 81.68701172 93.18139648 C87.81695344 96.45568952 92.7639872 100.53373226 97.5625 105.5625 C98.12066406 106.10132813 98.67882812 106.64015625 99.25390625 107.1953125 C112.52933544 120.99066712 114.08657024 139.87974153 113.95361328 157.95166016 C113.93735018 160.58677556 113.95364277 163.22039603 113.97265625 165.85546875 C113.97067651 167.54948251 113.96683844 169.24349536 113.9609375 170.9375 C113.96701019 171.71569092 113.97308289 172.49388184 113.9793396 173.2956543 C113.90381164 179.16736984 112.64064095 183.35841112 108.5 187.75 C101.60176788 192.00635599 93.61421096 193.65018727 85.5625 192.5625 C83.2734375 191.54296875 83.2734375 191.54296875 81.5625 190.5625 C82.5525 190.5625 83.5425 190.5625 84.5625 190.5625 C84.52037056 183.73427209 84.44760838 176.90682925 84.35498047 170.07910156 C84.32700707 167.76341865 84.30567694 165.44764444 84.29150391 163.13183594 C84.14624987 140.72397936 82.30153437 120.76728751 66 103.77734375 C57.47794829 96.03374868 44.26681892 88.50991387 32.48127747 88.40428162 C31.65256638 88.3944928 30.82385529 88.38470398 29.97003174 88.37461853 C28.61165192 88.36598534 28.61165192 88.36598534 27.22583008 88.35717773 C25.79139809 88.34232834 25.79139809 88.34232834 24.32798767 88.32717896 C21.16269417 88.29555614 17.99738565 88.27080336 14.83203125 88.24609375 C12.63913072 88.2255249 10.44623417 88.20452845 8.25334167 88.18312073 C2.47807021 88.12789292 -3.29723708 88.07848672 -9.0725708 88.03027344 C-14.96442864 87.98006363 -20.85623438 87.92437484 -26.74804688 87.86914062 C-38.31115342 87.76155036 -49.87430518 87.66010727 -61.4375 87.5625 C-61.37042116 80.40884376 -61.28058298 73.25573063 -61.17504883 66.10253906 C-61.14183053 63.6699876 -61.11378901 61.23735963 -61.09106445 58.8046875 C-61.05746242 55.30435642 -61.00514166 51.80472445 -60.94921875 48.3046875 C-60.94282883 47.22009247 -60.9364389 46.13549744 -60.92985535 45.01803589 C-60.8228302 39.49972037 -60.6474221 35.27874058 -57.4375 30.5625 C-53.26595259 27.86326344 -48.24869687 28.01241435 -43.4375 28.5625 C-40.82692758 29.31461659 -38.85467608 30.25319629 -36.4375 31.5625 C-35.17377956 34.08994088 -35.31727205 35.82630308 -35.32397461 38.65478516 C-35.32405014 39.71573395 -35.32412567 40.77668274 -35.32420349 41.86978149 C-35.32936478 43.01876923 -35.33452606 44.16775696 -35.33984375 45.3515625 C-35.3412587 46.52512299 -35.34267365 47.69868347 -35.34413147 48.9078064 C-35.34974311 52.66772985 -35.36229762 56.42759445 -35.375 60.1875 C-35.3800135 62.73176998 -35.38457667 65.27604088 -35.38867188 67.8203125 C-35.39971633 74.06773112 -35.41698881 80.31510557 -35.4375 86.5625 C-29.1675 86.5625 -22.8975 86.5625 -16.4375 86.5625 C-16.45844727 84.09942383 -16.47939453 81.63634766 -16.50097656 79.09863281 C-16.56723006 70.96426911 -16.61142878 62.82989354 -16.64474869 54.69533157 C-16.6656311 49.76288847 -16.6939607 44.83072161 -16.73925781 39.8984375 C-16.78269221 35.13924186 -16.80663218 30.38031207 -16.81700897 25.62093353 C-16.82440467 23.80440841 -16.83884669 21.98789797 -16.86042023 20.1714859 C-16.88942266 17.62865156 -16.8934574 15.08691821 -16.89160156 12.54394531 C-16.91317322 11.41537613 -16.91317322 11.41537613 -16.93518066 10.26400757 C-16.90771566 6.79028876 -16.69686513 4.9060163 -14.57597351 2.09700012 C-10.33132556 -0.94882334 -5.03392487 -0.0485404 0 0 Z " fill="#0FB8DE" transform="translate(260.4375,121.4375)"/>
<path d="M0 0 C1.05253593 0.00659473 1.05253593 0.00659473 2.1263352 0.01332268 C2.87261649 0.0101162 3.61889778 0.00690973 4.38779366 0.00360608 C6.91449923 -0.00476388 9.44097205 0.00125457 11.96768194 0.00710186 C13.78702123 0.00408437 15.60635925 0.00019692 17.425695 -0.0044907 C22.44543077 -0.01483118 27.4650956 -0.0125736 32.48483735 -0.00831011 C37.89048855 -0.00585381 43.29612217 -0.0148433 48.70176703 -0.0223476 C59.29945425 -0.03512698 69.89711618 -0.03688429 80.49480981 -0.03454734 C89.10411215 -0.03276774 97.71340677 -0.03450608 106.32270819 -0.03877178 C108.15733701 -0.03966456 108.15733701 -0.03966456 110.02902904 -0.04057538 C112.51333151 -0.04178707 114.99763398 -0.0430012 117.48193645 -0.04421776 C140.80350901 -0.05510563 164.12506712 -0.05292482 187.44664049 -0.04683291 C208.80735173 -0.04166177 230.16801334 -0.0529222 251.52871609 -0.07193113 C273.43521378 -0.09127711 295.34168988 -0.0995713 317.24819618 -0.09580788 C329.55775743 -0.09389101 341.86727986 -0.09643051 354.17683417 -0.11052242 C364.65506584 -0.12239594 375.13323483 -0.12388659 385.6114673 -0.11173225 C390.96252385 -0.10581529 396.31346549 -0.1048213 401.6645146 -0.11673465 C406.55589812 -0.12749853 411.44706949 -0.12460473 416.33844268 -0.11047297 C418.11498803 -0.10779961 419.8915495 -0.11027405 421.66807914 -0.11820883 C424.06924701 -0.12819533 426.46966009 -0.11999709 428.87079626 -0.10693184 C429.57248688 -0.11424118 430.2741775 -0.12155053 430.99713147 -0.12908137 C432.92476517 -0.10709855 432.92476517 -0.10709855 435.99856573 0.26779827 C437.99856573 3.26779827 437.99856573 3.26779827 437.68606573 6.39279827 C436.99856573 9.26779827 436.99856573 9.26779827 435.99856573 10.26779827 C433.65502733 10.36925962 431.34083044 10.40511779 428.9966374 10.39922604 C428.25180955 10.40127867 427.5069817 10.40333131 426.73958331 10.40544614 C424.21185047 10.411158 421.68417139 10.40965378 419.15643317 10.40824017 C417.33867058 10.41082141 415.52090857 10.41383389 413.70314735 10.41724357 C408.68310166 10.42534512 403.66307024 10.42710489 398.64301878 10.42784104 C393.23869826 10.42968612 387.83438524 10.43723065 382.43006903 10.44397625 C370.60179265 10.45758227 358.77351965 10.46358776 346.94523674 10.46798691 C339.56623677 10.47074539 332.18723812 10.474982 324.80823904 10.47949108 C304.3968572 10.4916865 283.98547642 10.50198541 263.57409102 10.50536618 C262.26666426 10.50558574 260.95923751 10.50580531 259.61219176 10.50603153 C258.30155417 10.50624981 256.99091659 10.50646808 255.64056271 10.50669298 C252.98450643 10.50713645 250.32845014 10.50758301 247.67239386 10.50803265 C245.69613084 10.50836479 245.69613084 10.50836479 243.67994331 10.50870365 C222.31984694 10.51265372 200.95978721 10.53011289 179.59970368 10.55339217 C157.69436579 10.57707394 135.78904502 10.58956657 113.88369411 10.59073409 C101.57464142 10.59165262 89.26563312 10.59744952 76.95659262 10.61555371 C66.47727166 10.6309119 55.9980088 10.63610058 45.51867874 10.6278156 C40.16750223 10.62389391 34.81644288 10.62491231 29.46528059 10.63887295 C24.5725764 10.65152132 19.68007849 10.65049494 14.78737496 10.63828224 C13.0114528 10.6363094 11.23551648 10.63947597 9.45961429 10.6481266 C7.0568796 10.65909536 4.65488899 10.65182079 2.25217634 10.63973507 C1.20315217 10.65112786 1.20315217 10.65112786 0.13293558 10.66275081 C-2.72163381 10.63147009 -4.58531189 10.55644567 -6.96650368 8.90470847 C-8.00143427 7.26779827 -8.00143427 7.26779827 -7.81393427 4.70529827 C-6.31942906 0.22178264 -4.42646644 0.03662467 0 0 Z " fill="#314D9F" transform="translate(65.00143426656723,499.7322017252445)"/>
<path d="M0 0 C1.69866211 -0.03577148 1.69866211 -0.03577148 3.43164062 -0.07226562 C4.52541016 -0.07033203 5.61917969 -0.06839844 6.74609375 -0.06640625 C8.23967407 -0.0674939 8.23967407 -0.0674939 9.76342773 -0.06860352 C13.70092721 0.81917984 15.05963593 2.42322571 17.5625 5.5625 C18.03246025 8.43596615 18.19970107 10.70383911 18.13012695 13.56567383 C18.13085709 14.35644318 18.13158722 15.14721252 18.13233948 15.96194458 C18.12886721 18.56518115 18.0900257 21.16660889 18.05078125 23.76953125 C18.04145178 25.57841515 18.0343363 27.38731171 18.02934265 29.19621277 C18.01028331 33.94928072 17.96119187 38.70158053 17.90582275 43.4543457 C17.8546072 48.30734873 17.8318237 53.16047629 17.80664062 58.01367188 C17.75307164 67.53033912 17.66514465 77.04623541 17.5625 86.5625 C6.3425 86.5625 -4.8775 86.5625 -16.4375 86.5625 C-16.52783814 75.94012462 -16.60123725 65.31800402 -16.64474869 54.69533157 C-16.6656311 49.76288847 -16.6939607 44.83072161 -16.73925781 39.8984375 C-16.78269221 35.13924186 -16.80663218 30.38031207 -16.81700897 25.62093353 C-16.82440467 23.80440841 -16.83884669 21.98789797 -16.86042023 20.1714859 C-16.88942266 17.62865156 -16.8934574 15.08691821 -16.89160156 12.54394531 C-16.90598267 11.79156586 -16.92036377 11.0391864 -16.93518066 10.26400757 C-16.90771566 6.79028876 -16.69686513 4.9060163 -14.57597351 2.09700012 C-10.33132556 -0.94882334 -5.03392487 -0.0485404 0 0 Z " fill="#EB4D66" transform="translate(260.4375,121.4375)"/>
<path d="M0 0 C1.29366203 8.88553334 1.12645092 17.76734999 1.09765625 26.72265625 C1.09578832 28.43615172 1.09436619 30.14964772 1.09336853 31.86314392 C1.08957284 36.34619656 1.07976812 40.82921616 1.06866455 45.31225586 C1.0565757 50.70555692 1.05203414 56.0988691 1.04621124 61.49217987 C1.03655447 69.66147613 1.01737738 77.8307001 1 86 C-10.22 86 -21.44 86 -33 86 C-33.24065286 67.06418546 -33.24065286 67.06418546 -33.29296875 58.97070312 C-33.32878842 53.4554567 -33.37108677 47.94080993 -33.45263672 42.42602539 C-33.51799767 37.97800201 -33.55374116 33.5306219 -33.56926346 29.08215523 C-33.58031997 27.388066 -33.60191165 25.6940106 -33.63438034 24.00019646 C-33.9093558 9.05629315 -33.9093558 9.05629315 -30.08837891 4.46704102 C-26.15535905 1.32528879 -24.51193829 0.86610153 -19.58984375 0.68359375 C-17.98206055 0.62075195 -17.98206055 0.62075195 -16.34179688 0.55664062 C-15.21837891 0.51732422 -14.09496094 0.47800781 -12.9375 0.4375 C-11.81021484 0.39431641 -10.68292969 0.35113281 -9.52148438 0.30664062 C-1.43687996 0 -1.43687996 0 0 0 Z " fill="#EFB24A" transform="translate(421,385)"/>
<path d="M0 0 C29.07932398 -0.09137783 58.15863387 -0.16210433 87.23807288 -0.20426132 C90.67621224 -0.20926376 94.11435131 -0.21444108 97.55249023 -0.21972656 C98.57913728 -0.22130043 98.57913728 -0.22130043 99.62652466 -0.22290608 C110.68848002 -0.24028063 121.75035168 -0.27180191 132.81225749 -0.30861118 C144.17459363 -0.34610301 155.53686796 -0.36795407 166.89926988 -0.37635398 C173.27641234 -0.381559 179.65336538 -0.39375368 186.03044701 -0.42292023 C192.03945757 -0.45017928 198.04820162 -0.45842374 204.05726814 -0.45243073 C206.25618821 -0.45352627 208.45511769 -0.46141718 210.65398407 -0.4768219 C222.13228909 -0.55325503 232.25472283 -0.48588767 243 4 C244.12916729 4.45085779 244.12916729 4.45085779 245.28114605 4.91082382 C259.18506305 10.76749219 267.57940699 22.81664255 273.15234375 36.23828125 C274.00427551 39.01392988 274.06548762 41.12307132 274 44 C272.95658447 44.00616333 272.95658447 44.00616333 271.89208984 44.01245117 C268.71888197 44.0454889 265.54756809 44.11614466 262.375 44.1875 C260.73337891 44.19620117 260.73337891 44.19620117 259.05859375 44.20507812 C252.26929772 44.27299437 252.26929772 44.27299437 246.4140625 47.30078125 C244.4716904 49.47259213 242.61573244 51.57640134 241 54 C240.98582031 53.28457031 240.97164062 52.56914062 240.95703125 51.83203125 C240.23824871 36.81530418 233.84169603 23.89562958 222.9296875 13.58984375 C209.7045642 2.69384135 195.77577812 1.40550677 179.37011719 1.45410156 C177.40777268 1.4453536 175.44543529 1.43486358 173.48310852 1.42277527 C168.18847607 1.39504457 162.89407786 1.39150772 157.59938335 1.39249516 C152.05401623 1.38935491 146.50875289 1.3637136 140.96343994 1.34051514 C130.47717299 1.30003663 119.9909681 1.27963359 109.5046351 1.26654124 C97.56015127 1.25064356 85.61577265 1.21221628 73.67135 1.17194796 C49.11426869 1.08966055 24.55719039 1.03549876 0 1 C0 0.67 0 0.34 0 0 Z " fill="#15BCDC" transform="translate(146,342)"/>
<path d="M0 0 C3.75 0.8125 3.75 0.8125 5.33203125 2.875 C6.33764754 4.65804524 7.3200444 6.45434545 8.28125 8.26171875 C11.15409308 13.25099145 15.2642119 16.10154791 20.75 17.8125 C24.63424327 17.90774264 28.4699952 17.74617406 32.3515625 17.58984375 C35.75 17.8125 35.75 17.8125 37.69140625 19.140625 C38.75 20.8125 38.75 20.8125 39.0625 23.625 C37.23196277 28.07059042 34.37075754 29.05858335 30.265625 31.31640625 C25.72009211 34.01972783 23.48414839 37.11061055 21.375 42 C20.66592227 46.32537418 21.0218396 49.94894803 21.65625 54.26171875 C21.76000497 57.08471845 21.21738897 58.43910951 19.75 60.8125 C16.4375 61.125 16.4375 61.125 12.75 60.8125 C11.0625 58.6875 11.0625 58.6875 9.75 55.8125 C6.63817702 50.47794633 2.89727802 46.34680689 -2.9921875 44.16796875 C-6.94093214 43.54628058 -10.95454342 43.85384375 -14.9375 44.02734375 C-16.9140625 44.0703125 -16.9140625 44.0703125 -20.25 43.8125 C-22.25 40.8125 -22.25 40.8125 -22.4375 37.9375 C-20.81812687 33.67599177 -18.49904599 33.05368172 -14.54296875 31.09765625 C-10.1326791 28.62579033 -7.02213618 24.53289861 -5.25 19.8125 C-5.16013014 17.09112822 -5.15230991 14.46334236 -5.25 11.75 C-5.62045253 1.40511313 -5.62045253 1.40511313 0 0 Z " fill="#A55303" transform="translate(349.25,1.1875)"/>
<path d="M0 0 C6.01105844 3.55425655 9.44733597 8.80685907 11.5625 15.375 C12.33414156 21.32615344 11.8155958 26.29203781 8.5625 31.375 C6.60832843 32.47071651 4.74940419 33.12517549 2.6015625 33.7578125 C0.33768972 34.36521308 0.33768972 34.36521308 -2.375 36 C-5.81061543 37.54252122 -8.62238175 37.836306 -12.33984375 38.109375 C-14.60756749 38.27885017 -14.60756749 38.27885017 -17.0625 39.6875 C-19.4375 40.375 -19.4375 40.375 -22.9375 39 C-27.90025027 35.82514011 -30.6102487 30.85675389 -32.4375 25.375 C-33.14076086 18.23863165 -32.8261579 12.2393762 -28.4375 6.375 C-20.94005597 -1.60213831 -10.39280835 -4.74196579 0 0 Z " fill="#025A2F" transform="translate(424.4375,99.625)"/>
<path d="M0 0 C2.83105028 3.07677986 3.37073972 5.08507793 3.34057617 9.22753906 C3.34034958 10.26831604 3.34012299 11.30909302 3.33988953 12.38140869 C3.32440567 13.49820007 3.30892181 14.61499146 3.29296875 15.765625 C3.28872391 16.91415955 3.28447906 18.06269409 3.28010559 19.24603271 C3.26331333 22.9142603 3.22565898 26.58193847 3.1875 30.25 C3.17245392 32.73697123 3.15876539 35.22395108 3.14648438 37.7109375 C3.11596 43.80767362 3.05723679 49.90322183 3 56 C-5.25 56 -13.5 56 -22 56 C-22.06888786 48.82800857 -22.12861869 41.65716614 -22.16479492 34.48510742 C-22.17987654 32.04561472 -22.20034469 29.6061491 -22.22631836 27.16674805 C-22.26272812 23.65927441 -22.27973289 20.15215946 -22.29296875 16.64453125 C-22.30845261 15.55477493 -22.32393646 14.46501862 -22.33988953 13.34223938 C-22.34199943 3.83827093 -22.34199943 3.83827093 -19 0 C-13.63609928 -3.3129975 -5.4006437 -3.17684924 0 0 Z " fill="#EB4D66" transform="translate(318,152)"/>
<path d="M0 0 C1.26372044 2.52744088 1.12022795 4.26380308 1.11352539 7.09228516 C1.11344986 8.15323395 1.11337433 9.21418274 1.11329651 10.30728149 C1.10813522 11.45626923 1.10297394 12.60525696 1.09765625 13.7890625 C1.0962413 14.96262299 1.09482635 16.13618347 1.09336853 17.3453064 C1.08775689 21.10522985 1.07520238 24.86509445 1.0625 28.625 C1.0574865 31.16926998 1.05292333 33.71354088 1.04882812 36.2578125 C1.03863322 42.50524943 1.01905999 48.75255858 1 55 C-7.25 55 -15.5 55 -24 55 C-24.06893825 47.98872473 -24.12865397 40.97862953 -24.16479492 33.96728516 C-24.179864 31.58312999 -24.20032291 29.19900247 -24.22631836 26.81494141 C-24.26278337 23.38437063 -24.27974552 19.954167 -24.29296875 16.5234375 C-24.30845261 15.46071625 -24.32393646 14.397995 -24.33988953 13.30307007 C-24.34113553 7.80100083 -24.21142892 3.70569276 -21 -1 C-14.54480684 -5.17688969 -6.33406066 -3.43094952 0 0 Z " fill="#FE566E" transform="translate(224,153)"/>
<path d="M0 0 C1.69866211 -0.03577148 1.69866211 -0.03577148 3.43164062 -0.07226562 C11.62928544 -0.05777362 11.62928544 -0.05777362 15.8125 2.72265625 C19.47316439 8.66306475 18.19689296 15.42597616 16.86328125 22.01953125 C14.07904812 32.11090786 9.88226826 38.77728544 0.9296875 44.30859375 C-4.92949977 47.41222265 -9.82315315 48.62686496 -16.4375 48.5625 C-16.53638089 42.36951358 -16.60897486 36.17698668 -16.65722656 29.98339844 C-16.67734126 27.87654618 -16.70463667 25.76974975 -16.73925781 23.66308594 C-16.78778168 20.63462553 -16.81047016 17.60690322 -16.828125 14.578125 C-16.84877014 13.63632385 -16.86941528 12.69452271 -16.89068604 11.72418213 C-16.89290061 5.26928015 -16.89290061 5.26928015 -14.76831055 1.97192383 C-10.2349368 -0.76937361 -5.15284341 -0.04968709 0 0 Z " fill="#FE566D" transform="translate(260.4375,121.4375)"/>
<path d="M0 0 C4.5375 -0.12375 9.075 -0.2475 13.75 -0.375 C15.15475586 -0.42962402 16.55951172 -0.48424805 18.00683594 -0.54052734 C28.01660755 -0.67123624 35.86093203 1.44912634 43.46582031 8.18359375 C48.6941525 13.49475597 53 20.35823238 53 28 C35.51 28 18.02 28 0 28 C0 18.76 0 9.52 0 0 Z " fill="#EB4D66" transform="translate(397,472)"/>
<path d="M0 0 C3.0859375 1.06640625 3.0859375 1.06640625 4.13574219 2.65283203 C5.03582708 4.78600215 5.77026477 6.91913095 6.4609375 9.12890625 C6.84958984 10.26682617 6.84958984 10.26682617 7.24609375 11.42773438 C7.88188827 13.29979603 8.4869177 15.18225531 9.0859375 17.06640625 C12.6642737 17.06640625 14.20807771 16.7904164 17.3984375 15.56640625 C21.42522942 14.16433844 24.78662918 13.62770132 29.0859375 14.06640625 C31.0859375 16.06640625 31.0859375 16.06640625 31.5234375 19.00390625 C31.3790625 20.01453125 31.2346875 21.02515625 31.0859375 22.06640625 C27.57613546 24.62483338 23.88740247 25.94286247 19.7734375 27.25390625 C18.70480469 27.59808594 17.63617188 27.94226563 16.53515625 28.296875 C15.72691406 28.55082031 14.91867188 28.80476563 14.0859375 29.06640625 C14.95505682 33.22708385 15.81878841 37.29464222 17.2109375 41.31640625 C18.10120338 44.11438474 18.40952773 46.15409417 18.0859375 49.06640625 C16.0859375 51.06640625 16.0859375 51.06640625 12.4609375 51.19140625 C11.3471875 51.15015625 10.2334375 51.10890625 9.0859375 51.06640625 C6.2108123 45.16262974 4.24787902 39.53352813 3.0859375 33.06640625 C2.08433594 33.43894531 1.08273438 33.81148437 0.05078125 34.1953125 C-1.29137881 34.67398497 -2.63384334 35.15180434 -3.9765625 35.62890625 C-4.63333984 35.87576172 -5.29011719 36.12261719 -5.96679688 36.37695312 C-10.7390291 38.04605898 -13.96784137 38.1405531 -18.9140625 37.06640625 C-19.2440625 34.75640625 -19.5740625 32.44640625 -19.9140625 30.06640625 C-16.75794837 27.41222835 -13.76235674 26.14373561 -9.8515625 24.87890625 C-8.80871094 24.53472656 -7.76585938 24.19054687 -6.69140625 23.8359375 C-3.9140625 23.06640625 -3.9140625 23.06640625 -0.9140625 23.06640625 C-1.37039062 21.89722656 -1.82671875 20.72804688 -2.296875 19.5234375 C-2.87848939 17.97559276 -3.45916986 16.42739686 -4.0390625 14.87890625 C-4.34199219 14.10998047 -4.64492187 13.34105469 -4.95703125 12.54882812 C-7.08249739 6.79029777 -7.08249739 6.79029777 -6.21875 3.078125 C-4.35095382 0.19813987 -3.43180809 0.07820474 0 0 Z " fill="#2C4CA1" transform="translate(89.9140625,61.93359375)"/>
<path d="M0 0 C3.08764648 0.38964844 3.08764648 0.38964844 4.93896484 2.14648438 C5.45080322 2.96407227 5.9626416 3.78166016 6.48999023 4.62402344 C7.0776416 5.54119141 7.66529297 6.45835937 8.27075195 7.40332031 C8.87032715 8.38880859 9.46990234 9.37429687 10.08764648 10.38964844 C10.99281006 11.82920898 10.99281006 11.82920898 11.91625977 13.29785156 C13.85215162 16.3973083 15.75367245 19.51593348 17.65014648 22.63964844 C19.05651956 24.94325414 20.46610982 27.24487854 21.87670898 29.54589844 C22.2292424 30.121203 22.58177582 30.69650757 22.94499207 31.28924561 C26.41525642 36.94218568 29.95881495 42.54698101 33.52514648 48.13964844 C34.0970874 49.03973633 34.66902832 49.93982422 35.25830078 50.8671875 C37.7816949 54.8273256 40.32614431 58.76673483 42.95874023 62.65527344 C43.38678955 63.2949707 43.81483887 63.93466797 44.25585938 64.59375 C45.36314704 66.24157684 46.48635386 67.87867734 47.61108398 69.51464844 C49.29158198 72.78672919 49.55159273 74.76055779 49.08764648 78.38964844 C47.08764648 80.38964844 47.08764648 80.38964844 44.33764648 81.01464844 C40.58491938 80.29297015 40.3428794 79.84957112 38.22436523 76.88183594 C37.70310059 76.15270996 37.18183594 75.42358398 36.64477539 74.67236328 C34.22764896 71.12891202 31.91488551 67.5321037 29.65014648 63.88964844 C29.14354492 63.08140625 28.63694336 62.27316406 28.11499023 61.44042969 C26.4355956 58.75907738 24.76144613 56.07449639 23.08764648 53.38964844 C21.85741498 51.42075018 20.62693999 49.45200404 19.39624023 47.48339844 C17.49228446 44.43755897 15.58877078 41.3914499 13.68701172 38.34423828 C9.04668916 30.91132342 4.37721339 23.49732957 -0.32055664 16.10058594 C-1.01181641 15.01003906 -1.01181641 15.01003906 -1.71704102 13.89746094 C-2.11906738 13.26469238 -2.52109375 12.63192383 -2.93530273 11.97998047 C-4.99485066 8.62768283 -5.15896657 6.33545733 -4.91235352 2.38964844 C-2.91235352 0.38964844 -2.91235352 0.38964844 0 0 Z " fill="#2C4CA1" transform="translate(4.912353515625,164.6103515625)"/>
<path d="M0 0 C3.125 0.25 3.125 0.25 4.74739075 1.31822205 C6.75529639 4.13384472 6.93241864 7.05781333 7.29174805 10.40844727 C7.42407837 11.49691704 7.42407837 11.49691704 7.55908203 12.6073761 C7.84769019 15.00906997 8.11747057 17.41247106 8.38671875 19.81640625 C8.58324139 21.49221529 8.78075057 23.16790891 8.97920227 24.8434906 C9.39301844 28.36068407 9.79811983 31.87873415 10.1965332 35.39770508 C10.70486842 39.8855702 11.22946943 44.37133317 11.76007366 48.85661411 C12.16895635 52.32125592 12.57160209 55.78659935 12.97217751 59.25221062 C13.16344434 60.9047952 13.35600496 62.55723061 13.54993248 64.20950508 C16.21789822 87.06420356 16.21789822 87.06420356 14.125 91.25 C11.30462916 92.24094111 9.80881504 92.56034187 7.05175781 91.30908203 C4.11530119 88.17095796 4.06504631 84.60244699 3.609375 80.4921875 C3.49382263 79.57782928 3.37827026 78.66347107 3.25921631 77.72140503 C3.00417713 75.68094454 2.75769661 73.63940197 2.51831055 71.5970459 C2.10359455 68.06784112 1.66402717 64.54232203 1.22070312 61.01660156 C0.4053484 54.4859097 -0.3775468 47.95174315 -1.14697266 41.41552734 C-1.5481391 38.01134059 -1.9602339 34.60856263 -2.3745079 31.20594978 C-2.77310205 27.91165162 -3.15910941 24.61590254 -3.546875 21.3203125 C-3.69574158 20.10989288 -3.84460815 18.89947327 -3.99798584 17.65237427 C-4.65371282 11.96132981 -5.19363949 6.85870639 -3.875 1.25 C-2.875 0.25 -2.875 0.25 0 0 Z " fill="#2C4CA1" transform="translate(99.875,188.75)"/>
<path d="M0 0 C2.91113281 0.39233398 2.91113281 0.39233398 4.91113281 2.39233398 C5.45295981 7.20707127 4.46233174 9.85126687 1.90332031 13.89233398 C1.25339111 14.93309082 0.60346191 15.97384766 -0.06616211 17.04614258 C-0.77490479 18.15038574 -1.48364746 19.25462891 -2.21386719 20.39233398 C-2.94718175 21.55519208 -3.6793452 22.71877682 -4.41040039 23.88305664 C-6.26910013 26.83623662 -8.14330444 29.77921613 -10.02215576 32.71960449 C-11.62784142 35.23750923 -13.21924498 37.7643736 -14.81152344 40.29077148 C-18.21200756 45.67431866 -21.64399052 51.03710775 -25.08886719 56.39233398 C-25.6948877 57.33560547 -26.3009082 58.27887695 -26.92529297 59.25073242 C-28.726123 62.05033814 -30.53141356 64.84700084 -32.33886719 67.64233398 C-32.88824951 68.4948877 -33.43763184 69.34744141 -34.00366211 70.22583008 C-34.51131104 71.00780762 -35.01895996 71.78978516 -35.54199219 72.59545898 C-35.98704102 73.28285156 -36.43208984 73.97024414 -36.890625 74.6784668 C-38.08886719 76.39233398 -38.08886719 76.39233398 -40.08886719 78.39233398 C-43.71386719 78.01733398 -43.71386719 78.01733398 -47.08886719 77.39233398 C-48.11151991 74.406381 -48.44673992 72.25934734 -47.22363281 69.29614258 C-45.83881354 66.83453619 -44.36535765 64.45625278 -42.83886719 62.07983398 C-42.01286011 60.75097168 -42.01286011 60.75097168 -41.17016602 59.39526367 C-39.49587838 56.71467466 -37.79748787 54.05114407 -36.08886719 51.39233398 C-35.62335449 50.66546387 -35.1578418 49.93859375 -34.67822266 49.18969727 C-32.94787975 46.4946898 -31.21006786 43.80491441 -29.45605469 41.12524414 C-24.67069093 33.80915916 -20.06954051 26.37923421 -15.47827148 18.94018555 C-13.70198168 16.07762714 -11.89794613 13.23425235 -10.08886719 10.39233398 C-9.49525391 9.42021973 -8.90164063 8.44810547 -8.29003906 7.4465332 C-7.70287109 6.5301709 -7.11570312 5.61380859 -6.51074219 4.66967773 C-5.99608398 3.84588623 -5.48142578 3.02209473 -4.95117188 2.17333984 C-3.08886719 0.39233398 -3.08886719 0.39233398 0 0 Z " fill="#2C4DA1" transform="translate(507.0888671875,169.607666015625)"/>
<path d="M0 0 C3.5 -0.375 3.5 -0.375 7 0 C9.37187228 3.55780843 9.13937423 4.54498168 8.73608398 8.69165039 C8.6260202 9.85769806 8.51595642 11.02374573 8.40255737 12.22512817 C8.20329147 14.09368973 8.20329147 14.09368973 8 16 C7.86997589 17.2370871 7.73995178 18.47417419 7.60598755 19.74874878 C7.16314938 23.81266058 6.69718962 27.87329197 6.22265625 31.93359375 C6.04947759 33.42521236 5.87633686 34.91683537 5.70323181 36.40846252 C5.34287352 39.50715268 4.98030694 42.60557566 4.61645508 45.70385742 C4.15197973 49.66269365 3.69585523 53.62244559 3.24166203 57.5824728 C2.88823898 60.65168591 2.52905029 63.72020447 2.16827202 66.78856087 C1.99754807 68.24867595 1.82891056 69.70903665 1.66246223 71.16964531 C1.42955991 73.20818047 1.18853751 75.24560389 0.94555664 77.28295898 C0.81089493 78.43843735 0.67623322 79.59391571 0.53749084 80.78440857 C-0.80279411 88.80279411 -0.80279411 88.80279411 -3 91 C-5.9375 91.1875 -5.9375 91.1875 -9 91 C-11 89 -11 89 -11.26205444 87.00927734 C-11.19800831 78.14010951 -10.1678835 69.41607388 -9.1015625 60.625 C-8.90423913 58.96642949 -8.70725408 57.30781869 -8.5105896 55.64916992 C-8.09958776 52.19608163 -7.6837919 48.74361306 -7.26464844 45.29150391 C-6.72787654 40.86643618 -6.20443254 36.43990596 -5.68462563 32.01281738 C-5.28198732 28.597829 -4.87181431 25.18377789 -4.45939255 21.7699585 C-4.26316767 20.13715988 -4.06942724 18.5040607 -3.87822342 16.8706665 C-3.61096876 14.59635497 -3.3334603 12.32352442 -3.05322266 10.05078125 C-2.89777985 8.75825439 -2.74233704 7.46572754 -2.58218384 6.1340332 C-2 3 -2 3 0 0 Z " fill="#2C4CA1" transform="translate(408,194)"/>
<path d="M0 0 C0.33 0 0.66 0 1 0 C1 13.53 1 27.06 1 41 C-8.57 41 -18.14 41 -28 41 C-28 31.43 -28 21.86 -28 12 C-24.37 12 -20.74 12 -17 12 C-11.27240106 11.04298347 -6.05738511 9.31097167 -2 5 C-0.66701026 2.38181544 -0.66701026 2.38181544 0 0 Z " fill="#EEB24A" transform="translate(373,301)"/>
<path d="M0 0 C6.08057238 10.97469162 3.8212022 29.25291589 0.984375 40.98828125 C-0.61462629 45.88046377 -2.73400868 49.31878064 -6.9375 52.4375 C-9.98832589 53.26954342 -11.83665001 53.569403 -15 53 C-19.69195114 48.94179581 -22.77572385 44.31752017 -23.375 38.125 C-23.61279957 32.78531865 -20.02210949 29.14017494 -16.6328125 25.359375 C-15.80523437 24.49828125 -14.97765625 23.6371875 -14.125 22.75 C-7.80842837 15.90317126 -3.38525028 8.65119517 0 0 Z " fill="#FFCC53" transform="translate(271,55)"/>
<path d="M0 0 C4 2 8 4 12 6 C10.87548273 8.9719385 9.77706209 11.33440687 8 14 C8.3121764 16.64632287 8.3121764 16.64632287 9 19 C12.47147842 19.74957157 12.47147842 19.74957157 16 20 C15.979375 21.175625 15.95875 22.35125 15.9375 23.5625 C15.92218162 26.44746086 16.14464292 28.8678575 16.625 31.75 C17.00860345 35.07456328 16.84511032 36.28660246 15 39 C11.6875 39.3125 11.6875 39.3125 8 39 C6.3125 36.875 6.3125 36.875 5 34 C1.88817702 28.66544633 -1.85272198 24.53430689 -7.7421875 22.35546875 C-11.69093214 21.73378058 -15.70454342 22.04134375 -19.6875 22.21484375 C-21.6640625 22.2578125 -21.6640625 22.2578125 -25 22 C-27 19 -27 19 -27.1875 16.125 C-25.56957083 11.86729166 -23.2592031 11.23777922 -19.296875 9.30078125 C-15.97154301 7.41755752 -14.26261949 5.04039494 -12 2 C-11.67 2 -11.34 2 -11 2 C-10.34 4.31 -9.68 6.62 -9 9 C-6.6147267 9.12815365 -6.6147267 9.12815365 -4 8 C-2.32801232 5.47332213 -1.14194429 2.80063432 0 0 Z " fill="#FDA400" transform="translate(354,23)"/>
<path d="M0 0 C6.17410734 0.06636544 12.10926271 1.02586878 18.18139648 2.07958984 C19.33652237 2.2746109 20.49164825 2.46963196 21.68177795 2.67056274 C24.10526976 3.08185439 26.52807151 3.49723116 28.95019531 3.91650391 C32.66534313 4.55810217 36.38304219 5.18296936 40.10131836 5.80615234 C42.46151375 6.2088068 44.82154603 6.61241871 47.18139648 7.01708984 C48.29385239 7.20363129 49.40630829 7.39017273 50.55247498 7.58236694 C51.58107132 7.76240265 52.60966766 7.94243835 53.66943359 8.12792969 C54.57414902 8.2833725 55.47886444 8.43881531 56.41099548 8.59896851 C58.71655273 9.18115234 58.71655273 9.18115234 61.71655273 11.18115234 C62.10597101 14.23159553 62.29950102 16.26214235 60.62011719 18.90966797 C57.63280077 20.90504362 55.37990407 20.11358414 51.88452148 19.58740234 C51.18771774 19.48641235 50.490914 19.38542236 49.772995 19.28137207 C47.41758295 18.93342351 45.06739885 18.55865963 42.71655273 18.18115234 C40.99474648 17.91399188 39.27290298 17.64707136 37.55102539 17.38037109 C32.97621624 16.6625172 28.40729267 15.91259085 23.83984375 15.14941406 C20.99574701 14.6756038 18.15017715 14.21142318 15.30444336 13.74755859 C13.47947745 13.44475192 11.65460398 13.14138741 9.82983398 12.83740234 C8.98713455 12.70088257 8.14443512 12.56436279 7.27619934 12.42370605 C-2.73574225 10.72885736 -2.73574225 10.72885736 -6.28344727 7.18115234 C-5.55457406 0.03819489 -5.55457406 0.03819489 0 0 Z " fill="#2D4DA1" transform="translate(10.283447265625,303.81884765625)"/>
<path d="M0 0 C2 3 2 3 1.75 5.5625 C1 8 1 8 -1 10 C-3.18530273 10.58218384 -3.18530273 10.58218384 -5.93359375 11.05322266 C-7.47660156 11.32327621 -7.47660156 11.32327621 -9.05078125 11.5987854 C-10.72720703 11.87859756 -10.72720703 11.87859756 -12.4375 12.1640625 C-14.16226563 12.45946426 -14.16226563 12.45946426 -15.921875 12.76083374 C-18.36244379 13.17656748 -20.8037136 13.58820321 -23.24560547 13.99609375 C-26.95887693 14.61811139 -30.66889458 15.25729848 -34.37890625 15.8984375 C-36.75242712 16.30052566 -39.12612015 16.70159919 -41.5 17.1015625 C-42.60142334 17.2921524 -43.70284668 17.48274231 -44.83764648 17.67910767 C-57.86714118 19.82699213 -57.86714118 19.82699213 -64 19 C-66 17 -66 17 -66.25 14 C-66 11 -66 11 -64 9 C-61.55326843 8.37312317 -61.55326843 8.37312317 -58.4362793 7.83911133 C-57.27134445 7.63582718 -56.10640961 7.43254303 -54.90617371 7.22309875 C-53.64162857 7.01154648 -52.37708344 6.7999942 -51.07421875 6.58203125 C-49.13190117 6.24977791 -49.13190117 6.24977791 -47.15034485 5.91081238 C-44.40651996 5.44246489 -41.66177254 4.98007411 -38.91625977 4.52172852 C-35.40375845 3.93478922 -31.89408054 3.33258211 -28.38496685 2.72575855 C-25.03282848 2.14839815 -21.67844794 1.58461914 -18.32421875 1.01953125 C-17.06574631 0.80190628 -15.80727386 0.58428131 -14.51066589 0.36006165 C-13.33627457 0.16623398 -12.16188324 -0.02759369 -10.9519043 -0.22729492 C-9.9209111 -0.40113205 -8.88991791 -0.57496918 -7.8276825 -0.7540741 C-4.90245216 -1.00848382 -2.79008415 -0.91119481 0 0 Z " fill="#2D4CA1" transform="translate(506,309)"/>
<path d="M0 0 C2.74611717 2.46203608 2.99043764 3.920769 3.4375 7.625 C3.19047583 13.9182348 0.4786458 19.44080534 -2.625 24.8125 C-7.27183694 29.09248139 -12.47066594 31.90957437 -18.82421875 32.13671875 C-19.87222656 32.09160156 -20.92023438 32.04648438 -22 32 C-22.0872253 27.60429206 -22.14046869 23.20880729 -22.1875 18.8125 C-22.21263672 17.56662109 -22.23777344 16.32074219 -22.26367188 15.03710938 C-22.27333984 13.83505859 -22.28300781 12.63300781 -22.29296875 11.39453125 C-22.3086792 10.28956299 -22.32438965 9.18459473 -22.34057617 8.04614258 C-21.95603607 4.60678279 -21.04504882 2.76435678 -19 0 C-13.63609928 -3.3129975 -5.4006437 -3.17684924 0 0 Z " fill="#FE576E" transform="translate(318,152)"/>
<path d="M0 0 C5.32876424 1.90899976 7.12957225 6.3273424 9.91796875 11.0546875 C11.14126707 13.06420402 12.36523839 15.07331098 13.58984375 17.08203125 C14.20279297 18.10022949 14.81574219 19.11842773 15.44726562 20.16748047 C17.19933388 23.0268744 19.01413504 25.82897229 20.87109375 28.62109375 C21.42716309 29.46494629 21.98323242 30.30879883 22.55615234 31.17822266 C23.60600182 32.76683161 24.6657727 34.34894227 25.73681641 35.92333984 C28.79050098 40.62171902 29.89956424 43.56498045 29.29296875 49.1796875 C26.60546875 50.4296875 26.60546875 50.4296875 23.29296875 51.1796875 C18.02913757 48.09820755 15.59943018 43.13012527 12.66796875 37.9921875 C9.58648448 32.69520646 6.5079025 27.4244892 3.1015625 22.328125 C2.5977002 21.57426514 2.09383789 20.82040527 1.57470703 20.04370117 C0.62091327 18.63076142 -0.34245005 17.22421721 -1.31689453 15.82543945 C-4.13416682 11.63318265 -5.487944 8.3669004 -5.70703125 3.1796875 C-4.18311068 0.31113113 -3.21215833 0.21321686 0 0 Z " fill="#2C4CA2" transform="translate(61.70703125,253.8203125)"/>
<path d="M0 0 C0.33 0 0.66 0 1 0 C1 12.87 1 25.74 1 39 C-6.92 39 -14.84 39 -23 39 C-23 32.73 -23 26.46 -23 20 C-20.03 19.34 -17.06 18.68 -14 18 C-8.4827366 15.60947457 -4.80110626 12.38674281 -2 7 C-1.18402862 4.67401261 -0.5767661 2.4031921 0 0 Z " fill="#EB4D66" transform="translate(224,169)"/>
<path d="M0 0 C2.4375 0.8125 2.4375 0.8125 4.4375 3.8125 C4.25799082 8.82978154 1.28458907 12.75537084 -1.3125 16.875 C-2.03155518 18.03310181 -2.03155518 18.03310181 -2.76513672 19.21459961 C-19.03939919 45.28939919 -19.03939919 45.28939919 -21.5625 47.8125 C-24.5 48 -24.5 48 -27.5625 47.8125 C-29.5625 45.8125 -29.5625 45.8125 -29.87280273 43.02148438 C-29.51840992 39.35654401 -28.58368973 37.54599527 -26.59765625 34.46875 C-25.96633789 33.47568848 -25.33501953 32.48262695 -24.68457031 31.45947266 C-23.66508301 29.90172119 -23.66508301 29.90172119 -22.625 28.3125 C-21.94147461 27.24692871 -21.25794922 26.18135742 -20.55371094 25.08349609 C-19.1904994 22.9606889 -17.82194854 20.84129981 -16.44775391 18.72558594 C-14.83180862 16.22863449 -13.24087703 13.71948019 -11.66796875 11.1953125 C-4.44748616 -0.32542582 -4.44748616 -0.32542582 0 0 Z " fill="#2C4CA1" transform="translate(450.5625,261.1875)"/>
<path d="M0 0 C3.0503131 2.7689425 4.73439627 5.08825788 6.1875 8.9375 C6.51105469 9.77152344 6.83460938 10.60554688 7.16796875 11.46484375 C9.85760858 19.66003741 9.69163141 27.17594537 6 35 C3.55451389 38.76661079 1.46290416 41.52296603 -2.875 42.9375 C-3.57625 42.958125 -4.2775 42.97875 -5 43 C-11.42806588 35.41817871 -11.42806588 35.41817871 -11.34375 29.58984375 C-9.9796367 19.31249013 -4.47107488 9.24944014 0 0 Z " fill="#FFCC53" transform="translate(214,89)"/>
<path d="M0 0 C5.67857915 5.18945784 7.56530096 11.18342218 8.42578125 18.73828125 C8.70507231 26.67812723 8.12848137 32.73652686 3 39 C-0.83359746 42.92709984 -0.83359746 42.92709984 -4 43.125 C-7.20369212 41.32292318 -9.31312618 39.22159823 -11 36 C-13.95833425 24.45153961 -5.32019478 9.7929249 0 0 Z " fill="#FFCC53" transform="translate(310,89)"/>
<path d="M0 0 C4.08998175 1.80720124 6.66247347 4.19069751 9 8 C9.31027713 11.47510385 9.16399769 14.29480995 8.375 17.6875 C7.91606202 20.51761755 8.6470524 21.54713698 10 24 C4.30223306 28.34707015 0.15406617 29.74521523 -7 29 C-7.3403125 27.6696875 -7.3403125 27.6696875 -7.6875 26.3125 C-9.17853428 22.54941348 -11.0938301 20.75713555 -14 18 C-15.50186547 13.49440359 -15.71589695 9.65786663 -13.8125 5.25 C-9.87317521 0.35980371 -6.1922734 -0.66345786 0 0 Z " fill="#84DC73" transform="translate(417,108)"/>
<path d="M0 0 C1.12347839 0.00607269 1.12347839 0.00607269 2.26965332 0.01226807 C3.03894165 0.01035461 3.80822998 0.00844116 4.60083008 0.00646973 C6.22823412 0.00510799 7.85564902 0.00880368 9.48303223 0.01715088 C11.97855963 0.02785086 14.47336714 0.01725555 16.96887207 0.00445557 C18.54830075 0.00577716 20.12772898 0.00833956 21.70715332 0.01226807 C22.45613892 0.0082196 23.20512451 0.00417114 23.97680664 0 C29.25848089 0.04797064 29.25848089 0.04797064 31.48840332 2.27789307 C31.73840332 5.27789307 31.73840332 5.27789307 31.48840332 8.27789307 C28.97135527 10.79494112 27.41167433 10.52458906 23.97680664 10.55578613 C22.85332825 10.54971344 22.85332825 10.54971344 21.70715332 10.54351807 C20.93786499 10.54543152 20.16857666 10.54734497 19.37597656 10.54931641 C17.74857252 10.55067815 16.12115762 10.54698246 14.49377441 10.53863525 C11.99824701 10.52793527 9.5034395 10.53853058 7.00793457 10.55133057 C5.42850589 10.55000897 3.84907766 10.54744657 2.26965332 10.54351807 C1.52066772 10.54756653 0.77168213 10.55161499 0 10.55578613 C-5.28167425 10.5078155 -5.28167425 10.5078155 -7.51159668 8.27789307 C-7.76159668 5.27789307 -7.76159668 5.27789307 -7.51159668 2.27789307 C-4.99454863 -0.23915498 -3.43486769 0.03119707 0 0 Z " fill="#2D4CA0" transform="translate(21.5115966796875,499.72210693359375)"/>
<path d="M0 0 C3.94875513 2.45865885 5.66872408 3.98776803 7.125 8.4375 C6.97177911 12.80429526 5.76736304 14.67916436 3 18 C-0.23176757 19.61588379 -3.50615283 19.57451407 -7 19 C-9.97717008 17.01521994 -11.62826444 15.63168881 -12.44140625 12.0625 C-12.66684799 8.22271812 -12.23190202 6.36331317 -10.125 3.0625 C-6.78220282 -0.18197961 -4.62268262 -0.53338646 0 0 Z " fill="#F5CC59" transform="translate(156,366)"/>
<path d="M0 0 C3 2 3 2 5 5 C5.37990283 8.22917403 5.02828703 10.92088353 4 14 C1.85405442 16.66617481 0.39868082 17.68070519 -2.93359375 18.44140625 C-5.16028813 18.6392411 -6.83677039 18.57133685 -9 18 C-12.56352884 14.95615245 -13.81458415 13.05687034 -14.625 8.4375 C-13.84380508 4.14092793 -12.34762132 2.70997917 -9 0 C-5.77509551 -1.61245225 -3.43772273 -0.81573082 0 0 Z " fill="#F7CC58" transform="translate(373,367)"/>
<path d="M0 0 C2.0625 2.625 2.0625 2.625 3 6 C2.09016393 12.06557377 2.09016393 12.06557377 -0.75 14.5 C-4.48214561 15.32936569 -7.5505192 14.82137246 -10.875 12.9375 C-12.72876552 9.74490383 -12.74231244 6.52068184 -12 3 C-8.42033707 -1.44746001 -5.31838588 -1.77279529 0 0 Z " fill="#2C4CA1" transform="translate(207,19)"/>
<path d="M0 0 C2.375 1.625 2.375 1.625 4 4 C4.61195145 7.6717087 4.48706506 9.28813568 2.375 12.375 C-0.71186432 14.48706506 -2.3282913 14.61195145 -6 14 C-8.375 12.375 -8.375 12.375 -10 10 C-10.61195145 6.3282913 -10.48706506 4.71186432 -8.375 1.625 C-5.28813568 -0.48706506 -3.6717087 -0.61195145 0 0 Z " fill="#2A53A5" transform="translate(163,412)"/>
<path d="M0 0 C2.5 1.5625 2.5 1.5625 4 4 C4 7.82389746 3.85254277 10.05611336 1.25 12.9375 C-1.49491218 14.23370853 -3.00074212 14.52487013 -6 14 C-8.3125 12.4375 -8.3125 12.4375 -10 10 C-10.42519574 6.53769185 -10.63902633 4.1652833 -8.9375 1.0625 C-5.8347167 -0.63902633 -3.46230815 -0.42519574 0 0 Z " fill="#F5CC5A" transform="translate(288,228)"/>
<path d="M0 0 C2.375 1.625 2.375 1.625 4 4 C4.61195145 7.6717087 4.48706506 9.28813568 2.375 12.375 C0 14 0 14 -3 14.5625 C-6 14 -6 14 -8.375 11.8125 C-10.14232156 8.75367423 -10.70698088 7.44653179 -10 4 C-7.16979976 -0.02759265 -4.82432618 -0.80405436 0 0 Z " fill="#2B51A3" transform="translate(309,351)"/>
<path d="M0 0 C2.375 1.625 2.375 1.625 4 4 C4.61195145 7.6717087 4.48706506 9.28813568 2.375 12.375 C0 14 0 14 -3 14.5625 C-6 14 -6 14 -8.4375 11.875 C-10 9 -10 9 -9.9375 5.875 C-8.12944906 0.33031044 -5.83514388 -0.83359198 0 0 Z " fill="#2B51A3" transform="translate(218,222)"/>
<path d="M0 0 C2.375 1 2.375 1 4 3 C4.66300779 6.57577233 4.65930485 9.75895557 2.9375 13 C-0.13215135 14.58433618 -2.61681143 14.36248449 -6 14 C-7.9375 13 -7.9375 13 -9 11 C-9.5327028 7.39862897 -9.68723346 4.22174836 -7.875 1 C-5.08970454 -0.48549091 -3.10747489 -0.38050713 0 0 Z " fill="#2B50A3" transform="translate(365,416)"/>
<path d="M0 0 C0.66 0.33 1.32 0.66 2 1 C-3.28 6.28 -8.56 11.56 -14 17 C-14 12.95607032 -12.51908749 11.99868382 -9.8125 9.0625 C-9.03519531 8.20785156 -8.25789062 7.35320312 -7.45703125 6.47265625 C-5.09786332 4.09848566 -2.65532732 2.0327639 0 0 Z " fill="#41D9CB" transform="translate(173,218)"/>
<path d="M0 0 C0.66 0.33 1.32 0.66 2 1 C-2.95 5.95 -7.9 10.9 -13 16 C-13 11.93645091 -11.47015238 10.94829419 -8.75 8 C-7.96109375 7.13375 -7.1721875 6.2675 -6.359375 5.375 C-4.3351828 3.33740256 -2.34982916 1.63841299 0 0 Z " fill="#37D6D5" transform="translate(123,351)"/>
</svg>
