<?xml version="1.0" encoding="UTF-8"?>
<svg version="1.1" xmlns="http://www.w3.org/2000/svg" width="512" height="512">
<path d="M0 0 C0.73924713 -0.00705963 1.47849426 -0.01411926 2.24014282 -0.02139282 C32.97641168 -0.24840581 32.97641168 -0.24840581 45.9765625 3.203125 C47.16427246 3.50911621 47.16427246 3.50911621 48.37597656 3.82128906 C74.61487163 10.73579651 97.8146255 22.75872863 117.80078125 41.21484375 C119.54657624 42.81019321 121.30944352 44.30248232 123.1640625 45.765625 C126.84237467 48.95349555 129.89135778 52.44589549 132.9765625 56.203125 C133.74097656 57.12996094 134.50539063 58.05679688 135.29296875 59.01171875 C149.85335387 77.07732834 160.03587306 97.82638284 165.9765625 120.203125 C166.18974121 120.99944336 166.40291992 121.79576172 166.62255859 122.61621094 C176.3345573 160.83265628 169.87438692 202.95739659 150.9765625 237.203125 C150.40035156 238.26917969 149.82414062 239.33523438 149.23046875 240.43359375 C142.37251649 252.67654317 133.61289866 263.10323331 123.9765625 273.203125 C122.86667969 274.39228516 122.86667969 274.39228516 121.734375 275.60546875 C111.60475413 286.16179526 99.71446055 294.15178858 86.9765625 301.203125 C86.33847656 301.55648926 85.70039063 301.90985352 85.04296875 302.27392578 C64.10726897 313.6843034 41.53844093 318.73319016 17.9765625 321.203125 C17.7813501 321.75025146 17.5861377 322.29737793 17.38500977 322.86108398 C6.11124742 354.16546843 -11.68427898 384.12223769 -38.0234375 405.203125 C-38.92964844 405.94691406 -39.83585937 406.69070313 -40.76953125 407.45703125 C-74.03040956 434.24785398 -114.75941464 448.68804539 -157.3984375 448.578125 C-158.64900436 448.57681076 -158.64900436 448.57681076 -159.92483521 448.57546997 C-206.01922693 448.41629018 -245.99614952 431.63244458 -281.0234375 402.203125 C-281.75691406 401.5946875 -282.49039063 400.98625 -283.24609375 400.359375 C-287.99731993 396.33136051 -292.01597827 391.95949311 -296.0234375 387.203125 C-296.84714844 386.27886719 -297.67085938 385.35460937 -298.51953125 384.40234375 C-310.02067285 371.39880077 -318.75178217 356.92351693 -326.0234375 341.203125 C-326.55582031 340.07777344 -327.08820313 338.95242188 -327.63671875 337.79296875 C-338.14681426 314.57299029 -342.32201363 290.17043887 -342.5859375 264.828125 C-342.60074158 264.0744162 -342.61554565 263.3207074 -342.63079834 262.54415894 C-342.79383407 252.60698171 -342.19768423 244.1533936 -335.37768555 236.31054688 C-330.0748431 230.99678805 -323.28582175 229.86682868 -316.1640625 228.41796875 C-301.99479091 225.47167036 -288.77348778 220.21256639 -278.0234375 210.203125 C-277.43691406 209.66945312 -276.85039062 209.13578125 -276.24609375 208.5859375 C-271.36191206 203.60207863 -268.43087563 197.62472099 -265.48242188 191.36962891 C-262.23639763 184.76165097 -258.05381658 180.77242845 -251.5234375 177.390625 C-247.65658944 176.08920998 -243.89558996 175.95755102 -239.8359375 175.765625 C-225.81090019 175.03995143 -214.33812269 170.41839961 -204.6484375 160.16796875 C-196.21907895 149.97573955 -191.74483462 137.20133863 -192.06640625 124.03125 C-192.08880622 122.63022267 -192.11026033 121.22917996 -192.13085938 119.828125 C-192.16778699 117.64474941 -192.21069041 115.462179 -192.27026367 113.27929688 C-192.52784152 103.35411387 -192.33162398 95.30492478 -185.6484375 87.390625 C-178.74832734 81.6405332 -174.33439954 80.0446096 -165.51171875 80.0703125 C-164.78405807 80.06935577 -164.0563974 80.06839905 -163.3066864 80.06741333 C-161.76768914 80.06673394 -160.22868899 80.06857143 -158.68969727 80.07275391 C-156.36142335 80.07806684 -154.03334576 80.07282089 -151.70507812 80.06640625 C-144.4177794 80.06347102 -137.25161339 80.16226767 -130.0234375 81.203125 C-129.56195313 80.41550781 -129.10046875 79.62789063 -128.625 78.81640625 C-118.14776897 61.31984455 -105.37933922 45.53671937 -89.0234375 33.203125 C-88.0128125 32.41550781 -87.0021875 31.62789062 -85.9609375 30.81640625 C-61.88101033 12.47755678 -30.4559897 0.19452021 0 0 Z " fill="#BD802C" transform="translate(342.0234375,31.796875)"/>
<path d="M0 0 C0.73924713 -0.00705963 1.47849426 -0.01411926 2.24014282 -0.02139282 C32.97641168 -0.24840581 32.97641168 -0.24840581 45.9765625 3.203125 C47.16427246 3.50911621 47.16427246 3.50911621 48.37597656 3.82128906 C74.61487163 10.73579651 97.8146255 22.75872863 117.80078125 41.21484375 C119.54657624 42.81019321 121.30944352 44.30248232 123.1640625 45.765625 C126.84237467 48.95349555 129.89135778 52.44589549 132.9765625 56.203125 C133.74097656 57.12996094 134.50539063 58.05679688 135.29296875 59.01171875 C149.85335387 77.07732834 160.03587306 97.82638284 165.9765625 120.203125 C166.18974121 120.99944336 166.40291992 121.79576172 166.62255859 122.61621094 C176.3345573 160.83265628 169.87438692 202.95739659 150.9765625 237.203125 C150.40035156 238.26917969 149.82414062 239.33523438 149.23046875 240.43359375 C142.37251649 252.67654317 133.61289866 263.10323331 123.9765625 273.203125 C122.86667969 274.39228516 122.86667969 274.39228516 121.734375 275.60546875 C111.60475413 286.16179526 99.71446055 294.15178858 86.9765625 301.203125 C86.33847656 301.55648926 85.70039063 301.90985352 85.04296875 302.27392578 C64.10726897 313.6843034 41.53844093 318.73319016 17.9765625 321.203125 C17.7813501 321.75025146 17.5861377 322.29737793 17.38500977 322.86108398 C6.11124742 354.16546843 -11.68427898 384.12223769 -38.0234375 405.203125 C-38.92964844 405.94691406 -39.83585937 406.69070313 -40.76953125 407.45703125 C-74.03040956 434.24785398 -114.75941464 448.68804539 -157.3984375 448.578125 C-158.64900436 448.57681076 -158.64900436 448.57681076 -159.92483521 448.57546997 C-206.01922693 448.41629018 -245.99614952 431.63244458 -281.0234375 402.203125 C-281.75691406 401.5946875 -282.49039063 400.98625 -283.24609375 400.359375 C-287.99731993 396.33136051 -292.01597827 391.95949311 -296.0234375 387.203125 C-296.84714844 386.27886719 -297.67085938 385.35460937 -298.51953125 384.40234375 C-310.02067285 371.39880077 -318.75178217 356.92351693 -326.0234375 341.203125 C-326.55582031 340.07777344 -327.08820313 338.95242188 -327.63671875 337.79296875 C-338.14681426 314.57299029 -342.32201363 290.17043887 -342.5859375 264.828125 C-342.60074158 264.0744162 -342.61554565 263.3207074 -342.63079834 262.54415894 C-342.79383407 252.60698171 -342.19768423 244.1533936 -335.37768555 236.31054688 C-330.0748431 230.99678805 -323.28582175 229.86682868 -316.1640625 228.41796875 C-301.99479091 225.47167036 -288.77348778 220.21256639 -278.0234375 210.203125 C-277.43691406 209.66945312 -276.85039062 209.13578125 -276.24609375 208.5859375 C-271.36191206 203.60207863 -268.43087563 197.62472099 -265.48242188 191.36962891 C-262.23639763 184.76165097 -258.05381658 180.77242845 -251.5234375 177.390625 C-247.65658944 176.08920998 -243.89558996 175.95755102 -239.8359375 175.765625 C-225.81090019 175.03995143 -214.33812269 170.41839961 -204.6484375 160.16796875 C-196.21907895 149.97573955 -191.74483462 137.20133863 -192.06640625 124.03125 C-192.08880622 122.63022267 -192.11026033 121.22917996 -192.13085938 119.828125 C-192.16778699 117.64474941 -192.21069041 115.462179 -192.27026367 113.27929688 C-192.52784152 103.35411387 -192.33162398 95.30492478 -185.6484375 87.390625 C-178.74832734 81.6405332 -174.33439954 80.0446096 -165.51171875 80.0703125 C-164.78405807 80.06935577 -164.0563974 80.06839905 -163.3066864 80.06741333 C-161.76768914 80.06673394 -160.22868899 80.06857143 -158.68969727 80.07275391 C-156.36142335 80.07806684 -154.03334576 80.07282089 -151.70507812 80.06640625 C-144.4177794 80.06347102 -137.25161339 80.16226767 -130.0234375 81.203125 C-129.56195313 80.41550781 -129.10046875 79.62789063 -128.625 78.81640625 C-118.14776897 61.31984455 -105.37933922 45.53671937 -89.0234375 33.203125 C-88.0128125 32.41550781 -87.0021875 31.62789062 -85.9609375 30.81640625 C-61.88101033 12.47755678 -30.4559897 0.19452021 0 0 Z M-175.0234375 100.203125 C-175.63110499 103.27314974 -175.63110499 103.27314974 -175.3359375 106.70703125 C-175.293479 107.99617432 -175.25102051 109.28531738 -175.20727539 110.61352539 C-175.16064255 111.63085251 -175.16064255 111.63085251 -175.11306763 112.66873169 C-174.17119819 134.7037302 -178.26723114 154.84339016 -193.01171875 172.03125 C-203.23393947 183.06727859 -217.08840922 190.09488222 -232.0234375 192.203125 C-234.46059088 192.29604479 -236.89813949 192.37902003 -239.3359375 192.453125 C-244.61049439 192.76539195 -244.61049439 192.76539195 -249.0234375 195.515625 C-250.29609513 197.55090571 -251.23936941 199.66868519 -252.25 201.84765625 C-256.31497371 210.51127341 -261.28617934 216.54536251 -268.0234375 223.203125 C-268.90128906 224.09644531 -268.90128906 224.09644531 -269.796875 225.0078125 C-281.64966452 236.13860468 -298.3453852 242.23420432 -314.08251953 244.59667969 C-317.94242177 245.24364123 -320.69546798 246.00776561 -324.0859375 248.02734375 C-327.19735049 253.12730093 -326.716851 258.16107901 -326.5859375 264.015625 C-326.57006592 265.25795898 -326.55419434 266.50029297 -326.5378418 267.78027344 C-326.11220597 285.41215324 -323.17953551 302.65934354 -317.0234375 319.203125 C-316.73452637 319.99170898 -316.44561523 320.78029297 -316.14794922 321.59277344 C-300.38353203 364.14933712 -269.20412293 397.84262738 -228.21875 417.32421875 C-186.36699992 436.46240632 -139.50188333 437.21242384 -96.48193359 421.26074219 C-74.49969242 412.59029441 -56.04190065 399.3895744 -39.0234375 383.203125 C-38.39050781 382.62304688 -37.75757813 382.04296875 -37.10546875 381.4453125 C-18.62924346 363.97847719 -6.0349294 340.04303591 1.9765625 316.203125 C2.31880859 315.18847168 2.31880859 315.18847168 2.66796875 314.15332031 C15.79493117 274.45363541 12.47711855 229.82500219 -5.95263672 192.32763672 C-14.13741463 176.08870891 -23.87156575 161.79276335 -36.54296875 148.73046875 C-37.9649843 147.26342896 -39.3697704 145.7814451 -40.7734375 144.296875 C-65.90748125 118.28606229 -101.2159866 101.46329352 -137.0234375 97.203125 C-137.93996094 97.07421875 -138.85648438 96.9453125 -139.80078125 96.8125 C-146.29187945 96.03315804 -152.86756709 96.00637934 -159.3984375 95.890625 C-160.36297852 95.86073486 -161.32751953 95.83084473 -162.32128906 95.80004883 C-163.24135742 95.79255615 -164.16142578 95.78506348 -165.109375 95.77734375 C-166.3476001 95.75546997 -166.3476001 95.75546997 -167.61083984 95.7331543 C-171.04610418 96.40233906 -172.65035064 97.65039374 -175.0234375 100.203125 Z " fill="#A16A27" transform="translate(342.0234375,31.796875)"/>
<path d="M0 0 C0.73924713 -0.00705963 1.47849426 -0.01411926 2.24014282 -0.02139282 C32.97641168 -0.24840581 32.97641168 -0.24840581 45.9765625 3.203125 C47.16427246 3.50911621 47.16427246 3.50911621 48.37597656 3.82128906 C74.61487163 10.73579651 97.8146255 22.75872863 117.80078125 41.21484375 C119.54657624 42.81019321 121.30944352 44.30248232 123.1640625 45.765625 C126.84237467 48.95349555 129.89135778 52.44589549 132.9765625 56.203125 C133.74097656 57.12996094 134.50539063 58.05679688 135.29296875 59.01171875 C149.85335387 77.07732834 160.03587306 97.82638284 165.9765625 120.203125 C166.18974121 120.99944336 166.40291992 121.79576172 166.62255859 122.61621094 C176.3345573 160.83265628 169.87438692 202.95739659 150.9765625 237.203125 C150.40035156 238.26917969 149.82414062 239.33523438 149.23046875 240.43359375 C142.37251649 252.67654317 133.61289866 263.10323331 123.9765625 273.203125 C122.86667969 274.39228516 122.86667969 274.39228516 121.734375 275.60546875 C111.60475413 286.16179526 99.71446055 294.15178858 86.9765625 301.203125 C86.33847656 301.55648926 85.70039063 301.90985352 85.04296875 302.27392578 C64.10726897 313.6843034 41.53844093 318.73319016 17.9765625 321.203125 C17.7813501 321.75025146 17.5861377 322.29737793 17.38500977 322.86108398 C6.11124742 354.16546843 -11.68427898 384.12223769 -38.0234375 405.203125 C-38.92964844 405.94691406 -39.83585937 406.69070313 -40.76953125 407.45703125 C-74.03040956 434.24785398 -114.75941464 448.68804539 -157.3984375 448.578125 C-158.64900436 448.57681076 -158.64900436 448.57681076 -159.92483521 448.57546997 C-206.01922693 448.41629018 -245.99614952 431.63244458 -281.0234375 402.203125 C-281.75691406 401.5946875 -282.49039063 400.98625 -283.24609375 400.359375 C-287.99731993 396.33136051 -292.01597827 391.95949311 -296.0234375 387.203125 C-296.84714844 386.27886719 -297.67085938 385.35460937 -298.51953125 384.40234375 C-310.02067285 371.39880077 -318.75178217 356.92351693 -326.0234375 341.203125 C-326.55582031 340.07777344 -327.08820313 338.95242188 -327.63671875 337.79296875 C-338.14681426 314.57299029 -342.32201363 290.17043887 -342.5859375 264.828125 C-342.60074158 264.0744162 -342.61554565 263.3207074 -342.63079834 262.54415894 C-342.79383407 252.60698171 -342.19768423 244.1533936 -335.37768555 236.31054688 C-330.0748431 230.99678805 -323.28582175 229.86682868 -316.1640625 228.41796875 C-301.99479091 225.47167036 -288.77348778 220.21256639 -278.0234375 210.203125 C-277.43691406 209.66945312 -276.85039062 209.13578125 -276.24609375 208.5859375 C-271.36191206 203.60207863 -268.43087563 197.62472099 -265.48242188 191.36962891 C-262.23639763 184.76165097 -258.05381658 180.77242845 -251.5234375 177.390625 C-247.65658944 176.08920998 -243.89558996 175.95755102 -239.8359375 175.765625 C-225.81090019 175.03995143 -214.33812269 170.41839961 -204.6484375 160.16796875 C-196.21907895 149.97573955 -191.74483462 137.20133863 -192.06640625 124.03125 C-192.08880622 122.63022267 -192.11026033 121.22917996 -192.13085938 119.828125 C-192.16778699 117.64474941 -192.21069041 115.462179 -192.27026367 113.27929688 C-192.52784152 103.35411387 -192.33162398 95.30492478 -185.6484375 87.390625 C-178.74832734 81.6405332 -174.33439954 80.0446096 -165.51171875 80.0703125 C-164.78405807 80.06935577 -164.0563974 80.06839905 -163.3066864 80.06741333 C-161.76768914 80.06673394 -160.22868899 80.06857143 -158.68969727 80.07275391 C-156.36142335 80.07806684 -154.03334576 80.07282089 -151.70507812 80.06640625 C-144.4177794 80.06347102 -137.25161339 80.16226767 -130.0234375 81.203125 C-129.56195313 80.41550781 -129.10046875 79.62789063 -128.625 78.81640625 C-118.14776897 61.31984455 -105.37933922 45.53671937 -89.0234375 33.203125 C-88.0128125 32.41550781 -87.0021875 31.62789062 -85.9609375 30.81640625 C-61.88101033 12.47755678 -30.4559897 0.19452021 0 0 Z M-91.0234375 57.203125 C-91.76078125 57.87601563 -92.498125 58.54890625 -93.2578125 59.2421875 C-98.03843822 63.76852462 -102.05797306 68.67200419 -105.9609375 73.953125 C-106.43394287 74.59137207 -106.90694824 75.22961914 -107.39428711 75.88720703 C-109.79212533 79.2106413 -111.71208125 82.27654972 -113.0234375 86.203125 C-112.15900024 86.48023315 -112.15900024 86.48023315 -111.27709961 86.76293945 C-84.08406704 95.58599675 -59.7374364 107.43794077 -38.0234375 126.203125 C-36.79617366 127.22624515 -35.56735184 128.24750413 -34.3359375 129.265625 C-33.5728125 129.905 -32.8096875 130.544375 -32.0234375 131.203125 C-29.09922531 129.86927383 -26.89744687 128.36131534 -24.5234375 126.203125 C-19.99186497 122.08351361 -16.50108609 120.71182726 -10.39453125 120.90234375 C-5.53723386 121.51850833 -1.61737742 123.17062126 1.45483398 127.08813477 C1.91446533 127.80799561 2.37409668 128.52785645 2.84765625 129.26953125 C3.36142822 130.07011963 3.8752002 130.87070801 4.40454102 131.69555664 C5.18269165 132.93680298 5.18269165 132.93680298 5.9765625 134.203125 C6.47534912 134.98486084 6.97413574 135.76659668 7.48803711 136.57202148 C8.97448681 138.93097918 10.41648488 141.31262886 11.8515625 143.703125 C12.34914063 144.49332031 12.84671875 145.28351563 13.359375 146.09765625 C16.62400301 151.57756755 17.90602807 155.82987572 16.9765625 162.203125 C15.4849808 167.51115598 12.60508304 171.19458665 7.9765625 174.203125 C6.66517346 174.91198394 5.33879233 175.59768952 3.9765625 176.203125 C4.61313999 181.00554048 6.60684832 184.85482186 8.7265625 189.140625 C14.93796823 202.07320392 19.20875273 215.14979412 21.9765625 229.203125 C22.20520996 230.35216309 22.20520996 230.35216309 22.43847656 231.52441406 C26.95232739 255.22456818 25.96734974 279.5060568 21.9765625 303.203125 C49.50614554 302.33055501 76.47751014 291.32274077 97.9765625 274.203125 C98.48928711 273.79723145 99.00201172 273.39133789 99.53027344 272.97314453 C127.26887187 250.84057515 148.21747523 217.84094127 152.9765625 182.203125 C157.33593338 143.07016778 149.38057531 104.2137775 124.76513672 72.82885742 C120.70352946 67.7662595 116.4239025 62.92789831 111.9765625 58.203125 C111.42871094 57.60242188 110.88085938 57.00171875 110.31640625 56.3828125 C86.46271369 31.18112257 49.82431662 17.17327717 15.65234375 16.13232422 C-25.23931714 15.1652917 -61.21198455 29.0698002 -91.0234375 57.203125 Z M-175.0234375 100.203125 C-175.63110499 103.27314974 -175.63110499 103.27314974 -175.3359375 106.70703125 C-175.293479 107.99617432 -175.25102051 109.28531738 -175.20727539 110.61352539 C-175.16064255 111.63085251 -175.16064255 111.63085251 -175.11306763 112.66873169 C-174.17119819 134.7037302 -178.26723114 154.84339016 -193.01171875 172.03125 C-203.23393947 183.06727859 -217.08840922 190.09488222 -232.0234375 192.203125 C-234.46059088 192.29604479 -236.89813949 192.37902003 -239.3359375 192.453125 C-244.61049439 192.76539195 -244.61049439 192.76539195 -249.0234375 195.515625 C-250.29609513 197.55090571 -251.23936941 199.66868519 -252.25 201.84765625 C-256.31497371 210.51127341 -261.28617934 216.54536251 -268.0234375 223.203125 C-268.90128906 224.09644531 -268.90128906 224.09644531 -269.796875 225.0078125 C-281.64966452 236.13860468 -298.3453852 242.23420432 -314.08251953 244.59667969 C-317.94242177 245.24364123 -320.69546798 246.00776561 -324.0859375 248.02734375 C-327.19735049 253.12730093 -326.716851 258.16107901 -326.5859375 264.015625 C-326.57006592 265.25795898 -326.55419434 266.50029297 -326.5378418 267.78027344 C-326.11220597 285.41215324 -323.17953551 302.65934354 -317.0234375 319.203125 C-316.73452637 319.99170898 -316.44561523 320.78029297 -316.14794922 321.59277344 C-300.38353203 364.14933712 -269.20412293 397.84262738 -228.21875 417.32421875 C-186.36699992 436.46240632 -139.50188333 437.21242384 -96.48193359 421.26074219 C-74.49969242 412.59029441 -56.04190065 399.3895744 -39.0234375 383.203125 C-38.39050781 382.62304688 -37.75757813 382.04296875 -37.10546875 381.4453125 C-18.62924346 363.97847719 -6.0349294 340.04303591 1.9765625 316.203125 C2.31880859 315.18847168 2.31880859 315.18847168 2.66796875 314.15332031 C15.79493117 274.45363541 12.47711855 229.82500219 -5.95263672 192.32763672 C-14.13741463 176.08870891 -23.87156575 161.79276335 -36.54296875 148.73046875 C-37.9649843 147.26342896 -39.3697704 145.7814451 -40.7734375 144.296875 C-65.90748125 118.28606229 -101.2159866 101.46329352 -137.0234375 97.203125 C-137.93996094 97.07421875 -138.85648438 96.9453125 -139.80078125 96.8125 C-146.29187945 96.03315804 -152.86756709 96.00637934 -159.3984375 95.890625 C-160.36297852 95.86073486 -161.32751953 95.83084473 -162.32128906 95.80004883 C-163.24135742 95.79255615 -164.16142578 95.78506348 -165.109375 95.77734375 C-166.3476001 95.75546997 -166.3476001 95.75546997 -167.61083984 95.7331543 C-171.04610418 96.40233906 -172.65035064 97.65039374 -175.0234375 100.203125 Z " fill="#010000" transform="translate(342.0234375,31.796875)"/>
<path d="M0 0 C0.08636719 0.98355469 0.17273438 1.96710938 0.26171875 2.98046875 C4.2275082 43.80212767 22.24650453 79.24022775 50 109 C50.69738281 109.75152344 51.39476563 110.50304687 52.11328125 111.27734375 C78.58962273 138.81854722 121.14263721 159.25012411 159.515625 160.16113281 C161.09368773 160.18094374 162.67183536 160.19471014 164.25 160.203125 C165.10698486 160.20882507 165.96396973 160.21452515 166.84692383 160.22039795 C168.65200594 160.2297832 170.45710469 160.23635591 172.26220703 160.24023438 C174.96549 160.2498769 177.66799046 160.28093667 180.37109375 160.3125 C195.16517737 160.40344932 209.01458655 158.52066399 223.25 154.375 C224.11568604 154.12411621 224.98137207 153.87323242 225.87329102 153.61474609 C240.19189113 149.29141933 253.77072765 143.20602629 266.48046875 135.3359375 C267.31191406 134.89507812 268.14335937 134.45421875 269 134 C269.66 134.33 270.32 134.66 271 135 C241.42937744 166.62176401 199.80290087 186.80696175 156.29296875 188.28125 C108.73561569 189.22259142 65.59156215 173.74038885 30.90625 140.83984375 C17.80426766 128.15386687 7.62723867 114.03805541 -1 98 C-1.78310547 96.57494141 -1.78310547 96.57494141 -2.58203125 95.12109375 C-9.13539447 82.68872394 -14.33800429 68.81224187 -17 55 C-17.13390137 54.34112793 -17.26780273 53.68225586 -17.40576172 53.00341797 C-19.57013333 42.05982923 -20.34833792 31.21217826 -20.5 20.0625 C-20.53053467 18.84755859 -20.56106934 17.63261719 -20.5925293 16.38085938 C-20.59551338 7.89651832 -20.59551338 7.89651832 -17.8515625 3.765625 C-14.72972509 1.8326517 -12.50681708 1.13806377 -8.875 0.6875 C-7.84117188 0.54699219 -6.80734375 0.40648437 -5.7421875 0.26171875 C-3 0 -3 0 0 0 Z " fill="#A26A27" transform="translate(36,276)"/>
<path d="M0 0 C6.50592776 2.99151071 9.66652816 8.08598617 13.2890625 14.125 C13.94841797 15.22328125 14.60777344 16.3215625 15.28710938 17.453125 C15.62395752 18.01870117 15.96080566 18.58427734 16.30786133 19.16699219 C17.34282309 20.90343619 18.38484897 22.6354933 19.42773438 24.3671875 C23.76273728 31.61350505 26.62561628 36.70863926 25.65234375 45.2734375 C23.27586909 53.17593155 17.37040575 57.85946517 10.41796875 61.828125 C-5.54614214 70.26239176 -5.54614214 70.26239176 -14.34765625 68.2734375 C-22.84555727 65.28343529 -26.59785358 58.57427303 -30.47265625 50.9609375 C-30.90191406 50.14431641 -31.33117187 49.32769531 -31.7734375 48.48632812 C-39.77033435 33.04616575 -39.77033435 33.04616575 -38.34765625 24.2734375 C-35.55097406 18.25992499 -31.09320398 13.55324803 -26.41015625 8.9609375 C-25.81525391 8.35443359 -25.22035156 7.74792969 -24.60742188 7.12304688 C-17.49145009 0.0537372 -9.98030833 -3.08874767 0 0 Z " fill="#020100" transform="translate(262.34765625,306.7265625)"/>
<path d="M0 0 C10.01237144 7.62847348 21.55858838 23.55407816 23.56640625 36.11328125 C23.66111988 41.58772879 22.98875669 46.55116051 19.625 51 C14.76948807 55.85721651 9.4288385 58.97311738 3.25 61.875 C2.45078125 62.2771875 1.6515625 62.679375 0.828125 63.09375 C-5.46833589 66.08915373 -11.04789979 67.21593554 -17.86328125 65.30078125 C-18.46527344 64.97464844 -19.06726563 64.64851563 -19.6875 64.3125 C-20.30238281 63.99925781 -20.91726562 63.68601562 -21.55078125 63.36328125 C-27.33297632 59.04211192 -29.97343046 52.18406652 -33.0625 45.875 C-33.56072266 44.87339844 -34.05894531 43.87179687 -34.57226562 42.83984375 C-40.29780902 31.26445751 -40.29780902 31.26445751 -39.375 24 C-37.18696278 17.67003256 -33.19098654 13.25064672 -28.4375 8.6875 C-27.82970703 8.08099609 -27.22191406 7.47449219 -26.59570312 6.84960938 C-18.60234267 -0.9885402 -11.13545795 -3.29939495 0 0 Z " fill="#020100" transform="translate(94.375,278)"/>
<path d="M0 0 C10.56503982 7.5129172 17.57122473 21.36570426 22.8125 33 C23.37367044 38.89228966 22.71083287 42.70304682 19.8125 48 C15.86392043 52.58808586 11.49557457 55.05973013 6.1875 57.75 C5.424375 58.14832031 4.66125 58.54664063 3.875 58.95703125 C-2.28354391 62.14434783 -7.17233426 63.83012795 -14.1875 63 C-23.19920998 59.87093404 -27.42530894 51.31096763 -31.5 43.3125 C-31.95439453 42.47783203 -32.40878906 41.64316406 -32.87695312 40.78320312 C-36.0735382 34.51981914 -37.17281431 29.0175493 -36.1875 22 C-32.96000436 13.6029226 -24.03729701 5.25990014 -16.625 0.3125 C-10.92858293 -1.86249561 -5.80020721 -1.81967285 0 0 Z " fill="#010100" transform="translate(409.1875,201)"/>
<path d="M0 0 C3.9992888 2.98876187 6.5314587 7.34135759 9.0234375 11.59375 C9.87711914 13.04491211 9.87711914 13.04491211 10.74804688 14.52539062 C11.33005859 15.52376953 11.91207031 16.52214844 12.51171875 17.55078125 C13.40213867 19.06575195 13.40213867 19.06575195 14.31054688 20.61132812 C18.44328325 27.65630062 20.91028224 32.01645622 19.82421875 40.36328125 C15.61337841 50.63703279 5.45321343 55.42376257 -4.20019531 59.62060547 C-9.49333878 61.61044017 -14.21279765 61.48840045 -19.44921875 59.5 C-24.81722966 56.5964848 -27.47506418 52.69506939 -30.17578125 47.36328125 C-30.66425537 46.44844971 -30.66425537 46.44844971 -31.16259766 45.51513672 C-40.55296566 27.83545591 -40.55296566 27.83545591 -38.17578125 19.36328125 C-35.26531903 14.22592785 -31.39071153 10.24383361 -27.23828125 6.11328125 C-26.63048828 5.489375 -26.02269531 4.86546875 -25.39648438 4.22265625 C-17.77500894 -3.40704084 -9.7525479 -4.96827912 0 0 Z " fill="#020100" transform="translate(220.17578125,154.63671875)"/>
<path d="M0 0 C7.28843391 4.34502791 11.41863569 11.9637946 15.625 19.125 C16.17027344 19.99447266 16.71554687 20.86394531 17.27734375 21.75976562 C21.22811088 28.49785342 22.25139215 34.16857675 21.25 41.9375 C18.82339136 49.77906523 11.92649604 52.92921404 5.125 56.64453125 C-2.53147167 60.49985366 -8.63418753 62.80387725 -17.015625 60.24609375 C-26.58571481 55.44431792 -31.43755702 42.11115177 -35.015625 32.55859375 C-36.48790441 27.30380927 -36.22423503 22.70990915 -33.8515625 17.75390625 C-26.22136403 5.17219601 -15.00618864 -4.25175345 0 0 Z " fill="#020100" transform="translate(347.75,59.0625)"/>
<path d="M0 0 C9.05460147 4.68341456 14.06827195 10.89231584 17.25 20.4375 C18.40137976 29.75055907 16.46148683 36.66638911 11.25 44.4375 C6.43047394 50.1520809 -0.27075587 53.85143067 -7.67578125 54.8203125 C-17.70096992 55.20246709 -24.71295415 52.13210014 -32.0234375 45.375 C-37.66505459 39.04413557 -39.12299001 31.83317072 -39.0234375 23.5703125 C-38.31000178 15.3963775 -33.78559771 8.81599634 -27.75 3.4375 C-19.40695933 -1.86891925 -9.40716795 -3.83497787 0 0 Z " fill="#020100" transform="translate(438.75,113.5625)"/>
<path d="M0 0 C7.11063541 3.96483074 12.78946325 9.30193155 15.2421875 17.25 C17.00331532 26.14833003 15.88076341 32.94295614 11.453125 40.8671875 C7.15432051 47.27735171 1.14418023 51.44218747 -6.3125 53.5 C-15.34028102 54.68120499 -21.98083022 53.05444652 -29.46875 48.0625 C-35.96849993 43.01791797 -39.57765916 36.59186172 -40.75390625 28.44140625 C-41.1080879 19.47261274 -38.63614107 13.11309977 -33.0625 6.1875 C-24.43099455 -3.15089599 -11.45247673 -5.32237269 0 0 Z " fill="#030100" transform="translate(176.3125,370.5)"/>
<path d="M0 0 C7.11063541 3.96483074 12.78946325 9.30193155 15.2421875 17.25 C17.00331532 26.14833003 15.88076341 32.94295614 11.453125 40.8671875 C7.15432051 47.27735171 1.14418023 51.44218747 -6.3125 53.5 C-15.34028102 54.68120499 -21.98083022 53.05444652 -29.46875 48.0625 C-35.96849993 43.01791797 -39.57765916 36.59186172 -40.75390625 28.44140625 C-41.1080879 19.47261274 -38.63614107 13.11309977 -33.0625 6.1875 C-24.43099455 -3.15089599 -11.45247673 -5.32237269 0 0 Z " fill="#030100" transform="translate(296.3125,218.5)"/>
<path d="M0 0 C6.58665266 4.53747183 10.67893309 11.46920406 14.6875 18.25 C15.18507812 19.04083984 15.68265625 19.83167969 16.1953125 20.64648438 C19.63231964 26.45823683 20.74803135 31.20792083 19.8125 37.9375 C18.28699419 43.37746761 16.00900373 46.14567458 11.1875 49.125 C9.40581995 50.08134297 7.6138357 51.01871527 5.8125 51.9375 C4.9565625 52.42605469 4.100625 52.91460937 3.21875 53.41796875 C-2.2296099 56.41961147 -5.97201669 57.83974758 -12.1875 56.9375 C-21.21037245 53.83072341 -24.78243374 47.3352195 -28.9375 39.1875 C-29.34871094 38.42695313 -29.75992188 37.66640625 -30.18359375 36.8828125 C-33.68249268 30.02450563 -34.33722682 24.65139418 -32.05078125 17.265625 C-29.9106322 13.44296884 -27.51146826 10.70348435 -24.375 7.6875 C-23.86646484 7.171875 -23.35792969 6.65625 -22.83398438 6.125 C-16.07375647 -0.52384265 -9.1720757 -3.05735857 0 0 Z " fill="#030100" transform="translate(182.1875,257.0625)"/>
<path d="M0 0 C1.98980489 1.98980489 2.65968602 3.21315534 3.734375 5.75390625 C4.05809082 6.51662842 4.38180664 7.27935059 4.71533203 8.06518555 C5.05677246 8.88929932 5.39821289 9.71341309 5.75 10.5625 C6.10562012 11.41948486 6.46124023 12.27646973 6.82763672 13.15942383 C16.54575372 36.82140085 22.47522537 60.51084099 25 86 C25.19722656 87.74023438 25.19722656 87.74023438 25.3984375 89.515625 C26.13399482 96.95071795 26.09777386 104.41023409 26.125 111.875 C26.12975342 112.95837646 26.13450684 114.04175293 26.1394043 115.15795898 C26.1281182 120.5456067 25.95241533 125.693686 25 131 C23.45998293 131.34087334 21.91787594 131.67230953 20.375 132 C19.51648438 132.185625 18.65796875 132.37125 17.7734375 132.5625 C14.80730995 133.03039618 11.99792667 133.07033259 9 133 C9.09087891 132.46036621 9.18175781 131.92073242 9.27539062 131.36474609 C13.18698945 107.31844308 13.72253877 82.9638309 9 59 C8.86078125 58.26571777 8.7215625 57.53143555 8.578125 56.77490234 C5.49674861 40.92935224 -0.09102234 25.89629244 -7.71484375 11.6875 C-9 9 -9 9 -9 6 C-7.28515625 4.6484375 -7.28515625 4.6484375 -5.0625 3.375 C-2.368706 1.90109358 -2.368706 1.90109358 0 0 Z " fill="#7C3F0B" transform="translate(355,202)"/>
<path d="M0 0 C34.3963079 6.93502054 62.31781158 23.31781158 87 48 C86.113125 48.556875 85.22625 49.11375 84.3125 49.6875 C81.15720622 51.77853792 78.60131889 54.24566235 76 57 C72.55484927 55.47587802 69.98679969 53.4355742 67.125 51 C44.84855925 32.58874301 20.32995742 21.09336391 -7 12 C-5.27687791 7.33790798 -2.95555839 3.96667047 0 0 Z " fill="#7B3F0B" transform="translate(236,106)"/>
<path d="M0 0 C3.49142999 1.17146232 4.27942864 2.70965018 6.18505859 5.82519531 C6.80509766 6.83710938 7.42513672 7.84902344 8.06396484 8.89160156 C8.69431641 9.95765625 9.32466797 11.02371094 9.97412109 12.12207031 C10.62767578 13.17265625 11.28123047 14.22324219 11.95458984 15.30566406 C16.63211091 23.07527273 16.63211091 23.07527273 16.48730469 26.57275391 C15.43838468 29.28818232 14.74631971 29.86620067 12.17724609 31.14550781 C11.48115234 31.49484375 10.78505859 31.84417969 10.06787109 32.20410156 C9.33568359 32.54828125 8.60349609 32.89246094 7.84912109 33.24707031 C7.13240234 33.61445313 6.41568359 33.98183594 5.67724609 34.36035156 C0.42912684 36.91688025 0.42912684 36.91688025 -2.97851562 36.73291016 C-6.11394931 35.61866513 -6.64422352 34.51986089 -8.11181641 31.57519531 C-8.55138672 30.69863281 -8.99095703 29.82207031 -9.44384766 28.91894531 C-9.88341797 27.99597656 -10.32298828 27.07300781 -10.77587891 26.12207031 C-11.23865234 25.21457031 -11.70142578 24.30707031 -12.17822266 23.37207031 C-15.94405985 15.68301766 -15.94405985 15.68301766 -14.40087891 10.87207031 C-12.18603516 8.23144531 -12.18603516 8.23144531 -9.46337891 5.62207031 C-8.56748047 4.75066406 -7.67158203 3.87925781 -6.74853516 2.98144531 C-3.23825636 -0.17254895 -3.23825636 -0.17254895 0 0 Z " fill="#7A3E0A" transform="translate(255.40087890625,322.1279296875)"/>
<path d="M0 0 C2.82475103 1.32428379 3.66887888 3.0081525 5.25024414 5.67944336 C5.82387695 6.64624023 6.39750977 7.61303711 6.98852539 8.60913086 C7.57504883 9.62749023 8.16157227 10.64584961 8.76586914 11.69506836 C9.36786133 12.69795898 9.96985352 13.70084961 10.59008789 14.73413086 C15.40351778 22.96389535 15.40351778 22.96389535 15.01586914 27.94506836 C12.43949326 29.31414252 9.8561881 30.66535291 7.26586914 32.00756836 C6.53625977 32.39750977 5.80665039 32.78745117 5.05493164 33.18920898 C4.34594727 33.55336914 3.63696289 33.9175293 2.90649414 34.29272461 C2.25712891 34.63311768 1.60776367 34.97351074 0.9387207 35.32421875 C-1.51599085 36.11679512 -2.63224997 35.99885453 -4.98413086 34.94506836 C-6.37207031 33.15087891 -6.37207031 33.15087891 -7.59741211 30.83178711 C-8.26160156 29.57785156 -8.26160156 29.57785156 -8.93920898 28.29858398 C-9.3871582 27.41879883 -9.83510742 26.53901367 -10.29663086 25.63256836 C-10.76391602 24.76438477 -11.23120117 23.89620117 -11.71264648 23.00170898 C-15.04982235 16.57875454 -15.04982235 16.57875454 -14.76733398 13.85375977 C-13.38952216 10.49598768 -10.70347197 8.15245272 -8.17163086 5.63256836 C-7.37015625 4.78855469 -7.37015625 4.78855469 -6.55249023 3.92749023 C-2.57333364 -0.07124401 -2.57333364 -0.07124401 0 0 Z " fill="#7A3E0A" transform="translate(85.984130859375,292.054931640625)"/>
<path d="M0 0 C2.6192182 2.20996536 2.92701746 3.57122759 3.5 6.9375 C2.97428847 10.15748311 2.21378731 11.49867789 -0.13183594 13.71801758 C-4.38191368 16.63453068 -9.4942329 17.87365805 -14.375 19.375 C-15.48617188 19.74238281 -16.59734375 20.10976563 -17.7421875 20.48828125 C-28.15166366 23.77222313 -28.15166366 23.77222313 -34 22 C-36.79612568 19.02911646 -37.00789609 17.45797334 -36.9375 13.375 C-35.86411941 9.51082986 -35.28595813 9.04826133 -32 7 C-28.16805151 5.34801757 -24.20453071 4.07766019 -20.25 2.75 C-18.66058594 2.18539063 -18.66058594 2.18539063 -17.0390625 1.609375 C-10.86567858 -0.47395059 -6.3820355 -1.59550888 0 0 Z " fill="#040201" transform="translate(325,281)"/>
<path d="M0 0 C2.6192182 2.20996536 2.92701746 3.57122759 3.5 6.9375 C2.97428847 10.15748311 2.21378731 11.49867789 -0.13183594 13.71801758 C-4.38191368 16.63453068 -9.4942329 17.87365805 -14.375 19.375 C-15.48617188 19.74238281 -16.59734375 20.10976562 -17.7421875 20.48828125 C-28.15166366 23.77222313 -28.15166366 23.77222313 -34 22 C-36.79612568 19.02911646 -37.00789609 17.45797334 -36.9375 13.375 C-35.86411941 9.51082986 -35.28595813 9.04826133 -32 7 C-28.16805151 5.34801757 -24.20453071 4.07766019 -20.25 2.75 C-18.66058594 2.18539062 -18.66058594 2.18539062 -17.0390625 1.609375 C-10.86567858 -0.47395059 -6.3820355 -1.59550888 0 0 Z " fill="#030200" transform="translate(469,185)"/>
<path d="M0 0 C2.7510502 1.20560924 3.53585698 2.66489236 5.08251953 5.22241211 C5.88206055 6.54402344 5.88206055 6.54402344 6.69775391 7.89233398 C7.24109375 8.81981445 7.78443359 9.74729492 8.34423828 10.70288086 C9.18825195 12.07669922 9.18825195 12.07669922 10.04931641 13.47827148 C10.57589844 14.36321289 11.10248047 15.2481543 11.64501953 16.15991211 C12.12753174 16.97049072 12.61004395 17.78106934 13.10717773 18.61621094 C14.03173828 20.89038086 14.03173828 20.89038086 13.86962891 23.0637207 C12.41589016 26.23297283 9.22620854 27.27343671 6.21923828 28.70288086 C5.58953125 29.02708008 4.95982422 29.3512793 4.31103516 29.68530273 C-0.31964257 31.95448059 -0.31964257 31.95448059 -3.04589844 31.68505859 C-5.47462744 30.68105645 -5.96826716 29.79109893 -7.14404297 27.46850586 C-7.49660156 26.77241211 -7.84916016 26.07631836 -8.21240234 25.35913086 C-8.56496094 24.62694336 -8.91751953 23.89475586 -9.28076172 23.14038086 C-9.65265625 22.42366211 -10.02455078 21.70694336 -10.40771484 20.96850586 C-11.91005945 17.92464938 -12.95961025 15.63224433 -12.99951172 12.21069336 C-11.57861714 9.01368055 -9.62652609 6.98252771 -7.15576172 4.51538086 C-6.28306641 3.62077148 -5.41037109 2.72616211 -4.51123047 1.80444336 C-1.96826172 -0.10961914 -1.96826172 -0.10961914 0 0 Z " fill="#512A07" transform="translate(401.96826171875,216.109619140625)"/>
<path d="M0 0 C2.26171184 1.10060182 4.46309684 2.27365633 6.6628418 3.49316406 C7.42081055 3.89277344 8.1787793 4.29238281 8.9597168 4.70410156 C14.51520149 7.7092036 14.51520149 7.7092036 16.7878418 11.11816406 C17.12934128 14.32825919 17.07364288 16.45724905 15.7878418 19.43066406 C12.75889521 21.98633774 9.63077386 22.32785904 5.7878418 22.11816406 C2.26589032 20.94907383 -0.86008829 19.24714363 -4.0871582 17.43066406 C-5.36719727 16.75874023 -5.36719727 16.75874023 -6.6730957 16.07324219 C-13.7377571 12.23350929 -13.7377571 12.23350929 -15.2121582 8.11816406 C-15.08347128 4.45058669 -14.93769462 2.04685068 -12.6496582 -0.88183594 C-8.42562469 -2.61477276 -4.1328792 -1.64749582 0 0 Z " fill="#050301" transform="translate(175.212158203125,329.8818359375)"/>
<path d="M0 0 C1.875 0.53515625 1.875 0.53515625 3.875 2.22265625 C5.48853927 5.95396582 5.49788724 8.94759147 3.99804688 12.77026367 C2.77529944 15.31705879 1.47088317 17.80132131 0.125 20.28515625 C-0.3184375 21.14753906 -0.761875 22.00992188 -1.21875 22.8984375 C-5.03606683 30.07274765 -5.03606683 30.07274765 -9.125 31.53515625 C-12.6875 31.47265625 -12.6875 31.47265625 -16.125 30.53515625 C-18.125 28.41015625 -18.125 28.41015625 -19.125 25.53515625 C-18.80385463 19.41045532 -16.63411678 14.98434399 -13.75 9.72265625 C-13.35039062 8.96017578 -12.95078125 8.19769531 -12.5390625 7.41210938 C-9.29361101 1.37492905 -7.09728312 -1.13504344 0 0 Z " fill="#050301" transform="translate(227.125,232.46484375)"/>
<path d="M0 0 C1.875 0.53515625 1.875 0.53515625 3.875 2.22265625 C5.48853927 5.95396582 5.49788724 8.94759147 3.99804688 12.77026367 C2.77529944 15.31705879 1.47088317 17.80132131 0.125 20.28515625 C-0.3184375 21.14753906 -0.761875 22.00992188 -1.21875 22.8984375 C-5.03606683 30.07274765 -5.03606683 30.07274765 -9.125 31.53515625 C-12.6875 31.47265625 -12.6875 31.47265625 -16.125 30.53515625 C-18.125 28.41015625 -18.125 28.41015625 -19.125 25.53515625 C-18.80385463 19.41045532 -16.63411678 14.98434399 -13.75 9.72265625 C-13.35039062 8.96017578 -12.95078125 8.19769531 -12.5390625 7.41210938 C-9.29361101 1.37492905 -7.09728312 -1.13504344 0 0 Z " fill="#050301" transform="translate(147.125,224.46484375)"/>
<path d="M0 0 C1.875 0.53515625 1.875 0.53515625 3.875 2.22265625 C5.48853927 5.95396582 5.49788724 8.94759147 3.99804688 12.77026367 C2.77529944 15.31705879 1.47088317 17.80132131 0.125 20.28515625 C-0.3184375 21.14753906 -0.761875 22.00992188 -1.21875 22.8984375 C-5.03606683 30.07274765 -5.03606683 30.07274765 -9.125 31.53515625 C-12.6875 31.47265625 -12.6875 31.47265625 -16.125 30.53515625 C-18.125 28.41015625 -18.125 28.41015625 -19.125 25.53515625 C-18.80385463 19.41045532 -16.63411678 14.98434399 -13.75 9.72265625 C-13.35039062 8.96017578 -12.95078125 8.19769531 -12.5390625 7.41210938 C-9.29361101 1.37492905 -7.09728312 -1.13504344 0 0 Z " fill="#040201" transform="translate(379.125,120.46484375)"/>
<path d="M0 0 C2.30623946 2.33800584 3.56126358 5.07244457 5 8 C5.55171875 8.96292969 6.1034375 9.92585938 6.671875 10.91796875 C11.51948694 19.69036741 11.51948694 19.69036741 11.1875 24.5625 C10 28 10 28 7.875 30.0625 C3.95443822 31.34094406 1.92859607 31.33291652 -2 30 C-4.26561283 27.64244926 -5.56557463 24.91740052 -7 22 C-7.82951172 20.42798828 -7.82951172 20.42798828 -8.67578125 18.82421875 C-13.63864324 8.9327214 -13.63864324 8.9327214 -12 2 C-8.90545234 -1.961021 -4.40302403 -1.83532866 0 0 Z " fill="#040201" transform="translate(293,97)"/>
<path d="M0 0 C2.77861906 1.19524778 3.52620801 2.65805085 5.05883789 5.24609375 C5.58735352 6.13167969 6.11586914 7.01726562 6.66040039 7.9296875 C7.19922852 8.86167969 7.73805664 9.79367188 8.29321289 10.75390625 C8.84750977 11.67816406 9.40180664 12.60242188 9.97290039 13.5546875 C14.04321289 20.46218827 14.04321289 20.46218827 14.04321289 23.87890625 C11.80014261 25.08140783 9.55033379 26.26582245 7.29321289 27.44140625 C6.65899414 27.78365234 6.02477539 28.12589844 5.37133789 28.47851562 C0.61182894 30.93263743 0.61182894 30.93263743 -2.03662109 30.68237305 C-4.458602 29.66892878 -4.95772227 28.77778779 -6.13256836 26.45703125 C-6.48512695 25.7609375 -6.83768555 25.06484375 -7.20092773 24.34765625 C-7.55348633 23.61546875 -7.90604492 22.88328125 -8.26928711 22.12890625 C-8.64118164 21.4121875 -9.01307617 20.69546875 -9.39624023 19.95703125 C-10.91161035 16.88678417 -11.95678711 14.62192786 -11.95678711 11.16796875 C-10.65074812 8.17836387 -8.9504346 6.30627936 -6.64428711 4.00390625 C-5.47446289 2.80121094 -5.47446289 2.80121094 -4.28100586 1.57421875 C-1.95678711 -0.12109375 -1.95678711 -0.12109375 0 0 Z " fill="#7A3E0A" transform="translate(209.956787109375,168.12109375)"/>
<path d="M0 0 C3.12560886 3.17202879 4.32698747 7.16519746 5.6875 11.3125 C5.91244141 11.95123047 6.13738281 12.58996094 6.36914062 13.24804688 C7.82613109 17.61901827 8.397643 21.40750334 8 26 C5.52506641 29.42123173 4.11736219 30.79477021 -0.0625 31.5625 C-3.80269041 30.84629333 -4.61667844 29.96304842 -7 27 C-8.34987508 24.1375302 -9.33759851 21.19527877 -10.3125 18.1875 C-10.58900391 17.40568359 -10.86550781 16.62386719 -11.15039062 15.81835938 C-12.79752399 10.85206558 -13.30801293 7.21203113 -12 2 C-8.94757574 -1.90710305 -4.37890222 -1.64546018 0 0 Z " fill="#030200" transform="translate(317,329)"/>
<path d="M0 0 C3.12560886 3.17202879 4.32698747 7.16519746 5.6875 11.3125 C5.91244141 11.95123047 6.13738281 12.58996094 6.36914062 13.24804688 C7.82613109 17.61901827 8.397643 21.40750334 8 26 C5.52506641 29.42123173 4.11736219 30.79477021 -0.0625 31.5625 C-3.80269041 30.84629333 -4.61667844 29.96304842 -7 27 C-8.34987508 24.1375302 -9.33759851 21.19527877 -10.3125 18.1875 C-10.58900391 17.40568359 -10.86550781 16.62386719 -11.15039062 15.81835938 C-12.79752399 10.85206558 -13.30801293 7.21203113 -12 2 C-8.94757574 -1.90710305 -4.37890222 -1.64546018 0 0 Z " fill="#030200" transform="translate(461,233)"/>
<path d="M0 0 C4.08998175 1.80720124 6.66247347 4.19069751 9 8 C9.62819266 13.0255413 9.03320735 15.95572354 6 20 C3.24705395 23.21177039 0.96958591 23.86947882 -3.25 24.4375 C-8.1843364 23.86182742 -10.79803186 21.71753928 -14 18 C-15.23534045 14.29397865 -15.45528745 11.90246386 -15 8 C-10.91704021 1.64314568 -7.65816344 -0.51919752 0 0 Z " fill="#7A3E0A" transform="translate(167,384)"/>
<path d="M0 0 C4.08998175 1.80720124 6.66247347 4.19069751 9 8 C9.62819266 13.0255413 9.03320735 15.95572354 6 20 C3.24705395 23.21177039 0.96958591 23.86947882 -3.25 24.4375 C-8.1843364 23.86182742 -10.79803186 21.71753928 -14 18 C-15.23534045 14.29397865 -15.45528745 11.90246386 -15 8 C-10.91704021 1.64314568 -7.65816344 -0.51919752 0 0 Z " fill="#7A3E0A" transform="translate(287,232)"/>
<path d="M0 0 C4.08998175 1.80720124 6.66247347 4.19069751 9 8 C9.62819266 13.0255413 9.03320735 15.95572354 6 20 C3.24705395 23.21177039 0.96958591 23.86947882 -3.25 24.4375 C-8.1843364 23.86182742 -10.79803186 21.71753928 -14 18 C-15.23534045 14.29397865 -15.45528745 11.90246386 -15 8 C-10.91704021 1.64314568 -7.65816344 -0.51919752 0 0 Z " fill="#512A07" transform="translate(431,128)"/>
<path d="M0 0 C4.00786886 1.67548375 5.69276033 6.00704055 7.84423828 9.59936523 C8.35921875 10.41147461 8.87419922 11.22358398 9.40478516 12.06030273 C9.88625 12.85178711 10.36771484 13.64327148 10.86376953 14.45874023 C11.30438721 15.18029297 11.74500488 15.9018457 12.19897461 16.64526367 C13.26701815 19.4720878 12.9975633 21.01284604 12.03173828 23.84936523 C9.44970703 25.68530273 9.44970703 25.68530273 6.21923828 27.22436523 C5.16091797 27.74772461 4.10259766 28.27108398 3.01220703 28.81030273 C-0.12316208 29.9033672 -0.98340015 30.04502917 -3.96826172 28.84936523 C-5.17260742 27.33056641 -5.17260742 27.33056641 -6.14404297 25.39233398 C-6.49660156 24.69172852 -6.84916016 23.99112305 -7.21240234 23.26928711 C-7.56496094 22.53258789 -7.91751953 21.79588867 -8.28076172 21.03686523 C-8.65265625 20.31176758 -9.02455078 19.58666992 -9.40771484 18.83959961 C-12.05135706 13.45877849 -12.05135706 13.45877849 -11.68310547 10.75805664 C-10.6143224 7.90431823 -8.78322526 6.19218427 -6.65576172 4.03686523 C-5.4859375 2.82063477 -5.4859375 2.82063477 -4.29248047 1.57983398 C-1.96826172 -0.15063477 -1.96826172 -0.15063477 0 0 Z " fill="#512A07" transform="translate(339.96826171875,74.150634765625)"/>
<path d="M0 0 C3.8125 1.0625 3.8125 1.0625 5.8125 2.75 C7.21420663 5.99144659 7.48981605 7.54045653 6.8125 11.0625 C4.77630096 14.04073365 2.37934502 16.53713935 -0.1875 19.0625 C-0.71214844 19.59746094 -1.23679688 20.13242187 -1.77734375 20.68359375 C-4.19706061 22.94927028 -5.99123589 24.0224461 -9.25 24.6875 C-13.2799485 23.83006415 -14.75679333 22.35110314 -17.1875 19.0625 C-17.9375 16.25 -17.9375 16.25 -17.1875 13.0625 C-15.13988624 10.09053489 -12.74749411 7.59653068 -10.1875 5.0625 C-9.68605469 4.5159375 -9.18460938 3.969375 -8.66796875 3.40625 C-5.87450411 0.63587184 -3.8300437 -0.27956523 0 0 Z " fill="#060401" transform="translate(241.1875,391.9375)"/>
<path d="M0 0 C3.8125 1.0625 3.8125 1.0625 5.8125 2.75 C7.21420663 5.99144659 7.48981605 7.54045653 6.8125 11.0625 C4.73952186 13.99638709 2.32043229 16.49992866 -0.1875 19.0625 C-0.826875 19.866875 -1.46625 20.67125 -2.125 21.5 C-5.24046039 23.86019726 -8.32679907 24.23690538 -12.1875 24.0625 C-14.625 23.125 -14.625 23.125 -16.1875 21.0625 C-17.71998693 16.30372479 -17.71998693 16.30372479 -17.1875 13.0625 C-15.27526079 9.92919238 -12.85567434 7.56059152 -10.1875 5.0625 C-9.43339844 4.24652344 -9.43339844 4.24652344 -8.6640625 3.4140625 C-5.88081279 0.63081279 -3.82947849 -0.27952398 0 0 Z " fill="#050301" transform="translate(401.1875,287.9375)"/>
<path d="M0 0 C1.14501953 1.51293945 1.14501953 1.51293945 2.3828125 3.61328125 C2.82753906 4.36673828 3.27226562 5.12019531 3.73046875 5.89648438 C4.42076172 7.09241211 4.42076172 7.09241211 5.125 8.3125 C5.59292969 9.09818359 6.06085938 9.88386719 6.54296875 10.69335938 C10 16.61465926 10 16.61465926 10 20 C8.421924 20.84324672 6.8372958 21.67423918 5.25 22.5 C4.36828125 22.9640625 3.4865625 23.428125 2.578125 23.90625 C0 25 0 25 -4 25 C-5.22835325 22.75900431 -6.43229495 20.5098622 -7.625 18.25 C-7.975625 17.61578125 -8.32625 16.9815625 -8.6875 16.328125 C-11.15285063 11.59465178 -11.15285063 11.59465178 -10.4296875 8.78125 C-8.86363913 6.83010777 -7.27765421 5.01258934 -5.5 3.25 C-4.8915625 2.63640625 -4.283125 2.0228125 -3.65625 1.390625 C-2 0 -2 0 0 0 Z " fill="#7B3F0A" transform="translate(176,272)"/>
<path d="M0 0 C4.27867688 1.81988283 6.15957254 6.83645667 8.43505859 10.6887207 C9.00611328 11.60459961 9.57716797 12.52047852 10.16552734 13.46411133 C10.69533203 14.34905273 11.22513672 15.23399414 11.77099609 16.14575195 C12.25874512 16.95633057 12.74649414 17.76690918 13.24902344 18.60205078 C14.06005859 20.8762207 14.06005859 20.8762207 13.3671875 23.09375 C11.62327547 25.47184146 9.82466729 26.00318638 7.06005859 26.8762207 C6.06425781 25.57297852 6.06425781 25.57297852 5.04833984 24.2434082 C4.15647893 23.07929501 3.2645481 21.91523537 2.37255859 20.7512207 C1.9375 20.18145508 1.50244141 19.61168945 1.05419922 19.0246582 C-1.8564999 15.22996898 -4.85642395 11.53199456 -7.93994141 7.8762207 C-6.43474701 4.36410044 -4.32196908 -0.27576621 0 0 Z " fill="#502907" transform="translate(329.93994140625,168.123779296875)"/>
</svg>
