<?xml version="1.0" encoding="UTF-8"?>
<svg version="1.1" xmlns="http://www.w3.org/2000/svg" width="512" height="512">
<path d="M0 0 C36.3 0 72.6 0 110 0 C115.61 26.07 121.22 52.14 127 79 C159.175 79.495 159.175 79.495 192 80 C192 75.71 192 71.42 192 67 C194.53629254 49.96345601 203.4453631 33.678732 216 22 C216.66128906 21.33355469 217.32257813 20.66710937 218.00390625 19.98046875 C234.88827368 3.65242314 255.66348127 -0.54710753 278.453125 -0.26953125 C295.39462119 0.21925836 312.46051314 7.53598008 325 19 C326.33804688 20.20076172 326.33804688 20.20076172 327.703125 21.42578125 C341.90239646 34.82973833 351.62321223 53.59551617 352.43359375 73.33203125 C352.4572833 75.49205799 352.45811186 77.6524417 352.4375 79.8125 C352.42847656 80.95251465 352.41945313 82.0925293 352.41015625 83.26708984 C352.03481418 101.58847447 345.45532749 119.33266341 333 133 C332.28457031 133.80695313 331.56914062 134.61390625 330.83203125 135.4453125 C318.48972911 148.61311935 301.93825382 157.46390205 284 160 C280.6638962 160.09125554 277.33632 160.0709414 274 160 C275.47485642 186.29440664 280.36741452 211.87367637 285.43878174 237.67819214 C289.60325879 259.06125626 290.95168252 284.07617629 284 305 C283.67854004 306.01586182 283.67854004 306.01586182 283.35058594 307.05224609 C278.76384514 321.30318966 271.80146757 333.64889329 262 345 C261.40960938 345.73476563 260.81921875 346.46953125 260.2109375 347.2265625 C244.43635422 366.22318832 220.9104375 378.10268148 197 383 C195.35 383 193.7 383 192 383 C192 404.45 192 425.9 192 448 C213.12 448 234.24 448 256 448 C256 458.56 256 469.12 256 480 C203.2 480 150.4 480 96 480 C96 469.44 96 458.88 96 448 C117.12 448 138.24 448 160 448 C160 426.55 160 405.1 160 383 C157.03 382.67 154.06 382.34 151 382 C121.15377606 375.26798627 96.09494744 356.92860555 79.5546875 331.28515625 C68.40483952 313.11805169 63.55572431 292.84921601 63.5625 271.6875 C63.56089874 270.61378143 63.56089874 270.61378143 63.55926514 269.51837158 C63.59223214 254.00718068 65.93471784 239.19356239 69 224 C69.53529508 221.30132074 70.06661072 218.60186212 70.59765625 215.90234375 C70.72991608 215.230289 70.8621759 214.55823425 70.9984436 213.86581421 C71.26382319 212.51642751 71.52895095 211.16699125 71.79382324 209.81750488 C72.05517932 208.48641229 72.31713716 207.1554377 72.57971191 205.82458496 C81.14437742 162.29723815 74.45101964 125.05346054 56.93554688 84.40063477 C56 82 56 82 56 80 C67.88 79.67 79.76 79.34 92 79 C91.3503125 76.02613281 90.700625 73.05226563 90.03125 69.98828125 C89.40452217 67.10256173 88.77956869 64.21646329 88.15478516 61.33032227 C87.72011651 59.32698924 87.28360859 57.32405436 86.84521484 55.3215332 C86.21486478 52.44064761 85.59117505 49.55838806 84.96875 46.67578125 C84.77188599 45.78288895 84.57502197 44.88999664 84.37219238 43.970047 C84.19200562 43.12955307 84.01181885 42.28905914 83.82617188 41.4230957 C83.58634583 40.32056206 83.58634583 40.32056206 83.3416748 39.195755 C83 37 83 37 83 32 C55.61 32 28.22 32 0 32 C0 21.44 0 10.88 0 0 Z " fill="#212121" transform="translate(80,16)"/>
<path d="M0 0 C44.88 0 89.76 0 136 0 C137.98 11.88 137.98 11.88 140 24 C141.90718557 32.74564888 141.90718557 32.74564888 143.828125 41.48828125 C149.95108605 69.88871468 151.34334453 97.30729031 136 123 C133.83234347 126.16411737 131.49424802 129.09004397 129 132 C128.55398438 132.58910156 128.10796875 133.17820312 127.6484375 133.78515625 C116.34370651 148.29619983 96.90306868 157.12272111 79 160 C57.71868188 162.23292618 36.99109011 157.42147871 19.875 144.3125 C18.57583106 143.21717042 17.2831286 142.1140771 16 141 C14.4840625 139.8553125 14.4840625 139.8553125 12.9375 138.6875 C-1.70811882 125.28831682 -11.44234853 104.89142038 -12.3359375 84.96875 C-12.66477825 65.13111363 -9.08902657 46.15154463 -4.83911133 26.84399414 C-2.88917274 17.91634199 -1.51086295 9.06517773 0 0 Z " fill="#FEC927" transform="translate(188,208)"/>
<path d="M0 0 C48.18 0 96.36 0 146 0 C145.34 3.63 144.68 7.26 144 11 C143.29513348 14.95546452 142.61300672 18.91442446 141.9375 22.875 C141.76412109 23.86113281 141.59074219 24.84726563 141.41210938 25.86328125 C140.14960478 33.3028677 139.58459419 40.40027548 139 48 C95.44 48 51.88 48 7 48 C6.34 42.06 5.68 36.12 5 30 C4.35450604 25.91999101 3.68963363 21.8705898 2.9375 17.8125 C2.59151571 15.90251238 2.24644021 13.99235988 1.90234375 12.08203125 C1.75273193 11.26968018 1.60312012 10.4573291 1.44897461 9.62036133 C0.90130515 6.42398486 0.45862325 3.21036277 0 0 Z " fill="#8FC9F8" transform="translate(183,128)"/>
<path d="M0 0 C9.16644968 8.43257984 15.56427468 20.03306033 16.546875 32.5703125 C17.02551761 46.69026957 13.25479672 58.26432343 4.2109375 69.00390625 C-2.95192782 76.64192018 -11.32574649 81.85367644 -21.6640625 83.87890625 C-22.6540625 83.87890625 -23.6440625 83.87890625 -24.6640625 83.87890625 C-23.44752839 76.66812381 -21.48576574 70.02801429 -18.9140625 63.19140625 C-18.59179688 62.31291016 -18.26953125 61.43441406 -17.9375 60.52929688 C-14.99722382 52.58029442 -11.81394497 44.75361241 -8.6640625 36.87890625 C-32.0940625 36.87890625 -55.5240625 36.87890625 -79.6640625 36.87890625 C-79.6640625 23.55262744 -75.22997424 12.42416625 -66.1015625 2.62890625 C-47.4423522 -15.01866011 -20.10362957 -16.00626225 0 0 Z " fill="#65B969" transform="translate(383.6640625,59.12109375)"/>
</svg>
