<?xml version="1.0" encoding="UTF-8"?>
<svg version="1.1" xmlns="http://www.w3.org/2000/svg" width="512" height="512">
<path d="M0 0 C17.07170428 14.572029 28.90649002 30.65628424 38.3515625 50.91015625 C38.6815625 51.57015625 39.0115625 52.23015625 39.3515625 52.91015625 C46.6126135 41.54709392 53.83804566 30.16316864 60.9765625 18.72265625 C61.90940063 17.22919678 61.90940063 17.22919678 62.86108398 15.70556641 C66.48322345 9.90621067 66.48322345 9.90621067 70.09765625 4.10205078 C71.71996352 1.49390147 73.34770981 -1.11077889 74.9765625 -3.71484375 C75.68546631 -4.8598938 75.68546631 -4.8598938 76.40869141 -6.02807617 C80.4208013 -12.42449678 84.24030093 -17.7898295 90.7890625 -21.83984375 C91.69527344 -22.4121875 92.60148437 -22.98453125 93.53515625 -23.57421875 C103.11521016 -28.72964305 115.3015923 -28.48556338 125.82421875 -26.40234375 C137.07074454 -22.60604812 143.90719282 -15.34817606 149.453125 -5.04296875 C152.97445379 3.44771187 152.94994953 15.6785256 149.8515625 24.28515625 C145.62965461 33.02524626 139.14963195 40.31319009 132.625 47.39453125 C129.54848934 50.79878016 126.68670853 54.35992346 123.80078125 57.92578125 C121.0334555 61.29776988 118.2000931 64.60681071 115.3515625 67.91015625 C111.79689036 72.03471236 108.2836362 76.18223937 104.8515625 80.41015625 C101.41948237 84.63808105 97.90605079 88.78543515 94.3515625 92.91015625 C90.0443111 97.90927046 85.82376078 102.96668594 81.6640625 108.08984375 C77.29391045 113.41965757 72.81699758 118.66014005 68.3515625 123.91015625 C68.68027344 124.38582031 69.00898438 124.86148438 69.34765625 125.3515625 C71.04656256 127.8515791 72.70079283 130.37807217 74.3515625 132.91015625 C75.05152344 133.96589844 75.75148438 135.02164063 76.47265625 136.109375 C94.68237049 164.38508108 98.81394912 197.5141858 94.23583984 230.39672852 C94.38599975 233.65811293 95.51322969 234.95413386 97.6640625 237.34765625 C98.29957031 237.92386719 98.93507813 238.50007813 99.58984375 239.09375 C103.43629358 243.05960182 103.66770791 247.38454539 103.7265625 252.72265625 C103.588963 260.0460076 102.54379178 264.55798229 97.48046875 269.875 C91.20362438 275.67722475 86.79356756 277.19632591 78.3515625 276.91015625 C78.39223343 277.90856537 78.43290436 278.90697449 78.47480774 279.93563843 C78.46560112 286.84321491 77.31578419 293.67262203 76.37963867 300.50244141 C76.16733393 302.08001573 75.95546715 303.65764904 75.7440033 305.2353363 C75.170524 309.50237571 74.59015338 313.76844986 74.00791717 318.03430223 C73.64419906 320.70165487 73.28201295 323.3692109 72.92037392 326.03684616 C71.65798416 335.34887636 70.39008791 344.66013737 69.11694336 353.97070312 C67.93132676 362.6422289 66.75768398 371.31531835 65.58961123 379.98922312 C64.58490345 387.44609094 63.57194265 394.90180732 62.552553 402.35668218 C61.94441458 406.80505236 61.33959533 411.25381165 60.74306297 415.70375443 C60.18208825 419.88624637 59.61084156 424.06720851 59.0317173 428.24722481 C58.82121366 429.77935618 58.61434944 431.31199276 58.41143799 432.84514809 C58.13337755 434.94169365 57.84210331 437.03599943 57.54753113 439.13027954 C57.38806094 440.3016276 57.22859076 441.47297565 57.06428814 442.67981911 C56.29742578 446.15552397 55.1516115 448.8462071 53.3515625 451.91015625 C50.94184115 453.11501692 49.43594299 453.03869674 46.74377632 453.04437733 C45.76691026 453.04883517 44.7900442 453.05329301 43.78357613 453.05788594 C42.70266477 453.05770158 41.62175341 453.05751722 40.50808716 453.05732727 C39.36580591 453.06100396 38.22352466 453.06468065 37.04662883 453.06846875 C33.86642285 453.07760658 30.68624719 453.08220767 27.50603032 453.08485806 C24.07990924 453.08875708 20.65380317 453.0983356 17.22769165 453.10707092 C8.94961125 453.12684534 0.6715296 453.13690217 -7.60656852 453.14579871 C-11.50217976 453.15017947 -15.39778964 453.15554678 -19.29339981 453.16078758 C-32.23821417 453.17779981 -45.18302767 453.19229533 -58.12785149 453.19953632 C-61.48806637 453.2014463 -64.84828124 453.20336662 -68.20849609 453.20532227 C-69.46128393 453.20604788 -69.46128393 453.20604788 -70.73938061 453.20678815 C-84.27749985 453.21509348 -97.81553088 453.24043888 -111.35361157 453.27290294 C-125.24380842 453.30594067 -139.13396038 453.32398205 -153.02419674 453.32718056 C-160.82678326 453.32934857 -168.62924109 453.33813968 -176.4317894 453.36364174 C-183.07490245 453.38530382 -189.71785556 453.39342139 -196.36099993 453.38367496 C-199.7519306 453.37911727 -203.14253097 453.38110079 -206.53341675 453.4004364 C-210.20622563 453.41800044 -213.87818703 453.41112498 -217.55099487 453.39790344 C-219.16566975 453.41435731 -219.16566975 453.41435731 -220.81296432 453.43114358 C-227.96548714 453.36864874 -227.96548714 453.36864874 -231.27231979 451.14863682 C-232.68568128 448.84957315 -233.33720063 447.26014354 -233.76376343 444.60671997 C-233.91133465 443.7223035 -234.05890587 442.83788704 -234.21094894 441.92667007 C-234.35532017 440.93122051 -234.49969139 439.93577095 -234.6484375 438.91015625 C-234.81487385 437.80655636 -234.9813102 436.70295647 -235.15279007 435.56591415 C-235.7270279 431.63547308 -236.26831226 427.70106222 -236.80322266 423.76513672 C-237.01016184 422.25938541 -237.21735798 420.75366941 -237.42478943 419.24798584 C-237.98342904 415.18659261 -238.53810394 411.12466765 -239.09173632 407.06258917 C-239.55541551 403.66275102 -240.02089181 400.26315981 -240.48630655 396.86355889 C-241.58430732 388.84254459 -242.67890547 380.82107088 -243.77148438 372.79931641 C-244.89674272 364.5381552 -246.02827393 356.2778699 -247.16279185 348.01797569 C-248.13907498 340.90825318 -249.11120604 333.79797109 -250.08008611 326.68723595 C-250.6577668 322.44798992 -251.23705492 318.20897945 -251.82045364 313.9705162 C-252.36860473 309.98695231 -252.91155908 306.00271354 -253.45059395 302.01790619 C-253.64868247 300.56002577 -253.84858131 299.10238995 -254.05047035 297.64503098 C-255.01239494 290.69380781 -255.91958168 283.93385889 -255.6484375 276.91015625 C-256.8034375 276.99265625 -257.9584375 277.07515625 -259.1484375 277.16015625 C-265.07294706 277.11836077 -269.34025337 275.08229809 -273.63671875 271.0390625 C-279.9737435 264.09851158 -281.12908348 258.72037019 -280.953125 249.35546875 C-280.34271398 242.45312879 -277.72283572 238.66808296 -272.7109375 234.03515625 C-266.94374932 229.37254923 -262.92964788 228.66333556 -255.6484375 228.91015625 C-256.009375 227.99492187 -256.3703125 227.0796875 -256.7421875 226.13671875 C-257.20625 224.94820312 -257.6703125 223.7596875 -258.1484375 222.53515625 C-258.6125 221.35179687 -259.0765625 220.1684375 -259.5546875 218.94921875 C-260.6484375 215.91015625 -260.6484375 215.91015625 -260.6484375 213.91015625 C-264.6084375 214.90015625 -264.6084375 214.90015625 -268.6484375 215.91015625 C-278.2980595 184.2593961 -273.82511287 148.64433588 -258.45556641 119.55566406 C-247.2997978 99.42371007 -229.45199839 78.1114224 -207.92578125 68.72265625 C-204.21178585 65.76674911 -203.36766753 61.62491337 -201.8984375 57.22265625 C-190.45637117 25.29639377 -167.2898743 -0.44234104 -136.7890625 -15.3737793 C-128.98244107 -19.00845263 -120.92542634 -21.74590088 -112.6484375 -24.08984375 C-111.47023437 -24.43144531 -110.29203125 -24.77304687 -109.078125 -25.125 C-71.91216204 -33.90596927 -29.43835184 -24.14652242 0 0 Z " fill="#010000" transform="translate(344.6484375,43.08984375)"/>
<path d="M0 0 C4.06940241 0.84779217 5.4070196 2.41215249 8 5.625 C8.59594727 8.98730469 8.59594727 8.98730469 8.56640625 12.796875 C8.57485817 13.81965546 8.57485817 13.81965546 8.58348083 14.86309814 C8.5998693 17.03443857 8.58447346 19.20373256 8.5625 21.375 C8.26669258 36.15138535 8.26669258 36.15138535 14.96484375 48.96484375 C21.95619926 54.6271495 26.92368574 56.49932385 36 55.625 C42.02868705 54.33931226 47.00369779 51.32116225 51 46.625 C53.65912147 42.05614584 54.96180934 37.8159533 56 32.625 C60.95 32.625 65.9 32.625 71 32.625 C69.91428563 44.27175411 68.43052656 55.81041926 66.6875 67.375 C64.79425788 79.93999754 63.08043947 92.51689284 61.5 105.125 C59.86516634 118.15565205 58.08451002 131.15258246 56.12414551 144.13818359 C54.28569602 156.33479703 52.70272513 168.55342042 51.25561523 180.80249023 C51.10423096 182.06391846 50.95284668 183.32534668 50.796875 184.625 C50.66635742 185.73875 50.53583984 186.8525 50.40136719 188 C50 190.625 50 190.625 49 192.625 C-36.14 192.625 -121.28 192.625 -209 192.625 C-210.21661583 187.15022878 -211.28553837 182.18358922 -211.9296875 176.6953125 C-212.0831665 175.41897949 -212.23664551 174.14264648 -212.39477539 172.82763672 C-212.47293488 172.16310486 -212.55109436 171.498573 -212.63162231 170.81390381 C-213.94409007 159.68384812 -215.38738833 148.58200384 -217.0625 137.5 C-217.23064209 136.38544434 -217.39878418 135.27088867 -217.57202148 134.12255859 C-217.89859153 131.95833202 -218.22517 129.79410671 -218.55175781 127.62988281 C-220.24386014 116.28653014 -221.71421319 104.91255079 -223.15625 93.53515625 C-223.47485056 91.02368369 -223.79349959 88.5122173 -224.11224365 86.00076294 C-224.32846872 84.29674794 -224.54449363 82.59270754 -224.76031494 80.88864136 C-226.29859849 68.76551582 -227.95568491 56.67100043 -229.83178711 44.5949707 C-229.98655518 43.59038818 -230.14132324 42.58580566 -230.30078125 41.55078125 C-230.43653564 40.68880127 -230.57229004 39.82682129 -230.7121582 38.9387207 C-231 36.625 -231 36.625 -231 32.625 C-207.40840259 32.48479076 -183.81686769 32.37900962 -160.22493744 32.31412697 C-149.27058477 32.28319901 -138.31649111 32.24103852 -127.36230469 32.17236328 C-117.81376995 32.11252909 -108.2654228 32.07384315 -98.7167058 32.06046903 C-93.66140043 32.05265211 -88.60663167 32.03430248 -83.55149841 31.99061966 C-78.79077431 31.94981523 -74.03080653 31.93734679 -69.26992416 31.94635391 C-67.52523052 31.94470677 -65.78051092 31.93281824 -64.03596878 31.90976715 C-49.21300631 31.72355753 -49.21300631 31.72355753 -44.08654785 35.60507202 C-43.53780251 36.14419912 -42.98905716 36.68332623 -42.42368317 37.23879051 C-39.09765517 40.47727199 -34.33389548 40.01662376 -29.984375 39.96484375 C-22.58394842 39.12212502 -16.89009065 35.25109536 -12.15625 29.6640625 C-8.50530612 23.22557364 -8.73144112 16.33276516 -8.63671875 9.1484375 C-7.70060849 3.96824455 -5.2034161 1.08404502 0 0 Z " fill="#F1DDC1" transform="translate(336,287.375)"/>
<path d="M0 0 C17.21133639 14.85528584 29.16436916 34.49088681 34.97265625 56.47265625 C35.28976562 57.66246094 35.606875 58.85226563 35.93359375 60.078125 C37.83300595 68.48607352 38.24647175 76.67183067 38.28515625 85.28515625 C38.29071533 86.32269043 38.29627441 87.36022461 38.30200195 88.42919922 C38.23796385 95.29605458 37.41977235 101.76224551 35.97265625 108.47265625 C34.7515918 108.48200195 33.53052734 108.49134766 32.27246094 108.50097656 C27.73970126 108.54086548 23.2076211 108.60662118 18.67529297 108.68017578 C16.71411878 108.70839178 14.75283074 108.72960319 12.79150391 108.74365234 C9.97108648 108.76507324 7.15203882 108.81171834 4.33203125 108.86328125 C3.45585144 108.86450989 2.57967163 108.86573853 1.67694092 108.86700439 C-1.93766101 108.95386699 -4.38544994 109.11835345 -7.58081055 110.88208008 C-9.86472243 114.97230608 -9.57102194 118.92345716 -9.53125 123.53125 C-9.54067123 124.51255386 -9.55009247 125.49385773 -9.55979919 126.50489807 C-9.58847623 129.64019641 -9.59152649 132.77473727 -9.58984375 135.91015625 C-9.59345147 139.04189419 -9.60299248 142.17308004 -9.63059998 145.30470276 C-9.64738345 147.25233488 -9.65026791 149.20014872 -9.6375885 151.14781189 C-9.67554397 156.04234587 -9.74951477 159.54136779 -13.02734375 163.47265625 C-15.65612536 164.59542129 -18.18830566 164.67871547 -21.02734375 164.47265625 C-24.29446201 162.79721099 -24.85515475 161.98922324 -26.02734375 158.47265625 C-26.12052575 156.23321841 -26.15908329 153.99135802 -26.16796875 151.75 C-26.18631713 150.39256162 -26.20588928 149.03513934 -26.2265625 147.67773438 C-26.2553329 145.55384464 -26.27733892 143.43098097 -26.27783203 141.30688477 C-26.2935063 131.75789664 -26.86467988 123.35031592 -33.43408203 115.87109375 C-39.29371005 110.53955326 -45.60191207 108.86884532 -53.3203125 109.1328125 C-60.65500914 110.05361857 -64.9017576 113.90016827 -69.58203125 119.375 C-73.33312003 124.81914776 -73.38196682 130.19462817 -73.50585938 136.58984375 C-73.67666179 141.00571112 -74.17114747 144.02957032 -77.02734375 147.47265625 C-79.65612536 148.59542129 -82.18830566 148.67871547 -85.02734375 148.47265625 C-88.29446201 146.79721099 -88.85515475 145.98922324 -90.02734375 142.47265625 C-90.15509814 140.29777699 -90.22927313 138.11958679 -90.2734375 135.94140625 C-90.30630859 134.65621094 -90.33917969 133.37101563 -90.37304688 132.046875 C-90.42051316 130.00607047 -90.46498495 127.96529781 -90.50415039 125.92431641 C-90.54387088 123.95066002 -90.59598613 121.97726534 -90.6484375 120.00390625 C-90.67349365 118.82376953 -90.6985498 117.64363281 -90.72436523 116.42773438 C-90.81400492 113.28680868 -90.81400492 113.28680868 -93.02734375 110.47265625 C-96.84836531 109.1989824 -100.46265704 109.29556552 -104.44604492 109.26733398 C-105.30479721 109.25743439 -106.1635495 109.24753479 -107.04832458 109.23733521 C-109.8889591 109.20572859 -112.72961035 109.18096604 -115.5703125 109.15625 C-117.53901099 109.13567975 -119.50770507 109.11468326 -121.47639465 109.09327698 C-126.65982493 109.03806363 -131.84329502 108.98865107 -137.02679443 108.94042969 C-142.31542507 108.89020931 -147.60399784 108.83452604 -152.89257812 108.77929688 C-163.27078391 108.6717243 -173.64903992 108.57027729 -184.02734375 108.47265625 C-189.90259055 78.34227289 -185.0072127 48.19779836 -167.96484375 22.34375 C-149.64289269 -2.75077939 -124.03871729 -20.87316718 -93.21484375 -26.77734375 C-58.92654616 -31.40188935 -26.47046113 -22.09856562 0 0 Z " fill="#794229" transform="translate(386.02734375,163.52734375)"/>
<path d="M0 0 C1.07290283 0.49234131 1.07290283 0.49234131 2.16748047 0.99462891 C6.01888344 2.84503911 8.90760612 4.64823492 11.75 7.9375 C10.65042969 8.494375 9.55085937 9.05125 8.41796875 9.625 C-4.57013598 16.29054893 -15.60544081 23.88237894 -26.25 33.9375 C-27.00023437 34.62328125 -27.75046875 35.3090625 -28.5234375 36.015625 C-49.7974193 56.16992355 -62.97400841 86.71634602 -64.34155273 115.890625 C-64.3842345 118.03228969 -64.38645473 120.17046562 -64.375 122.3125 C-64.37886719 122.99699219 -64.38273437 123.68148437 -64.38671875 124.38671875 C-64.37211308 132.60971161 -63.73497269 140.69296435 -63.25 148.9375 C-95.26 148.9375 -127.27 148.9375 -160.25 148.9375 C-165.25 135.9375 -165.25 135.9375 -165.25 132.9375 C-162.34399739 131.68085022 -160.45395416 130.9375 -157.25 130.9375 C-157.45496094 130.14085937 -157.65992188 129.34421875 -157.87109375 128.5234375 C-158.14050781 127.46382812 -158.40992188 126.40421875 -158.6875 125.3125 C-158.95433594 124.26835937 -159.22117187 123.22421875 -159.49609375 122.1484375 C-162.80386335 108.06042398 -162.40847826 92.02503089 -159.25 77.9375 C-158.981875 76.72964844 -158.71375 75.52179688 -158.4375 74.27734375 C-156.32437701 65.62234417 -153.2893509 57.86358148 -149.25 49.9375 C-148.81042969 49.02613281 -148.37085938 48.11476562 -147.91796875 47.17578125 C-135.09067441 21.85388897 -110.99132245 2.70242022 -84.2421875 -6.1875 C-83.25476563 -6.47625 -82.26734375 -6.765 -81.25 -7.0625 C-80.6405957 -7.24296875 -80.03119141 -7.4234375 -79.40332031 -7.609375 C-52.80372879 -15.22027794 -24.85254653 -11.47328088 0 0 Z " fill="#F39696" transform="translate(249.25,123.0625)"/>
<path d="M0 0 C1.53380162 1.31839463 3.05486994 2.65175544 4.5625 4 C5.37847656 4.68578125 6.19445312 5.3715625 7.03515625 6.078125 C22.12582362 19.04630283 38.90594918 40.58550949 40.875 61.28515625 C40.49881452 65.7570612 39.16341661 67.82060034 36.5625 71.4375 C35.44875 73.01337891 35.44875 73.01337891 34.3125 74.62109375 C33.735 75.40613281 33.1575 76.19117188 32.5625 77 C31.44875 76.608125 30.335 76.21625 29.1875 75.8125 C6.75387944 68.40517246 -15.65268346 64.19889945 -39.19238281 68.48657227 C-50.93757149 70.58763826 -50.93757149 70.58763826 -55.66796875 68.734375 C-58.25 66.75 -58.25 66.75 -60.68359375 64.46484375 C-64.11211224 61.39619813 -67.74239694 59.41505242 -71.8125 57.3125 C-72.54911865 56.9316626 -73.2857373 56.5508252 -74.04467773 56.15844727 C-102.26361804 41.83498426 -135.58032121 38.82291647 -166.01171875 47.51171875 C-168.4375 48 -168.4375 48 -171.4375 47 C-161.28637578 26.65388868 -161.28637578 26.65388868 -153.4375 18 C-152.75300781 17.18660156 -152.06851563 16.37320313 -151.36328125 15.53515625 C-114.22724104 -27.73466439 -45.35429342 -35.51927503 0 0 Z " fill="#FDB430" transform="translate(331.4375,54)"/>
<path d="M0 0 C6.82649384 3.22321152 12.25096527 7.09846735 18 12 C18.82757813 12.69222656 19.65515625 13.38445312 20.5078125 14.09765625 C41.99582723 32.65548715 53.86862991 58.18951661 58 86 C58.21057333 90.06105699 58.18510116 94.12146143 58.1875 98.1875 C58.19974609 99.26064453 58.21199219 100.33378906 58.22460938 101.43945312 C58.23743626 108.50706525 57.52065734 115.09802494 56 122 C54.77893555 122.0093457 53.55787109 122.01869141 52.29980469 122.02832031 C47.76704501 122.06820923 43.23496485 122.13396493 38.70263672 122.20751953 C36.74146253 122.23573553 34.78017449 122.25694694 32.81884766 122.27099609 C29.99843023 122.29241699 27.17938257 122.33906209 24.359375 122.390625 C23.48319519 122.39185364 22.60701538 122.39308228 21.70428467 122.39434814 C18.08968274 122.48121074 15.64189381 122.6456972 12.4465332 124.40942383 C10.16262132 128.49964983 10.45632181 132.45080091 10.49609375 137.05859375 C10.48667252 138.03989761 10.47725128 139.02120148 10.46754456 140.03224182 C10.43886752 143.16754016 10.43581726 146.30208102 10.4375 149.4375 C10.43389228 152.56923794 10.42435127 155.70042379 10.39674377 158.83204651 C10.3799603 160.77967863 10.37707584 162.72749247 10.38975525 164.67515564 C10.35179978 169.56968962 10.27782898 173.06871154 7 177 C4.37121839 178.12276504 1.83903809 178.20605922 -1 178 C-4.26711826 176.32455474 -4.827811 175.51656699 -6 172 C-6.093182 169.76056216 -6.13173954 167.51870177 -6.140625 165.27734375 C-6.15897338 163.91990537 -6.17854553 162.56248309 -6.19921875 161.20507812 C-6.22798915 159.08118839 -6.24999517 156.95832472 -6.25048828 154.83422852 C-6.26616255 145.28524039 -6.83733613 136.87765967 -13.40673828 129.3984375 C-19.2663663 124.06689701 -25.57456832 122.39618907 -33.29296875 122.66015625 C-40.62766539 123.58096232 -44.87441385 127.42751202 -49.5546875 132.90234375 C-53.30577628 138.34649151 -53.35462307 143.72197192 -53.47851562 150.1171875 C-53.64931804 154.53305487 -54.14380372 157.55691407 -57 161 C-59.62878161 162.12276504 -62.16096191 162.20605922 -65 162 C-68.26711826 160.32455474 -68.827811 159.51656699 -70 156 C-70.12775439 153.82512074 -70.20192938 151.64693054 -70.24609375 149.46875 C-70.27896484 148.18355469 -70.31183594 146.89835938 -70.34570312 145.57421875 C-70.39316941 143.53341422 -70.4376412 141.49264156 -70.47680664 139.45166016 C-70.51652713 137.47800377 -70.56864238 135.50460909 -70.62109375 133.53125 C-70.6461499 132.35111328 -70.67120605 131.17097656 -70.69702148 129.95507812 C-70.78666117 126.81415243 -70.78666117 126.81415243 -73 124 C-76.02056161 122.99314613 -78.13554614 122.84627314 -81.29760742 122.79467773 C-82.37850143 122.77473251 -83.45939545 122.75478729 -84.57304382 122.73423767 C-85.73874405 122.71752518 -86.90444427 122.70081268 -88.10546875 122.68359375 C-89.89698112 122.6524221 -89.89698112 122.6524221 -91.72468567 122.62062073 C-95.54556443 122.55515724 -99.36651276 122.4962549 -103.1875 122.4375 C-105.77539786 122.39431176 -108.36328865 122.35069737 -110.95117188 122.30664062 C-117.30070739 122.19947908 -123.65031234 122.0977066 -130 122 C-130 121.67 -130 121.34 -130 121 C-128.76507813 120.78085937 -127.53015625 120.56171875 -126.2578125 120.3359375 C-98.1289283 115.15290163 -72.87895641 104.72229106 -51 86 C-50.19175781 85.31421875 -49.38351562 84.6284375 -48.55078125 83.921875 C-43.80532428 79.77984348 -39.29619547 75.41936864 -34.9375 70.875 C-34.45998291 70.39643555 -33.98246582 69.91787109 -33.49047852 69.42480469 C-30.09535377 65.78995849 -29.1913467 62.92862719 -29 58 C-29.33 57.01 -29.66 56.02 -30 55 C-30.08143855 53.37280518 -30.1075302 51.74248281 -30.09765625 50.11328125 C-30.09282227 48.7065918 -30.09282227 48.7065918 -30.08789062 47.27148438 C-30.07532227 45.80678711 -30.07532227 45.80678711 -30.0625 44.3125 C-30.05798828 43.32443359 -30.05347656 42.33636719 -30.04882812 41.31835938 C-30.0370432 38.87888042 -30.01910783 36.43943259 -30 34 C-24.72 34 -19.44 34 -14 34 C-13.505 35.98 -13.505 35.98 -13 38 C-7.50976859 25.60637111 -3.47334445 13.0968807 0 0 Z " fill="#6D3B25" transform="translate(366,150)"/>
<path d="M0 0 C4.67777907 3.16792167 8.67769237 7.76759282 9.97265625 13.3359375 C10.99283167 21.13399074 9.37648492 26.85855721 4.97265625 33.3359375 C2.60008736 36.17971345 0.12434095 38.87697308 -2.42578125 41.5625 C-4.8783599 44.17711087 -7.15264301 46.85880859 -9.40234375 49.6484375 C-12.87104676 53.94448133 -16.42160506 58.15529703 -20.02734375 62.3359375 C-23.5820592 66.46045456 -27.09527161 70.60802255 -30.52734375 74.8359375 C-34.46112945 79.68190539 -38.51182134 84.41692278 -42.5859375 89.14453125 C-45.61692659 92.66911653 -48.59726956 96.22642582 -51.52734375 99.8359375 C-53.02674659 101.66975926 -54.52680357 103.50304627 -56.02734375 105.3359375 C-56.51799316 105.94099121 -57.00864258 106.54604492 -57.51416016 107.16943359 C-59.11092131 109.13080565 -60.72381408 111.07792605 -62.33984375 113.0234375 C-63.09587891 113.96123047 -63.09587891 113.96123047 -63.8671875 114.91796875 C-65.328125 116.66015625 -65.328125 116.66015625 -68.02734375 119.3359375 C-72.67809234 119.3359375 -72.94324107 118.87298818 -76.08984375 115.7734375 C-80.9767056 111.20422167 -86.30069096 107.76122515 -92.02734375 104.3359375 C-90.35381652 99.43143862 -87.62875637 95.34785437 -84.83984375 91.0234375 C-83.74807148 89.31289967 -82.65695628 87.60194233 -81.56640625 85.890625 C-80.98922852 84.98666992 -80.41205078 84.08271484 -79.81738281 83.15136719 C-76.75497379 78.33471405 -73.73592368 73.49107992 -70.71484375 68.6484375 C-69.43751857 66.60285299 -68.16017465 64.55728018 -66.8828125 62.51171875 C-65.92640869 60.9795874 -65.92640869 60.9795874 -64.95068359 59.41650391 C-63.05649033 56.38262087 -61.1612893 53.34937032 -59.265625 50.31640625 C-58.6478418 49.32785645 -58.03005859 48.33930664 -57.39355469 47.32080078 C-56.1540236 45.33826454 -54.91379432 43.35616465 -53.67285156 41.37451172 C-50.41737775 36.17344372 -47.17790733 30.9632666 -43.9609375 25.73828125 C-42.95740234 24.1150293 -42.95740234 24.1150293 -41.93359375 22.45898438 C-40.65916997 20.39689591 -39.38932959 18.33196477 -38.125 16.26367188 C-29.20966206 1.87035407 -17.86737834 -9.14446587 0 0 Z " fill="#EFDCC0" transform="translate(470.02734375,34.6640625)"/>
<path d="M0 0 C4.06940241 0.84779217 5.4070196 2.41215249 8 5.625 C8.59594727 8.98730469 8.59594727 8.98730469 8.56640625 12.796875 C8.57485817 13.81965546 8.57485817 13.81965546 8.58348083 14.86309814 C8.5998693 17.03443857 8.58447346 19.20373256 8.5625 21.375 C8.32552021 34.51195773 8.32552021 34.51195773 13 46.625 C13.33 47.285 13.66 47.945 14 48.625 C-65.86 48.625 -145.72 48.625 -228 48.625 C-228.33 49.615 -228.66 50.605 -229 51.625 C-229.66 45.355 -230.32 39.085 -231 32.625 C-207.40838855 32.48606149 -183.81687577 32.37900965 -160.22493744 32.31412697 C-149.27058477 32.28319901 -138.31649111 32.24103852 -127.36230469 32.17236328 C-117.81376995 32.11252909 -108.2654228 32.07384315 -98.7167058 32.06046903 C-93.66140043 32.05265211 -88.60663167 32.03430248 -83.55149841 31.99061966 C-78.79077431 31.94981523 -74.03080653 31.93734679 -69.26992416 31.94635391 C-67.52523052 31.94470677 -65.78051092 31.93281824 -64.03596878 31.90976715 C-49.21300631 31.72355753 -49.21300631 31.72355753 -44.08654785 35.60507202 C-43.53780251 36.14419912 -42.98905716 36.68332623 -42.42368317 37.23879051 C-39.09765517 40.47727199 -34.33389548 40.01662376 -29.984375 39.96484375 C-22.58394842 39.12212502 -16.89009065 35.25109536 -12.15625 29.6640625 C-8.50530612 23.22557364 -8.73144112 16.33276516 -8.63671875 9.1484375 C-7.70060849 3.96824455 -5.2034161 1.08404502 0 0 Z " fill="#E9D6BB" transform="translate(336,287.375)"/>
<path d="M0 0 C0.80056483 -0.00427212 1.60112967 -0.00854425 2.42595404 -0.01294583 C5.10580404 -0.02117518 7.78408537 0.00630704 10.46379089 0.03364563 C12.38568586 0.03505612 14.30758353 0.03426411 16.22947693 0.03143311 C21.44619244 0.02999758 26.66233399 0.05940978 31.87891603 0.09430289 C37.33081804 0.12554343 42.78273298 0.12849532 48.23471069 0.13442993 C58.55842565 0.14997511 68.88187611 0.19101286 79.20547456 0.24117738 C90.9586548 0.29704974 102.71184762 0.32455207 114.46512759 0.34965456 C138.64216115 0.40192799 162.81894127 0.4908898 186.99577332 0.60127258 C186.99577332 5.88127258 186.99577332 11.16127258 186.99577332 16.60127258 C161.65733321 16.71695885 136.31895659 16.80621552 110.98030567 16.86033344 C99.21543202 16.88612792 87.45072535 16.92130239 75.68595886 16.97846985 C65.43318547 17.02826652 55.180533 17.06055454 44.92764205 17.07171506 C39.49748532 17.0782401 34.06767454 17.09360192 28.63762856 17.12992287 C23.52815438 17.16382312 18.41916915 17.17433754 13.3095932 17.16681099 C11.43303713 17.1681882 9.55646495 17.17815616 7.68000603 17.19729996 C5.11940114 17.22214529 2.56064689 17.21620977 0 17.20254517 C-0.74417071 17.21710937 -1.48834142 17.23167358 -2.25506276 17.24667913 C-6.16915123 17.19014297 -7.86054475 16.71530196 -10.96542835 14.25119305 C-13.00422668 11.60127258 -13.00422668 11.60127258 -13.62922668 8.60127258 C-12.08563052 1.19201099 -6.75779946 -0.13225728 0 0 Z " fill="#F1DDC1" transform="translate(93.00422668457031,287.3987274169922)"/>
<path d="M0 0 C21.5223832 15.91711049 35.56327969 34.68983906 44 60 C44.55666402 65.8519305 43.40446794 68.70316177 40 73.4375 C39.2575 74.48808594 38.515 75.53867188 37.75 76.62109375 C37.1725 77.40613281 36.595 78.19117188 36 79 C34.88625 78.608125 33.7725 78.21625 32.625 77.8125 C30.7532654 77.1982916 28.87760326 76.59602713 27 76 C26.39333496 75.80712402 25.78666992 75.61424805 25.16162109 75.41552734 C12.59843478 71.49241626 0.06231813 69.47691375 -13 68 C-11.65049175 63.7791976 -10.29110881 59.64939659 -8.4765625 55.6015625 C-6.57192092 50.95584944 -5.48383993 46.2621093 -4.375 41.375 C-4.1584375 40.446875 -3.941875 39.51875 -3.71875 38.5625 C-3.13421609 36.04395266 -2.55588777 33.52502323 -2 31 C-1.72869263 29.80395142 -1.72869263 29.80395142 -1.4519043 28.58374023 C-0.93782698 25.64452888 -0.78642248 22.80625199 -0.68359375 19.82421875 C-0.64169922 18.66728516 -0.59980469 17.51035156 -0.55664062 16.31835938 C-0.51732422 15.12017578 -0.47800781 13.92199219 -0.4375 12.6875 C-0.39431641 11.46998047 -0.35113281 10.25246094 -0.30664062 8.99804688 C-0.20078504 5.9988053 -0.09870274 2.99948409 0 0 Z " fill="#FCA711" transform="translate(328,52)"/>
<path d="M0 0 C5.28 0 10.56 0 16 0 C16.04898437 1.25296875 16.09796875 2.5059375 16.1484375 3.796875 C16.22348583 5.44793821 16.29903277 7.09897881 16.375 8.75 C16.4059375 9.575 16.436875 10.4 16.46875 11.25 C16.50742187 12.04921875 16.54609375 12.8484375 16.5859375 13.671875 C16.63306885 14.77160645 16.63306885 14.77160645 16.68115234 15.89355469 C17.04937564 18.32619682 17.63747508 19.94863368 19 22 C22.46821241 22.89916618 24.92654257 23.33898656 28.375 22.25 C30.309697 21.00281178 30.309697 21.00281178 31 18 C31.14492123 16.59335074 31.24628931 15.1818867 31.31640625 13.76953125 C31.35830078 12.96708984 31.40019531 12.16464844 31.44335938 11.33789062 C31.48267578 10.50451172 31.52199219 9.67113281 31.5625 8.8125 C31.60568359 7.96751953 31.64886719 7.12253906 31.69335938 6.25195312 C31.79931518 4.16815567 31.9001502 2.08409897 32 0 C37.28 0 42.56 0 48 0 C48.10893381 3.31340344 48.18775874 6.62315292 48.25 9.9375 C48.30027344 11.32678711 48.30027344 11.32678711 48.3515625 12.74414062 C48.46113367 20.55108645 46.93001441 26.5106192 41.8515625 32.55859375 C34.91789329 38.40963742 29.88200667 40.53587027 20.73828125 40.30078125 C12.99703891 39.45045934 8.67174913 35.0601793 3.6640625 29.4140625 C-0.54211538 23.31214247 -0.25062449 17.25660585 -0.125 10.125 C-0.11597656 9.15046875 -0.10695313 8.1759375 -0.09765625 7.171875 C-0.0742177 4.78114328 -0.03835089 2.39053901 0 0 Z " fill="#000000" transform="translate(336,184)"/>
<path d="M0 0 C5.28 0 10.56 0 16 0 C16.04898437 1.25296875 16.09796875 2.5059375 16.1484375 3.796875 C16.22348583 5.44793821 16.29903277 7.09897881 16.375 8.75 C16.4059375 9.575 16.436875 10.4 16.46875 11.25 C16.50742187 12.04921875 16.54609375 12.8484375 16.5859375 13.671875 C16.63306885 14.77160645 16.63306885 14.77160645 16.68115234 15.89355469 C17.04357812 18.2878959 17.73647048 19.93995853 19 22 C21.77100394 23.38550197 23.9334706 23.1877467 27 23 C30.24849977 21.27773504 30.24849977 21.27773504 31 18 C31.14492123 16.59335074 31.24628931 15.1818867 31.31640625 13.76953125 C31.35830078 12.96708984 31.40019531 12.16464844 31.44335938 11.33789062 C31.48267578 10.50451172 31.52199219 9.67113281 31.5625 8.8125 C31.60568359 7.96751953 31.64886719 7.12253906 31.69335938 6.25195312 C31.79931518 4.16815567 31.9001502 2.08409897 32 0 C37.28 0 42.56 0 48 0 C48.10893381 3.31340344 48.18775874 6.62315292 48.25 9.9375 C48.30027344 11.32678711 48.30027344 11.32678711 48.3515625 12.74414062 C48.46111326 20.5496323 46.90934617 26.47759383 41.88671875 32.55859375 C35.10327933 38.35403666 29.45204136 40.55866306 20.48046875 40.30078125 C12.91712331 39.38365117 8.55511753 34.92867834 3.6640625 29.4140625 C-0.54211538 23.31214247 -0.25062449 17.25660585 -0.125 10.125 C-0.11597656 9.15046875 -0.10695313 8.1759375 -0.09765625 7.171875 C-0.0742177 4.78114328 -0.03835089 2.39053901 0 0 Z " fill="#010101" transform="translate(280,368)"/>
<path d="M0 0 C5.28 0 10.56 0 16 0 C16.04898438 1.25296875 16.09796875 2.5059375 16.1484375 3.796875 C16.22348583 5.44793821 16.29903277 7.09897881 16.375 8.75 C16.4059375 9.575 16.436875 10.4 16.46875 11.25 C16.50742188 12.04921875 16.54609375 12.8484375 16.5859375 13.671875 C16.63306885 14.77160645 16.63306885 14.77160645 16.68115234 15.89355469 C17.04357812 18.2878959 17.73647048 19.93995853 19 22 C21.77100394 23.38550197 23.9334706 23.1877467 27 23 C30.24849977 21.27773504 30.24849977 21.27773504 31 18 C31.14492123 16.59335074 31.24628931 15.1818867 31.31640625 13.76953125 C31.35830078 12.96708984 31.40019531 12.16464844 31.44335938 11.33789062 C31.48267578 10.50451172 31.52199219 9.67113281 31.5625 8.8125 C31.60568359 7.96751953 31.64886719 7.12253906 31.69335938 6.25195312 C31.79931518 4.16815567 31.9001502 2.08409897 32 0 C37.28 0 42.56 0 48 0 C48.10893381 3.31340344 48.18775874 6.62315292 48.25 9.9375 C48.30027344 11.32678711 48.30027344 11.32678711 48.3515625 12.74414062 C48.46111326 20.5496323 46.90934617 26.47759383 41.88671875 32.55859375 C35.10327933 38.35403666 29.45204136 40.55866306 20.48046875 40.30078125 C12.91712331 39.38365117 8.55511753 34.92867834 3.6640625 29.4140625 C-0.54211538 23.31214247 -0.25062449 17.25660585 -0.125 10.125 C-0.11597656 9.15046875 -0.10695313 8.1759375 -0.09765625 7.171875 C-0.0742177 4.78114328 -0.03835089 2.39053901 0 0 Z " fill="#010101" transform="translate(112,192)"/>
<path d="M0 0 C0.08975098 0.74942871 0.17950195 1.49885742 0.27197266 2.27099609 C2.61342465 21.69367567 5.24091275 41.06346349 8.06884766 60.42138672 C8.19689789 61.30262711 8.32494812 62.18386749 8.45687866 63.09181213 C8.69844657 64.75285215 8.94185912 66.4136253 9.18740845 68.07408142 C9.62418991 71.07875186 10 73.95911458 10 77 C4.72 77.66 -0.56 78.32 -6 79 C-7.53605413 75.92789175 -7.64280799 72.59757102 -8.05078125 69.22265625 C-8.14963623 68.43230484 -8.24849121 67.64195343 -8.3503418 66.82765198 C-8.56318791 65.12553684 -8.77452733 63.42323275 -8.98452759 61.72076416 C-10.728637 47.58450341 -12.55895036 33.47720299 -14.83129883 19.41430664 C-15.75289684 13.52480173 -16.16665409 7.96251287 -16 2 C-13.62891564 0.81445782 -11.76179569 0.68396607 -9.125 0.4375 C-8.26132813 0.35371094 -7.39765625 0.26992188 -6.5078125 0.18359375 C-4.34347077 0.02514506 -2.1701339 0 0 0 Z " fill="#040403" transform="translate(146,378)"/>
<path d="M0 0 C4.75111878 -0.06900495 9.50048771 -0.12869507 14.25170898 -0.16479492 C15.86667789 -0.17984876 17.48160613 -0.20029648 19.09643555 -0.22631836 C21.42246555 -0.26285286 23.74795341 -0.27976015 26.07421875 -0.29296875 C27.15107185 -0.31619453 27.15107185 -0.31619453 28.24967957 -0.33988953 C32.68310969 -0.34136614 35.47899113 0.26328577 39 3 C40.40457737 5.80915474 40.24895157 7.88810534 40 11 C38.22015595 14.1359157 37.47691793 14.84102736 34 16 C31.41369776 16.08481773 28.85521944 16.11598229 26.26953125 16.09765625 C25.51911057 16.0962413 24.76868988 16.09482635 23.99552917 16.09336853 C21.6011454 16.0877756 19.20685547 16.07522444 16.8125 16.0625 C15.18815239 16.05748408 13.56380332 16.05292134 11.93945312 16.04882812 C7.95957025 16.0386598 3.97989007 16.01908312 0 16 C0 10.72 0 5.44 0 0 Z " fill="#F0DCC0" transform="translate(392,288)"/>
<path d="M0 0 C0.33808686 2.06172613 0.67027361 4.1244203 1 6.1875 C1.185625 7.33605469 1.37125 8.48460937 1.5625 9.66796875 C2 13 2 13 2 18 C-3.28 18.33 -8.56 18.66 -14 19 C-16.14285714 6.8125 -16.14285714 6.8125 -16 2 C-10.54538831 0.61470179 -5.63281599 -0.2396943 0 0 Z " fill="#0A0908" transform="translate(141,343)"/>
<path d="M0 0 C5.28 0 10.56 0 16 0 C16 5.28 16 10.56 16 16 C10.72 16 5.44 16 0 16 C0 10.72 0 5.44 0 0 Z " fill="#000000" transform="translate(248,200)"/>
<path d="M0 0 C5.28 0 10.56 0 16 0 C16 5.28 16 10.56 16 16 C10.72 16 5.44 16 0 16 C0 10.72 0 5.44 0 0 Z " fill="#000000" transform="translate(288,168)"/>
<path d="M0 0 C5.28 0 10.56 0 16 0 C16 5.28 16 10.56 16 16 C10.72 16 5.44 16 0 16 C0 10.72 0 5.44 0 0 Z " fill="#000000" transform="translate(176,144)"/>
<path d="M0 0 C5.28 0 10.56 0 16 0 C16 5.28 16 10.56 16 16 C10.72 16 5.44 16 0 16 C0 10.72 0 5.44 0 0 Z " fill="#000000" transform="translate(296,80)"/>
<path d="M0 0 C5.28 0 10.56 0 16 0 C16 5.28 16 10.56 16 16 C10.72 16 5.44 16 0 16 C0 10.72 0 5.44 0 0 Z " fill="#000000" transform="translate(248,48)"/>
<path d="M0 0 C4.95 0 9.9 0 15 0 C14.34 6.27 13.68 12.54 13 19 C12.67 18.01 12.34 17.02 12 16 C6.06 16 0.12 16 -6 16 C-4.68 13.36 -3.36 10.72 -2 8 C-1.16053622 5.58383655 -1.16053622 5.58383655 -0.75 3.5 C-0.5025 2.345 -0.255 1.19 0 0 Z " fill="#E4D1B7" transform="translate(392,320)"/>
</svg>
