<?xml version="1.0" encoding="UTF-8"?>
<svg version="1.1" xmlns="http://www.w3.org/2000/svg" width="512" height="512">
<path d="M0 0 C10.15809321 7.75828478 18.71488797 17.62169166 20.625 30.6875 C20.8452337 34.10511996 20.91589412 37.51327604 20.9375 40.9375 C20.94313965 41.80165527 20.9487793 42.66581055 20.95458984 43.55615234 C20.90018846 48.31857839 20.45903717 52.21566436 18.625 56.6875 C19.35203125 56.64109375 20.0790625 56.5946875 20.828125 56.546875 C35.26782538 56.02852678 45.92477811 61.30438932 56.375 71 C67.05512194 82.28465714 69.04279053 94.19845054 68.73046875 109.1015625 C68.67826172 110.87660156 68.67826172 110.87660156 68.625 112.6875 C69.20765625 112.64109375 69.7903125 112.5946875 70.390625 112.546875 C82.14287621 112.02948029 91.65818465 116.2801308 100.625 123.6875 C101.24375 124.409375 101.8625 125.13125 102.5 125.875 C105.40465947 128.35250367 107.34895882 128.15348161 111.125 128.1875 C125.22831223 128.86047963 136.34866702 134.51934628 146.03125 144.75 C153.90340173 154.32006681 157.33244111 164.37278432 156.625 176.6875 C157.78515625 176.64109375 158.9453125 176.5946875 160.140625 176.546875 C175.63463595 176.10960438 188.01705224 179.02869093 199.87890625 189.71875 C209.76672337 200.07562865 214.02225049 212.39589387 213.99609375 226.47802734 C213.63320517 239.50875145 208.31790698 250.81118954 199.625 260.375 C194.625 264.6875 194.625 264.6875 180.625 271.6875 C200.425 272.1825 200.425 272.1825 220.625 272.6875 C220.625 278.1031949 220.25276591 282.47253387 219 287.625 C218.73485596 288.72654419 218.73485596 288.72654419 218.46435547 289.8503418 C213.11114885 311.14699229 203.58153807 333.2463506 184.625 345.6875 C176.97910131 350.15811543 169.67543256 352.93267311 160.71199703 352.94756222 C160.04964874 352.95136789 159.38730044 352.95517356 158.70488098 352.95909455 C156.49367947 352.96937046 154.28273657 352.96551165 152.07151794 352.96165466 C150.46677958 352.96610926 148.86204341 352.97142403 147.25731045 352.97752339 C142.8535237 352.99168751 138.44980758 352.99336698 134.04600132 352.99292648 C129.29392279 352.99457611 124.54187325 353.00764544 119.78981018 353.01911926 C109.40118665 353.04195801 99.01258356 353.0498888 88.62393832 353.05494571 C82.13429444 353.05820431 75.64465648 353.06472782 69.15501595 353.0719471 C51.17881047 353.09151227 33.2026105 353.10791673 15.2263937 353.11082363 C14.07629303 353.1110112 12.92619236 353.11119877 11.74124015 353.11139202 C9.40980566 353.11175827 7.07837116 353.11212197 4.74693667 353.11248314 C3.01099819 353.11275735 3.01099819 353.11275735 1.23999023 353.11303711 C-0.49807312 353.11330793 -0.49807312 353.11330793 -2.27124887 353.11358423 C-21.0401903 353.11712474 -39.80901691 353.14413982 -58.57791854 353.181535 C-77.85848547 353.21964142 -97.13899548 353.23898128 -116.4196009 353.23928314 C-127.24056673 353.23986722 -138.06139561 353.248327 -148.88232613 353.27728081 C-158.09786898 353.30182599 -167.31322495 353.30905643 -176.52879167 353.29403328 C-181.22730473 353.28687702 -185.92544901 353.28766628 -190.62392044 353.31044388 C-194.93299385 353.33113278 -199.24141728 353.32834182 -203.55048441 353.30756903 C-205.10166294 353.30409297 -206.65288933 353.3089035 -208.20400519 353.32327347 C-224.67208857 353.46589256 -237.35808444 349.00305163 -249.55078125 337.6640625 C-264.86527976 321.66561551 -275.375 294.74500456 -275.375 272.6875 C-254.585 272.1925 -254.585 272.1925 -233.375 271.6875 C-236.675 270.3675 -239.975 269.0475 -243.375 267.6875 C-254.96865536 260.70070769 -263.15803994 249.75039384 -266.93066406 236.77661133 C-269.72567712 223.63544281 -267.68219797 209.37856161 -260.6875 198 C-252.63285605 186.91231057 -242.8775649 179.76206095 -229.375 176.6875 C-226.22234505 176.46951918 -223.09559446 176.49633525 -219.9375 176.5625 C-219.11056641 176.57152344 -218.28363281 176.58054688 -217.43164062 176.58984375 C-215.41263292 176.61318488 -213.39377644 176.64904712 -211.375 176.6875 C-211.4164917 176.04329102 -211.4579834 175.39908203 -211.50073242 174.73535156 C-212.19024493 161.98546611 -206.71633187 152.21035361 -198.71875 142.72265625 C-191.97842678 135.45773241 -183.15197072 130.42501525 -173.375 128.6875 C-171.02138048 128.6069885 -168.66705613 128.5455231 -166.3125 128.5 C-159.72857828 128.1654656 -157.01513149 126.41648396 -152.5234375 121.7578125 C-146.07580564 115.54463998 -136.72739117 112.59948411 -127.9375 112.5625 C-126.41642704 112.59423625 -124.89540718 112.63243495 -123.375 112.6875 C-123.42140625 111.52734375 -123.4678125 110.3671875 -123.515625 109.171875 C-123.97910331 92.74747245 -120.44017378 81.20070028 -109.0625 68.9375 C-99.46712122 59.85615936 -88.6704684 56.23761985 -75.6484375 56.58203125 C-74.89820313 56.61683594 -74.14796875 56.65164062 -73.375 56.6875 C-73.69726562 55.89601562 -74.01953125 55.10453125 -74.3515625 54.2890625 C-77.51086035 43.17122809 -76.61446364 28.96609484 -71.375 18.6875 C-64.06654219 6.18714271 -54.76842661 -1.16118207 -41.375 -6.3125 C-27.60461136 -9.8541647 -11.80606633 -7.87071089 0 0 Z " fill="#FEC533" transform="translate(283.375,79.3125)"/>
<path d="M0 0 C1.42548871 0.9287533 2.84810422 1.86191727 4.26953125 2.796875 C5.06206299 3.31604492 5.85459473 3.83521484 6.67114258 4.37011719 C15.346912 10.44197343 21.76690847 19.5663296 24.53515625 29.8203125 C25.19003811 34.29992454 25.28396232 38.72718532 25.3125 43.25 C25.32095947 44.54623291 25.32095947 44.54623291 25.32958984 45.86865234 C25.27518846 50.63107839 24.83403717 54.52816436 23 59 C23.72703125 58.95359375 24.4540625 58.9071875 25.203125 58.859375 C39.64282538 58.34102678 50.29977811 63.61688932 60.75 73.3125 C71.43012194 84.59715714 73.41779053 96.51095054 73.10546875 111.4140625 C73.05326172 113.18910156 73.05326172 113.18910156 73 115 C73.58265625 114.95359375 74.1653125 114.9071875 74.765625 114.859375 C86.51787621 114.34198029 96.03318465 118.5926308 105 126 C105.61875 126.721875 106.2375 127.44375 106.875 128.1875 C109.77965947 130.66500367 111.72395882 130.46598161 115.5 130.5 C129.60331223 131.17297963 140.72366702 136.83184628 150.40625 147.0625 C158.27840173 156.63256681 161.70744111 166.68528432 161 179 C162.16015625 178.95359375 163.3203125 178.9071875 164.515625 178.859375 C180.00963595 178.42210438 192.39205224 181.34119093 204.25390625 192.03125 C214.14172337 202.38812865 218.39725049 214.70839387 218.37109375 228.79052734 C217.97881707 242.87652899 211.7924678 255.20087992 201.7109375 264.88671875 C194.16381676 270.76999298 185.13401188 275.12612288 175.52446461 275.12304783 C174.52904114 275.1247786 174.52904114 275.1247786 173.51350811 275.12654433 C171.27410204 275.12920607 169.03476684 275.12469245 166.79536438 275.12025452 C165.1799781 275.12069031 163.56459189 275.12156536 161.94920605 275.12284368 C157.49795977 275.12508707 153.04673739 275.12106946 148.59549415 275.11606562 C143.80000106 275.11175909 139.00450938 275.11320769 134.20901489 275.1139679 C125.89640799 275.114493 117.58380892 275.11134759 109.27120399 275.10573006 C97.2524774 275.09761326 85.2337546 275.09499965 73.21502557 275.09374207 C53.71683456 275.09155183 34.21864772 275.08489251 14.72045898 275.07543945 C-4.22355122 275.0662646 -23.16756029 275.05918412 -42.11157227 275.05493164 C-43.27869937 275.05466892 -44.44582647 275.05440619 -45.64832105 275.05413551 C-51.50328101 275.0528305 -57.35824096 275.05156678 -63.21320093 275.05032361 C-111.8088035 275.03995188 -160.40440155 275.02233433 -209 275 C-209 274.67 -209 274.34 -209 274 C-207.85724609 273.76216797 -207.85724609 273.76216797 -206.69140625 273.51953125 C-193.90863913 270.6310408 -183.82797315 264.91642131 -175.91796875 254.171875 C-171.72169363 247.42249776 -169.45050439 240.79128071 -168 233 C-166 234 -166 234 -165.10546875 236.66015625 C-164.80253906 237.78292969 -164.49960938 238.90570313 -164.1875 240.0625 C-162.70928356 245.13863947 -161.01067871 249.21088265 -157.953125 253.51171875 C-157 255 -157 255 -157 257 C-142.18577832 259.82175651 -128.02063011 258.0049912 -115.2734375 249.671875 C-105.76817475 242.6817505 -99.93664502 233.15361062 -96.5625 221.875 C-94.74768439 209.37293689 -96.00421802 196.86554634 -102.81640625 186 C-104.20444281 183.65453888 -105.28636966 181.64247119 -106 179 C-105.0234375 176.78125 -105.0234375 176.78125 -103.375 174.5 C-95.66909446 162.4992893 -94.35400995 149.40881475 -96.54296875 135.56640625 C-97.96781301 129.38683307 -100.17857272 123.67149849 -103 118 C-97.56165365 119.2880294 -93.76119066 122.149326 -89.3671875 125.44140625 C-86.40719934 127.4361136 -86.40719934 127.4361136 -83 128 C-69.36283756 120.66976414 -61.46025808 108.50083905 -57 94 C-54.79727687 82.76611206 -56.21230318 73.7089902 -60 63 C-60.33 62.01 -60.66 61.02 -61 60 C-53.20102021 61.89166744 -45.06094845 64.71012553 -39.40625 70.68359375 C-37.94827226 72.34234151 -37.94827226 72.34234151 -34.9375 72.0625 C-26.1913058 70.32802267 -18.40797439 63.81969462 -13 57 C-3.27619009 42.39647596 0.20455312 28.46160645 0.0625 11 C0.05573242 9.40865234 0.05573242 9.40865234 0.04882812 7.78515625 C0.03713843 5.19004402 0.02075276 2.59505291 0 0 Z " fill="#FEB000" transform="translate(279,77)"/>
<path d="M0 0 C2.43428939 1.26586206 4.85847251 2.54971572 7.28222656 3.83561707 C9.74316087 5.11348391 12.20721541 6.38518115 14.67150879 7.65655518 C16.19566069 8.44589662 17.71718904 9.24032991 19.23571777 10.04043579 C25.21922649 13.18758368 29.98475345 14.88968256 36.78222656 13.89811707 C41.98892023 12.17969205 46.9601615 9.99183641 51.96972656 7.77311707 C53.30306441 7.19609998 54.63704653 6.62056927 55.97167969 6.04655457 C57.29797321 5.47391957 58.62414546 4.9010036 59.95019531 4.32780457 C60.60551239 4.04459351 61.26082947 3.76138245 61.93600464 3.46958923 C65.15078321 2.07199781 68.34087721 0.64194065 71.50341797 -0.87043762 C78.67986961 -4.20071841 84.86749954 -7.0545294 92.78222656 -5.10188293 C99.2001034 -2.66275171 105.22768208 0.62343185 111.28222656 3.83561707 C113.74316087 5.11348391 116.20721541 6.38518115 118.67150879 7.65655518 C120.19566069 8.44589662 121.71718904 9.24032991 123.23571777 10.04043579 C129.21922649 13.18758368 133.98475345 14.88968256 140.78222656 13.89811707 C145.98892023 12.17969205 150.9601615 9.99183641 155.96972656 7.77311707 C157.30306441 7.19609998 158.63704653 6.62056927 159.97167969 6.04655457 C161.29797321 5.47391957 162.62414546 4.9010036 163.95019531 4.32780457 C164.60551239 4.04459351 165.26082947 3.76138245 165.93600464 3.46958923 C169.15078321 2.07199781 172.34087721 0.64194065 175.50341797 -0.87043762 C182.67986961 -4.20071841 188.86749954 -7.0545294 196.78222656 -5.10188293 C203.2001034 -2.66275171 209.22768208 0.62343185 215.28222656 3.83561707 C217.74316087 5.11348391 220.20721541 6.38518115 222.67150879 7.65655518 C224.19566069 8.44589662 225.71718904 9.24032991 227.23571777 10.04043579 C233.21922649 13.18758368 237.98475345 14.88968256 244.78222656 13.89811707 C249.98892023 12.17969205 254.9601615 9.99183641 259.96972656 7.77311707 C261.30306441 7.19609998 262.63704653 6.62056927 263.97167969 6.04655457 C265.29797321 5.47391957 266.62414546 4.9010036 267.95019531 4.32780457 C268.60551239 4.04459351 269.26082947 3.76138245 269.93600464 3.46958923 C273.15078321 2.07199781 276.34087721 0.64194065 279.50341797 -0.87043762 C292.94019285 -7.10586364 292.94019285 -7.10586364 300.78222656 -5.10188293 C307.38669188 -2.47450756 313.60734825 1.0124363 319.84472656 4.39811707 C323.17764704 6.2034357 326.52392389 7.97982716 329.87988281 9.74186707 C330.99750755 10.36526978 330.99750755 10.36526978 332.13771057 11.00126648 C339.04087451 14.62558707 345.06205852 14.98497832 352.54101562 12.79997253 C353.69827148 12.2935321 354.85552734 11.78709167 356.04785156 11.26530457 C356.68857605 10.99098602 357.32930054 10.71666748 357.98944092 10.43403625 C360.01146874 9.56379527 362.0215942 8.66932351 364.03222656 7.77311707 C365.36093019 7.19592795 366.6903554 6.62039701 368.02050781 6.04655457 C372.60557659 4.06217754 377.18197806 2.05820429 381.74456787 0.02262878 C383.63212704 -0.81915823 385.52329151 -1.6523733 387.41503906 -2.48469543 C388.50703613 -2.97083313 389.5990332 -3.45697083 390.72412109 -3.95783997 C396.95824884 -6.2900388 401.98297735 -6.23856756 408.12988281 -3.74250793 C411.08284236 -2.29193131 413.94489095 -0.76566089 416.78222656 0.89811707 C411.05273971 18.23053458 400.97453148 34.63512807 384.78222656 43.89811707 C374.60838104 48.59075191 365.44993615 49.6204613 354.38696289 49.53303528 C352.77617675 49.53880941 351.16539722 49.54675914 349.55463123 49.5566715 C345.16649426 49.57739095 340.77890652 49.56729826 336.39076853 49.55174041 C331.64356318 49.54036924 326.89644847 49.55791805 322.14926147 49.57164001 C312.86460317 49.5938157 303.58014753 49.58909656 294.29548144 49.57457681 C286.74633805 49.5632622 279.19725126 49.56176327 271.64810181 49.56719589 C270.03342395 49.56834514 270.03342395 49.56834514 268.38612634 49.56951761 C266.19899804 49.57111631 264.01186975 49.57273738 261.82474148 49.57438056 C241.33974984 49.58862146 220.85487027 49.57227139 200.36989701 49.54537873 C182.81164607 49.52304148 165.25356045 49.52692208 147.6953125 49.54997253 C127.28115844 49.57675986 106.86710249 49.58724832 86.45293331 49.57191122 C84.27407266 49.57031855 82.095212 49.5687467 79.91635132 49.56719589 C78.84444811 49.56642451 77.7725449 49.56565314 76.66815978 49.56485838 C69.132397 49.56055019 61.59669671 49.56780893 54.0609436 49.57959366 C44.871164 49.59364979 35.68159781 49.58975335 26.49184251 49.56318994 C21.80747506 49.55009362 17.12346279 49.5448276 12.43909836 49.5614357 C8.14322853 49.57643552 3.84804001 49.56798356 -0.44776881 49.54154794 C-1.99401579 49.53600516 -3.54032145 49.53870784 -5.08653009 49.55092688 C-21.53232441 49.6708277 -34.21815055 45.19758683 -46.39355469 33.87467957 C-52.30382813 27.70045217 -56.21670252 20.37884274 -60.21777344 12.89811707 C-57.44970907 9.45842872 -53.59498105 8.04505309 -49.65527344 6.32389832 C-48.90874512 5.99520248 -48.1622168 5.66650665 -47.39306641 5.32785034 C-45.81115745 4.63559006 -44.22744566 3.94743702 -42.64208984 3.2631073 C-40.24549071 2.22265022 -37.86290866 1.15390533 -35.47949219 0.08366394 C-21.61934283 -6.02259062 -13.72721337 -6.93604371 0 0 Z " fill="#ED5607" transform="translate(80.2177734375,383.1018829345703)"/>
<path d="M0 0 C163.68 0 327.36 0 496 0 C496 7.88388497 496 7.88388497 495.23046875 11.12109375 C494.98006836 12.18360352 494.98006836 12.18360352 494.72460938 13.26757812 C494.54736328 13.98365234 494.37011719 14.69972656 494.1875 15.4375 C494.02185547 16.14970703 493.85621094 16.86191406 493.68554688 17.59570312 C492.4888769 22.5675282 490.87221011 27.2416895 489 32 C485.8608586 31.028361 483.13435926 30.08124049 480.3125 28.375 C474.00461877 25.7566342 467.28313641 26.23210604 460.94335938 28.63647461 C459.23459975 29.37143067 457.53482161 30.1275556 455.84375 30.90234375 C454.93419556 31.29950089 454.02464111 31.69665802 453.08752441 32.10585022 C450.21632715 33.36436904 447.3583227 34.65004772 444.5 35.9375 C442.552912 36.79810123 440.60500088 37.65684273 438.65625 38.51367188 C434.39000735 40.39051771 430.13217173 42.28516122 425.88122559 44.19639587 C420.35778104 46.5558486 414.49876922 47.13694674 408.71829224 45.25854492 C406.45116186 44.20965753 404.27915058 43.0605712 402.09765625 41.84375 C401.29444443 41.42202515 400.4912326 41.00030029 399.66368103 40.5657959 C396.2641563 38.7807415 392.89041963 36.949399 389.51586914 35.11767578 C376.49188902 27.36516369 376.49188902 27.36516369 362 27 C355.97180813 29.01510571 350.21512549 31.61714267 344.4375 34.25 C342.88691187 34.94070031 341.33548295 35.6295163 339.78320312 36.31640625 C336.81932313 37.63031198 333.85600172 38.94544004 330.89404297 40.26367188 C330.22362976 40.56168701 329.55321655 40.85970215 328.86248779 41.16674805 C327.23744167 41.89377179 325.61841823 42.63422767 324.00048828 43.37695312 C317.58241491 46.18865689 312.17293708 47.47215645 305.39794922 45.08203125 C302.52037432 43.81698321 299.73303977 42.43700141 296.9375 41 C295.93106445 40.50395264 294.92462891 40.00790527 293.88769531 39.49682617 C289.32575768 37.23876157 284.80746504 34.91308837 280.33203125 32.48828125 C279.63408447 32.11767578 278.9361377 31.74707031 278.21704102 31.36523438 C276.38806351 30.38638977 274.5760349 29.3760554 272.765625 28.36328125 C265.5421337 25.29960242 258.93675914 26.40193855 251.84463501 29.20759583 C248.00914808 30.81702007 244.22222953 32.52530308 240.4375 34.25 C238.88691187 34.94070031 237.33548295 35.6295163 235.78320312 36.31640625 C232.81932313 37.63031198 229.85600172 38.94544004 226.89404297 40.26367188 C226.22362976 40.56168701 225.55321655 40.85970215 224.86248779 41.16674805 C223.23744167 41.89377179 221.61841823 42.63422767 220.00048828 43.37695312 C213.58241491 46.18865689 208.17293708 47.47215645 201.39794922 45.08203125 C198.52037432 43.81698321 195.73303977 42.43700141 192.9375 41 C191.42784668 40.25592896 191.42784668 40.25592896 189.88769531 39.49682617 C185.32575768 37.23876157 180.80746504 34.91308837 176.33203125 32.48828125 C175.63408447 32.11767578 174.9361377 31.74707031 174.21704102 31.36523438 C172.38806351 30.38638977 170.5760349 29.3760554 168.765625 28.36328125 C161.5421337 25.29960242 154.93675914 26.40193855 147.84463501 29.20759583 C144.00914808 30.81702007 140.22222953 32.52530308 136.4375 34.25 C134.88691187 34.94070031 133.33548295 35.6295163 131.78320312 36.31640625 C128.81932313 37.63031198 125.85600172 38.94544004 122.89404297 40.26367188 C122.22362976 40.56168701 121.55321655 40.85970215 120.86248779 41.16674805 C119.23744167 41.89377179 117.61841823 42.63422767 116.00048828 43.37695312 C109.58241491 46.18865689 104.17293708 47.47215645 97.39794922 45.08203125 C94.52037432 43.81698321 91.73303977 42.43700141 88.9375 41 C87.42784668 40.25592896 87.42784668 40.25592896 85.88769531 39.49682617 C81.32575768 37.23876157 76.80746504 34.91308837 72.33203125 32.48828125 C71.63408447 32.11767578 70.9361377 31.74707031 70.21704102 31.36523438 C68.38806351 30.38638977 66.5760349 29.3760554 64.765625 28.36328125 C57.2295004 25.19049832 50.64047456 26.51227428 43.27963257 29.46430969 C39.0902228 31.23703757 34.95036128 33.11076103 30.8125 35 C29.08090718 35.77269392 27.3484905 36.54354435 25.61523438 37.3125 C21.40034679 39.18719049 17.19742764 41.08655568 13 43 C9.82361373 40.0675276 8.52218097 36.87448746 7.0625 32.875 C6.80452637 32.17576416 6.54655273 31.47652832 6.28076172 30.75610352 C4.42321239 25.55392508 2.91317074 20.30775125 1.625 14.9375 C1.45750244 14.24833496 1.29000488 13.55916992 1.11743164 12.84912109 C0.09579814 8.32136465 0 4.78577787 0 0 Z " fill="#A9B944" transform="translate(8,352)"/>
<path d="M0 0 C8.25591585 -0.32395389 16.60410533 0.77368728 23.62109375 5.4765625 C26.79358831 10.29918006 24.36700545 19.12432378 23.34667969 24.59863281 C19.83752975 41.25188193 13.40191833 57.24973956 -1.21484375 67.24609375 C-5.30082052 69.48365245 -9.46205016 71.63100309 -14.21484375 71.24609375 C-16.5117168 69.77079452 -18.245025 68.09024316 -20.15234375 66.140625 C-23.37926914 63.17649846 -27.15131556 61.76051051 -31.21484375 60.24609375 C-30.70824219 61.28056641 -30.70824219 61.28056641 -30.19140625 62.3359375 C-23.3290785 76.79442574 -21.61767344 91.96071666 -26.91796875 107.3046875 C-28.62381976 111.1736809 -30.76459385 114.60404175 -33.23828125 118.02734375 C-34.48865731 120.24361862 -34.48865731 120.24361862 -33.56640625 122.70703125 C-32.18232367 125.30718639 -30.72476222 127.84198031 -29.21484375 130.37109375 C-23.25105132 141.23683265 -22.49857161 154.00957764 -25.83984375 165.87109375 C-30.29687943 178.88501675 -37.83149875 188.94747311 -50.27734375 195.18359375 C-60.20553167 199.87568256 -68.18646647 200.79816985 -79.21484375 200.24609375 C-80.32666016 200.19582031 -80.32666016 200.19582031 -81.4609375 200.14453125 C-84.42024487 199.6831693 -86.01539044 198.49446061 -87.85546875 196.203125 C-93.57030102 187.25636088 -95.64533616 178.75252684 -96.21484375 168.24609375 C-95.4465625 167.86839844 -94.67828125 167.49070312 -93.88671875 167.1015625 C-88.79049594 163.56251888 -87.0970581 156.89730204 -85.6796875 151.03125 C-85.40170938 149.11672464 -85.30834406 147.17843349 -85.21484375 145.24609375 C-85.08722656 144.06080078 -85.08722656 144.06080078 -84.95703125 142.8515625 C-84.51733804 136.62894766 -85.91209662 133.53588427 -89.6171875 128.61328125 C-96.24780426 118.78894444 -97.49216256 106.49334905 -95.71875 95.04296875 C-92.76770251 82.03835267 -85.63609746 71.37678346 -74.52734375 63.80859375 C-73.10182818 62.93457298 -71.66546435 62.07778289 -70.21484375 61.24609375 C-69.22484375 60.66859375 -68.23484375 60.09109375 -67.21484375 59.49609375 C-60.8835149 56.85804006 -55.05915645 56.13798188 -48.21484375 56.24609375 C-48.26705078 54.93898438 -48.26705078 54.93898438 -48.3203125 53.60546875 C-48.67020483 38.21020618 -45.31354834 25.51718149 -34.71484375 13.99609375 C-24.75018329 4.59998749 -13.40627328 1.02623963 0 0 Z " fill="#FEC533" transform="translate(304.21484375,135.75390625)"/>
<path d="M0 0 C-0.81404297 1.30710938 -0.81404297 1.30710938 -1.64453125 2.640625 C-9.7103925 15.92413718 -12.96402497 28.11949715 -9.8125 43.625 C-7.93690922 51.10069594 -4.65203507 56.92801236 0 63 C-1.18458849 65.3987917 -2.40689015 67.7705962 -3.65625 70.13671875 C-9.08526265 80.50862917 -11.3257171 88.29296208 -10.875 100.08203125 C-11.00436705 103.1019433 -11.52854462 104.42625296 -13 107 C-13.57446808 108.70434605 -14.13599411 110.41308579 -14.6875 112.125 C-19.0852501 124.23894898 -27.87513745 134.34718113 -39.5625 139.9375 C-53.14717726 145.42434736 -67.1994703 146.08616811 -80.87890625 140.54296875 C-85.52337087 138.24689425 -89.26102687 135.57263583 -93 132 C-93.69738281 131.34257812 -94.39476562 130.68515625 -95.11328125 130.0078125 C-105.26126772 119.57315974 -108.29424209 107.79252002 -108.31689453 93.78198242 C-108.11764939 80.1410696 -103.00498522 70.21845141 -93.875 60.3125 C-85.52238863 52.24207144 -74.56977195 47.72966002 -62.98632812 47.82421875 C-62.18646484 47.84097656 -61.38660156 47.85773438 -60.5625 47.875 C-59.32209961 47.88853516 -59.32209961 47.88853516 -58.05664062 47.90234375 C-56.03763292 47.92568488 -54.01877644 47.96154712 -52 48 C-52.0414917 47.35579102 -52.0829834 46.71158203 -52.12573242 46.04785156 C-52.81524493 33.29796611 -47.34133187 23.52285361 -39.34375 14.03515625 C-28.39058579 2.2295052 -15.54890217 -0.60492847 0 0 Z " fill="#FEB000" transform="translate(124,208)"/>
<path d="M0 0 C0.7425 -0.01224609 1.485 -0.02449219 2.25 -0.03710938 C6.71232034 -0.04893531 10.57120078 0.11899248 14.625 2.1875 C22.42872001 13.50956386 23.72882986 27.84495654 22.625 41.1875 C21.07885225 49.05001269 18.28890714 55.48199818 13.6015625 61.96875 C12.35118644 64.18502487 12.35118644 64.18502487 13.2734375 66.6484375 C14.65752008 69.24859264 16.11508153 71.78338656 17.625 74.3125 C23.58879243 85.1782389 24.34127214 97.95098389 21 109.8125 C16.54296432 122.826423 9.008345 132.88887936 -3.4375 139.125 C-13.36568792 143.81708881 -21.34662272 144.7395761 -32.375 144.1875 C-33.48681641 144.13722656 -33.48681641 144.13722656 -34.62109375 144.0859375 C-37.58040112 143.62457555 -39.17554669 142.43586686 -41.015625 140.14453125 C-46.73045727 131.19776713 -48.80549241 122.69393309 -49.375 112.1875 C-48.60671875 111.80980469 -47.8384375 111.43210937 -47.046875 111.04296875 C-43.82417335 108.80498149 -43.05242096 107.11953172 -41.625 103.5 C-41.01398438 102.00919922 -41.01398438 102.00919922 -40.390625 100.48828125 C-35.81542988 85.61889712 -37.3113396 67.47118557 -43.22265625 53.26171875 C-44.74984069 50.51278676 -46.46635277 49.31864059 -49.375 48.1875 C-48.81915875 33.81900364 -43.8573709 21.78998207 -33.3515625 11.81640625 C-27.07969143 6.64769037 -20.18728947 3.30016194 -12.375 1.1875 C-11.75399414 1.01476562 -11.13298828 0.84203125 -10.49316406 0.6640625 C-7.0314371 -0.11478617 -3.5306961 0.00303324 0 0 Z " fill="#FEC533" transform="translate(353.375,191.8125)"/>
<path d="M0 0 C1.62797238 0.86193511 3.25557286 1.72457298 4.8828125 2.58789062 C7.34374681 3.86575747 9.80780135 5.13745471 12.27209473 6.40882874 C13.79624663 7.19817018 15.31777498 7.99260347 16.83630371 8.79270935 C22.81981243 11.93985724 27.58533939 13.64195612 34.3828125 12.65039062 C39.58950617 10.93196561 44.56074744 8.74410997 49.5703125 6.52539062 C50.90365035 5.94837354 52.23763247 5.37284283 53.57226562 4.79882812 C54.89855915 4.22619313 56.22473139 3.65327715 57.55078125 3.08007812 C58.20609833 2.79686707 58.86141541 2.51365601 59.53659058 2.22186279 C62.75136914 0.82427137 65.94146315 -0.60578579 69.10400391 -2.11816406 C76.28045554 -5.44844485 82.46808548 -8.30225584 90.3828125 -6.34960938 C96.80068934 -3.91047815 102.82826801 -0.62429459 108.8828125 2.58789062 C111.34374681 3.86575747 113.80780135 5.13745471 116.27209473 6.40882874 C117.79624663 7.19817018 119.31777498 7.99260347 120.83630371 8.79270935 C126.81981243 11.93985724 131.58533939 13.64195612 138.3828125 12.65039062 C143.58950617 10.93196561 148.56074744 8.74410997 153.5703125 6.52539062 C154.90365035 5.94837354 156.23763247 5.37284283 157.57226562 4.79882812 C158.89855915 4.22619313 160.22473139 3.65327715 161.55078125 3.08007812 C162.20609833 2.79686707 162.86141541 2.51365601 163.53659058 2.22186279 C166.75136914 0.82427137 169.94146315 -0.60578579 173.10400391 -2.11816406 C180.28045554 -5.44844485 186.46808548 -8.30225584 194.3828125 -6.34960938 C200.80068934 -3.91047815 206.82826801 -0.62429459 212.8828125 2.58789062 C215.34374681 3.86575747 217.80780135 5.13745471 220.27209473 6.40882874 C221.79624663 7.19817018 223.31777498 7.99260347 224.83630371 8.79270935 C230.81981243 11.93985724 235.58533939 13.64195612 242.3828125 12.65039062 C247.58950617 10.93196561 252.56074744 8.74410997 257.5703125 6.52539062 C258.90365035 5.94837354 260.23763247 5.37284283 261.57226562 4.79882812 C262.89855915 4.22619313 264.22473139 3.65327715 265.55078125 3.08007812 C266.20609833 2.79686707 266.86141541 2.51365601 267.53659058 2.22186279 C270.75136914 0.82427137 273.94146315 -0.60578579 277.10400391 -2.11816406 C284.90432369 -5.73795507 291.75099335 -8.75403358 300.22619629 -5.68127441 C304.54841138 -3.89717963 308.69598167 -1.80419855 312.82958984 0.37646484 C315.02781482 1.53594105 317.24014953 2.66377865 319.45703125 3.78710938 C320.8628774 4.50801665 322.26785976 5.23061148 323.671875 5.95507812 C324.33216705 6.29473602 324.99245911 6.63439392 325.67276001 6.98434448 C330.26470684 9.4141793 330.26470684 9.4141793 331.3828125 11.65039062 C316.66374393 21.61234578 305.4074179 23.78905939 287.87008667 23.8379364 C286.39077782 23.84554011 284.91147097 23.85354207 283.43216622 23.86190635 C279.38007285 23.8834934 275.32797668 23.89886387 271.27585149 23.91304672 C267.79744434 23.92599029 264.31905776 23.94252906 260.84066592 23.95902397 C227.89550928 24.11460545 194.94987466 24.18996397 162.00442314 24.25064373 C157.7212102 24.25867212 153.43799756 24.26684053 149.15478516 24.27514648 C148.09024294 24.27720409 147.02570073 24.27926169 145.92889966 24.28138164 C128.66118092 24.31584602 111.39383171 24.38854691 94.12630914 24.47605409 C76.39614139 24.56516272 58.66616579 24.6165585 40.93577874 24.63194591 C30.98115892 24.6416103 21.02720705 24.66843474 11.07281113 24.73825645 C2.6013329 24.79765419 -5.8693885 24.82348902 -14.34107007 24.8049176 C-18.66442 24.79651122 -22.98613597 24.80445731 -27.30922318 24.85590363 C-31.26631806 24.90262864 -35.22063892 24.90330449 -39.17781995 24.86716685 C-40.60975718 24.86224057 -42.04187302 24.87428221 -43.47349133 24.90490123 C-47.70485494 24.99001465 -51.56897351 24.94161078 -55.6171875 23.65039062 C-59.34386963 19.87429339 -60.96531651 15.6060036 -62.6171875 10.65039062 C-54.36887538 6.43836787 -46.04679607 2.47154196 -37.5546875 -1.22460938 C-36.46091797 -1.7221875 -35.36714844 -2.21976562 -34.24023438 -2.73242188 C-20.54605219 -8.66303736 -12.78428609 -6.64172789 0 0 Z " fill="#F68608" transform="translate(82.6171875,384.349609375)"/>
<path d="M0 0 C1.42548871 0.9287533 2.84810422 1.86191727 4.26953125 2.796875 C5.06206299 3.31604492 5.85459473 3.83521484 6.67114258 4.37011719 C15.34071179 10.43763413 21.78341517 19.5689066 24.53125 29.82421875 C25.18915626 34.28153369 25.32361551 38.68605579 25.375 43.1875 C25.38901855 44.04327637 25.40303711 44.89905273 25.41748047 45.78076172 C25.37631938 51.21085938 24.87007633 55.31985394 22 60 C19.57421875 60.875 19.57421875 60.875 16.6875 61 C5.99239681 62.23006635 -3.75607448 67.40739938 -11.03125 75.34765625 C-20.15520923 87.63965688 -22.19072774 100.02846312 -23 115 C-24.02738281 115.14695312 -25.05476563 115.29390625 -26.11328125 115.4453125 C-40.73647243 117.72852681 -52.72994527 123.24524303 -61.8515625 135.484375 C-66.88390357 143.46670911 -69.143667 151.29300301 -70.1796875 160.6171875 C-71.2986327 163.86745689 -73.08517791 164.30992997 -76 166 C-81.21364374 174.3170031 -82.51237138 184.46950122 -84 194 C-84.46148437 193.62488281 -84.92296875 193.24976563 -85.3984375 192.86328125 C-94.3267804 185.76928871 -94.3267804 185.76928871 -105 183 C-105.66796875 181.27734375 -105.66796875 181.27734375 -106 179 C-104.92578125 176.87890625 -104.92578125 176.87890625 -103.3125 174.5625 C-95.74178613 162.45641675 -94.34807581 149.44634076 -96.54296875 135.56640625 C-97.96781301 129.38683307 -100.17857272 123.67149849 -103 118 C-97.56165365 119.2880294 -93.76119066 122.149326 -89.3671875 125.44140625 C-86.40719934 127.4361136 -86.40719934 127.4361136 -83 128 C-69.36283756 120.66976414 -61.46025808 108.50083905 -57 94 C-54.79727687 82.76611206 -56.21230318 73.7089902 -60 63 C-60.33 62.01 -60.66 61.02 -61 60 C-53.20102021 61.89166744 -45.06094845 64.71012553 -39.40625 70.68359375 C-37.94827226 72.34234151 -37.94827226 72.34234151 -34.9375 72.0625 C-26.1913058 70.32802267 -18.40797439 63.81969462 -13 57 C-3.27619009 42.39647596 0.20455312 28.46160645 0.0625 11 C0.05798828 9.93910156 0.05347656 8.87820312 0.04882812 7.78515625 C0.03713843 5.19004402 0.02075276 2.59505291 0 0 Z " fill="#FEB000" transform="translate(279,77)"/>
<path d="M0 0 C0.76828125 -0.01611328 1.5365625 -0.03222656 2.328125 -0.04882812 C7.50748819 -0.05323235 11.42712339 0.64077012 16 3.3125 C21.46069432 10.31492041 24.3109494 18.53023686 25 27.3125 C25.08121094 28.26769531 25.16242188 29.22289062 25.24609375 30.20703125 C25.85325496 44.2453343 20.3388641 56.72551687 11 67 C0.46406173 77.05460099 -12.50579632 80.75444007 -26.71484375 80.49609375 C-31.72188736 80.21627086 -35.28352348 79.87752271 -39.125 76.375 C-47.14668798 63.27290964 -49.13140672 49.74901948 -46.31640625 34.64453125 C-42.75991476 23.23719547 -35.27815529 12.74762588 -25 6.484375 C-16.70820237 2.21409922 -9.30797328 -0.03904351 0 0 Z " fill="#FEC533" transform="translate(63,255.6875)"/>
<path d="M0 0 C-0.66 0.33 -1.32 0.66 -2 1 C-1.51789063 1.81082031 -1.03578125 2.62164062 -0.5390625 3.45703125 C3.49361225 10.52655698 6.35536056 16.78377731 7 25 C7.08121094 25.95519531 7.16242188 26.91039062 7.24609375 27.89453125 C7.85325496 41.9328343 2.3388641 54.41301687 -7 64.6875 C-16.33014855 73.59139811 -28.30865414 77.96295022 -41 78.3125 C-52.6368361 78.00201878 -52.6368361 78.00201878 -56 75 C-63.64926397 63.45767127 -66.57510158 50.78228625 -64.5703125 37.05859375 C-61.87242857 24.2852791 -54.94527211 13.45069843 -44.17578125 6.0625 C-30.62967539 -2.26289157 -15.3521294 -5.1038205 0 0 Z " fill="#FEC533" transform="translate(465,258)"/>
<path d="M0 0 C7.11494428 2.1991646 13.61027493 5.78232484 18.359375 11.69140625 C20.89873137 13.71684526 23.24118375 13.37692321 26.4375 13.4375 C40.56261089 14.20848957 51.69568148 19.80227666 61.40625 30.0625 C69.617965 40.04536922 72.65615848 50.21706077 72 63 C71.26136719 63.20753906 70.52273438 63.41507812 69.76171875 63.62890625 C56.69957409 67.59568208 46.36566446 74.04925906 39.24609375 85.92578125 C36.09487339 91.90170998 34.29800832 97.40179103 33 104 C32.01 104.495 32.01 104.495 31 105 C30.79246094 104.04480469 30.58492188 103.08960938 30.37109375 102.10546875 C27.35867648 89.12021402 22.11263053 78.96074991 11 71 C4.88150489 67.25115839 4.88150489 67.25115839 -2 66 C-2.66796875 64.27734375 -2.66796875 64.27734375 -3 62 C-1.92578125 59.87890625 -1.92578125 59.87890625 -0.3125 57.5625 C7.7525873 44.70347969 8.58941055 31.24586063 5.75 16.5625 C4.48107102 11.20142686 2.67447482 6.79561002 0 2 C0 1.34 0 0.68 0 0 Z " fill="#F9AC11" transform="translate(368,194)"/>
<path d="M0 0 C8.13219422 0.18071543 14.36636219 4.73472066 20.2734375 10.04296875 C30.13795723 20.41772226 34.39725392 32.70654492 34.37109375 46.79052734 C33.97881707 60.87652899 27.7924678 73.20087992 17.7109375 82.88671875 C5.47228011 92.42722833 -6.98118208 93.87986566 -22 93 C-25.8922134 92.40656836 -29.35217164 91.4642243 -33 90 C-33.68707031 89.74476563 -34.37414062 89.48953125 -35.08203125 89.2265625 C-41.32437647 86.54247718 -48.92975515 81.1404897 -52 75 C-50.71802734 75.23783203 -50.71802734 75.23783203 -49.41015625 75.48046875 C-34.65550817 77.72831319 -21.07725567 74.88155571 -9 66 C0.04240923 58.96336154 6.35361461 47.34176599 8 36 C8.89986522 24.5183863 7.17496485 13.54367568 0.98828125 3.70703125 C0 2 0 2 0 0 Z " fill="#FEB103" transform="translate(463,259)"/>
<path d="M0 0 C23.76 0 47.52 0 72 0 C72 7.88388497 72 7.88388497 71.23046875 11.12109375 C70.98006836 12.18360352 70.98006836 12.18360352 70.72460938 13.26757812 C70.54736328 13.98365234 70.37011719 14.69972656 70.1875 15.4375 C70.02185547 16.14970703 69.85621094 16.86191406 69.68554688 17.59570312 C68.4888769 22.5675282 66.87221011 27.2416895 65 32 C61.8608586 31.028361 59.13435926 30.08124049 56.3125 28.375 C50.00461877 25.7566342 43.28313641 26.23210604 36.94335938 28.63647461 C35.23459975 29.37143067 33.53482161 30.1275556 31.84375 30.90234375 C30.93419556 31.29950089 30.02464111 31.69665802 29.08752441 32.10585022 C26.21632715 33.36436904 23.3583227 34.65004772 20.5 35.9375 C18.552912 36.79810123 16.60500088 37.65684273 14.65625 38.51367188 C10.39000735 40.39051771 6.13217173 42.28516122 1.88122559 44.19639587 C-1.52890632 45.65310372 -4.25784336 46.15983341 -7.9375 46.1875 C-8.79214844 46.20167969 -9.64679688 46.21585937 -10.52734375 46.23046875 C-13.13909303 45.98703556 -14.75500652 45.3178268 -17 44 C-15.61133907 40.93677737 -13.9421928 38.66280878 -11.75 36.125 C-3.06304146 24.98973373 -1.67519929 14.23919397 0 0 Z " fill="#808B33" transform="translate(432,352)"/>
<path d="M0 0 C-0.81404297 1.30710938 -0.81404297 1.30710938 -1.64453125 2.640625 C-9.7103925 15.92413718 -12.96402497 28.11949715 -9.8125 43.625 C-7.93690922 51.10069594 -4.65203507 56.92801236 0 63 C-1.18458849 65.3987917 -2.40689015 67.7705962 -3.65625 70.13671875 C-7.05761613 76.6467817 -9.86228409 82.66805302 -11 90 C-11.66 90 -12.32 90 -13 90 C-13.15855469 89.23816406 -13.31710938 88.47632813 -13.48046875 87.69140625 C-16.50877151 74.28991172 -22.95323519 63.19433783 -34.8125 55.625 C-40.25375898 52.60874306 -46.04627158 50.73906157 -52 49 C-52.99817505 34.91464095 -48.29711754 24.65672199 -39.34375 14.03515625 C-28.39058579 2.2295052 -15.54890217 -0.60492847 0 0 Z " fill="#F9AC12" transform="translate(124,208)"/>
<path d="M0 0 C10.96631577 3.38958851 18.7611582 10.43740841 25 20 C32.65329099 34.87924085 33.66312683 48.17096861 28.72412109 64.05371094 C26.94730158 68.82943757 24.04927699 72.95713837 21 77 C17.71573807 76.3969165 15.82295553 75.28732941 13.25 73.1875 C8.72032186 69.67382443 3.89329366 66 -2 66 C-2.66796875 64.27734375 -2.66796875 64.27734375 -3 62 C-1.92578125 59.87890625 -1.92578125 59.87890625 -0.3125 57.5625 C7.7525873 44.70347969 8.58941055 31.24586063 5.75 16.5625 C4.48107102 11.20142686 2.67447482 6.79561002 0 2 C0 1.34 0 0.68 0 0 Z " fill="#FEB000" transform="translate(368,194)"/>
<path d="M0 0 C3.85802849 0.96450712 4.92010991 1.88130615 7.1875 5.25 C13.76821034 18.11953433 14.26662043 37.21737781 10 51 C6.68356067 61.19878467 6.68356067 61.19878467 2 64 C-0.9375 64.1875 -0.9375 64.1875 -4 63 C-11.13526616 54.7504594 -12.39554334 44.02536785 -12.28125 33.49609375 C-11.88577214 29.9862277 -10.40741068 28.53754099 -8 26 C-3.1671702 17.61828623 -0.82660722 9.59299428 0 0 Z " fill="#BF8400" transform="translate(304,240)"/>
<path d="M0 0 C0.66 0.33 1.32 0.66 2 1 C2.64982691 2.95834202 3.21951255 4.94351867 3.75 6.9375 C7.58592372 19.86074118 14.54560579 28.9333759 26.22265625 35.64453125 C30.97038688 37.96163748 35.93785342 39.52136612 41 41 C41 41.33 41 41.66 41 42 C13.94 42 -13.12 42 -41 42 C-41 41.67 -41 41.34 -41 41 C-40.23816406 40.84144531 -39.47632812 40.68289063 -38.69140625 40.51953125 C-25.90863913 37.6310408 -15.82797315 31.91642131 -7.91796875 21.171875 C-3.72169363 14.42249776 -1.45050439 7.79128071 0 0 Z " fill="#BF8400" transform="translate(111,310)"/>
<path d="M0 0 C0.66 0 1.32 0 2 0 C2.21914063 0.82242187 2.43828125 1.64484375 2.6640625 2.4921875 C6.7363384 16.82792297 13.1644013 27.13955575 26.22265625 34.64453125 C30.97038688 36.96163748 35.93785342 38.52136612 41 40 C41 40.33 41 40.66 41 41 C13.94 41 -13.12 41 -41 41 C-41 40.67 -41 40.34 -41 40 C-40.26136719 39.85304688 -39.52273438 39.70609375 -38.76171875 39.5546875 C-26.69291676 36.88636279 -16.66939782 31.95144087 -9 22 C-4.84931367 15.07160771 -1.43953119 7.99739548 0 0 Z " fill="#BF8400" transform="translate(303,311)"/>
<path d="M0 0 C0.66 0 1.32 0 2 0 C2.21914062 0.82242187 2.43828125 1.64484375 2.6640625 2.4921875 C6.7363384 16.82792297 13.1644013 27.13955575 26.22265625 34.64453125 C30.97038688 36.96163748 35.93785342 38.52136612 41 40 C41 40.33 41 40.66 41 41 C13.94 41 -13.12 41 -41 41 C-41 40.67 -41 40.34 -41 40 C-40.26136719 39.85304688 -39.52273437 39.70609375 -38.76171875 39.5546875 C-26.69291676 36.88636279 -16.66939782 31.95144087 -9 22 C-4.84931367 15.07160771 -1.43953119 7.99739548 0 0 Z " fill="#BF8400" transform="translate(207,311)"/>
<path d="M0 0 C1.58911347 2.99004245 2.69285673 5.97434086 3.75 9.1875 C7.8110811 20.44163988 15.00582642 29.38658472 25.66015625 34.94140625 C28.6942733 36.31410361 31.76649946 37.37693882 34.95703125 38.32421875 C37 39 37 39 41 41 C14.27 41 -12.46 41 -40 41 C-40 40.67 -40 40.34 -40 40 C-39.16597656 39.78085937 -38.33195312 39.56171875 -37.47265625 39.3359375 C-29.99631995 37.22920356 -24.15248618 34.72469403 -18 30 C-17.13375 29.4225 -16.2675 28.845 -15.375 28.25 C-8.8195473 22.03957112 -4.88996917 14.45207063 -2 6 C-1.38125 4.205625 -1.38125 4.205625 -0.75 2.375 C-0.5025 1.59125 -0.255 0.8075 0 0 Z " fill="#BF8400" transform="translate(400,311)"/>
<path d="M0 0 C0.13535156 0.92039063 0.27070313 1.84078125 0.41015625 2.7890625 C2.08458514 12.63510542 4.68687458 23.68687458 12 31 C13.29118091 40.87373638 10.85936209 52.34525379 6 61 C2.62582057 64 2.62582057 64 0 64 C-0.13535156 62.99582031 -0.27070313 61.99164063 -0.41015625 60.95703125 C-1.95588985 50.74992423 -4.41776285 40.58223715 -12 33 C-13.41257181 22.3849383 -10.87710144 10.91156925 -5 2 C-2 0 -2 0 0 0 Z " fill="#C08500" transform="translate(208,240)"/>
<path d="M0 0 C2.09890255 1.06256942 3.40508904 2.11414123 4.875 3.94921875 C4.74024826 6.64425353 4.24887634 8.35541516 2.8125 10.63671875 C-3.11591549 14.65274215 -11.2354852 14.64449089 -18.125 13.94921875 C-21.64104982 12.63070007 -25.01959509 11.16924979 -27.125 7.94921875 C-27.125 5.51171875 -27.125 5.51171875 -26.125 2.94921875 C-18.70070325 -4.08432554 -9.14799393 -3.17825524 0 0 Z " fill="#ABBA44" transform="translate(459.125,274.05078125)"/>
<path d="M0 0 C2.09890255 1.06256942 3.40508904 2.11414123 4.875 3.94921875 C4.74024826 6.64425353 4.24887634 8.35541516 2.8125 10.63671875 C-3.11591549 14.65274215 -11.2354852 14.64449089 -18.125 13.94921875 C-21.64104982 12.63070007 -25.01959509 11.16924979 -27.125 7.94921875 C-27.125 5.51171875 -27.125 5.51171875 -26.125 2.94921875 C-18.70070325 -4.08432554 -9.14799393 -3.17825524 0 0 Z " fill="#ABBA44" transform="translate(363.125,274.05078125)"/>
<path d="M0 0 C2.09890255 1.06256942 3.40508904 2.11414123 4.875 3.94921875 C4.74024826 6.64425353 4.24887634 8.35541516 2.8125 10.63671875 C-3.11591549 14.65274215 -11.2354852 14.64449089 -18.125 13.94921875 C-21.64104982 12.63070007 -25.01959509 11.16924979 -27.125 7.94921875 C-27.125 5.51171875 -27.125 5.51171875 -26.125 2.94921875 C-18.70070325 -4.08432554 -9.14799393 -3.17825524 0 0 Z " fill="#ABBA44" transform="translate(267.125,274.05078125)"/>
<path d="M0 0 C2.09890255 1.06256942 3.40508904 2.11414123 4.875 3.94921875 C4.74024826 6.64425353 4.24887634 8.35541516 2.8125 10.63671875 C-3.11591549 14.65274215 -11.2354852 14.64449089 -18.125 13.94921875 C-21.64104982 12.63070007 -25.01959509 11.16924979 -27.125 7.94921875 C-27.125 5.51171875 -27.125 5.51171875 -26.125 2.94921875 C-18.70070325 -4.08432554 -9.14799393 -3.17825524 0 0 Z " fill="#ABBA44" transform="translate(171.125,274.05078125)"/>
<path d="M0 0 C2.09890255 1.06256942 3.40508904 2.11414123 4.875 3.94921875 C4.74024826 6.64425353 4.24887634 8.35541516 2.8125 10.63671875 C-3.11591549 14.65274215 -11.2354852 14.64449089 -18.125 13.94921875 C-21.64104982 12.63070007 -25.01959509 11.16924979 -27.125 7.94921875 C-27.125 5.51171875 -27.125 5.51171875 -26.125 2.94921875 C-18.70070325 -4.08432554 -9.14799393 -3.17825524 0 0 Z " fill="#ABBA44" transform="translate(75.125,274.05078125)"/>
<path d="M0 0 C2.09890255 1.06256942 3.40508904 2.11414123 4.875 3.94921875 C4.74024826 6.64425353 4.24887634 8.35541516 2.8125 10.63671875 C-3.11591549 14.65274215 -11.2354852 14.64449089 -18.125 13.94921875 C-21.64104982 12.63070007 -25.01959509 11.16924979 -27.125 7.94921875 C-27.125 5.51171875 -27.125 5.51171875 -26.125 2.94921875 C-18.70070325 -4.08432554 -9.14799393 -3.17825524 0 0 Z " fill="#ABBA44" transform="translate(363.125,210.05078125)"/>
<path d="M0 0 C2.09890255 1.06256942 3.40508904 2.11414123 4.875 3.94921875 C4.74024826 6.64425353 4.24887634 8.35541516 2.8125 10.63671875 C-3.11591549 14.65274215 -11.2354852 14.64449089 -18.125 13.94921875 C-21.64104982 12.63070007 -25.01959509 11.16924979 -27.125 7.94921875 C-27.125 5.51171875 -27.125 5.51171875 -26.125 2.94921875 C-18.70070325 -4.08432554 -9.14799393 -3.17825524 0 0 Z " fill="#ABBA44" transform="translate(267.125,210.05078125)"/>
<path d="M0 0 C2.09890255 1.06256942 3.40508904 2.11414123 4.875 3.94921875 C4.74024826 6.64425353 4.24887634 8.35541516 2.8125 10.63671875 C-3.11591549 14.65274215 -11.2354852 14.64449089 -18.125 13.94921875 C-21.64104982 12.63070007 -25.01959509 11.16924979 -27.125 7.94921875 C-27.125 5.51171875 -27.125 5.51171875 -26.125 2.94921875 C-18.70070325 -4.08432554 -9.14799393 -3.17825524 0 0 Z " fill="#ABBA44" transform="translate(171.125,210.05078125)"/>
<path d="M0 0 C2.09890255 1.06256942 3.40508904 2.11414123 4.875 3.94921875 C4.74024826 6.64425353 4.24887634 8.35541516 2.8125 10.63671875 C-3.11591549 14.65274215 -11.2354852 14.64449089 -18.125 13.94921875 C-21.64104982 12.63070007 -25.01959509 11.16924979 -27.125 7.94921875 C-27.125 5.51171875 -27.125 5.51171875 -26.125 2.94921875 C-18.70070325 -4.08432554 -9.14799393 -3.17825524 0 0 Z " fill="#ABBA44" transform="translate(315.125,154.05078125)"/>
<path d="M0 0 C2.09890255 1.06256942 3.40508904 2.11414123 4.875 3.94921875 C4.74024826 6.64425353 4.24887634 8.35541516 2.8125 10.63671875 C-3.11591549 14.65274215 -11.2354852 14.64449089 -18.125 13.94921875 C-21.64104982 12.63070007 -25.01959509 11.16924979 -27.125 7.94921875 C-27.125 5.51171875 -27.125 5.51171875 -26.125 2.94921875 C-18.70070325 -4.08432554 -9.14799393 -3.17825524 0 0 Z " fill="#ABBA44" transform="translate(219.125,154.05078125)"/>
<path d="M0 0 C2.09890255 1.06256942 3.40508904 2.11414123 4.875 3.94921875 C4.74024826 6.64425353 4.24887634 8.35541516 2.8125 10.63671875 C-3.11591549 14.65274215 -11.2354852 14.64449089 -18.125 13.94921875 C-21.64104982 12.63070007 -25.01959509 11.16924979 -27.125 7.94921875 C-27.125 5.51171875 -27.125 5.51171875 -26.125 2.94921875 C-18.70070325 -4.08432554 -9.14799393 -3.17825524 0 0 Z " fill="#ABBA44" transform="translate(267.125,90.05078125)"/>
<path d="M0 0 C1.71295352 9.89706476 -3.18709245 17.72721112 -8 26 C-8.66 26.66 -9.32 27.32 -10 28 C-10.99 28 -11.98 28 -13 28 C-13.77775093 18.25218839 -12.44880568 9.42537278 -6.078125 1.65625 C-4 0 -4 0 0 0 Z " fill="#FFDC81" transform="translate(237,95)"/>
</svg>
