<?xml version="1.0" encoding="UTF-8"?>
<svg version="1.1" xmlns="http://www.w3.org/2000/svg" width="512" height="512">
<path d="M0 0 C2.51613793 0.37724125 5.03241156 0.75357843 7.54881287 1.12905884 C12.79187357 1.91383663 18.03374059 2.70595949 23.2746582 3.50488281 C29.31618235 4.42579787 35.35933923 5.33527104 41.40358216 6.23815858 C47.25517289 7.11230303 53.105917 7.9919916 58.95622063 8.8747139 C61.43156041 9.24806756 63.9070499 9.62043012 66.38269234 9.9917717 C69.83603377 10.51105407 73.2883688 11.0365643 76.74047852 11.56396484 C77.75615906 11.71573685 78.7718396 11.86750885 79.81829834 12.02388 C93.53258769 14.13805644 93.53258769 14.13805644 96.74609375 17.3515625 C99.20064441 17.56180117 101.55093561 17.65319845 104.0078125 17.66015625 C105.52303735 17.68273865 107.03825528 17.7057882 108.5534668 17.72924805 C109.34989594 17.73838226 110.14632507 17.74751648 110.96688843 17.75692749 C166.9086293 18.48570866 218.15451313 35.66134846 262.62109375 69.953125 C267.2463027 73.50297287 269.33934577 74.53837233 275.12109375 74.6640625 C282.33645461 75.09794834 282.33645461 75.09794834 284.99609375 77.7890625 C287.754404 81.82801679 287.754404 81.82801679 287.7109375 84.56640625 C287.64921244 90.71245894 288.7455162 93.9925122 292.99609375 98.4765625 C293.89972656 99.3840625 294.80335938 100.2915625 295.734375 101.2265625 C317.90320375 123.59300049 333.86952332 154.83063662 343.74609375 184.3515625 C344.02533691 185.18494141 344.30458008 186.01832031 344.59228516 186.87695312 C347.58747605 195.98064106 350.07363498 205.14922459 351.99609375 214.5390625 C352.14723633 215.27326416 352.29837891 216.00746582 352.45410156 216.76391602 C355.40376933 232.14313749 356.12110642 247.35357776 356.05859375 262.9765625 C356.0564386 263.94711578 356.05428345 264.91766907 356.05206299 265.91763306 C356.00102715 280.24587148 355.65367813 294.27342032 352.74609375 308.3515625 C352.54741699 309.33463379 352.34874023 310.31770508 352.14404297 311.33056641 C340.62331318 366.72499673 310.7039189 419.28072794 265.74609375 454.3515625 C264.76253906 455.14046875 263.77898437 455.929375 262.765625 456.7421875 C232.75104689 480.61774231 196.93276996 497.01260994 159.37109375 504.6640625 C158.64857422 504.81133789 157.92605469 504.95861328 157.18164062 505.11035156 C141.85050743 508.00442489 126.68837184 508.72635226 111.12109375 508.6640625 C110.15054047 508.66190735 109.17998718 508.6597522 108.18002319 508.65753174 C93.84833404 508.60648361 79.82918665 508.24631852 65.74609375 505.3515625 C64.28743896 505.06152344 64.28743896 505.06152344 62.79931641 504.765625 C7.475139 493.45823911 -45.29047543 463.1717052 -80.25390625 418.3515625 C-81.0428125 417.36800781 -81.83171875 416.38445312 -82.64453125 415.37109375 C-100.74995856 392.61295517 -114.04212451 366.89121397 -123.25390625 339.3515625 C-123.5163916 338.56845703 -123.77887695 337.78535156 -124.04931641 336.97851562 C-126.70699719 328.88540273 -128.72114261 320.69174773 -130.44140625 312.3515625 C-130.67404175 311.23249512 -130.67404175 311.23249512 -130.91137695 310.09082031 C-133.91417179 294.66283683 -134.62914392 279.40577941 -134.56640625 263.7265625 C-134.5642511 262.75600922 -134.56209595 261.78545593 -134.55987549 260.78549194 C-134.50883965 246.45725352 -134.16149063 232.42970468 -131.25390625 218.3515625 C-131.05522949 217.36849121 -130.85655273 216.38541992 -130.65185547 215.37255859 C-119.50217436 161.76221924 -90.57395418 107.7033819 -46.203125 74.15625 C-45.55988281 73.56070313 -44.91664062 72.96515625 -44.25390625 72.3515625 C-44.25390625 71.3615625 -44.25390625 70.3715625 -44.25390625 69.3515625 C-45.657604 68.22175699 -47.06305221 67.0940671 -48.4765625 65.9765625 C-57.96350688 57.30278478 -64.43813043 43.40785351 -65.46875 30.703125 C-65.81207694 20.89770762 -63.68498774 13.00535773 -57.359375 5.3984375 C-41.83762716 -9.69135075 -19.09149674 -2.9244837 0 0 Z " fill="#2DA1DB" transform="translate(145.25390625,3.6484375)"/>
<path d="M0 0 C50.82 0 101.64 0 154 0 C154 112.53 154 225.06 154 341 C105.49 341 56.98 341 7 341 C10.27547873 337.72452127 13.56886407 334.94755054 17.25 332.1875 C38.96751042 315.64920039 54.95505584 293.80787958 64 268 C64.45117188 266.76121094 64.90234375 265.52242188 65.3671875 264.24609375 C69.99944598 250.96548971 74.56436465 233.02858307 72 219 C70.45267923 217.02920562 69.55463512 216.1105205 67.06911945 215.61523914 C66.33445045 215.61063018 65.59978144 215.60602121 64.84284973 215.60127258 C63.99731033 215.58873444 63.15177094 215.57619629 62.28060913 215.5632782 C61.35632111 215.56471329 60.43203308 215.56614838 59.47973633 215.56762695 C58.50394119 215.5574353 57.52814606 215.54724365 56.52278137 215.53674316 C53.2924737 215.50651174 50.06246205 215.49733163 46.83203125 215.48828125 C44.59428412 215.47144211 42.3565465 215.45329292 40.11882019 215.43388367 C34.22517872 215.38629461 28.33157577 215.3565428 22.43780518 215.33044434 C16.42525625 215.30068375 10.41284017 215.254138 4.40039062 215.20898438 C-7.39967022 215.12284991 -19.19975833 215.05554973 -31 215 C-30.74482854 212.99186389 -30.48965708 210.98372777 -30.23448563 208.97559166 C-28.43641893 193.82649436 -30.53415107 181.30192039 -40 169 C-49.16538561 158.83160992 -61.81688264 153.99643869 -75.2734375 152.6796875 C-94.70377776 152.01274218 -112.52322132 159.14816586 -127 172 C-127.61101562 172.52980469 -128.22203125 173.05960938 -128.8515625 173.60546875 C-140.88409658 184.76339132 -145.56015804 199.14102724 -148 215 C-160.87 215 -173.74 215 -187 215 C-190.61009186 205.97477035 -190.5285566 194.12543269 -187.375 184.875 C-181.46728902 171.51035314 -172.53449238 162.51341631 -159 157 C-151.59915207 154.2911261 -144.8504089 153.59001733 -137 154 C-137.0825 152.865625 -137.165 151.73125 -137.25 150.5625 C-137.20852803 142.72429682 -133.26651716 136.49957421 -128.08203125 130.86328125 C-124.44487191 127.60826248 -120.29475577 125.28131896 -116 123 C-116.32613281 122.30777344 -116.65226562 121.61554688 -116.98828125 120.90234375 C-119.58983536 115.07762526 -121.37331454 109.67677295 -122.4375 103.375 C-123.50300889 97.46353258 -125.14400473 93.35293582 -128.44921875 88.3828125 C-134.66568808 78.83105862 -139.85681868 65.56475111 -138 54 C-135.31418312 44.87612208 -135.31418312 44.87612208 -131 42 C-124.37988808 41.08716469 -120.66029156 43.49502329 -115.3125 46.9375 C-113.52755293 48.04721154 -111.74238395 49.15656618 -109.95703125 50.265625 C-108.99877441 50.86826172 -108.04051758 51.47089844 -107.05322266 52.09179688 C-102.15558905 55.15271997 -97.20819636 58.13138975 -92.26571655 61.11907959 C-89.27863171 62.9265398 -86.29565793 64.74075595 -83.3125 66.5546875 C-82.09635658 67.29394929 -80.88021074 68.03320709 -79.6640625 68.77246094 C-77.83169586 69.88641769 -75.99934403 71.0003988 -74.16699219 72.11437988 C-70.53815172 74.32047296 -66.90892911 76.52593542 -63.27941895 78.73092651 C-61.5135752 79.80424867 -59.74844411 80.87873521 -57.98339844 81.95336914 C-52.70168328 85.16634263 -47.41014939 88.35928183 -42.078125 91.48828125 C-41.17126953 92.02283936 -40.26441406 92.55739746 -39.33007812 93.1081543 C-37.68723687 94.07399199 -36.04048707 95.03323402 -34.38867188 95.98364258 C-24.82725352 101.61413861 -18.54266242 107.37201273 -15 118 C-14.46475285 125.04055861 -14.59081902 130.74983486 -18 137 C-16.700625 136.95875 -15.40125 136.9175 -14.0625 136.875 C-8.91147763 136.71147548 -5.43596724 137.79200728 0 139 C0 93.13 0 47.26 0 0 Z " fill="#FD3744" transform="translate(268,104)"/>
<path d="M0 0 C8.37018127 7.0920997 14.51523434 15.96710522 16.234375 26.9609375 C16.45047486 29.83727656 16.52501044 32.70200196 16.546875 35.5859375 C16.55533447 36.64276733 16.55533447 36.64276733 16.56396484 37.72094727 C16.49465135 42.75322433 15.47733614 47.08484637 14.234375 51.9609375 C15.47830017 51.95205505 16.72222534 51.94317261 18.00384521 51.934021 C29.71659994 51.85299611 41.42929793 51.79300129 53.14226913 51.75368881 C59.16430068 51.73279852 65.1861063 51.70445408 71.20800781 51.65917969 C77.01758297 51.6157741 82.82694058 51.59181126 88.63666534 51.58142853 C90.85509924 51.5740277 93.073521 51.55957593 95.29186249 51.53801727 C98.39503371 51.50905416 101.49730168 51.5049786 104.60058594 51.50683594 C105.52127869 51.49245483 106.44197144 51.47807373 107.39056396 51.46325684 C113.61098047 51.50364339 113.61098047 51.50364339 116.80548096 53.84698486 C121.91176027 61.40138169 117.46793917 77.44120832 115.87255859 86.02685547 C110.50150186 110.7205662 98.96442826 134.29205445 81.4609375 152.59375 C79.19965729 154.92417644 79.19965729 154.92417644 77.2578125 157.5 C73.54994022 162.0095744 68.81144249 165.37334983 64.234375 168.9609375 C63.70086426 169.38052734 63.16735352 169.80011719 62.61767578 170.23242188 C61.01779457 171.48471128 59.40944018 172.72503717 57.796875 173.9609375 C56.82878906 174.7034375 55.86070312 175.4459375 54.86328125 176.2109375 C52.234375 177.9609375 52.234375 177.9609375 48.234375 178.9609375 C48.234375 182.5909375 48.234375 186.2209375 48.234375 189.9609375 C1.044375 189.9609375 -46.145625 189.9609375 -94.765625 189.9609375 C-95.095625 186.6609375 -95.425625 183.3609375 -95.765625 179.9609375 C-98.28663425 177.58416509 -100.08440076 176.22833552 -103.015625 174.5859375 C-104.48715628 173.67005485 -105.9532385 172.74536578 -107.4140625 171.8125 C-108.14850586 171.34618164 -108.88294922 170.87986328 -109.63964844 170.39941406 C-123.51215578 161.01300923 -134.83251393 146.88751175 -143.765625 132.9609375 C-144.44496094 131.90519531 -145.12429687 130.84945312 -145.82421875 129.76171875 C-157.74087758 110.13291425 -164.86484512 86.70486873 -165.015625 63.7109375 C-165.03625 62.90914063 -165.056875 62.10734375 -165.078125 61.28125 C-165.11690381 55.48381737 -165.11690381 55.48381737 -163.60490417 53.23320007 C-161.01167137 51.43941418 -159.14731713 51.60028702 -156.0090332 51.62036133 C-154.82803543 51.62058792 -153.64703766 51.62081451 -152.43025208 51.62104797 C-151.15518295 51.63653183 -149.88011383 51.65201569 -148.56640625 51.66796875 C-147.26108444 51.67221359 -145.95576263 51.67645844 -144.61088562 51.68083191 C-141.14357221 51.69227661 -137.67663687 51.72173996 -134.20947266 51.75494385 C-130.67029942 51.78565317 -127.13106499 51.79933905 -123.59179688 51.81445312 C-116.64958445 51.84661045 -109.70762289 51.89780196 -102.765625 51.9609375 C-102.77718124 51.04065262 -102.77718124 51.04065262 -102.78897095 50.10177612 C-102.79496307 49.29459137 -102.8009552 48.48740662 -102.80712891 47.65576172 C-102.81868515 46.45703934 -102.81868515 46.45703934 -102.83047485 45.23410034 C-102.41251556 30.58349616 -91.69649629 17.68229674 -81.765625 7.9609375 C-59.63194364 -12.62853353 -25.22658978 -18.59926535 0 0 Z " fill="#D9E9FB" transform="translate(222.765625,267.0390625)"/>
<path d="M0 0 C6.03273473 4.48587967 10.37468593 10.117319 15 16 C15.79664063 16.99257812 16.59328125 17.98515625 17.4140625 19.0078125 C34.69176031 40.89289639 48.14992405 65.54725124 57 92 C57.27924316 92.83337891 57.55848633 93.66675781 57.84619141 94.52539062 C60.8413823 103.62907856 63.32754123 112.79766209 65.25 122.1875 C65.40114258 122.92170166 65.55228516 123.65590332 65.70800781 124.41235352 C68.65767558 139.79157499 69.37501267 155.00201526 69.3125 170.625 C69.30926727 172.08082993 69.30926727 172.08082993 69.30596924 173.56607056 C69.2549334 187.89430898 68.90758438 201.92185782 66 216 C65.80132324 216.98307129 65.60264648 217.96614258 65.39794922 218.97900391 C55.03787899 268.79270487 29.95236657 316.53470985 -8 351 C-8.33 351 -8.66 351 -9 351 C-9 237.81 -9 124.62 -9 8 C-6.69 6.68 -4.38 5.36 -2 4 C-0.5337314 1.91548164 -0.5337314 1.91548164 0 0 Z " fill="#2CA1DC" transform="translate(432,96)"/>
<path d="M0 0 C3.09565178 1.33625803 5.85685389 3.11535843 8.6875 4.9375 C10.47244707 6.04721154 12.25761605 7.15656618 14.04296875 8.265625 C15.00122559 8.86826172 15.95948242 9.47089844 16.94677734 10.09179688 C21.84441095 13.15271997 26.79180364 16.13138975 31.73428345 19.11907959 C34.72136829 20.9265398 37.70434207 22.74075595 40.6875 24.5546875 C41.90364342 25.29394929 43.11978926 26.03320709 44.3359375 26.77246094 C46.16830414 27.88641769 48.00065597 29.0003988 49.83300781 30.11437988 C53.46184828 32.32047296 57.09107089 34.52593542 60.72058105 36.73092651 C62.4864248 37.80424867 64.25155589 38.87873521 66.01660156 39.95336914 C71.29831672 43.16634263 76.58985061 46.35928183 81.921875 49.48828125 C82.82873047 50.02283936 83.73558594 50.55739746 84.66992188 51.1081543 C86.31276313 52.07399199 87.95951293 53.03323402 89.61132812 53.98364258 C99.17274648 59.61413861 105.45733758 65.37201273 109 76 C109.53524715 83.04055861 109.40918098 88.74983486 106 95 C106.61488281 94.98839844 107.22976562 94.97679687 107.86328125 94.96484375 C108.67152344 94.95582031 109.47976562 94.94679688 110.3125 94.9375 C111.51326172 94.92009766 111.51326172 94.92009766 112.73828125 94.90234375 C115 95 115 95 118 96 C119.78977967 96.14961007 121.58194339 96.27183784 123.375 96.375 C128.89958487 96.83477391 132.05497931 98.05497931 136 102 C136.125 105.125 136.125 105.125 136 108 C136.886875 107.896875 137.77375 107.79375 138.6875 107.6875 C148.14153536 107.70667654 157.77140427 113.2797333 165 119 C165.61359375 119.47695313 166.2271875 119.95390625 166.859375 120.4453125 C173.01925091 125.86927403 178.73112518 135.76014626 180 144 C180.12106092 146.57606366 180.19049077 149.1118466 180.1875 151.6875 C180.18669434 152.40067383 180.18588867 153.11384766 180.18505859 153.84863281 C180.10401155 160.83774828 179.17448976 166.65102048 176 173 C148.61 173 121.22 173 93 173 C93.33 170.36 93.66 167.72 94 165 C95.02465855 150.31012244 93.20718368 138.96575622 84 127 C74.83461439 116.83160992 62.18311736 111.99643869 48.7265625 110.6796875 C29.29622224 110.01274218 11.47677868 117.14816586 -3 130 C-3.61101562 130.52980469 -4.22203125 131.05960938 -4.8515625 131.60546875 C-16.88409658 142.76339132 -21.56015804 157.14102724 -24 173 C-36.87 173 -49.74 173 -63 173 C-66.61009186 163.97477035 -66.5285566 152.12543269 -63.375 142.875 C-57.46728902 129.51035314 -48.53449238 120.51341631 -35 115 C-27.59915207 112.2911261 -20.8504089 111.59001733 -13 112 C-13.0825 110.865625 -13.165 109.73125 -13.25 108.5625 C-13.20852803 100.72429682 -9.26651716 94.49957421 -4.08203125 88.86328125 C-0.44487191 85.60826248 3.70524423 83.28131896 8 81 C7.67386719 80.30777344 7.34773438 79.61554688 7.01171875 78.90234375 C4.41016464 73.07762526 2.62668546 67.67677295 1.5625 61.375 C0.49699111 55.46353258 -1.14400473 51.35293582 -4.44921875 46.3828125 C-10.66568808 36.83105862 -15.85681868 23.56475111 -14 12 C-11.58012316 3.77953603 -9.52574089 -1.07128393 0 0 Z " fill="#FEAF10" transform="translate(144,146)"/>
<path d="M0 0 C0 67.98 0 135.96 0 206 C-48.51 206 -97.02 206 -147 206 C-143.72452127 202.72452127 -140.43113593 199.94755054 -136.75 197.1875 C-115.03248958 180.64920039 -99.04494416 158.80787958 -90 133 C-89.54882812 131.76121094 -89.09765625 130.52242187 -88.6328125 129.24609375 C-84.00055402 115.96548971 -79.43563535 98.02858307 -82 84 C-83.53790404 82.0636966 -84.46468497 81.12174688 -86.90112305 80.56762695 C-87.59761963 80.54144287 -88.29411621 80.51525879 -89.01171875 80.48828125 C-90.14770508 80.43510742 -90.14770508 80.43510742 -91.30664062 80.38085938 C-92.09232422 80.35830078 -92.87800781 80.33574219 -93.6875 80.3125 C-94.48478516 80.27833984 -95.28207031 80.24417969 -96.10351562 80.20898438 C-98.06851904 80.12661896 -100.03423696 80.06162933 -102 80 C-101.65582031 79.17113281 -101.31164062 78.34226562 -100.95703125 77.48828125 C-99.77309421 74.00055547 -99.77309421 74.00055547 -100.38671875 70.29296875 C-100.89292975 65.34261176 -100.67079932 61.31808058 -98 57 C-90.66161512 50.59492592 -81.47007205 46.3998832 -72.84521484 41.99609375 C-67.32651061 39.16284494 -62.01669095 35.98382887 -56.6875 32.8125 C-54.73947265 31.67374072 -52.790256 30.53701344 -50.83984375 29.40234375 C-49.88190918 28.84401855 -48.92397461 28.28569336 -47.93701172 27.71044922 C-44.91853832 25.95255856 -41.89881361 24.19683218 -38.87890625 22.44140625 C-36.83578987 21.25285791 -34.79281993 20.0640578 -32.75 18.875 C-31.76596191 18.30225342 -30.78192383 17.72950684 -29.76806641 17.1394043 C-22.12814965 12.68204699 -14.53647828 8.14753271 -6.97753906 3.55419922 C-6.20249023 3.0851416 -5.42744141 2.61608398 -4.62890625 2.1328125 C-3.94900635 1.71918457 -3.26910645 1.30555664 -2.56860352 0.87939453 C-1 0 -1 0 0 0 Z " fill="#EA2A3D" transform="translate(422,239)"/>
<path d="M0 0 C0.33 0 0.66 0 1 0 C1.32057325 43.61903191 1.56719988 87.23793895 1.71491461 130.85791703 C1.73242412 136.00977213 1.75054467 141.16162492 1.76904297 146.31347656 C1.77271531 147.33910032 1.77638766 148.36472408 1.78017129 149.42142734 C1.84105969 166.0197216 1.95142586 182.61733576 2.08013915 199.2152268 C2.21114684 216.25130925 2.2888407 233.28703598 2.31723893 250.32360148 C2.33643193 260.83318376 2.39700238 271.3408437 2.51083054 281.84983405 C2.58494277 289.06023255 2.60717831 296.26964009 2.58901928 303.48039165 C2.58006637 307.63904289 2.59359584 311.79434085 2.66887665 315.95239258 C3.12083255 342.18576687 3.12083255 342.18576687 -2.06058884 348.56189728 C-5.37239118 351.7669185 -8.93640886 353.86059663 -13 356 C-14.56982156 357.17799565 -16.12301732 358.37961787 -17.63671875 359.62890625 C-18.98019274 360.61607391 -20.33044506 361.59408675 -21.6875 362.5625 C-22.43749268 363.09858887 -23.18748535 363.63467773 -23.96020508 364.18701172 C-32.30993957 370.05392428 -40.99461192 375.20905019 -50 380 C-51.28438965 380.68425049 -51.28438965 380.68425049 -52.59472656 381.38232422 C-87.82562042 399.83752476 -125.99585659 408.47106915 -165.625 408.3125 C-166.59555328 408.31034485 -167.56610657 408.3081897 -168.56607056 408.30596924 C-182.89775971 408.25492111 -196.9169071 407.89475602 -211 405 C-211.97243652 404.80664062 -212.94487305 404.61328125 -213.94677734 404.4140625 C-253.22342679 396.38653724 -289.87591039 379.2856397 -321 354 C-321 353.67 -321 353.34 -321 353 C-264.9 353 -208.8 353 -151 353 C-151 349.37 -151 345.74 -151 342 C-105.97951084 319.48975542 -50.33443707 341 0 341 C0 228.47 0 115.94 0 0 Z " fill="#2AB282" transform="translate(422,104)"/>
<path d="M0 0 C3.56263367 3.08227857 6.87870347 6.09637087 9.49609375 10.04296875 C9.49609375 10.70296875 9.49609375 11.36296875 9.49609375 12.04296875 C10.20785357 12.03835979 10.9196134 12.03375082 11.6529417 12.02900219 C28.97092665 11.91858469 46.28882219 11.83584234 63.60708141 11.78390789 C71.98207935 11.75812523 80.35684233 11.72297376 88.73168945 11.66577148 C96.0311514 11.61593812 103.33044318 11.58367818 110.63007051 11.57252628 C114.49533133 11.56600729 118.36010537 11.55068539 122.22521019 11.51431847 C125.86390618 11.48035947 129.50191529 11.46991522 133.1407547 11.47743034 C135.11154951 11.47540066 137.08226964 11.44850479 139.0528717 11.42086792 C148.68631528 11.47715104 148.68631528 11.47715104 151.76655579 14.45344543 C154.99741095 19.29079215 155.13917469 23.29928692 154.49609375 29.04296875 C152.44552121 33.14411383 150.76886876 35.42075484 146.49609375 37.04296875 C143.55197525 37.28906441 143.55197525 37.28906441 140.05474854 37.28347778 C139.41021312 37.28518663 138.7656777 37.28689548 138.1016109 37.28865612 C135.94425471 37.29194751 133.7872103 37.28095335 131.62988281 37.27001953 C130.08251452 37.26945534 128.53514569 37.26977213 126.98777771 37.27090454 C122.78768844 37.27147875 118.58771323 37.25971343 114.38765049 37.24575663 C109.9980839 37.23326062 105.60851474 37.23207966 101.21893311 37.22970581 C92.90691355 37.22348772 84.59494656 37.20707244 76.28295016 37.18700683 C66.81992512 37.16465807 57.35689757 37.15365697 47.89385271 37.14361596 C28.42790325 37.12270651 8.96200272 37.08752413 -10.50390625 37.04296875 C-10.47947952 37.62877213 -10.4550528 38.2145755 -10.42988586 38.81813049 C-10.18590526 44.93341981 -10.02039493 51.04732267 -9.8996582 57.16625977 C-9.84444644 59.44710455 -9.76945439 61.72756181 -9.67407227 64.00708008 C-8.90087659 82.96484567 -8.90087659 82.96484567 -12.82691956 88.05445862 C-15.71025847 89.91490604 -18.2362181 91.03036752 -21.50390625 92.04296875 C-23.16254402 92.77292256 -24.81819603 93.50975943 -26.46875 94.2578125 C-44.15104139 100.68277725 -60.50732248 101.70022 -77.9765625 93.9453125 C-89.25773463 88.2370007 -96.66919857 79.44434111 -101.31640625 67.79296875 C-105.55868555 54.39629727 -103.72321881 41.43252303 -97.75390625 28.85546875 C-94.86855606 23.41087675 -91.57498066 18.66077836 -87.50390625 14.04296875 C-86.859375 13.30433594 -86.21484375 12.56570312 -85.55078125 11.8046875 C-64.28949003 -10.99214142 -26.18792489 -20.4682533 0 0 Z " fill="#FED682" transform="translate(278.50390625,66.95703125)"/>
<path d="M0 0 C2.51613793 0.37724125 5.03241156 0.75357843 7.54881287 1.12905884 C12.79187357 1.91383663 18.03374059 2.70595949 23.2746582 3.50488281 C29.31618235 4.42579787 35.35933923 5.33527104 41.40358216 6.23815858 C47.25517289 7.11230303 53.105917 7.9919916 58.95622063 8.8747139 C61.43156041 9.24806756 63.9070499 9.62043012 66.38269234 9.9917717 C69.83603377 10.51105407 73.2883688 11.0365643 76.74047852 11.56396484 C77.75615906 11.71573685 78.7718396 11.86750885 79.81829834 12.02388 C93.17251614 14.0825483 93.17251614 14.0825483 96.68359375 16.9140625 C98.38709615 20.82209742 98.54333698 24.16930294 97.74609375 28.3515625 C92.43789914 40.69970315 81.82471727 49.03452442 69.67138672 54.24023438 C66.87250279 55.34222732 64.06002298 56.38453422 61.21508789 57.36157227 C55.65238681 59.27280899 51.4232475 61.54211775 47.18359375 65.6015625 C31.31232813 79.71266896 11.80210202 83.47596073 -8.78076172 82.53808594 C-22.87241175 81.47530009 -40.8556162 75.28218245 -50.25390625 64.3515625 C-60.23498721 51.9643281 -66.66473662 38.43957982 -65.25390625 22.3515625 C-63.82659552 13.69686923 -59.84681324 6.66904919 -52.6796875 1.4921875 C-36.83126654 -8.2250925 -17.38141798 -2.66252952 0 0 Z " fill="#FECF0D" transform="translate(145.25390625,3.6484375)"/>
<path d="M0 0 C3.68387776 2.36820713 6.8675669 4.94557768 10 8 C10.56976563 8.54269531 11.13953125 9.08539063 11.7265625 9.64453125 C21.15883333 19.58469359 24.52388312 32.57007295 24.25 45.921875 C23.11021853 59.95543434 17.28878792 71.47927089 7 81 C-5.37868396 90.70622446 -18.59275248 93.64243343 -34 92 C-47.17808523 89.46632946 -58.13976682 81.73518228 -66 71 C-73.53758768 58.60988806 -76.05723156 45.93905164 -73.34765625 31.53125 C-69.63074624 18.13123109 -61.96714325 7.32996015 -49.9375 0.1796875 C-33.58138157 -8.28460379 -16.33225278 -8.8585622 0 0 Z " fill="#FECF0D" transform="translate(370,147)"/>
<path d="M0 0 C3.09565178 1.33625803 5.85685389 3.11535843 8.6875 4.9375 C10.47244707 6.04721154 12.25761605 7.15656618 14.04296875 8.265625 C15.00122559 8.86826172 15.95948242 9.47089844 16.94677734 10.09179688 C21.84441095 13.15271997 26.79180364 16.13138975 31.73428345 19.11907959 C34.72136829 20.9265398 37.70434207 22.74075595 40.6875 24.5546875 C41.90364342 25.29394929 43.11978926 26.03320709 44.3359375 26.77246094 C46.16830414 27.88641769 48.00065597 29.0003988 49.83300781 30.11437988 C53.46184828 32.32047296 57.09107089 34.52593542 60.72058105 36.73092651 C62.4864248 37.80424867 64.25155589 38.87873521 66.01660156 39.95336914 C71.29831672 43.16634263 76.58985061 46.35928183 81.921875 49.48828125 C83.2821582 50.29011841 83.2821582 50.29011841 84.66992188 51.1081543 C86.31276313 52.07399199 87.95951293 53.03323402 89.61132812 53.98364258 C99.17274648 59.61413861 105.45733758 65.37201273 109 76 C109.49890335 82.6488466 109.77650061 88.33524909 106 94 C100.60313159 94.1427743 95.57254694 93.60901694 90.25 92.75 C88.45972047 92.47080823 86.66935098 92.19219291 84.87890625 91.9140625 C83.9264502 91.76485352 82.97399414 91.61564453 81.99267578 91.46191406 C78.92295642 90.98810846 75.85093329 90.53392162 72.77734375 90.0859375 C71.70331299 89.92931641 70.62928223 89.77269531 69.52270508 89.61132812 C68.4220874 89.45083984 67.32146973 89.29035156 66.1875 89.125 C58.7132876 88.03486482 51.25250787 86.88971223 43.8046875 85.6328125 C42.41773011 85.40084602 41.03076724 85.16891227 39.64379883 84.93701172 C36.99563632 84.49370906 34.35069131 84.03781649 31.70581055 83.57470703 C24.05647659 82.29031712 16.75484727 81.70969723 9 82 C4.90866657 74.4148807 2.13102551 67.07803276 0.55078125 58.5859375 C-0.37066736 53.66590913 -1.85574459 50.29939008 -4.63671875 46.1484375 C-10.70490732 36.58538961 -15.84580882 23.49617883 -14 12 C-11.58012316 3.77953603 -9.52574089 -1.07128393 0 0 Z " fill="#FECF0D" transform="translate(144,146)"/>
<path d="M0 0 C8.37018127 7.0920997 14.51523434 15.96710522 16.234375 26.9609375 C16.45047486 29.83727656 16.52501044 32.70200196 16.546875 35.5859375 C16.55251465 36.29049072 16.5581543 36.99504395 16.56396484 37.72094727 C16.49168956 42.96825549 15.5930178 46.52636628 14.234375 51.9609375 C-24.375625 51.9609375 -62.985625 51.9609375 -102.765625 51.9609375 C-102.765625 35.36414704 -96.0152752 22.43133642 -84.54296875 10.6796875 C-61.98171867 -11.40558684 -26.95801765 -19.87582657 0 0 Z " fill="#FEE68C" transform="translate(222.765625,267.0390625)"/>
<path d="M0 0 C0.66465448 -0.00523668 1.32930896 -0.01047336 2.01410449 -0.01586872 C4.24576113 -0.03089477 6.47718902 -0.03157443 8.70889282 -0.03224182 C10.3071176 -0.03986156 11.9053387 -0.04828874 13.5035553 -0.0574646 C17.84862316 -0.07943457 22.19362064 -0.08821182 26.53873777 -0.09329104 C29.25262636 -0.0969316 31.96649642 -0.10317007 34.68037796 -0.11029243 C44.14610862 -0.13479539 53.61178441 -0.1478407 63.07754517 -0.15138245 C71.90439008 -0.15501863 80.73088746 -0.18491767 89.55762613 -0.22678703 C97.13308577 -0.26146275 104.70843008 -0.27693041 112.28396857 -0.27762848 C116.80975158 -0.27842222 121.33518071 -0.28720478 125.86088181 -0.31562614 C130.11768226 -0.34176051 134.37383427 -0.3440383 138.63067818 -0.3279705 C140.19277546 -0.32615231 141.75490963 -0.33288027 143.31692696 -0.34878922 C145.45058011 -0.36919489 147.58195261 -0.35873489 149.71557617 -0.34057617 C150.9090888 -0.3425875 152.10260143 -0.34459883 153.33228111 -0.3466711 C157.40266086 0.45491626 158.87959419 2.12447778 161.48477173 5.27415466 C163.33984012 8.98429144 162.93811872 13.22508289 162.48477173 17.27415466 C160.4339407 21.37581672 158.75821448 23.65300945 154.48477173 25.27415466 C151.49215031 25.53421688 151.49215031 25.53421688 147.92521667 25.54830933 C147.26787487 25.553546 146.61053307 25.55878268 145.93327183 25.56417805 C143.73235918 25.57917052 141.53167918 25.57988302 139.33071899 25.58055115 C137.75205086 25.58817304 136.17338644 25.59660059 134.59472656 25.60577393 C130.30756719 25.6277202 126.02047913 25.63651774 121.73326993 25.64160037 C119.05505543 25.64524314 116.37685964 25.65148272 113.69865227 25.65860176 C104.35611016 25.68309463 95.01362359 25.69614825 85.67105103 25.69969177 C76.96063097 25.70332914 68.25056281 25.7332392 59.54025036 25.77509636 C52.06243414 25.80977194 44.58473474 25.82523972 37.10683864 25.82593781 C32.64031339 25.82673142 28.17414677 25.83550881 23.70770454 25.86393547 C19.50752166 25.89007026 15.30799594 25.89234744 11.10776901 25.87627983 C9.56663393 25.87446178 8.02546145 25.88118831 6.48440742 25.89709854 C4.37926148 25.91750716 2.27642646 25.90704285 0.17131042 25.8888855 C-1.59488726 25.89190249 -1.59488726 25.89190249 -3.39676571 25.89498043 C-7.44120365 25.08981082 -8.92210901 23.40170095 -11.51522827 20.27415466 C-13.47533048 16.35395025 -12.86809157 11.5580389 -12.51522827 7.27415466 C-9.84854429 1.05189203 -6.47950627 0.02526328 0 0 Z " fill="#CBCBCB" transform="translate(270.5152282714844,78.72584533691406)"/>
<path d="M0 0 C10.4661424 -1.2169933 21.01144139 4.67834535 29 11 C29.61359375 11.47695313 30.2271875 11.95390625 30.859375 12.4453125 C37.01925091 17.86927403 42.73112518 27.76014626 44 36 C44.12106092 38.57606366 44.19049077 41.1118466 44.1875 43.6875 C44.18669434 44.40067383 44.18588867 45.11384766 44.18505859 45.84863281 C44.10401155 52.83774828 43.17448976 58.65102048 40 65 C12.61 65 -14.78 65 -43 65 C-42.67 62.36 -42.34 59.72 -42 57 C-41.82413322 54.16485012 -41.81508671 51.34021122 -41.8125 48.5 C-41.80025391 47.79230469 -41.78800781 47.08460938 -41.77539062 46.35546875 C-41.76142922 41.26420923 -42.6047147 36.89728597 -44 32 C-43.1478894 31.7071814 -43.1478894 31.7071814 -42.27856445 31.40844727 C-26.06091785 25.75448354 -9.88345954 19.73886405 -1.625 3.5625 C-1.08875 2.386875 -0.5525 1.21125 0 0 Z " fill="#FECF0D" transform="translate(280,254)"/>
<path d="M0 0 C0.68383255 0.00424484 1.3676651 0.00848969 2.07221985 0.01286316 C4.25297686 0.02963522 6.43280434 0.06728218 8.61328125 0.10546875 C10.0930856 0.12051761 11.57290445 0.13420567 13.05273438 0.14648438 C16.67738461 0.17953306 20.30149219 0.23130429 23.92578125 0.29296875 C23.60198486 0.8955249 23.27818848 1.49808105 22.94458008 2.11889648 C16.43449719 16.01112944 25.39326544 41.38008691 30.04589844 54.89257812 C36.13532773 71.50502785 45.4055458 85.92694972 56.92578125 99.29296875 C57.53292969 100.02257812 58.14007813 100.7521875 58.765625 101.50390625 C65.46660968 109.43568403 73.33536645 115.45301234 81.734375 121.47387695 C82.36085938 121.924646 82.98734375 122.37541504 83.6328125 122.83984375 C84.19460205 123.24041992 84.7563916 123.64099609 85.33520508 124.05371094 C87.00524333 125.35487965 88.46004268 126.76778219 89.92578125 128.29296875 C58.23910731 130.42710325 58.23910731 130.42710325 47.97021484 122.04956055 C46.23840593 120.5100942 44.58559331 118.90936123 42.92578125 117.29296875 C41.77051561 116.28064936 40.60903757 115.27537499 39.44140625 114.27734375 C28.31885527 104.60962117 18.88111875 93.69520997 10.92578125 81.29296875 C9.90677734 79.70935547 9.90677734 79.70935547 8.8671875 78.09375 C-3.04947133 58.4649455 -10.17343887 35.03689998 -10.32421875 12.04296875 C-10.34484375 11.24117188 -10.36546875 10.439375 -10.38671875 9.61328125 C-10.42522689 3.85631417 -10.42522689 3.85631417 -8.99584961 1.56225586 C-6.04285008 -0.38827705 -3.50250581 -0.04288783 0 0 Z " fill="#C2DCF3" transform="translate(68.07421875,318.70703125)"/>
<path d="M0 0 C6.93 0 13.86 0 21 0 C21 49.83 21 99.66 21 151 C18.03 150.67 15.06 150.34 12 150 C11.773125 148.906875 11.54625 147.81375 11.3125 146.6875 C10.34033484 142.94339334 10.34033484 142.94339334 7.6875 141.125 C4.6922239 139.76707532 4.6922239 139.76707532 0 139 C0 93.13 0 47.26 0 0 Z " fill="#EA2A3D" transform="translate(268,104)"/>
<path d="M0 0 C0.18175781 0.86882812 0.36351562 1.73765625 0.55078125 2.6328125 C2.07099575 9.80428844 2.07099575 9.80428844 4.8125 16.5625 C5.4003125 17.7690625 5.4003125 17.7690625 6 19 C4.70663911 22.45386148 2.42166852 25.16192557 0.1875 28.0625 C-7.3694428 38.33500482 -10.59530289 48.35772602 -12 61 C-24.87 61 -37.74 61 -51 61 C-54.61009186 51.97477035 -54.5285566 40.12543269 -51.375 30.875 C-45.46553474 17.50638454 -36.53412372 8.52027156 -23 3 C-15.28122153 0.13919399 -8.19075856 -0.38595197 0 0 Z " fill="#EE8318" transform="translate(132,258)"/>
<path d="M0 0 C-0.680625 0.12375 -1.36125 0.2475 -2.0625 0.375 C-14.95672107 3.11845129 -27.19787994 9.13529683 -37 18 C-37.60972656 18.52980469 -38.21945313 19.05960938 -38.84765625 19.60546875 C-48.93271279 28.93691667 -56.58839658 43.17792836 -57.23828125 57.00390625 C-57.59668366 71.5944042 -55.17623447 82.87632301 -45 94 C-39.02954628 99.24853612 -32.47319655 102.44473177 -25 105 C-23.80375 105.4125 -22.6075 105.825 -21.375 106.25 C-20.59125 106.4975 -19.8075 106.745 -19 107 C-19 107.33 -19 107.66 -19 108 C-37.90576929 108.67857198 -53.53386522 106.57529244 -67.92578125 93.23828125 C-76.74494018 83.72156173 -80.38373952 71.75835026 -80.2109375 58.98828125 C-79.246064 45.31923997 -72.95454547 33.15711873 -64 23 C-63.35546875 22.26136719 -62.7109375 21.52273437 -62.046875 20.76171875 C-49.32875569 7.1250686 -18.56179933 -11.27126128 0 0 Z " fill="#F4C773" transform="translate(255,58)"/>
<path d="M0 0 C0.33 0 0.66 0 1 0 C1.27470357 43.65314839 1.4861343 87.30620525 1.61278395 130.96004768 C1.62779232 136.11447982 1.6433242 141.26891025 1.65917969 146.42333984 C1.66232741 147.44948822 1.66547514 148.4756366 1.66871825 149.53288038 C1.72092556 166.14536251 1.81553506 182.75734601 1.92583355 199.36953239 C2.03807705 216.41691664 2.10471044 233.46403987 2.12906194 250.51177847 C2.14552287 261.03035572 2.1974965 271.54752363 2.2949976 282.06566699 C2.3584615 289.27973246 2.37759472 296.49307009 2.36201653 303.70739441 C2.35433387 307.86949723 2.36604984 312.02913919 2.4304657 316.19080353 C2.48908214 320.0057346 2.4916945 323.8165636 2.45078674 327.63168783 C2.44335267 329.65658792 2.49493866 331.68144285 2.54897571 333.70563543 C2.43936022 339.29454293 2.09949883 342.6701212 -1.53043246 347.06063855 C-8.96998413 353.95770214 -15.23908364 355.40041345 -25.21386719 355.04345703 C-26.59489687 355.03073998 -27.97597372 355.02249458 -29.35705566 355.01832581 C-33.0686697 354.99468202 -36.77648609 354.90935069 -40.48680019 354.81201029 C-44.37806993 354.72071532 -48.26985013 354.6874087 -52.16192627 354.64767456 C-59.5149052 354.56393558 -66.86598614 354.42884627 -74.2177918 354.27480781 C-82.59467338 354.10182901 -90.97204643 353.98684659 -99.34995031 353.87647843 C-116.56799855 353.64836624 -133.7839354 353.34620035 -151 353 C-151 349.37 -151 345.74 -151 342 C-105.97951084 319.48975542 -50.33443707 341 0 341 C0 228.47 0 115.94 0 0 Z " fill="#848497" transform="translate(422,104)"/>
<path d="M0 0 C0.80179687 -0.00773438 1.60359375 -0.01546875 2.4296875 -0.0234375 C6.37092724 -0.0102561 8.40238893 0.01825929 11.75 2.25 C10.84121094 2.36214844 10.84121094 2.36214844 9.9140625 2.4765625 C2.78418274 3.59540517 -2.38296454 6.10061637 -8.25 10.25 C-9.301875 10.98863281 -9.301875 10.98863281 -10.375 11.7421875 C-18.91029365 18.44372665 -25.74248072 29.43133222 -27.25 40.25 C-27.99993359 49.54162996 -27.97551022 58.56715764 -24.25 67.25 C-23.73953125 68.49136719 -23.73953125 68.49136719 -23.21875 69.7578125 C-18.13226125 80.99620319 -9.7379291 88.86652196 1.375 94.0625 C4.85608803 95.28732727 8.08549773 95.8760712 11.75 96.25 C5.45167002 100.44888665 -5.44009012 98.96650332 -12.71875 97.59765625 C-25.57404259 93.65649418 -36.07251011 85.76063788 -43.0703125 74.2578125 C-49.68747225 61.69479906 -51.5397967 48.38810828 -47.6875 34.5 C-42.54472705 19.87803927 -33.08047019 10.10293439 -19.20703125 3.44140625 C-12.65013513 0.79959209 -6.98659703 -0.06872063 0 0 Z " fill="#FEAE10" transform="translate(345.25,140.75)"/>
<path d="M0 0 C0.71607422 -0.01224609 1.43214844 -0.02449219 2.16992188 -0.03710938 C5.96223108 -0.04765333 8.84849094 0.06440785 12.0625 2.1875 C11.47082031 2.49042969 10.87914062 2.79335938 10.26953125 3.10546875 C1.62117245 7.69065082 -4.77997581 13.71492743 -7.9375 23.1875 C-9.48478127 39.69769449 -5.47457702 52.58676548 4.77734375 65.72265625 C15.28843414 77.06025973 28.29352668 81.96660688 43.0625 85.1875 C43.0625 85.5175 43.0625 85.8475 43.0625 86.1875 C22.65655992 86.94017812 3.61995602 84.37103687 -13 71.3125 C-23.62501011 61.01952145 -30.7334897 46.50153409 -31.25 31.75 C-31.00355874 21.93342305 -28.04858726 14.10069058 -20.9375 7.1875 C-14.02271917 2.19290868 -8.53102862 0.00763745 0 0 Z " fill="#FEB010" transform="translate(110.9375,-0.1875)"/>
<path d="M0 0 C-0.21484375 1.8515625 -0.21484375 1.8515625 -1 4 C-3.00390625 5.2734375 -3.00390625 5.2734375 -5.5625 6.375 C-16.70416923 11.62840814 -23.81769932 18.84747372 -28.4375 30.4375 C-31.36728485 40.05320413 -30.95612097 51.21939515 -29 61 C-35.93 61 -42.86 61 -50 61 C-53.61009186 51.97477035 -53.5285566 40.12543269 -50.375 30.875 C-44.46728902 17.51035314 -35.53449238 8.51341631 -22 3 C-14.59915207 0.2911261 -7.8504089 -0.40998267 0 0 Z " fill="#D9722D" transform="translate(131,258)"/>
<path d="M0 0 C36.63 0 73.26 0 111 0 C111 3.3 111 6.6 111 10 C74.37 10 37.74 10 0 10 C0 6.7 0 3.4 0 0 Z " fill="#EEF6FF" transform="translate(159,447)"/>
<path d="M0 0 C2.28571724 1.76958754 2.82251178 3.11255892 3.3828125 5.9140625 C4.01565072 13.70072408 0.14525912 19.00289987 -4.5 24.90625 C-13.37338264 34.66697091 -26.51834207 40.40154856 -39 44 C-39.66 43.67 -40.32 43.34 -41 43 C-40.48953125 42.28199219 -39.9790625 41.56398437 -39.453125 40.82421875 C-35.28763474 34.89356506 -31.29002481 28.90969976 -27.47973633 22.7434082 C-11.4458236 -3.17939545 -11.4458236 -3.17939545 0 0 Z " fill="#ED8319" transform="translate(240,19)"/>
<path d="M0 0 C1.05904289 0.00424484 1.05904289 0.00424484 2.13948059 0.00857544 C4.39133758 0.01975786 6.64279477 0.0448583 8.89453125 0.0703125 C10.42252029 0.08034483 11.95051558 0.08947024 13.47851562 0.09765625 C17.22150788 0.11969078 20.96420181 0.15420683 24.70703125 0.1953125 C23.42656453 1.65303548 22.14609782 3.11075846 20.8656311 4.56848145 C18.99191317 7.1994351 19.04435466 9.53047868 19.08203125 12.6953125 C19.06914062 13.778125 19.05625 14.8609375 19.04296875 15.9765625 C19.70816979 19.20083105 20.17664245 20.03777753 22.24853516 22.39648438 C23.05983887 23.32009766 23.87114258 24.24371094 24.70703125 25.1953125 C20.24138824 25.31928397 15.77666686 25.40982242 11.30981445 25.4699707 C9.79173324 25.49505359 8.27377207 25.5291291 6.75610352 25.57250977 C4.5688716 25.63344543 2.38324086 25.66158145 0.1953125 25.68359375 C-1.11912842 25.70977783 -2.43356934 25.73596191 -3.7878418 25.76293945 C-8.1527565 25.05607683 -9.55750519 23.58379266 -12.29296875 20.1953125 C-14.25307096 16.27510809 -13.64583205 11.47919674 -13.29296875 7.1953125 C-10.4915406 0.65864681 -6.61529427 -0.09976498 0 0 Z " fill="#B7B7B6" transform="translate(271.29296875,78.8046875)"/>
<path d="M0 0 C3.3666837 0.30606215 5.56154387 0.7000037 8.375 2.625 C10.73428526 6.07318615 10.60081959 7.86102062 10 12 C6.22673895 23.45251092 -2.81791165 30.41152464 -13.25390625 35.7109375 C-25.63311268 41.52194478 -25.63311268 41.52194478 -30 40 C-29.63390625 39.49855469 -29.2678125 38.99710937 -28.890625 38.48046875 C-25.82274508 34.19274133 -22.89241111 29.86413273 -20.109375 25.38671875 C-19.59729492 24.56341064 -19.08521484 23.74010254 -18.55761719 22.8918457 C-17.54140632 21.24982097 -16.53133633 19.60397518 -15.52832031 17.95385742 C-6.84218803 3.92207911 -6.84218803 3.92207911 -1.7890625 2.28271484 C-0.90347656 2.142771 -0.90347656 2.142771 0 2 C0 1.34 0 0.68 0 0 Z " fill="#FE9517" transform="translate(270,243)"/>
<path d="M0 0 C2.1953125 0.96875 2.1953125 0.96875 4 3 C4.3983796 6.07724715 4.51599411 8.73651226 4.4375 11.8125 C4.4271875 12.70799561 4.416875 13.60349121 4.40625 14.52612305 C4.10519975 27.72474134 2.49119211 40.89257996 1 54 C-1.54863405 51.59190463 -3.51602337 49.47767121 -5.03515625 46.3125 C-5.36837891 45.61962891 -5.70160156 44.92675781 -6.04492188 44.21289062 C-6.54862305 43.11750977 -6.54862305 43.11750977 -7.0625 42 C-7.41248047 41.24396484 -7.76246094 40.48792969 -8.12304688 39.70898438 C-12.97763532 28.93015241 -16.44968131 18.02121052 -12.1875 6.5625 C-9.65794321 0.36944718 -6.55976616 -0.57541808 0 0 Z " fill="#FBAF13" transform="translate(144,146)"/>
<path d="M0 0 C0.75410156 0.00451172 1.50820313 0.00902344 2.28515625 0.01367188 C4.14847127 0.02546501 6.01174555 0.04340058 7.875 0.0625 C7.875 4.0225 7.875 7.9825 7.875 12.0625 C1.935 12.0625 -4.005 12.0625 -10.125 12.0625 C-10.125 8.4325 -10.125 4.8025 -10.125 1.0625 C-6.93675432 -0.53162284 -3.49603338 -0.03924735 0 0 Z " fill="#696D7A" transform="translate(281.125,444.9375)"/>
</svg>
