<?xml version="1.0" encoding="UTF-8"?>
<svg version="1.1" xmlns="http://www.w3.org/2000/svg" width="512" height="512">
<path d="M0 0 C79.86 0 159.72 0 242 0 C242 144.21 242 288.42 242 437 C226.49 437 210.98 437 195 437 C195 434.36 195 431.72 195 429 C190.38 429 185.76 429 181 429 C181 431.64 181 434.28 181 437 C175.72 437 170.44 437 165 437 C165 434.36 165 431.72 165 429 C160.38 429 155.76 429 151 429 C151 431.64 151 434.28 151 437 C132.19 437 113.38 437 94 437 C93.67 438.65 93.34 440.3 93 442 C91.984375 444.24609375 91.984375 444.24609375 90.75 446.4375 C90.08677734 447.61505859 90.08677734 447.61505859 89.41015625 448.81640625 C88.13451701 450.79170358 86.85309318 452.2378785 85.1875 453.875 C82.37141158 457.89798345 82.73378766 460.36852127 82.93359375 465.14453125 C83.18973223 476.15848588 78.21794756 486.83941003 71 495 C59.86412341 504.39711691 49.39209206 507.21071221 35.10009766 506.23632812 C27.92437194 505.42882958 21.68057721 502.35951274 16 498 C14.515 496.9171875 14.515 496.9171875 13 495.8125 C6.88102114 490.5768383 3.46115705 483.52020209 1 476 C0.5875 476.556875 0.175 477.11375 -0.25 477.6875 C-11.82370513 492.98132464 -25.82449536 502.98122633 -44 509 C-44.96292969 509.33902344 -45.92585937 509.67804688 -46.91796875 510.02734375 C-69.53405356 516.65040772 -93.88417193 511.82293924 -114.20703125 501.01269531 C-118.19743078 498.75885854 -121.6059684 496.05786085 -125 493 C-125.85207031 492.27683594 -126.70414063 491.55367188 -127.58203125 490.80859375 C-132.50881244 486.54544927 -136.39338683 482.40991975 -140 477 C-140.66 476.67 -141.32 476.34 -142 476 C-142.04125 476.78375 -142.0825 477.5675 -142.125 478.375 C-144.67231915 488.92817932 -152.21555503 496.14370335 -161 502 C-161.99 502 -162.98 502 -164 502 C-164.99 500.02 -165.98 498.04 -167 496 C-168.175625 496.33 -169.35125 496.66 -170.5625 497 C-174.5011676 497.9969533 -177.95139129 498.16869203 -182 498 C-182 500.64 -182 503.28 -182 506 C-191.40410229 506.70974357 -199.78726964 503.72582994 -207.08984375 497.7578125 C-214.662686 490.78893926 -220.55861276 483.45005747 -222 473 C-221.90544529 471.10890574 -221.80891123 469.21772173 -221.68066406 467.32861328 C-221.25998729 460.54635931 -221.25998729 460.54635931 -223.63671875 454.3046875 C-225.03717968 452.86021948 -226.47797109 451.45372047 -227.95703125 450.08984375 C-231.30377648 446.66630896 -232.62087622 442.51137102 -234 438 C-234.19207031 437.39027344 -234.38414062 436.78054688 -234.58203125 436.15234375 C-236.87669908 424.3358767 -234.84797577 412.79878029 -228.33984375 402.76953125 C-227 401 -227 401 -224.1875 398.4375 C-220.59339399 394.37604893 -221.84123982 388.82821578 -222 383.7578125 C-222 373.46980356 -217.21424917 365.62539543 -210.4375 358.1875 C-201.37589792 350.05529301 -191.84244069 345.38674392 -179.4453125 345.75390625 C-167.70004559 346.9359379 -157.65563203 351.43248221 -149.53125 360.07421875 C-145.70663888 364.88425263 -143.20916239 370.30216035 -141 376 C-139.83984375 374.71416016 -139.83984375 374.71416016 -138.65625 373.40234375 C-120.5591558 353.46521306 -100.67922594 341.87685504 -73.40234375 339.71484375 C-50.83808031 339.11900212 -28.12656234 346.80603737 -11.55859375 362.35253906 C-2.44434615 371.11130769 -2.44434615 371.11130769 -1 374 C0.52808267 362.67342111 0.52808267 362.67342111 -3.12480164 352.21485519 C-6.16233894 348.40598171 -9.67761676 345.09068737 -13.20898438 341.74755859 C-14.52318179 340.43844824 -15.83340908 339.1253422 -17.13996887 337.80860901 C-20.67302456 334.27042034 -24.25849788 330.79022453 -27.85656929 327.31833982 C-31.6165022 323.67147879 -35.32500789 319.97304079 -39.03942871 316.27993774 C-46.06937166 309.30578314 -53.14388878 302.37875358 -60.23588514 295.46777213 C-68.31242435 287.59292679 -76.33747583 279.66646726 -84.35876369 271.73541141 C-100.84947017 255.43249162 -117.40329874 239.19495284 -134 223 C-135.15612793 223.48355957 -136.31225586 223.96711914 -137.50341797 224.46533203 C-139.04127919 225.10464124 -140.57920585 225.74379307 -142.1171875 226.3828125 C-142.87668701 226.70096924 -143.63618652 227.01912598 -144.41870117 227.34692383 C-166.90364178 236.66817414 -192.44805531 236.94687497 -215.02929688 227.67041016 C-218.48830228 226.17974354 -221.89912286 224.64969798 -225.14453125 222.734375 C-226.979002 221.80178401 -226.979002 221.80178401 -228.89453125 222.4609375 C-229.84392578 222.91339844 -229.84392578 222.91339844 -230.8125 223.375 C-236.59843513 225.75117594 -241.10741511 225.50276677 -247 223.5 C-253.19272468 220.81365824 -257.027612 216.78780394 -260.12890625 210.83203125 C-262.3644523 205.1679796 -262.30085639 199.90764856 -261 194 C-260.38318359 192.824375 -260.38318359 192.824375 -259.75390625 191.625 C-258.65892574 187.81242539 -260.31955202 185.53484588 -262.125 182.25 C-271.92305105 162.57194619 -273.57048021 138.43032314 -267.19140625 117.359375 C-266.60166016 115.69648438 -266.60166016 115.69648438 -266 114 C-265.45666016 112.42992188 -265.45666016 112.42992188 -264.90234375 110.828125 C-256.70785687 89.3835695 -239.94592784 70.8938841 -219.10693359 61.11132812 C-196.73470512 51.35340828 -170.82854693 49.30032293 -147.84472656 58.25927734 C-145.98867341 59.01614582 -144.14612019 59.80588049 -142.3046875 60.59765625 C-136.00517672 63.27085291 -133.46765324 64.19656148 -127 62 C-118.98895621 60.97489013 -112.58640816 62.22456571 -106 67 C-101.65438483 71.3006295 -98.94561086 75.90606337 -98 82 C-98.14688082 86.53861725 -98.76193288 90.92368603 -99.7421875 95.35546875 C-100.05421065 99.76634145 -98.76904042 102.50234411 -96.8125 106.3125 C-87.07957882 127.06748707 -86.12278764 150.16715037 -93 172 C-94.17416479 175.20704711 -95.42709462 178.31889401 -96.8515625 181.421875 C-98.09096107 184.20419833 -99.03680574 187.11041721 -100 190 C-67.33 222.67 -34.66 255.34 -1 289 C-0.67 193.63 -0.34 98.26 0 0 Z " fill="#020100" transform="translate(270,0)"/>
<path d="M0 0 C20.13 0 40.26 0 61 0 C61 46.86 61 93.72 61 142 C50.77 142 40.54 142 30 142 C30 144.64 30 147.28 30 150 C25.05 150 20.1 150 15 150 C15 152.64 15 155.28 15 158 C9.72 158 4.44 158 -1 158 C-1 155.36 -1 152.72 -1 150 C-5.62 150 -10.24 150 -15 150 C-15 147.36 -15 144.72 -15 142 C-33.81 142 -52.62 142 -72 142 C-72.99 138.37 -73.98 134.74 -75 131 C-76.3509235 127.94969179 -76.3509235 127.94969179 -77.9375 125.5625 C-78.42089844 124.78003906 -78.90429688 123.99757813 -79.40234375 123.19140625 C-80.90648953 120.9132896 -80.90648953 120.9132896 -83.1328125 119.35546875 C-87.43729226 113.92534052 -86.2345118 104.91055567 -85.51953125 98.33154297 C-84.74013451 94.83378034 -83.32002158 93.37573345 -80.4375 91.3125 C-78.31278915 90.16821485 -76.16441589 89.06728094 -74 88 C-72.12431093 86.81280993 -70.29751123 85.56829931 -68.46850586 84.31054688 C-66.57245685 83.00684621 -64.65557421 81.74077014 -62.73046875 80.48046875 C-60.30309066 78.88124757 -57.91455621 77.24250924 -55.55078125 75.55078125 C-54.50277344 74.81214844 -53.45476562 74.07351563 -52.375 73.3125 C-50.99441406 72.31669922 -50.99441406 72.31669922 -49.5859375 71.30078125 C-46.35392302 69.67500962 -45.42163405 69.96038033 -42 71 C-39.06835938 72.71484375 -39.06835938 72.71484375 -35.84375 74.9375 C-35.26016724 75.33646484 -34.67658447 75.73542969 -34.07531738 76.14648438 C-32.21150312 77.42336532 -30.35574249 78.71142425 -28.5 80 C-27.28436738 80.83538273 -26.06822539 81.67002473 -24.8515625 82.50390625 C-21.22702299 84.9920374 -17.61306545 87.49522592 -14 90 C-9.71 92.97 -5.42 95.94 -1 99 C-0.67 66.33 -0.34 33.66 0 0 Z " fill="#FCE21C" transform="translate(436,279)"/>
<path d="M0 0 C3.09210556 2.33625753 4.7422621 3.85252242 5.6015625 7.67822266 C4.66091426 12.87240286 1.28287808 15.45797441 -2.4375 19.0234375 C-3.56949829 20.14270126 -3.56949829 20.14270126 -4.72436523 21.28457642 C-7.13585575 23.66250476 -9.56737044 26.01872024 -12 28.375 C-13.63938444 29.98428915 -15.27742271 31.59495088 -16.9140625 33.20703125 C-20.92722888 37.1540756 -24.95703472 41.08349687 -29 45 C-27.49053489 48.18086518 -25.92058175 50.29869906 -23.375 52.75 C-22.74335938 53.36359375 -22.11171875 53.9771875 -21.4609375 54.609375 C-20.97882813 55.06828125 -20.49671875 55.5271875 -20 56 C-14.19108254 51.18132753 -8.86934448 45.98743592 -3.5625 40.625 C-2.73556641 39.79355469 -1.90863281 38.96210937 -1.05664062 38.10546875 C0.96455531 36.0725896 2.98336335 34.03740037 5 32 C8.03965068 34.82365618 9.16865108 37.47055534 10.625 41.375 C11.05039063 42.49648437 11.47578125 43.61796875 11.9140625 44.7734375 C18.03926739 62.97278728 14.45533301 84.29262002 6.375 101.1875 C-2.46697238 118.45850121 -16.16530127 129.84717262 -34 137 C-34.77472656 137.32742187 -35.54945312 137.65484375 -36.34765625 137.9921875 C-51.75829169 144.22770473 -72.60799016 142.83191776 -88.0234375 137.484375 C-91.02988296 135.98509774 -92.70947503 134.40828816 -95 132 C-93.8160968 130.82608955 -93.8160968 130.82608955 -92.60827637 129.62846375 C-85.18352843 122.26444085 -77.76664618 114.89257744 -70.35746002 107.51289654 C-66.54775593 103.71887112 -62.73530202 99.92769588 -58.91650391 96.14282227 C-55.23361465 92.49244758 -51.55802931 88.83486572 -47.88746643 85.17209816 C-46.48339847 83.77358791 -45.07668596 82.37772769 -43.66734314 80.98453331 C-41.6989675 79.03782641 -39.74007183 77.08204312 -37.78320312 75.1237793 C-37.1941066 74.5454686 -36.60501007 73.9671579 -35.99806213 73.37132263 C-32.70748039 70.2857798 -32.70748039 70.2857798 -32 66 C-33.61369665 64.05203563 -33.61369665 64.05203563 -35.75 62.25 C-36.79414063 61.29867187 -36.79414063 61.29867187 -37.859375 60.328125 C-39.85968563 58.77660653 -39.85968563 58.77660653 -41.93610191 59.24143219 C-44.27324959 60.10043051 -45.41546051 61.04769631 -47.16299438 62.80895996 C-47.76300766 63.4062944 -48.36302094 64.00362885 -48.98121643 64.61906433 C-49.62759567 65.27780045 -50.27397491 65.93653656 -50.93994141 66.61523438 C-51.62981644 67.30627762 -52.31969147 67.99732086 -53.0304718 68.70930481 C-55.31120721 70.99723342 -57.58124446 73.29548784 -59.8515625 75.59375 C-61.43216477 77.18248638 -63.01350413 78.77048976 -64.59555054 80.35778809 C-68.76051122 84.53988109 -72.91682511 88.73045908 -77.07098389 92.92327881 C-83.72570122 99.63715625 -90.3931222 106.33841287 -97.06107712 113.03913879 C-99.39376079 115.38582641 -101.7226132 117.73626462 -104.05093384 120.08728027 C-105.47349014 121.51985646 -106.89612383 122.95235581 -108.31884766 124.38476562 C-108.96927536 125.04350174 -109.61970306 125.70223785 -110.2898407 126.38093567 C-111.18140114 127.27693733 -111.18140114 127.27693733 -112.0909729 128.19104004 C-112.60751245 128.71239784 -113.12405201 129.23375565 -113.65624428 129.77091217 C-115.73471747 131.67202118 -117.04767369 132.00621831 -119.875 132.375 C-123 132 -123 132 -125.4375 129.9375 C-127.50044812 126.05915753 -127.02716433 124.22937048 -126 120 C-124.02407169 117.28299141 -124.02407169 117.28299141 -121.37550354 114.64724731 C-120.89011752 114.15602918 -120.40473149 113.66481104 -119.9046368 113.1587075 C-118.28179743 111.52368686 -116.63850755 109.91095889 -114.99438477 108.29736328 C-113.82380128 107.1268352 -112.65453201 105.95499157 -111.48648071 104.78193665 C-108.31602553 101.60549332 -105.12733591 98.44795018 -101.9349072 95.293612 C-98.59818089 91.99069892 -95.2780761 88.67116062 -91.95603943 85.35348511 C-86.37786778 79.78726743 -80.78889477 74.23209873 -75.19213867 68.68457031 C-67.29209928 60.85397105 -59.41217928 53.00336308 -51.53597176 45.14880395 C-45.42506129 39.05617903 -39.30858325 32.96914461 -33.19140625 26.8828125 C-32.53405023 26.22862792 -31.87669421 25.57444333 -31.19941831 24.90043497 C-27.42611607 21.14592429 -23.65007051 17.39421362 -19.86969376 13.64682579 C-18.72315789 12.50962762 -17.57745344 11.37159051 -16.43262672 10.23267174 C-14.87456559 8.68303574 -13.31347241 7.13652277 -11.7514801 5.59085083 C-10.43987333 4.28955073 -10.43987333 4.28955073 -9.10176945 2.96196175 C-6.05204244 0.11509967 -4.15038036 -0.57912284 0 0 Z " fill="#EE5373" transform="translate(151,77)"/>
<path d="M0 0 C1.06927734 -0.020625 2.13855469 -0.04125 3.24023438 -0.0625 C14.63773749 -0.11759367 24.54915502 2.72233637 34.9375 7.25 C33.46894778 10.64093564 31.58455446 12.85012471 28.97653198 15.45147705 C28.14919556 16.28156281 27.32185913 17.11164856 26.4694519 17.96688843 C25.56027008 18.8688797 24.65108826 19.77087097 23.71435547 20.70019531 C22.74812587 21.66586059 21.7823368 22.63196683 20.81695557 23.59848022 C18.19765009 26.21835941 15.57222488 28.83202725 12.94566107 31.44462681 C10.2007695 34.17701415 7.46154229 36.91506796 4.72171021 39.65252686 C-0.46620546 44.83422685 -5.65919821 50.01080758 -10.8540324 55.18557048 C-16.76842965 61.07761146 -22.67714752 66.97533385 -28.58539414 72.87354136 C-40.73811907 85.00536232 -52.89796034 97.1300259 -65.0625 109.25 C-74.39655834 97.31040735 -75.40220829 79.87703195 -74.0625 65.25 C-71.26565495 44.04429122 -59.43043852 26.54750718 -43.0625 13.25 C-30.40944044 3.88046168 -15.47911987 0.07280009 0 0 Z " fill="#EE5374" transform="translate(89.0625,68.75)"/>
<path d="M0 0 C12.20519926 5.12878054 20.68998413 12.74444503 29 23 C28.51789063 23.73605469 28.03578125 24.47210938 27.5390625 25.23046875 C26.59160156 26.69419922 26.59160156 26.69419922 25.625 28.1875 C24.99851562 29.15042969 24.37203125 30.11335938 23.7265625 31.10546875 C21.04165554 35.6066363 19.82184914 39.08085558 19.625 44.3125 C19.1071115 50.93790111 17.34871108 55.65128892 12.625 60.375 C7.89128901 63.30539252 3.16041743 64.20439806 -2.3125 64.8125 C-11.60219026 66.19697034 -17.38105327 69.68633687 -23.4921875 76.7421875 C-27.5545329 82.82518138 -28.73321619 89.066339 -29.72851562 96.12695312 C-30.6131527 101.57610816 -32.36085512 105.77361238 -36.6484375 109.390625 C-41.04888382 111.5808924 -44.98311058 112.33263835 -49.875 112.875 C-56.80098047 113.69332208 -61.40575183 115.95543551 -67 120 C-68.485 120.99 -68.485 120.99 -70 122 C-79.46866403 115.05372598 -88.77419641 106.2919014 -93 95 C-92 92 -92 92 -90.38671875 90.86328125 C-87.20883678 89.71383458 -84.17499921 89.49941379 -80.8125 89.1875 C-70.47244223 87.97358593 -64.281947 84.32388426 -57.65625 76.3046875 C-53.66531277 70.7512607 -52.9533858 65.73958435 -52.25 59 C-51.39536157 52.24980491 -49.37025261 48.21462863 -44 44 C-40.58144983 41.82656832 -37.36667346 41.59020763 -33.375 41.1875 C-24.20556176 39.94967345 -16.7895076 36.91602008 -10.46484375 29.99609375 C-5.62732714 23.40417112 -4.45364449 15.94878794 -3.58984375 7.98046875 C-2.9537484 4.76629157 -1.83465857 2.68983817 0 0 Z " fill="#F9AB41" transform="translate(229,362)"/>
<path d="M0 0 C69.63 0 139.26 0 211 0 C211 7.26 211 14.52 211 22 C141.37 22 71.74 22 0 22 C0 14.74 0 7.48 0 0 Z " fill="#FCE21C" transform="translate(286,241)"/>
<path d="M0 0 C19.47 0 38.94 0 59 0 C59 27.72 59 55.44 59 84 C56.69 82.02 54.38 80.04 52 78 C40.78950345 70.1320827 30.54694047 67.77088903 17 69 C12.15960026 70.15625474 7.82358393 71.6257524 3.828125 74.63671875 C2 76 2 76 0 76 C0 50.92 0 25.84 0 0 Z " fill="#FCE21C" transform="translate(286,279)"/>
<path d="M0 0 C19.8 0 39.6 0 60 0 C60 23.76 60 47.52 60 72 C56.33539782 70.53415913 54.13430299 69.57067422 51.109375 67.35546875 C50.39910156 66.84306641 49.68882812 66.33066406 48.95703125 65.80273438 C48.22871094 65.26970703 47.50039063 64.73667969 46.75 64.1875 C41.03400774 60.00645322 35.26817001 56.30635834 29 53 C28.26362305 53.50450684 27.52724609 54.00901367 26.76855469 54.52880859 C24.02658419 56.4056446 21.28310175 58.28022759 18.53857422 60.15332031 C17.35274199 60.96329909 16.16751316 61.77416202 14.98291016 62.5859375 C13.27665888 63.75495601 11.56823788 64.92074105 9.859375 66.0859375 C8.31975098 67.1385376 8.31975098 67.1385376 6.74902344 68.21240234 C4 70 4 70 0 72 C0 48.24 0 24.48 0 0 Z " fill="#DFE9F2" transform="translate(361,278)"/>
<path d="M0 0 C20.13 0 40.26 0 61 0 C61 20.13 61 40.26 61 61 C40.87 61 20.74 61 0 61 C0 40.87 0 20.74 0 0 Z " fill="#BA6869" transform="translate(436,15)"/>
<path d="M0 0 C19.8 0 39.6 0 60 0 C60 20.46 60 40.92 60 62 C40.2 62 20.4 62 0 62 C0 41.54 0 21.08 0 0 Z " fill="#BB696A" transform="translate(286,15)"/>
<path d="M0 0 C20.13 0 40.26 0 61 0 C61 19.8 61 39.6 61 60 C40.87 60 20.74 60 0 60 C0 40.2 0 20.4 0 0 Z " fill="#BA6869" transform="translate(436,166)"/>
<path d="M0 0 C20.13 0 40.26 0 61 0 C61 19.8 61 39.6 61 60 C40.87 60 20.74 60 0 60 C0 40.2 0 20.4 0 0 Z " fill="#BA6869" transform="translate(436,91)"/>
<path d="M0 0 C20.13 0 40.26 0 61 0 C61 19.8 61 39.6 61 60 C40.87 60 20.74 60 0 60 C0 40.2 0 20.4 0 0 Z " fill="#BB696A" transform="translate(285,91)"/>
<path d="M0 0 C19.8 0 39.6 0 60 0 C60 20.13 60 40.26 60 61 C40.2 61 20.4 61 0 61 C0 40.87 0 20.74 0 0 Z " fill="#BB696A" transform="translate(361,15)"/>
<path d="M0 0 C19.8 0 39.6 0 60 0 C60 19.8 60 39.6 60 60 C40.2 60 20.4 60 0 60 C0 40.2 0 20.4 0 0 Z " fill="#BA6869" transform="translate(361,166)"/>
<path d="M0 0 C19.8 0 39.6 0 60 0 C60 19.8 60 39.6 60 60 C40.2 60 20.4 60 0 60 C0 40.2 0 20.4 0 0 Z " fill="#BA6869" transform="translate(286,166)"/>
<path d="M0 0 C19.8 0 39.6 0 60 0 C60 19.47 60 38.94 60 59 C40.2 59 20.4 59 0 59 C0 39.53 0 20.06 0 0 Z " fill="#BB696A" transform="translate(361,92)"/>
<path d="M0 0 C1.13953125 0.00064453 2.2790625 0.00128906 3.453125 0.00195312 C11.84359056 0.04679528 11.84359056 0.04679528 14.125 1.1875 C13.6609375 2.8271875 13.6609375 2.8271875 13.1875 4.5 C12.30028063 7.93341744 11.98028019 11.14931184 11.8125 14.6875 C11.37480102 20.12855112 9.88761637 24.17463836 6.125 28.1875 C1.40218439 31.98522801 -2.43823301 32.90463392 -8.25 33.625 C-14.77567517 34.60134247 -19.72174852 35.85631483 -24.875 40.1875 C-26.11636719 41.09435547 -26.11636719 41.09435547 -27.3828125 42.01953125 C-35.0704283 48.70703402 -36.71947899 58.91852091 -37.94140625 68.5234375 C-39.34090981 74.01604982 -41.98544417 76.9997792 -46.74609375 79.9921875 C-50.183924 81.30551591 -53.28628237 81.87546633 -56.9375 82.3125 C-60.95800047 82.81015152 -64.91340933 83.33377347 -68.875 84.1875 C-73.23905643 72.73185188 -71.64979776 58.26666834 -67.01220703 47.11230469 C-57.35128995 25.83994053 -43.09515351 10.54403122 -20.875 2.1875 C-13.88257508 -0.05434616 -7.30699912 -0.08015761 0 0 Z " fill="#88E595" transform="translate(199.875,355.8125)"/>
<path d="M0 0 C7.97315099 9.84918652 6.85881442 24.00895924 6 36 C5.41768146 39.90469407 4.4461442 43.33527314 3 47 C2.47212891 48.45212891 2.47212891 48.45212891 1.93359375 49.93359375 C-4.94267777 67.74835661 -17.17833652 82.68443893 -34.6875 90.875 C-53.20644085 98.61346232 -70.89660686 98.90228974 -90 93 C-90 92.01 -90 91.02 -90 90 C-88.72125 89.71125 -87.4425 89.4225 -86.125 89.125 C-85.30257812 88.93808594 -84.48015625 88.75117188 -83.6328125 88.55859375 C-81.9275482 88.19679435 -80.21339909 87.87380079 -78.4921875 87.59765625 C-69.96769683 86.19472283 -62.69688187 83.01722661 -57.27734375 76.06640625 C-53.57429271 70.07584355 -51.99376808 63.59247474 -51 56.6875 C-50.07238752 50.50608235 -48.36949815 46.86880062 -43.375 42.9296875 C-39.39937677 40.65658811 -36.22320504 40.1628443 -31.75 39.625 C-21.97158696 38.15860569 -14.34265538 34.79689984 -8.17578125 26.75390625 C-3.86367177 20.32155689 -3.31604424 13.86960399 -2.52734375 6.328125 C-2 3 -2 3 0 0 Z " fill="#88E594" transform="translate(265,400)"/>
<path d="M0 0 C0.66 0 1.32 0 2 0 C3.375 1.43359375 3.375 1.43359375 5 3.4375 C7.69380791 6.62534575 10.50745589 9.44669958 13.63973999 12.20281982 C18.79548273 16.79415416 23.79702388 21.52345456 28.76416016 26.31738281 C30.141604 27.6440094 30.141604 27.6440094 31.546875 28.99743652 C39.9404966 37.09085348 48.27413974 45.24567978 56.58954811 53.41936111 C62.16045507 58.89299804 67.74967829 64.34497084 73.38818359 69.74902344 C78.33800909 74.49309253 83.24885739 79.27378513 88.11760557 84.10107684 C90.68532333 86.64448565 93.26741115 89.16706766 95.89723587 91.64633942 C113.88926178 108.64697076 113.88926178 108.64697076 114.36359215 120.02280807 C114.22055624 124.11229873 113.7504632 127.97606291 113 132 C109.26674671 130.43984014 106.8883221 128.1422685 104.03924561 125.29994202 C103.31133029 124.57776502 103.31133029 124.57776502 102.56870961 123.84099859 C100.94564091 122.22823994 99.32980047 120.60843111 97.71386719 118.98852539 C96.55113711 117.83014275 95.38798985 116.67217874 94.22445679 115.51460266 C91.06710252 112.3706427 87.91618832 109.22030263 84.76679134 106.06837392 C82.13907956 103.43959323 79.50839929 100.81379319 76.87775731 98.18794531 C70.67493447 91.99621805 64.47745659 85.79917615 58.28320312 79.59887695 C51.88552939 73.19515533 45.47871669 66.80068236 39.06738925 60.41063315 C33.56725897 54.92808911 28.0729213 49.43978748 22.58320737 43.94681352 C19.30243659 40.66422579 16.01945567 37.38392653 12.73085785 34.10917854 C9.64127682 31.03212369 6.55896599 27.94797052 3.48219681 24.85810661 C2.34957813 23.72311162 1.21437401 22.59069016 0.07646561 21.46099854 C-1.47175934 19.92315319 -3.01053047 18.37644039 -4.54718018 16.82704163 C-5.84464613 15.52982728 -5.84464613 15.52982728 -7.16832352 14.20640659 C-9 12 -9 12 -9 9 C-7.28515625 7.24609375 -7.28515625 7.24609375 -5.0625 5.4375 C-2.07351045 3.08714476 -2.07351045 3.08714476 0 0 Z " fill="#DAE4EC" transform="translate(158,202)"/>
<path d="M0 0 C45.21 0 90.42 0 137 0 C137 4.95 137 9.9 137 15 C126.77 15 116.54 15 106 15 C106 17.64 106 20.28 106 23 C101.05 23 96.1 23 91 23 C91 25.64 91 28.28 91 31 C85.72 31 80.44 31 75 31 C75 28.36 75 25.72 75 23 C70.38 23 65.76 23 61 23 C61 20.36 61 17.72 61 15 C42.19 15 23.38 15 4 15 C1 4 1 4 0 0 Z " fill="#F6D600" transform="translate(360,406)"/>
<path d="M0 0 C1.04542969 -0.03996094 2.09085938 -0.07992188 3.16796875 -0.12109375 C13.71982962 1.49617967 20.32507228 8.29512206 27.4375 15.75 C28.80068359 17.14702148 28.80068359 17.14702148 30.19140625 18.57226562 C32.41036739 20.84962048 34.61671023 23.13783371 36.8125 25.4375 C16.54473642 49.46206088 16.54473642 49.46206088 2.96875 51.9609375 C-4.91998029 52.42628395 -11.37339816 49.80626414 -17.26171875 44.60546875 C-22.59414589 38.93766884 -25.21421554 33.32921942 -25.6875 25.5625 C-25.42102845 18.6129219 -22.7170222 13.17286036 -18.02734375 8.1015625 C-12.32613887 2.82866182 -7.90556419 0.16369621 0 0 Z " fill="#88E595" transform="translate(75.1875,400.5625)"/>
<path d="M0 0 C7.7426573 4.03903964 12.39090832 8.98278849 15.125 17.3125 C16.48149664 25.61557216 15.02719488 32.46837286 10.125 39.3125 C4.46887244 45.58393851 -1.62277341 49.34336469 -10.1875 49.8125 C-17.07892148 50.06578348 -23.19890233 46.57903699 -28.33325195 42.23046875 C-30.74554422 39.89594458 -33.07215906 37.50490706 -35.375 35.0625 C-36.94602286 33.43046654 -38.51884704 31.8001645 -40.09375 30.171875 C-40.77373047 29.45483398 -41.45371094 28.73779297 -42.15429688 27.99902344 C-43.781982 26.23121917 -43.781982 26.23121917 -45.875 25.3125 C-45.29605525 21.67320165 -43.91328622 19.96562203 -41.33984375 17.37890625 C-40.61216797 16.64736328 -39.88449219 15.91582031 -39.13476562 15.16210938 C-38.36841797 14.40736328 -37.60207031 13.65261719 -36.8125 12.875 C-35.70358398 11.74868164 -35.70358398 11.74868164 -34.57226562 10.59960938 C-24.8917839 0.96994383 -13.90258299 -5.86367446 0 0 Z " fill="#89E595" transform="translate(334.875,402.6875)"/>
<path d="M0 0 C1.06816445 0.86807601 2.12918085 1.74494783 3.1875 2.625 C3.77917969 3.11226562 4.37085937 3.59953125 4.98046875 4.1015625 C7.54686166 6.51407112 9.74508093 9.29409712 12 12 C-3.84 27.84 -19.68 43.68 -36 60 C-28.04906442 63.97546779 -20.33977677 64.29757806 -11.5625 64.1875 C-10.58990234 64.18685547 -9.61730469 64.18621094 -8.61523438 64.18554688 C-2.35768724 64.14792635 3.78698966 63.74011048 10 63 C6.81042884 65.48115736 3.8222389 67.05007036 0.0625 68.5625 C-0.95714844 68.97628906 -1.97679687 69.39007813 -3.02734375 69.81640625 C-4.00832031 70.20699219 -4.98929688 70.59757812 -6 71 C-7.20849609 71.53947266 -7.20849609 71.53947266 -8.44140625 72.08984375 C-22.92393941 77.24164562 -42.73765434 75.44004282 -57.0234375 70.484375 C-60.02988296 68.98509774 -61.70947503 67.40828816 -64 65 C-62.81942772 63.82275864 -62.81942772 63.82275864 -61.61500549 62.62173462 C-54.21048869 55.23745953 -46.808591 47.85056813 -39.40927219 40.46108437 C-35.60481777 36.66185614 -31.79943556 32.86356684 -27.99194336 29.06738281 C-24.31989678 25.40617441 -20.65027407 21.74255289 -16.98234367 18.07722092 C-15.58013517 16.67686498 -14.17704456 15.27739177 -12.7730732 13.87880325 C-10.81197295 11.92492573 -8.85398767 9.96797808 -6.89672852 8.01025391 C-6.31122726 7.42834793 -5.72572601 6.84644196 -5.1224823 6.24690247 C-2.20152271 3.39629605 -2.20152271 3.39629605 0 0 Z " fill="#E11742" transform="translate(120,144)"/>
<path d="M0 0 C20.13 0 40.26 0 61 0 C61 19.8 61 39.6 61 60 C40.87 60 20.74 60 0 60 C0 40.2 0 20.4 0 0 Z M16 1 C16 15.52 16 30.04 16 45 C30.52 45 45.04 45 60 45 C60 30.48 60 15.96 60 1 C45.48 1 30.96 1 16 1 Z " fill="#A15355" transform="translate(285,91)"/>
<path d="M0 0 C19.47 0 38.94 0 59 0 C59 4.62 59 9.24 59 14 C44.48 14 29.96 14 15 14 C15 32.15 15 50.3 15 69 C3 75 3 75 0 76 C0 50.92 0 25.84 0 0 Z " fill="#F6D600" transform="translate(286,279)"/>
<path d="M0 0 C4.95 0 9.9 0 15 0 C15 15.18 15 30.36 15 46 C29.52 46 44.04 46 59 46 C59 30.82 59 15.64 59 0 C59.33 0 59.66 0 60 0 C60 20.46 60 40.92 60 62 C40.2 62 20.4 62 0 62 C0 41.54 0 21.08 0 0 Z " fill="#A35456" transform="translate(286,15)"/>
<path d="M0 0 C20.13 0 40.26 0 61 0 C61 0.33 61 0.66 61 1 C45.82 1 30.64 1 15 1 C15 15.52 15 30.04 15 45 C30.18 45 45.36 45 61 45 C61 49.95 61 54.9 61 60 C40.87 60 20.74 60 0 60 C0 40.2 0 20.4 0 0 Z " fill="#A95759" transform="translate(436,166)"/>
<path d="M0 0 C20.13 0 40.26 0 61 0 C61 0.33 61 0.66 61 1 C45.82 1 30.64 1 15 1 C15 15.52 15 30.04 15 45 C30.18 45 45.36 45 61 45 C61 49.95 61 54.9 61 60 C40.87 60 20.74 60 0 60 C0 40.2 0 20.4 0 0 Z " fill="#A65557" transform="translate(436,91)"/>
<path d="M0 0 C4.95 0 9.9 0 15 0 C15 15.18 15 30.36 15 46 C29.52 46 44.04 46 59 46 C59 30.82 59 15.64 59 0 C59.33 0 59.66 0 60 0 C60 20.13 60 40.26 60 61 C40.2 61 20.4 61 0 61 C0 40.87 0 20.74 0 0 Z " fill="#A85658" transform="translate(361,15)"/>
<path d="M0 0 C4.95 0 9.9 0 15 0 C15 14.85 15 29.7 15 45 C29.52 45 44.04 45 59 45 C59 30.15 59 15.3 59 0 C59.33 0 59.66 0 60 0 C60 19.8 60 39.6 60 60 C40.2 60 20.4 60 0 60 C0 40.2 0 20.4 0 0 Z " fill="#A75658" transform="translate(361,166)"/>
<path d="M0 0 C4.95 0 9.9 0 15 0 C15 14.85 15 29.7 15 45 C29.52 45 44.04 45 59 45 C59 30.15 59 15.3 59 0 C59.33 0 59.66 0 60 0 C60 19.8 60 39.6 60 60 C40.2 60 20.4 60 0 60 C0 40.2 0 20.4 0 0 Z " fill="#A75658" transform="translate(286,166)"/>
<path d="M0 0 C4.95 0 9.9 0 15 0 C15 15.18 15 30.36 15 46 C30.18 46 45.36 46 61 46 C61 50.95 61 55.9 61 61 C40.87 61 20.74 61 0 61 C0 40.87 0 20.74 0 0 Z " fill="#A95759" transform="translate(436,15)"/>
<path d="M0 0 C4.95 0 9.9 0 15 0 C15 14.52 15 29.04 15 44 C29.52 44 44.04 44 59 44 C59 29.48 59 14.96 59 0 C59.33 0 59.66 0 60 0 C60 19.47 60 38.94 60 59 C40.2 59 20.4 59 0 59 C0 39.53 0 20.06 0 0 Z " fill="#A85658" transform="translate(361,92)"/>
<path d="M0 0 C0.33 0 0.66 0 1 0 C1.17612541 4.29113745 1.28146572 8.58133098 1.375 12.875 C1.42527344 14.07898438 1.47554687 15.28296875 1.52734375 16.5234375 C1.66382202 24.89410461 0.32040688 30.43358067 -5 37 C-7.75 39.5 -7.75 39.5 -10 41 C-10.66 41.66 -11.32 42.32 -12 43 C-11.34 44.98 -10.68 46.96 -10 49 C-15.36000789 51.25684543 -19.1977825 52.36263859 -25 52 C-25 49.69 -25 47.38 -25 45 C-26.134375 44.95875 -27.26875 44.9175 -28.4375 44.875 C-35.62901906 43.94583028 -41.03979524 39.57470603 -45.4375 34 C-48.73803607 29.20005143 -50.34581416 24.87884067 -50 19 C-48.70449219 19.23783203 -48.70449219 19.23783203 -47.3828125 19.48046875 C-34.53704735 21.45331721 -22.93174756 19.45561914 -12.2421875 11.859375 C-8.56773081 8.81226458 -5.2643282 5.42471376 -1.96875 1.9765625 C-1.3190625 1.32429688 -0.669375 0.67203125 0 0 Z " fill="#88E595" transform="translate(113,446)"/>
<path d="M0 0 C5.61120494 4.03559486 9.03368502 8.94724575 11.15625 15.55078125 C11.34375 19.48828125 11.34375 19.48828125 11.15625 22.55078125 C9.89554687 22.31294922 9.89554687 22.31294922 8.609375 22.0703125 C-1.4218865 20.56108424 -10.84826326 20.57058098 -19.84375 25.55078125 C-20.58882813 25.96328125 -21.33390625 26.37578125 -22.1015625 26.80078125 C-27.79587816 30.29276577 -32.27517255 34.76143632 -36.875 39.57421875 C-37.84953125 40.55261719 -37.84953125 40.55261719 -38.84375 41.55078125 C-39.17375 41.55078125 -39.50375 41.55078125 -39.84375 41.55078125 C-39.99063806 37.42616444 -40.07835044 33.30223201 -40.15625 29.17578125 C-40.19814453 28.01949219 -40.24003906 26.86320312 -40.28320312 25.671875 C-40.40480531 17.06243998 -39.0536478 10.15670336 -33.10229492 3.64550781 C-23.80887078 -5.07150458 -11.08186909 -6.38646676 0 0 Z " fill="#87E494" transform="translate(325.84375,365.44921875)"/>
<path d="M0 0 C5.7871711 3.70694435 10.12432576 8.95469878 12.29296875 15.46875 C12.52001953 18.4230957 12.52001953 18.4230957 12.48828125 21.64453125 C12.48183594 22.80146484 12.47539063 23.95839844 12.46875 25.15039062 C12.45199219 26.34857422 12.43523437 27.54675781 12.41796875 28.78125 C12.40894531 29.99876953 12.39992187 31.21628906 12.390625 32.47070312 C12.36709912 35.47025274 12.33422528 38.46940044 12.29296875 41.46875 C8.60884434 39.76170806 6.53512335 37.73512006 3.79296875 34.71875 C-3.27410638 27.49486107 -11.61622043 22.74216235 -21.8671875 22.39575195 C-24.27313736 22.37064855 -26.67609895 22.38130812 -29.08203125 22.40625 C-29.91347656 22.41076172 -30.74492188 22.41527344 -31.6015625 22.41992188 C-33.63675022 22.43161836 -35.67190048 22.44955065 -37.70703125 22.46875 C-37.99513485 15.23123839 -37.45413498 11.12006397 -32.70703125 5.46875 C-23.75114156 -3.73194761 -11.79386407 -5.3870831 0 0 Z " fill="#88E494" transform="translate(101.70703125,364.53125)"/>
<path d="M0 0 C0.66334351 0.56920166 0.66334351 0.56920166 1.34008789 1.14990234 C2.59367418 2.22507749 3.84768691 3.29975556 5.10205078 4.37402344 C6.67220603 5.71917831 8.24062933 7.06635455 9.80859375 8.4140625 C17.11967563 14.56275841 24.1641921 20.15512028 34.10546875 20.09765625 C35.57983398 20.09282227 35.57983398 20.09282227 37.08398438 20.08789062 C38.10814453 20.07951172 39.13230469 20.07113281 40.1875 20.0625 C41.22326172 20.05798828 42.25902344 20.05347656 43.32617188 20.04882812 C45.88417266 20.0370401 48.44205733 20.02058515 51 20 C50.16586264 27.58519299 48.58900304 33.41099696 43 39 C35.12741293 44.83629673 26.38694635 45.33148175 17 44 C11.01521792 41.84030736 6.56552876 38.30351551 2.9375 33.1015625 C-0.29856421 25.84738522 -0.25194896 18.80247857 -0.125 11 C-0.11597656 9.93910156 -0.10695313 8.87820313 -0.09765625 7.78515625 C-0.07427524 5.18986362 -0.04150556 2.59505535 0 0 Z " fill="#53DD71" transform="translate(286,446)"/>
<path d="M0 0 C1 2 1 2 0.2578125 4.609375 C-0.11601563 5.64578125 -0.48984375 6.6821875 -0.875 7.75 C-8.25309094 28.28482654 -4.54353053 51.47193021 4 71 C-0.29 75.29 -4.58 79.58 -9 84 C-18.46554837 71.37926884 -19.73924288 53.18695795 -17.72314453 37.90087891 C-15.37686729 24.01291447 -8.99335665 10.79202797 0 0 Z " fill="#DD1742" transform="translate(33,94)"/>
<path d="M0 0 C20.13 0 40.26 0 61 0 C61 4.62 61 9.24 61 14 C40.87 14 20.74 14 0 14 C0 9.38 0 4.76 0 0 Z " fill="#F6D600" transform="translate(436,279)"/>
<path d="M0 0 C4.66026631 3.85005008 8.88577109 7.89311985 13.05151367 12.26953125 C21.73078587 21.33271913 29.14700677 28.19342994 42 30 C38.7405796 34.02634285 34.42914355 35.65404234 29.44921875 36.36328125 C21.19028084 36.77213956 14.88042869 34.28655237 8.54174805 28.91796875 C6.12945578 26.58344458 3.80284094 24.19240706 1.5 21.75 C-0.07102286 20.11796654 -1.64384704 18.4876645 -3.21875 16.859375 C-3.89873047 16.14233398 -4.57871094 15.42529297 -5.27929688 14.68652344 C-6.906982 12.91871917 -6.906982 12.91871917 -9 12 C-8.45015228 8.12488273 -6.72444669 6.40423494 -3.9375 3.75 C-3.20402344 3.04359375 -2.47054688 2.3371875 -1.71484375 1.609375 C-1.14894531 1.07828125 -0.58304687 0.5471875 0 0 Z " fill="#53DC70" transform="translate(298,416)"/>
<path d="M0 0 C0.33 0 0.66 0 1 0 C1.01417969 0.67804688 1.02835938 1.35609375 1.04296875 2.0546875 C1.50641443 11.09814094 4.37128384 19.55043833 11 26 C20.08321029 32.25941434 27.02740078 34.35143556 38 34 C33.41605951 39.32328572 28.3305852 42.3172216 21.32421875 43.421875 C13.27711737 43.83162839 6.96483374 41.50189647 0.92578125 36.16796875 C-5.04130957 29.8255892 -7.67281792 23.32724305 -7.4296875 14.6015625 C-6.5300282 9.15453439 -3.90317386 3.90317386 0 0 Z " fill="#52DA6F" transform="translate(57,409)"/>
<path d="M0 0 C1.3515625 1.6171875 1.3515625 1.6171875 2.625 3.875 C7.71807791 12.08628887 15.13864664 19.88580022 24 24 C23.18208984 24.22042969 23.18208984 24.22042969 22.34765625 24.4453125 C16.10421577 26.30233582 11.24286604 29.17010495 6 33 C-3.46866403 26.05372598 -12.77419641 17.2919014 -17 6 C-16 3 -16 3 -14.4375 1.875 C-9.74743053 0.19138532 -4.95068643 0 0 0 Z " fill="#F19200" transform="translate(153,451)"/>
<path d="M0 0 C9.73806268 0.69310055 9.73806268 0.69310055 12.64453125 3.703125 C13.07121094 4.37859375 13.49789062 5.0540625 13.9375 5.75 C17.63384749 11.47202944 22.52890466 14.09880768 29 16 C34.66403539 16.63809544 40.32537109 16.36306867 46 16 C43.53721355 19.1612658 41.32876781 21.74119327 38 24 C38.66 25.98 39.32 27.96 40 30 C34.63999211 32.25684543 30.8022175 33.36263859 25 33 C25 30.69 25 28.38 25 26 C23.865625 25.95875 22.73125 25.9175 21.5625 25.875 C14.37098094 24.94583028 8.96020476 20.57470603 4.5625 15 C1.19030756 10.09584202 -0.09975985 5.93571079 0 0 Z " fill="#53DB70" transform="translate(63,465)"/>
<path d="M0 0 C0.75539063 0.433125 1.51078125 0.86625 2.2890625 1.3125 C13.40168256 6.93387221 23.74262063 6.64933143 36 6 C35.1546781 13.68689916 33.48728448 19.20786639 28 25 C24.87037768 27.48079818 22.25220139 29.10888708 18.125 28.75 C9.87530236 24.13016932 4.06287712 18.02232128 1 9 C0.39765271 5.94297427 0.15122935 3.12540649 0 0 Z " fill="#86E393" transform="translate(301,460)"/>
<path d="M0 0 C1.27886804 3.83660412 0.4933938 5.82783414 -0.4375 9.75 C-3.64602266 24.6214484 -1.63768097 38.44927612 2 53 C-2.62 53.99 -7.24 54.98 -12 56 C-16.35932515 44.55677147 -14.79910056 30.03974871 -10.12109375 18.90869141 C-7.13251422 12.39681102 -3.75024975 6.10587537 0 0 Z " fill="#52DA6F" transform="translate(143,384)"/>
<path d="M0 0 C0.33 0.66 0.66 1.32 1 2 C7.33962896 2.99371168 13.59352506 3.15456835 20 3.125 C21.25683594 3.13080078 21.25683594 3.13080078 22.5390625 3.13671875 C28.09957859 3.12811114 33.48357515 2.70067493 39 2 C31.06945321 10.37857587 16.31179965 13.01765434 5.19482422 13.40307617 C-4.71025572 13.54254255 -13.56352218 11.91554625 -23 9 C-23 8.01 -23 7.02 -23 6 C-17.43553031 4.74350684 -11.87601025 3.57506143 -6.26171875 2.5625 C-3.95132838 1.98789514 -2.08098301 1.14287396 0 0 Z " fill="#51D86E" transform="translate(198,484)"/>
<path d="M0 0 C4.95 0 9.9 0 15 0 C15 7.26 15 14.52 15 22 C10.05 22 5.1 22 0 22 C0 14.74 0 7.48 0 0 Z " fill="#F7D700" transform="translate(286,241)"/>
<path d="M0 0 C4.95 0 9.9 0 15 0 C15 5.28 15 10.56 15 16 C9.72 16 4.44 16 -1 16 C-0.67 10.72 -0.34 5.44 0 0 Z " fill="#040300" transform="translate(436,421)"/>
<path d="M0 0 C5.28 0 10.56 0 16 0 C16 4.95 16 9.9 16 15 C10.72 15 5.44 15 0 15 C0 10.05 0 5.1 0 0 Z " fill="#F9F3F3" transform="translate(376,106)"/>
<path d="M0 0 C5.28 0 10.56 0 16 0 C16 4.95 16 9.9 16 15 C10.72 15 5.44 15 0 15 C0 10.05 0 5.1 0 0 Z " fill="#F9F3F3" transform="translate(301,31)"/>
<path d="M0 0 C3.45201639 1.47721422 5.64961936 3.43794001 8.25 6.125 C8.95640625 6.84945313 9.6628125 7.57390625 10.390625 8.3203125 C11.18726563 9.15175781 11.18726563 9.15175781 12 10 C11.11032656 11.08839774 10.21288426 12.17044608 9.3125 13.25 C8.81363281 13.85328125 8.31476563 14.4565625 7.80078125 15.078125 C6 17 6 17 1 21 C-2.3 17.7 -5.6 14.4 -9 11 C-7.25323081 7.50646162 -6.08594785 5.86054237 -3.375 3.25 C-2.74335937 2.63640625 -2.11171875 2.0228125 -1.4609375 1.390625 C-0.73777344 0.70226562 -0.73777344 0.70226562 0 0 Z " fill="#F9FDFA" transform="translate(76,416)"/>
<path d="M0 0 C4.95 0 9.9 0 15 0 C15 4.95 15 9.9 15 15 C10.05 15 5.1 15 0 15 C0 10.05 0 5.1 0 0 Z " fill="#FEFAFB" transform="translate(39,114)"/>
<path d="M0 0 C3.45201639 1.47721422 5.64961936 3.43794001 8.25 6.125 C8.95640625 6.84945313 9.6628125 7.57390625 10.390625 8.3203125 C11.18726563 9.15175781 11.18726563 9.15175781 12 10 C11.11032656 11.08839774 10.21288426 12.17044608 9.3125 13.25 C8.81363281 13.85328125 8.31476563 14.4565625 7.80078125 15.078125 C6 17 6 17 1 21 C-2.3 17.7 -5.6 14.4 -9 11 C-8.071875 9.9275 -7.14375 8.855 -6.1875 7.75 C-4.0261564 5.23098725 -1.9407214 2.69544639 0 0 Z " fill="#FCFEFC" transform="translate(324,416)"/>
</svg>
